<?xml version="1.0" encoding="utf-8"?>
<!-- Generator: Adobe Illustrator 16.0.0, SVG Export Plug-In . SVG Version: 6.00 Build 0)  -->
<!DOCTYPE svg PUBLIC "-//W3C//DTD SVG 1.1//EN" "http://www.w3.org/Graphics/SVG/1.1/DTD/svg11.dtd">
<svg version="1.1" id="Layer_1" xmlns="http://www.w3.org/2000/svg" xmlns:xlink="http://www.w3.org/1999/xlink" x="0px" y="0px"
	 width="50px" height="50px" viewBox="0 0 50 50" enable-background="new 0 0 50 50" xml:space="preserve">
<g>
	<path d="M11.329,26.418c-0.826,0.825,0.917,3.903,3.889,6.875c2.973,2.973,6.051,4.715,6.876,3.89
		c0.825-0.825-0.916-3.904-3.889-6.876C15.232,27.334,12.153,25.593,11.329,26.418z M21.453,36.02
		c-0.495,0.495-2.902-1.111-5.376-3.584c-2.475-2.475-4.08-4.881-3.584-5.377c0.495-0.494,2.902,1.11,5.376,3.584
		c0.326,0.327,0.637,0.651,0.93,0.971c-0.079,0.031-0.162,0.077-0.253,0.154c-0.626,0.525-0.708,1.457-0.183,2.083
		c0.525,0.627,1.457,0.708,2.083,0.183c0.075-0.063,0.131-0.124,0.174-0.184C21.375,34.933,21.718,35.753,21.453,36.02z"/>
	<path d="M36.766,25.211c-1.669-0.508-3.322-1.804-4.216-2.475c-1.294-0.971-2.475-0.953-3.336-0.604
		c-0.048-0.062-0.097-0.124-0.155-0.182c-0.033-0.033-0.068-0.058-0.103-0.087c0.007-0.017,0.013-0.032,0.019-0.049
		c3.34-0.285,4.913-0.583,5.555-3.323c0.179-0.764,0.507-1.253,0.878-1.309c0.203-0.029,0.416,0.088,0.545,0.312
		c0.186,0.317,0.212,0.876-0.269,1.493l0.666,0.519c0.741-0.949,0.657-1.882,0.333-2.438c-0.305-0.521-0.856-0.805-1.401-0.721
		c-0.348,0.053-1.199,0.348-1.574,1.952c-0.467,1.995-1.291,2.342-4.292,2.627c0.376-0.688,0.876-1.501,1.368-2.298
		c1.961-3.186,3.024-5.021,2.058-5.685c-1.05-0.721-3.452,0.469-5.075,1.986c-0.802,0.75-1.391,1.541-1.784,2.337
		c-0.675-0.481-1.346-0.73-1.872-0.777c-0.726-0.062-1.299,0.213-1.537,0.746c-0.316,0.704,0.005,1.688,0.883,2.846
		c-5.893-2.717-7.828-1.621-8.302-1.174c-0.448,0.423-0.559,1.016-0.297,1.588c0.334,0.73,1.287,1.403,2.713,1.403
		c0.157,0,0.32-0.008,0.489-0.025l-0.086-0.841c-1.218,0.127-2.103-0.353-2.347-0.888c-0.11-0.241-0.074-0.45,0.108-0.622
		c0.653-0.616,3.268-0.834,8.93,2.09c-0.012,0.012-0.027,0.021-0.039,0.033c-0.08,0.08-0.147,0.164-0.213,0.25
		c-1.184-0.48-2.81-0.506-4.588,0.83c-1.229,0.923-3.502,2.705-5.799,3.404c1.446,0.708,3.149,1.953,4.776,3.58
		c1.632,1.632,2.879,3.339,3.587,4.789c0.702-2.293,2.484-4.569,3.41-5.798c1.344-1.788,1.312-3.421,0.825-4.606
		c0.083-0.064,0.166-0.13,0.243-0.208c0.159-0.158,0.283-0.333,0.387-0.514c0.053,0.072,0.112,0.143,0.178,0.208
		c0.056,0.056,0.117,0.104,0.177,0.15c-0.354,0.862-0.377,2.05,0.6,3.349c0.673,0.894,1.969,2.548,2.479,4.216
		c0.515-1.054,1.421-2.295,2.607-3.481C34.477,26.631,35.715,25.726,36.766,25.211z M27.165,21.346
		c-0.128-0.128-0.283-0.217-0.449-0.281c-0.462-0.799-0.526-1.591-0.375-2.325c0.576,0.653,1.095,1.548,1.423,2.73
		c-0.143,0.022-0.278,0.068-0.396,0.145C27.312,21.518,27.246,21.427,27.165,21.346z M28.344,15.547
		c1.669-1.561,3.557-2.224,3.999-1.93c0.226,0.501-1.404,3.146-2.279,4.568c-0.613,0.995-1.198,1.948-1.595,2.726
		c-0.436-1.365-1.099-2.388-1.827-3.093C27.098,16.815,27.863,15.997,28.344,15.547z M23.345,17.581
		c0.117-0.262,0.484-0.267,0.691-0.251c0.438,0.04,1.027,0.287,1.621,0.754c-0.313,1.01-0.281,2.007,0.108,2.928
		c-0.085,0.019-0.17,0.042-0.255,0.073C23.447,19.129,23.174,17.962,23.345,17.581z M26.418,23.437
		c-0.028,0.028-0.062,0.043-0.093,0.069c-0.175-0.287-0.372-0.535-0.572-0.735c-0.205-0.205-0.458-0.404-0.75-0.581
		c0.027-0.032,0.042-0.067,0.072-0.097c0.525-0.526,1.278-0.663,1.642-0.299C27.082,22.158,26.945,22.911,26.418,23.437z
		 M27.756,23.254c-0.129-0.129-0.212-0.277-0.274-0.425c0.067-0.254,0.08-0.505,0.042-0.742c0.007-0.008,0.008-0.02,0.015-0.028
		c0.264-0.264,0.812-0.165,1.194,0.218c0.022,0.021,0.033,0.048,0.053,0.071c-0.213,0.128-0.397,0.273-0.546,0.422
		c-0.146,0.146-0.289,0.326-0.417,0.534C27.802,23.286,27.777,23.275,27.756,23.254z"/>
	<path d="M38.728,25.421c-0.6-0.599-2.838,0.666-5,2.828c-2.162,2.161-3.427,4.4-2.828,4.999c0.6,0.601,2.838-0.666,4.999-2.828
		C38.061,28.259,39.327,26.021,38.728,25.421z M35.275,29.796c-1.799,1.798-3.549,2.966-3.909,2.606
		c-0.192-0.193,0.063-0.791,0.609-1.575c0.031,0.042,0.07,0.086,0.124,0.131c0.455,0.382,1.132,0.322,1.514-0.133
		c0.381-0.456,0.323-1.133-0.133-1.515c-0.066-0.055-0.126-0.089-0.184-0.112c0.213-0.232,0.438-0.468,0.675-0.706
		c1.799-1.799,3.549-2.965,3.909-2.606C38.241,26.247,37.074,27.997,35.275,29.796z"/>
</g>
</svg>
