<?xml version="1.0" encoding="utf-8"?>
<!-- Generator: Adobe Illustrator 16.0.0, SVG Export Plug-In . SVG Version: 6.00 Build 0)  -->
<!DOCTYPE svg PUBLIC "-//W3C//DTD SVG 1.1//EN" "http://www.w3.org/Graphics/SVG/1.1/DTD/svg11.dtd">
<svg version="1.1" id="Layer_1" xmlns="http://www.w3.org/2000/svg" xmlns:xlink="http://www.w3.org/1999/xlink" x="0px" y="0px"
	 width="50px" height="50px" viewBox="0 0 50 50" enable-background="new 0 0 50 50" xml:space="preserve">
<g>
	<path d="M17.112,20.996c0.525-0.374,1.001-0.731,1.399-1.031l0.303-0.229c1.35-1.013,2.756-1.527,4.182-1.527
		c2.165,0,3.567,1.167,4.071,1.672c0,0,0,0,0,0c0.401-0.401,1.521-1.333,3.246-1.333c1.129,0,2.24,0.404,3.301,1.201l0.229,0.173
		c0.468,0.353,1.083,0.812,1.763,1.262c0.284-0.28,0.407-0.581,0.407-0.84l0.992-5.9c0-0.725-0.88-2.082-3.827-1.773
		c-2.903,0.305-6.74,3.545-6.74,3.545s-3.857-3.115-6.74-3.545c-3.018-0.45-3.828,1.048-3.828,1.773l0.992,5.9
		C16.863,20.546,16.945,20.773,17.112,20.996z M33.179,13.898c2.136-0.304,2.855,0.624,2.855,1.159c0,0.535-0.749,1.159-2.855,1.159
		h-4.792C29.847,15.089,31.846,14.087,33.179,13.898z M19.699,13.898c1.332,0.169,3.326,1.191,4.792,2.318h-4.792
		c-2.107,0-2.855-0.624-2.855-1.159C16.844,14.522,17.598,13.629,19.699,13.898z"/>
	<path d="M35.667,29.602c0.187-0.178,0.375-0.362,0.567-0.553c2.845-2.844,4.245-5.303,4.245-5.303
		c-2.657,0.541-5.949-2.071-7.461-3.205c-2.311-1.735-4.329-0.879-5.251,0.042c-0.02,0.02-0.04,0.043-0.06,0.065
		c1.042,1.497,1.438,3.603,0.489,5.808c1.252,1.676,3.212,4.501,2.746,6.827c0,0,1.028-0.586,2.521-1.767
		c0.066,0.117,0.142,0.229,0.242,0.328c0.584,0.585,1.531,0.585,2.117,0c0.584-0.585,0.584-1.532,0-2.117
		C35.773,29.679,35.719,29.642,35.667,29.602z M33.181,23.047c-1.496-1.496-3.581-1.837-3.105-2.313
		c0.476-0.476,2.239,0.187,3.735,1.683c1.497,1.496,3.143,1.862,4.229,1.912C36.96,24.704,34.677,24.543,33.181,23.047z"/>
	<path d="M19.409,20.53c-2.003,1.503-6.365,4.963-9.887,4.247c0,0,1.856,3.258,5.625,7.028c0.253,0.253,0.503,0.496,0.751,0.732
		c-0.07,0.053-0.14,0.103-0.204,0.166c-0.775,0.774-0.775,2.03,0,2.806c0.776,0.774,2.031,0.774,2.805,0
		c0.132-0.131,0.233-0.28,0.319-0.435c1.979,1.565,3.341,2.341,3.341,2.341c-0.702-3.507,2.755-7.872,4.261-9.872
		c2.302-3.061,1.166-5.739-0.054-6.959C25.147,19.364,22.471,18.23,19.409,20.53z M19.193,23.851
		c-1.984,1.983-5.007,2.195-6.441,1.699c1.441-0.067,3.623-0.552,5.605-2.535c1.982-1.982,4.32-2.86,4.951-2.229
		C23.938,21.417,21.176,21.868,19.193,23.851z"/>
</g>
</svg>
