<?xml version="1.0" encoding="iso-8859-1"?>
<!-- Generator: Adobe Illustrator 16.0.0, SVG Export Plug-In . SVG Version: 6.00 Build 0)  -->
<!DOCTYPE svg PUBLIC "-//W3C//DTD SVG 1.1//EN" "http://www.w3.org/Graphics/SVG/1.1/DTD/svg11.dtd">
<svg version="1.1" xmlns="http://www.w3.org/2000/svg" xmlns:xlink="http://www.w3.org/1999/xlink" x="0px" y="0px" width="512px"
	 height="512px" viewBox="0 0 512 512" style="enable-background:new 0 0 512 512;" xml:space="preserve">
<g id="Artwork">
</g>
<g id="Layer_3">
	<g>
		<g>
			<g>
				<path d="M239.781,434.704"/>
			</g>
		</g>
	</g>
	<g>
		<path d="M142.866,129.229c-8.757,0.021-15.815,7.166-15.756,15.949c0.058,8.635,7.015,15.573,15.665,15.626
			c8.85,0.053,15.904-6.91,15.921-15.718C158.714,136.29,151.646,129.207,142.866,129.229z"/>
		<path d="M322.607,277.93c19.246-2.933,36.183-10.775,49.618-22.881c2.838-2.175,10.091-10.696,10.091-10.696
			c5.996-7.896-1.064-14.029-1.138-14.093c-2.988-2.53-9.129-4.217-14.097,1.189l-1.712,2.003c0,0,0,0-0.001,0
			c-25.755,30.412-68.609,30.705-99.651,17.506c-26.516-11.274-53.463-36.942-49.574-75.17c0.559-5.494-3.442-10.401-8.937-10.961
			c-5.491-0.561-10.402,3.442-10.961,8.937c-4.174,41.025,19.447,77.656,61.645,95.6c15.219,6.472,31.755,9.82,47.898,9.82
			C311.468,279.184,317.1,278.769,322.607,277.93z"/>
		<path d="M483.255,260.4c-1.985-3.502-5.874-5.476-9.875-4.999c-0.231,0.027-20.942,2.289-45.943-8.559
			c10.289-18.975,17.586-37.316,22.581-52.212c1.041-3.103,0.474-6.518-1.479-9.144c-1.953-2.627-5.095-4.131-8.361-4.029
			c-0.062,0.002-0.222,0.005-0.479,0.005c-3.784,0-38.372-0.831-87.147-29.651c-21.193-12.524-45.616-25.969-67.714-31.981
			c-4.182-5.912-8.224-11.825-12.044-17.619C256.69,77.785,222.663,53.14,182.946,53.14c-28.118,0-68.258,12.428-101.054,71.045
			c-6.706,2.864-22.323,9.525-29.805,12.652c-3.722,1.555-6.145,5.193-6.145,9.227v2.2c0,3.193,1.524,6.194,4.104,8.077
			c1.945,1.42,3.893,2.838,5.84,4.255c2.096,1.525,4.216,3.069,6.344,4.624c-1.412,0.895-2.815,1.786-4.206,2.67
			c-2.293,1.456-4.585,2.912-6.881,4.364c-3.411,2.157-5.191,6.153-4.513,10.132l0.363,2.144c0.53,3.155,2.538,5.868,5.402,7.295
			c2.234,1.113,4.47,2.224,6.706,3.333c6.183,3.069,12.548,6.229,18.792,9.428c5.079,9.912,22.449,42.126,49.432,74.738
			c18.829,22.757,38.448,40.944,58.314,54.058c1.335,0.881,2.672,1.726,4.009,2.562c-2.052-0.307-4.099-0.606-6.167-0.929
			c-79.302-12.38-142.305-32.801-142.932-33.006c-5.248-1.714-10.895,1.15-12.611,6.399c-1.715,5.25,1.149,10.896,6.398,12.611
			c0.51,0.167,41.434,13.443,98.941,25.228c-26.07,30.346-58.958,41.575-59.561,41.776c-5.242,1.717-8.105,7.355-6.396,12.602
			c1.375,4.223,5.293,6.905,9.506,6.905c1.026,0,2.071-0.16,3.1-0.495c1.888-0.615,44.831-14.989,75.496-56.496
			c8.009,1.463,16.248,2.871,24.67,4.188c41.436,6.481,80.161,9.751,115.384,9.751c5.255,0,10.438-0.072,15.535-0.219
			c7.947-0.228,15.681-0.653,23.242-1.238c-8.182,6.995-17.117,15.282-25.505,24.4l-1.43,1.572
			c-16.045,17.763-29.765,38.505-31.774,58.885c-0.542,5.497,3.474,10.392,8.97,10.934c0.334,0.033,0.665,0.049,0.993,0.049
			c5.081,0,9.431-3.857,9.94-9.02c1.361-13.808,10.794-29.026,22.991-43.246c6.806,3.214,18.297,11.005,22.708,28.097
			c1.164,4.51,5.224,7.504,9.676,7.504c0.827,0,1.668-0.104,2.506-0.32c5.347-1.38,8.564-6.833,7.184-12.181
			c-5.297-20.527-17.778-31.969-27.919-38.105c14.853-14.485,30.712-26.697,40.538-33.433c23.588-4.209,44.766-10.502,63.311-18.859
			c5.035-2.27,7.277-8.19,5.008-13.226c-2.269-5.035-8.191-7.278-13.226-5.008c-26.647,12.01-59.683,19.402-98.114,22.141
			c18.872-8.505,36.3-20.452,52.183-35.795c5.084,1.07,10.574,1.613,16.34,1.613c10.868,0,22.683-1.891,34.447-5.628
			c20.822-6.615,38.825-18.262,49.39-31.953C484.933,268.255,485.241,263.903,483.255,260.4z M373.499,288.168l-2.478,2.523
			c-26.132,26.131-61.333,45.966-108.4,48.019c-96.548-0.211-167.544-144.422-168.249-145.876c-0.94-1.945-2.485-3.533-4.404-4.526
			c-4.938-2.558-9.945-5.077-14.898-7.547c3.377-2.137,6.785-4.281,10.163-6.374c2.81-1.74,4.578-4.757,4.724-8.059
			s-1.348-6.462-3.993-8.444c-3.892-2.917-7.842-5.822-11.758-8.684c9.276-3.942,18.571-7.917,18.718-7.98
			c2.078-0.888,3.793-2.453,4.867-4.441c22.49-41.633,51.936-63.639,85.154-63.639c32.103,0,60.423,20.776,73.151,40.08
			c4.599,6.975,9.506,14.112,14.585,21.214c1.408,1.969,3.483,3.36,5.839,3.916c20.56,4.847,45.995,18.941,65.858,30.68
			c37.509,22.164,67.672,29.221,84.324,31.438c-5.224,13.786-12.092,29.129-20.986,44.437l-1.463,2.49
			C395.848,261.505,385.695,275.511,373.499,288.168z M399.218,289.072c6.669-8.09,12.653-16.461,18.016-24.876
			c11.825,5.397,22.989,8.309,32.333,9.834C434.834,283.179,415.723,288.95,399.218,289.072z"/>
	</g>
</g>
</svg>
