<?xml version="1.0" encoding="iso-8859-1"?>
<!-- Generator: Adobe Illustrator 16.0.0, SVG Export Plug-In . SVG Version: 6.00 Build 0)  -->
<!DOCTYPE svg PUBLIC "-//W3C//DTD SVG 1.1//EN" "http://www.w3.org/Graphics/SVG/1.1/DTD/svg11.dtd">
<svg version="1.1" xmlns="http://www.w3.org/2000/svg" xmlns:xlink="http://www.w3.org/1999/xlink" x="0px" y="0px" width="512px"
	 height="512px" viewBox="0 0 512 512" style="enable-background:new 0 0 512 512;" xml:space="preserve">
<g id="Artwork">
</g>
<g id="Layer_3">
	<path d="M482.316,339.055l-7.329-23.138c-0.538,0.17-54.849,17.158-135.373,24.276c-17.905,1.583-38.021,2.728-59.782,2.99
		c40.131-5.182,73.787-23.102,101.436-52.812c64.445,0.913,87.96-18.331,93.432-28.841c0.657-1.261,2.219-5.609,2.219-6.588
		c-1.621-0.027-16.612,6.111-34.449,3.877c-13.017-1.629-26.808-7.107-40.864-15.359c17.092-15.02,26.635-34.01,31.713-43.991
		l7.387-17.21c0,0-37.948,1.541-93.071-31.031c-24.39-14.414-48.363-27.021-68.65-31.804c-5.087-7.113-9.897-14.118-14.37-20.901
		c-29.249-44.36-117.857-82.308-175.452,24.311c0,0-23.269,9.95-33.051,14.038v2.2c8.021,5.856,16.079,11.667,24.025,17.622
		c-7.866,4.873-15.656,9.872-23.479,14.819c0.123,0.722,0.246,1.444,0.368,2.169c9.52,4.744,19.072,9.424,28.514,14.313
		c0.507,0.262,1.023,0.67,1.481,1.151c3.862,21.19,11.319,41.361,21.813,60.654c25.813,47.463,64.545,78.348,117.406,90.95
		c0.661,0.158,1.287,0.471,1.676,0.615c-0.043,0.227-0.084,0.451-0.126,0.676c-57.354-3.233-121.912-13.554-186.441-37.316
		l-8.387,22.775c19.712,7.259,39.414,13.297,58.921,18.311c-27.723,15.36-57.565,38.409-62.196,42.026l14.939,19.128
		c46.252-38.214,84.111-52.818,84.111-52.818c50.65,9.935,99.087,13.37,141.804,13.37c26.148,0,50.155-1.284,71.216-3.146
		c22.335-1.975,42.643-4.663,60.451-7.552c-5.622,8.867-15.676,20.223-33.403,29.94c-13.979,7.663-30.521,9.264-48.036,10.961
		c-28.001,2.711-59.739,5.784-80.983,36.984l20.062,13.661c12.839-18.858,31.367-23.026,52.953-25.437l-13.365,22.889l20.96,12.237
		l22.431-38.42c12.786-1.87,25.539-4.956,37.645-11.591c35.488-19.453,47.369-45.611,50.944-56.524
		C462.496,345.259,481.001,339.471,482.316,339.055z M142.943,151.612c-8.65-0.052-15.607-6.991-15.665-15.625
		c-0.059-8.783,6.999-15.928,15.756-15.949c8.78-0.022,15.848,7.06,15.83,15.857C158.848,144.702,151.793,151.665,142.943,151.612z
		 M222.313,162.726c8.83-86.806,136.313,43.021,185.979,33.365c-5.835,11.453-11.236,22.402-19.174,31.774
		c7.938-9.372-15.116,17.85,0,0C336.975,289.436,213.708,247.303,222.313,162.726z"/>
</g>
</svg>
