<?xml version="1.0" encoding="iso-8859-1"?>
<!-- Generator: Adobe Illustrator 16.0.0, SVG Export Plug-In . SVG Version: 6.00 Build 0)  -->
<!DOCTYPE svg PUBLIC "-//W3C//DTD SVG 1.1//EN" "http://www.w3.org/Graphics/SVG/1.1/DTD/svg11.dtd">
<svg version="1.1" xmlns="http://www.w3.org/2000/svg" xmlns:xlink="http://www.w3.org/1999/xlink" x="0px" y="0px" width="512px"
	 height="512px" viewBox="0 0 512 512" style="enable-background:new 0 0 512 512;" xml:space="preserve">
<g id="Artwork">
</g>
<g id="Layer_2">
	<g>
		<path d="M372.214,166.869v-53.527c3.482-1.563,5.908-5.063,5.908-9.127V40.826c0-5.522-4.477-10-10-10h-61.241
			c-5.523,0-10,4.478-10,10v63.389c0,4.064,2.426,7.563,5.908,9.127v53.527c-21.314,12.323-34.768,35.284-34.768,60.182v242.498
			c0,5.522,4.477,10,10,10h118.96c5.523,0,10-4.478,10-10V227.051C406.982,202.153,393.528,179.192,372.214,166.869z
			 M358.123,50.826v43.389h-41.241V50.826H358.123z M386.982,459.549h-98.96V227.051c0-19.3,11.355-36.968,28.929-45.011
			c3.557-1.628,5.838-5.181,5.838-9.093v-58.732h29.425v58.732c0,3.912,2.281,7.465,5.838,9.093
			c17.574,8.043,28.929,25.711,28.929,45.011V459.549z"/>
		<path d="M245.366,293.713H114.292c-5.523,0-10,4.478-10,10v9.979c0,40.343,24.3,81.963,65.537,87.8v48.925
			c-16.693,1.195-29,5.309-29,10.203c0,5.828,17.46,10.555,39,10.555c21.539,0,39-4.727,39-10.555c0-4.895-12.307-9.008-29-10.203
			v-48.925c41.236-5.837,65.536-47.457,65.536-87.8v-9.979C255.366,298.19,250.889,293.713,245.366,293.713z M179.83,382.193
			c-38.297,0-55.529-40.037-55.537-68.48h111.073C235.357,342.156,218.126,382.193,179.83,382.193z"/>
	</g>
</g>
</svg>
