<?xml version="1.0" encoding="utf-8"?>
<!-- Generator: Adobe Illustrator 16.0.4, SVG Export Plug-In . SVG Version: 6.00 Build 0)  -->
<!DOCTYPE svg PUBLIC "-//W3C//DTD SVG 1.1//EN" "http://www.w3.org/Graphics/SVG/1.1/DTD/svg11.dtd">
<svg version="1.1" id="Layer_1" xmlns="http://www.w3.org/2000/svg" xmlns:xlink="http://www.w3.org/1999/xlink" x="0px" y="0px"
	 width="16px" height="24px" viewBox="0 0 16 24" enable-background="new 0 0 16 24" xml:space="preserve">
<path d="M16,21l-3.126,3H3.126L0,21H16z M4.018,18.061c0,0.51,0.432,0.924,0.982,0.924V20h6v-4.203c0,0-1.359-0.387-1.359-2.156
	c0,1.334,1.346,1.322,1.346,1.322c0.552,0,0.996-0.413,0.996-0.923c0-0.96-0.981-1.024-0.981-2.462c0-0.766,0.981-1.172,0.981-1.578
	c0-0.51-0.289-1-1.981-1c-2.519,0-4.283-1-5-1S4,8.422,4,9c0,0.812,1,1.381,1,3C5,17.605,4.018,17.098,4.018,18.061z M7.79,8
	C7.314,7.854,6.958,7.221,6.958,6.463C6.958,5.596,8,3.847,8,3.847s1.042,1.749,1.042,2.616C9.042,7.221,8.686,7.854,8.21,8
	C9.215,7.84,10,6.575,10,5.02C10,3.356,8,0,8,0S6,3.356,6,5.02C6,6.575,6.785,7.84,7.79,8z"/>
</svg>
