<?xml version="1.0" encoding="utf-8"?>
<!-- Generator: Adobe Illustrator 15.0.0, SVG Export Plug-In . SVG Version: 6.00 Build 0)  -->
<!DOCTYPE svg PUBLIC "-//W3C//DTD SVG 1.1//EN" "http://www.w3.org/Graphics/SVG/1.1/DTD/svg11.dtd">
<svg version="1.1" id="Capa_1" xmlns="http://www.w3.org/2000/svg" xmlns:xlink="http://www.w3.org/1999/xlink" x="0px" y="0px"
	 width="600px" height="600px" viewBox="0 0 600 600" enable-background="new 0 0 600 600" xml:space="preserve">
<path fill="#222221" d="M441.121,207.114h-34.004c2.794-2.854,5.178-6.141,7.062-9.792c4.952-9.6,5.869-20.554,2.583-30.843
	c-5.361-16.785-20.844-27.631-39.444-27.631c-3.588,0-7.207,0.417-10.755,1.239c-17.471,4.05-42.119,17.472-58.203,32.503
	c0.459-4.396,1.508-10.85,3.9-17.287c5.103-13.73,13.55-20.404,25.824-20.404c4.418,0,8-3.582,8-8s-3.582-8-8-8
	c-16.824,0-30.14,8.65-38.084,24.521c-7.943-15.872-21.259-24.521-38.083-24.521c-4.418,0-8,3.582-8,8s3.582,8,8,8
	c24.792,0,29.153,29.135,29.919,39.609c-15.708-15.434-41.219-29.605-60.041-34.382c-3.68-0.934-7.447-1.407-11.195-1.407
	c-18.406,0-33.778,10.896-39.164,27.76c-3.286,10.289-2.369,21.243,2.583,30.843c1.884,3.651,4.268,6.937,7.061,9.792h-32.2
	c-4.418,0-8,3.582-8,8v63.58c0,4.418,3.582,8,8,8h20.631V473.1c0,4.418,3.582,8,8,8h224.98c4.418,0,8-3.582,8-8V286.694h20.631
	c4.418,0,8-3.582,8-8v-63.58C449.121,210.696,445.539,207.114,441.121,207.114z M370.176,155.675
	c2.365-0.548,4.768-0.826,7.142-0.826c11.679,0,20.952,6.322,24.202,16.499c1.986,6.218,1.433,12.837-1.561,18.639
	s-8.066,10.091-14.285,12.077c-7.604,2.429-27.05,5.05-45.212,5.05c-0.001,0-0.004,0-0.005,0c-23.976,0-31.678-4.4-32.467-5.895
	c-0.243-0.759,0.049-2.657,1.669-5.507C317.936,181.154,349.042,160.574,370.176,155.675z M196.678,171.348
	c3.226-10.101,12.615-16.627,23.922-16.627c2.422,0,4.865,0.308,7.26,0.916c22.187,5.63,52.88,25.941,60.818,40.247
	c1.514,2.727,1.782,4.545,1.548,5.289c-0.808,1.542-8.51,5.941-32.484,5.941c-18.165,0-37.615-2.621-45.219-5.05
	c-6.219-1.986-11.291-6.275-14.284-12.077S194.691,177.566,196.678,171.348z M166.879,223.114H292v47.58H187.51h-20.631V223.114z
	 M195.51,286.694H292V465.1h-96.49V286.694z M404.49,465.1H308V286.694h96.49V465.1z M433.121,270.694H412.49H308v-47.58h125.121
	V270.694z"/>
</svg>
