<?xml version="1.0" encoding="utf-8"?>
<!-- Generator: Adobe Illustrator 15.0.0, SVG Export Plug-In . SVG Version: 6.00 Build 0)  -->
<!DOCTYPE svg PUBLIC "-//W3C//DTD SVG 1.1//EN" "http://www.w3.org/Graphics/SVG/1.1/DTD/svg11.dtd">
<svg version="1.1" id="Capa_1" xmlns="http://www.w3.org/2000/svg" xmlns:xlink="http://www.w3.org/1999/xlink" x="0px" y="0px"
	 width="600px" height="600px" viewBox="0 0 600 600" enable-background="new 0 0 600 600" xml:space="preserve">
<path fill="#222221" d="M371.246,227.179H308v-27.566c21.284-3.793,37.498-22.422,37.498-44.779
	c0-22.304-34.702-80.127-38.659-86.646c-1.45-2.391-4.043-3.85-6.839-3.85s-5.389,1.459-6.839,3.85
	c-3.957,6.52-38.659,64.343-38.659,86.646c0,22.357,16.214,40.986,37.498,44.779v27.566h-63.246c-4.418,0-8,3.582-8,8v292.484
	c0,4.418,3.582,8,8,8h142.492c4.418,0,8-3.582,8-8V235.179C379.246,230.761,375.664,227.179,371.246,227.179z M270.502,154.833
	c0-11.412,16.053-43.204,29.498-66.718c13.445,23.514,29.498,55.306,29.498,66.718c0,16.266-13.232,29.498-29.498,29.498
	S270.502,171.099,270.502,154.833z M363.246,519.663H236.754V243.179h126.492V519.663z"/>
</svg>
