<?xml version="1.0" encoding="utf-8"?>
<!-- Generator: Adobe Illustrator 15.0.0, SVG Export Plug-In . SVG Version: 6.00 Build 0)  -->
<!DOCTYPE svg PUBLIC "-//W3C//DTD SVG 1.1//EN" "http://www.w3.org/Graphics/SVG/1.1/DTD/svg11.dtd">
<svg version="1.1" id="Capa_1" xmlns="http://www.w3.org/2000/svg" xmlns:xlink="http://www.w3.org/1999/xlink" x="0px" y="0px"
	 width="600px" height="600px" viewBox="0 0 600 600" enable-background="new 0 0 600 600" xml:space="preserve">
<g>
	<path fill="#222221" d="M526.165,372.684L312.091,158.609c-0.844-0.844-1.865-1.488-2.99-1.886l-77.195-27.283
		c-2.905-1.025-6.144-0.293-8.323,1.886l-7.954,7.953c-12.793-22.034-26.472-40.614-34.913-49.056
		c-12.088-12.09-28.161-18.747-45.256-18.747c-17.095,0-33.167,6.657-45.254,18.745c-24.953,24.954-24.953,65.558,0,90.511
		c8.333,8.333,27.312,22.201,49.084,34.888l-7.98,7.979c-2.18,2.18-2.913,5.417-1.886,8.323l27.283,77.193
		c0.398,1.125,1.042,2.146,1.886,2.992l214.075,214.074c1.562,1.561,3.609,2.342,5.656,2.342s4.095-0.781,5.656-2.342
		l142.184-142.184C529.29,380.873,529.29,375.809,526.165,372.684z M101.52,169.417c-18.714-18.714-18.714-49.167,0-67.883
		c9.066-9.066,21.119-14.059,33.94-14.059s24.875,4.993,33.942,14.061c8.25,8.249,22.122,27.592,34.5,49.47L150.97,203.94
		C129.336,191.639,109.762,177.66,101.52,169.417z M212.581,167.32c6.125,12.333,10.193,22.583,12.695,30.919
		c-6.662,1.252-12.792,4.465-17.689,9.363c-5.027,5.027-8.144,11.251-9.358,17.763c-10.028-2.983-21.284-7.812-32.545-13.511
		l46.106-46.107C212.054,166.271,212.32,166.795,212.581,167.32z M225.971,225.986c-2.145,2.145-6.246,2.595-9.311,2.595
		c-0.002,0-0.003,0-0.005,0c-0.882,0-1.795-0.038-2.729-0.102c0.621-3.505,2.271-6.861,4.974-9.564
		c2.642-2.642,5.964-4.346,9.567-4.981C228.922,220.143,227.865,224.092,225.971,225.986z M237.285,237.3
		c4.391-4.392,6.774-10.498,7.176-18.271c6.906,7.027,6.876,18.36-0.104,25.342c-3.4,3.399-7.92,5.271-12.728,5.271
		c-4.738,0-9.192-1.826-12.574-5.132C226.77,244.102,232.899,241.686,237.285,237.3z M378.325,509.211L171.189,302.074
		l-24.998-70.728l7.665-7.665c15.484,8.113,31.472,14.985,45.449,18.462c1.6,4.955,4.354,9.613,8.282,13.541
		c6.421,6.423,14.96,9.959,24.042,9.959s17.62-3.536,24.042-9.959c13.256-13.256,13.256-34.826,0-48.082
		c-3.857-3.857-8.481-6.665-13.524-8.299c-2.73-11.098-7.804-24.139-15.235-39.101c-1.057-2.128-2.138-4.242-3.235-6.341
		l7.654-7.655l70.73,24.998L509.195,378.34L378.325,509.211z"/>
	<path fill="#222221" d="M268.186,310.576c-3.124-3.123-8.189-3.123-11.313,0c-3.125,3.125-3.125,8.189,0,11.314l120.345,120.344
		c1.562,1.561,3.609,2.342,5.656,2.342s4.095-0.781,5.656-2.342c3.125-3.125,3.125-8.189,0-11.314L268.186,310.576z"/>
	<path fill="#222221" d="M295.03,283.73c-3.123-3.122-8.188-3.122-11.313,0c-3.125,3.124-3.125,8.189,0,11.314l120.345,120.346
		c1.562,1.561,3.608,2.342,5.656,2.342c2.047,0,4.095-0.781,5.656-2.342c3.125-3.125,3.125-8.189,0-11.314L295.03,283.73z"/>
	<path fill="#222221" d="M430.905,388.547c1.562,1.561,3.608,2.342,5.656,2.342c2.047,0,4.095-0.781,5.656-2.342
		c3.125-3.125,3.125-8.189,0-11.314L321.874,256.886c-3.123-3.122-8.188-3.123-11.313,0c-3.124,3.124-3.124,8.189,0,11.314
		L430.905,388.547z"/>
</g>
</svg>
