<?xml version="1.0" encoding="iso-8859-1"?>
<!-- Generator: Adobe Illustrator 16.0.0, SVG Export Plug-In . SVG Version: 6.00 Build 0)  -->
<!DOCTYPE svg PUBLIC "-//W3C//DTD SVG 1.1//EN" "http://www.w3.org/Graphics/SVG/1.1/DTD/svg11.dtd">
<svg version="1.1" xmlns="http://www.w3.org/2000/svg" xmlns:xlink="http://www.w3.org/1999/xlink" x="0px" y="0px" width="512px"
	 height="512px" viewBox="0 0 512 512" style="enable-background:new 0 0 512 512;" xml:space="preserve">
<g id="Artwork">
</g>
<g id="Layer_2">
	<g>
		<g>
			<path d="M119.34,475.742c-2.074,0-4.137-0.644-5.879-1.91c-3.08-2.238-4.623-6.029-3.979-9.781l25.143-146.589L28.121,213.648
				c-2.725-2.657-3.705-6.631-2.529-10.25c1.176-3.621,4.305-6.259,8.072-6.806l147.184-21.389L246.67,41.832
				c1.684-3.413,5.16-5.574,8.967-5.574s7.283,2.161,8.969,5.574l65.822,133.371l147.184,21.389
				c3.766,0.547,6.895,3.186,8.072,6.806c1.176,3.62,0.195,7.594-2.531,10.251l-106.5,103.815l25.141,146.588
				c0.643,3.751-0.9,7.543-3.979,9.781c-3.08,2.237-7.164,2.532-10.531,0.761l-131.646-69.209l-131.645,69.209
				C122.529,475.363,120.932,475.742,119.34,475.742z M56.592,213.47l95.758,93.341c2.357,2.297,3.432,5.607,2.877,8.851
				l-22.607,131.8l118.365-62.228c2.912-1.531,6.393-1.531,9.307,0l118.363,62.228l-22.604-131.8
				c-0.557-3.244,0.52-6.554,2.875-8.851l95.758-93.341L322.35,194.239c-3.258-0.473-6.072-2.519-7.529-5.47L255.637,68.854
				l-59.18,119.915c-1.457,2.951-4.273,4.997-7.529,5.47L56.592,213.47z M338.326,401.955c-1.592,0-3.189-0.379-4.652-1.148
				l-78.037-41.026l-78.033,41.025c-3.369,1.771-7.451,1.476-10.531-0.761s-4.621-6.029-3.979-9.781l14.902-86.894l-63.133-61.539
				c-2.725-2.657-3.705-6.631-2.529-10.251s4.305-6.258,8.072-6.806l87.246-12.679l39.018-79.059
				c1.684-3.413,5.16-5.574,8.967-5.574s7.283,2.161,8.969,5.574l39.018,79.059l87.248,12.679c3.766,0.547,6.895,3.186,8.072,6.806
				c1.176,3.62,0.195,7.594-2.531,10.251l-63.131,61.539l14.902,86.894c0.643,3.752-0.9,7.543-3.979,9.781
				C342.463,401.311,340.398,401.955,338.326,401.955z M255.637,338.483c1.6,0,3.197,0.383,4.654,1.148l64.754,34.044L312.68,301.57
				c-0.557-3.244,0.52-6.554,2.875-8.851l52.389-51.065l-72.398-10.521c-3.258-0.473-6.072-2.519-7.529-5.47l-32.379-65.604
				l-32.375,65.604c-1.457,2.951-4.273,4.997-7.529,5.47l-72.398,10.521l52.387,51.065c2.357,2.297,3.432,5.607,2.877,8.851
				l-12.367,72.104l64.754-34.043C252.439,338.866,254.039,338.483,255.637,338.483z"/>
		</g>
	</g>
</g>
</svg>
