<?xml version="1.0" encoding="iso-8859-1"?>
<!-- Generator: Adobe Illustrator 16.0.0, SVG Export Plug-In . SVG Version: 6.00 Build 0)  -->
<!DOCTYPE svg PUBLIC "-//W3C//DTD SVG 1.1//EN" "http://www.w3.org/Graphics/SVG/1.1/DTD/svg11.dtd">
<svg version="1.1" xmlns="http://www.w3.org/2000/svg" xmlns:xlink="http://www.w3.org/1999/xlink" x="0px" y="0px" width="512px"
	 height="512px" viewBox="0 0 512 512" style="enable-background:new 0 0 512 512;" xml:space="preserve">
<g id="Artwork">
</g>
<g id="Layer_3">
	<g>
		<path d="M325.387,147.442c0.127-0.637,0.196-1.295,0.196-1.97l0-11.722l0-17.586c0-3.684-2.026-7.068-5.272-8.81
			c-9.508-5.101-19.046-9.058-28.602-11.885c1.987-4.712,3.041-9.809,3.041-15.038c0-21.367-17.383-38.75-38.75-38.75
			s-38.75,17.383-38.75,38.75c0,5.229,1.055,10.326,3.042,15.039c-9.554,2.827-19.093,6.783-28.602,11.883
			c-3.247,1.742-5.273,5.127-5.273,8.812l-0.001,29.305c0,0.676,0.069,1.335,0.196,1.973
			c-58.622,26.521-99.509,85.565-99.509,153.979c0,93.13,75.767,168.897,168.897,168.897s168.897-75.767,168.897-168.897
			C424.897,233.007,384.009,173.963,325.387,147.442z M256,61.681c10.339,0,18.75,8.411,18.75,18.75
			c0,3.407-0.918,6.703-2.632,9.578h-32.235c-1.714-2.875-2.632-6.171-2.632-9.578C237.25,70.092,245.661,61.681,256,61.681z
			 M206.417,122.281c33.314-16.205,65.862-16.205,99.167,0l0,11.468l0,6.206c-15.686-4.826-32.335-7.431-49.583-7.431
			s-33.898,2.605-49.584,7.432L206.417,122.281z M256,450.319c-82.103,0-148.897-66.795-148.897-148.897
			c0-82.103,66.795-148.898,148.897-148.898s148.897,66.795,148.897,148.898C404.897,383.524,338.103,450.319,256,450.319z"/>
		<path d="M330.179,280.064c0.434,0.116,0.869,0.172,1.297,0.172c2.208,0,4.229-1.474,4.827-3.708
			c0.715-2.667-0.868-5.409-3.536-6.124l-8.372-2.243l9.236-5.332c2.392-1.381,3.211-4.438,1.83-6.83
			c-1.38-2.391-4.438-3.21-6.83-1.83l-9.236,5.333l2.243-8.372c0.715-2.667-0.868-5.409-3.536-6.124
			c-2.667-0.715-5.409,0.869-6.124,3.536l-4.831,18.031l-9.244,5.337l2.243-8.372c0.715-2.667-0.868-5.409-3.536-6.124
			c-2.668-0.716-5.409,0.868-6.124,3.536l-4.831,18.031l-10.422,6.018c-3.648-4.152-8.611-7.119-14.235-8.236v-12.017l13.199-13.201
			c1.953-1.953,1.953-5.119,0-7.071c-1.952-1.953-5.119-1.953-7.071,0L261,250.603V239.93l13.199-13.2
			c1.953-1.953,1.953-5.119,0-7.071c-1.953-1.952-5.119-1.952-7.071,0L261,225.787v-10.663c0-2.761-2.239-5-5-5s-5,2.239-5,5v10.663
			l-6.128-6.128c-1.953-1.952-5.118-1.952-7.071,0c-1.953,1.953-1.953,5.119,0,7.071L251,239.93v10.673l-6.128-6.128
			c-1.953-1.952-5.118-1.952-7.071,0c-1.953,1.953-1.953,5.118,0,7.071l13.199,13.2v12.017c-5.624,1.118-10.587,4.084-14.235,8.236
			l-10.422-6.018l-4.832-18.031c-0.715-2.667-3.455-4.25-6.124-3.535c-2.667,0.715-4.25,3.457-3.535,6.124l2.243,8.371l-9.243-5.336
			l-4.832-18.031c-0.715-2.667-3.454-4.25-6.124-3.535c-2.667,0.715-4.25,3.457-3.535,6.124l2.243,8.371l-9.235-5.332
			c-2.392-1.381-5.45-0.562-6.83,1.83c-1.381,2.392-0.562,5.449,1.83,6.83l9.236,5.332l-8.372,2.243
			c-2.667,0.714-4.25,3.456-3.536,6.124c0.599,2.234,2.619,3.708,4.827,3.708c0.428,0,0.863-0.056,1.297-0.172l18.031-4.831
			l9.243,5.336l-8.372,2.243c-2.667,0.715-4.25,3.456-3.536,6.124c0.599,2.234,2.619,3.708,4.827,3.708
			c0.428,0,0.864-0.056,1.297-0.172l18.031-4.831l10.412,6.011c-0.879,2.583-1.363,5.348-1.363,8.225s0.484,5.641,1.363,8.225
			l-10.412,6.011l-18.031-4.831c-2.667-0.714-5.409,0.869-6.124,3.536c-0.715,2.667,0.868,5.409,3.536,6.124l8.372,2.243
			l-9.243,5.336l-18.032-4.831c-2.668-0.716-5.409,0.869-6.124,3.536c-0.715,2.667,0.868,5.409,3.536,6.124l8.372,2.243
			l-9.236,5.332c-2.392,1.381-3.211,4.438-1.83,6.83c0.926,1.604,2.606,2.501,4.335,2.501c0.848,0,1.708-0.216,2.495-0.671
			l9.236-5.333l-2.243,8.372c-0.715,2.667,0.868,5.409,3.536,6.124c0.434,0.116,0.869,0.172,1.297,0.172
			c2.208,0,4.228-1.474,4.827-3.708l4.831-18.031l9.244-5.337l-2.243,8.372c-0.715,2.667,0.868,5.409,3.536,6.124
			c0.434,0.116,0.869,0.172,1.297,0.172c2.208,0,4.228-1.474,4.827-3.708l4.831-18.031l10.423-6.018
			c3.647,4.151,8.61,7.118,14.234,8.236v12.018l-13.199,13.201c-1.953,1.953-1.953,5.119,0,7.071
			c0.976,0.977,2.255,1.464,3.535,1.464s2.56-0.488,3.536-1.465l6.128-6.129v10.673l-13.199,13.2c-1.953,1.953-1.953,5.119,0,7.071
			c0.977,0.976,2.256,1.464,3.536,1.464s2.56-0.488,3.536-1.464l6.128-6.128v10.663c0,2.761,2.239,5,5,5s5-2.239,5-5v-10.663
			l6.128,6.128c1.953,1.952,5.118,1.952,7.071,0c1.953-1.953,1.953-5.119,0-7.071L261,363.824v-10.673l6.128,6.128
			c1.953,1.952,5.118,1.953,7.071,0c1.953-1.953,1.953-5.118,0-7.071L261,339.008v-12.017c5.624-1.118,10.587-4.084,14.234-8.236
			l10.423,6.018l4.832,18.031c0.599,2.234,2.619,3.707,4.827,3.707c0.428,0,0.864-0.056,1.297-0.172
			c2.667-0.715,4.25-3.457,3.535-6.124l-2.243-8.371l9.243,5.336l4.832,18.031c0.599,2.234,2.619,3.707,4.827,3.707
			c0.428,0,0.864-0.056,1.297-0.172c2.667-0.715,4.25-3.457,3.535-6.124l-2.243-8.371l9.235,5.332
			c0.788,0.455,1.647,0.671,2.495,0.671c1.728,0,3.409-0.897,4.335-2.501c1.381-2.392,0.562-5.449-1.83-6.83l-9.236-5.332
			l8.372-2.243c2.667-0.714,4.25-3.456,3.536-6.124s-3.454-4.252-6.124-3.536l-18.031,4.831l-9.243-5.336l8.371-2.243
			c2.667-0.715,4.25-3.457,3.536-6.124c-0.714-2.667-3.458-4.25-6.124-3.536l-18.03,4.831l-10.412-6.011
			c0.879-2.583,1.363-5.348,1.363-8.225s-0.484-5.641-1.363-8.225l10.412-6.011l18.031,4.831c0.434,0.116,0.869,0.172,1.297,0.172
			c2.208,0,4.228-1.474,4.827-3.708c0.715-2.667-0.868-5.409-3.536-6.124l-8.372-2.243l9.243-5.336L330.179,280.064z M256,317.485
			c-8.606,0-15.608-7.001-15.608-15.608s7.002-15.608,15.608-15.608s15.608,7.002,15.608,15.608S264.606,317.485,256,317.485z"/>
	</g>
</g>
</svg>
