<?xml version="1.0" encoding="iso-8859-1"?>
<!-- Generator: Adobe Illustrator 16.0.0, SVG Export Plug-In . SVG Version: 6.00 Build 0)  -->
<!DOCTYPE svg PUBLIC "-//W3C//DTD SVG 1.1//EN" "http://www.w3.org/Graphics/SVG/1.1/DTD/svg11.dtd">
<svg version="1.1" xmlns="http://www.w3.org/2000/svg" xmlns:xlink="http://www.w3.org/1999/xlink" x="0px" y="0px" width="512px"
	 height="512px" viewBox="0 0 512 512" style="enable-background:new 0 0 512 512;" xml:space="preserve">
<g id="Artwork">
</g>
<g id="Layer_2">
	<g>
		<path d="M444.797,412.325l-16.042-48.604c-0.382-1.157-0.973-2.235-1.742-3.181c-12.796-15.713-19.344-37.718-23.321-59.851
			c-0.015-0.437-0.048-0.876-0.122-1.318c-4.178-24.943-5.618-41.725-7.01-57.954c-1.976-23.021-3.849-44.807-13.158-85.553
			c-0.02-0.104-0.648-2.786-0.666-2.855c-6.546-27.028-21.969-52.33-43.683-71.481c-19.983-17.624-43.493-28.55-68.819-32.136
			c0.031-0.454-0.485-19.273-14.235-19.273s-14.266,18.819-14.235,19.273c-25.326,3.586-48.836,14.512-68.819,32.136
			c-21.714,19.151-37.137,44.453-43.683,71.481c-0.018,0.069-0.646,2.751-0.666,2.855c-9.309,40.746-11.182,62.531-13.158,85.553
			c-1.393,16.229-2.833,33.011-7.01,57.954c-0.074,0.442-0.107,0.882-0.122,1.318c-3.977,22.133-10.524,44.138-23.321,59.851
			c-0.77,0.945-1.36,2.023-1.742,3.181l-16.042,48.604c-0.344,1.041-0.514,2.131-0.503,3.228c0.18,19.322,16.347,33.928,48.05,43.41
			c31.285,9.357,78.783,14.102,141.177,14.102c0.024,0,0.049,0,0.073,0s0.049,0,0.073,0c12.104,0,23.64-0.181,34.613-0.537
			l-9.361-19.745c-8.108,0.187-16.52,0.282-25.252,0.282c-0.025,0-0.048,0-0.073,0s-0.048,0-0.073,0
			c-60.452,0-106.022-4.462-135.446-13.263c-12.093-3.617-32.086-11.322-33.682-23.04l13.568-41.108
			c14.833-8.765,58.27-27.717,155.633-27.227c97.363-0.49,140.8,18.462,155.633,27.227l13.568,41.108
			c-1.595,11.718-21.589,19.423-33.682,23.04c-14.224,4.254-32.233,7.492-53.862,9.704l0.502,0.707
			c4.039,5.682,5.501,12.427,4.633,18.845c21.615-2.346,39.813-5.715,54.458-10.095c31.704-9.482,47.87-24.088,48.05-43.41
			C445.311,414.456,445.141,413.366,444.797,412.325z M256,68.181c56.875,0.194,88.923,38.323,103.539,77.297
			c-34.317-4.824-69.063-7.453-103.539-7.854c-34.476,0.4-69.222,3.029-103.539,7.854C167.077,106.504,200.5,68.125,256,68.181z
			 M146.701,166.534c36.164-5.487,72.887-8.481,109.299-8.916c36.412,0.435,73.135,3.429,109.299,8.916
			c4.585,20.845,7.073,36.362,8.709,49.891c-2.199,0.972-4.326,1.434-6.499,1.409c-0.832-0.008-1.694-0.086-2.562-0.23
			c-7.777-1.303-11.528-7.189-15.979-15.363c-4.015-7.376-8.166-15.002-17.809-16.103c-9.662-1.084-15.421,5.416-20.989,11.702
			c-6.148,6.94-11.104,11.807-18.984,11.337c-7.854-0.483-12.187-5.946-17.449-13.612c-4.474-6.518-9.096-13.24-17.737-14.064
			c-8.642,0.824-13.264,7.547-17.737,14.064c-5.262,7.666-9.595,13.129-17.449,13.612c-7.881,0.47-12.836-4.396-18.984-11.337
			c-5.567-6.286-11.327-12.786-20.989-11.702c-9.644,1.101-13.794,8.727-17.809,16.103c-4.45,8.174-8.201,14.061-15.979,15.363
			c-0.868,0.145-1.73,0.223-2.562,0.23c-2.173,0.024-4.3-0.438-6.499-1.409C139.628,202.896,142.116,187.379,146.701,166.534z
			 M135.367,243.127c0.181-2.113,0.362-4.216,0.547-6.324c2.761,0.689,5.563,1.031,8.426,1.031c0.113,0,0.226,0,0.339-0.001
			c1.872-0.018,3.78-0.188,5.676-0.504c17.986-3.013,25.658-17.105,30.244-25.528c0.541-0.994,1.667-3.063,2.638-4.617
			c1.301,1.297,2.87,3.067,3.622,3.918c6.068,6.849,16.042,18.111,32.836,18.109c0.765,0,1.547-0.023,2.341-0.071
			c18.206-1.121,27.288-14.351,32.716-22.256c0.296-0.432,0.744-1.084,1.248-1.799c0.504,0.715,0.952,1.367,1.248,1.799
			c5.428,7.905,14.51,21.135,32.716,22.256c0.794,0.048,1.576,0.071,2.341,0.071c16.794,0.002,26.769-11.261,32.836-18.109
			c0.752-0.851,2.321-2.621,3.622-3.918c0.971,1.555,2.097,3.623,2.638,4.617c4.585,8.423,12.258,22.516,30.244,25.528
			c1.896,0.316,3.805,0.486,5.676,0.504c0.113,0.001,0.226,0.001,0.339,0.001c2.863,0,5.665-0.342,8.426-1.031
			c0.186,2.108,0.366,4.211,0.547,6.324c0.658,7.665,1.33,15.463,2.281,24.151c-40.624-7.734-81.9-11.87-122.915-12.285
			c-41.014,0.415-82.291,4.551-122.915,12.285C134.037,258.59,134.709,250.792,135.367,243.127z M256,328.432
			c-69.646-0.314-113.792,9.254-140.03,18.448c7.824-18.441,11.859-39.137,14.539-58.734c41.424-8.295,83.602-12.714,125.491-13.15
			c41.89,0.437,84.067,4.855,125.491,13.15c2.679,19.598,6.715,40.293,14.539,58.734C369.792,337.686,325.646,328.117,256,328.432z"
			/>
		<path d="M289.501,392.138c53.83,2.456,85.12,10.458,91.317,15.271c1.084,4.351,5.018,7.574,9.704,7.574c5.523,0,10-4.477,10-10
			c0-12.735-14.257-20.669-47.673-26.528c-25.961-4.552-60.356-7.059-96.849-7.059s-70.888,2.507-96.849,7.059
			c-33.416,5.859-47.673,13.793-47.673,26.528c0,5.523,4.477,10,10,10c4.686,0,8.62-3.224,9.704-7.574
			c7.388-5.737,50.422-16.013,124.819-16.013c1.944,0,3.854,0.011,5.755,0.025l37.758,79.639c0.458,0.95,1.045,1.971,1.677,2.859
			c6.058,8.521,17.877,10.518,26.398,4.46c8.521-6.059,10.518-17.877,4.459-26.398L289.501,392.138z"/>
	</g>
</g>
</svg>
