<?xml version="1.0" encoding="iso-8859-1"?>
<!-- Generator: Adobe Illustrator 16.0.0, SVG Export Plug-In . SVG Version: 6.00 Build 0)  -->
<!DOCTYPE svg PUBLIC "-//W3C//DTD SVG 1.1//EN" "http://www.w3.org/Graphics/SVG/1.1/DTD/svg11.dtd">
<svg version="1.1" xmlns="http://www.w3.org/2000/svg" xmlns:xlink="http://www.w3.org/1999/xlink" x="0px" y="0px" width="512px"
	 height="512px" viewBox="0 0 512 512" style="enable-background:new 0 0 512 512;" xml:space="preserve">
<g id="Artwork">
</g>
<g id="Layer_2">
	<path d="M457.857,303.346c-6.73-29.169-21.713-46.481-45.801-52.927c-20.557-5.501-45.191-2.721-73.717,0.497
		c-8.252,0.931-16.721,1.887-25.42,2.674l-30.057-84.64l8.652-3.073c2.498-0.888,4.543-2.731,5.682-5.126
		c1.141-2.395,1.281-5.144,0.395-7.644l-31.354-88.288c-1.848-5.204-7.563-7.926-12.77-6.077L57.512,128.331
		c-5.205,1.848-7.926,7.565-6.078,12.77l31.354,88.289c0.887,2.5,2.73,4.544,5.127,5.684c1.355,0.645,2.824,0.97,4.297,0.97
		c1.129,0,2.262-0.191,3.346-0.577l2.656-0.943l41.078,115.676c0.021,0.06,0.043,0.12,0.064,0.179l20.584,57.965
		c6.109,17.204,18.553,30.999,35.039,38.844c9.318,4.435,19.299,6.667,29.322,6.667c7.707,0,15.441-1.32,22.92-3.976l124.215-44.112
		c2.844-1.01,6.09-2.074,9.527-3.201c16.529-5.416,39.164-12.833,55.9-27.17C457.705,357.542,464.77,333.301,457.857,303.346z
		 M73.627,143.831l177.111-62.896l24.66,69.441L98.287,213.273L73.627,143.831z M240.527,431.032
		c-12.17,4.32-25.295,3.645-36.955-1.904c-11.662-5.549-20.463-15.308-24.785-27.477l-17.75-49.984
		c2.186-1.023,4.42-1.952,6.703-2.762c17.465-6.202,36.111-5.667,52.508,1.509c16.178,7.08,28.219,19.802,33.908,35.824
		c4.533,12.762,4.564,26.768,0.189,39.887L240.527,431.032z M374.736,383.561c-3.559,1.166-6.918,2.267-9.994,3.359l-88.025,31.26
		c1.902-12.995,0.689-26.241-3.713-38.636c-7.559-21.283-23.445-38.135-44.736-47.453c-21.072-9.222-44.943-9.945-67.221-2.034
		c-2.279,0.809-4.525,1.706-6.73,2.684L117.061,227.83l146.955-52.188l32.637,91.901c1.51,4.253,5.689,6.971,10.184,6.625
		c11.748-0.896,22.932-2.158,33.746-3.378c58.74-6.625,87.432-7.82,97.787,37.053C449.254,355.013,415.99,370.042,374.736,383.561z"
		/>
</g>
</svg>
