<?xml version="1.0" encoding="utf-8"?>
<!-- Generator: Adobe Illustrator 16.0.0, SVG Export Plug-In . SVG Version: 6.00 Build 0)  -->
<!DOCTYPE svg PUBLIC "-//W3C//DTD SVG 1.1//EN" "http://www.w3.org/Graphics/SVG/1.1/DTD/svg11.dtd">
<svg version="1.1" id="Layer_1" xmlns="http://www.w3.org/2000/svg" xmlns:xlink="http://www.w3.org/1999/xlink" x="0px" y="0px"
	 width="50px" height="50px" viewBox="0 0 50 50" enable-background="new 0 0 50 50" xml:space="preserve">
<g>
	<path d="M26.007,27.569c-0.167-3.498-0.59-7.967-1.602-12.192h-1.03c0.602,4.848,0.51,10.376,0.33,14.135
		c-0.921-2.525-2.33-5.702-4.298-8.37l-0.627,0.439c3.146,5.897,3.625,12.379,3.625,12.379h1h1h0.667h1h1
		c0,0,0.493-7.591,3.653-14.355l-0.626-0.548C28.212,21.727,26.896,24.862,26.007,27.569z"/>
	<polygon points="22.172,15.242 23.716,14.115 25.52,14.747 24.924,12.931 26.083,11.411 24.172,11.416 23.085,9.845 22.499,11.663 
		20.667,12.212 22.216,13.331 	"/>
	<polygon points="33.575,16.5 33.813,14.604 32.163,15.567 30.434,14.755 30.841,16.622 29.533,18.016 31.435,18.206 32.355,19.88 
		33.125,18.131 35.002,17.771 	"/>
	<polygon points="19.262,18.693 19.876,16.884 18.066,17.497 16.535,16.354 16.559,18.265 14.999,19.368 16.823,19.937 
		17.392,21.761 18.495,20.2 20.406,20.225 	"/>
</g>
</svg>
