<?xml version="1.0" encoding="iso-8859-1"?>
<!-- Generator: Adobe Illustrator 16.0.0, SVG Export Plug-In . SVG Version: 6.00 Build 0)  -->
<!DOCTYPE svg PUBLIC "-//W3C//DTD SVG 1.1//EN" "http://www.w3.org/Graphics/SVG/1.1/DTD/svg11.dtd">
<svg version="1.1" xmlns="http://www.w3.org/2000/svg" xmlns:xlink="http://www.w3.org/1999/xlink" x="0px" y="0px" width="512px"
	 height="512px" viewBox="0 0 512 512" style="enable-background:new 0 0 512 512;" xml:space="preserve">
<g id="Artwork">
</g>
<g id="Layer_2">
	<path d="M381.719,394.609L213.471,154.825c-1.779-2.536-2.465-5.622-1.926-8.689c0.537-3.068,2.23-5.737,4.768-7.517
		c1.961-1.376,4.26-2.104,6.65-2.104c3.811,0,7.383,1.849,9.555,4.944c8.416,11.996,22.199,19.158,36.867,19.157
		c9.275,0,18.203-2.824,25.816-8.166c9.84-6.904,16.402-17.227,18.479-29.066c2.076-11.84-0.584-23.779-7.488-33.618
		C287.199,62.7,256.049,46.54,222.863,46.54c-20.943,0-41.086,6.365-58.246,18.407c-22.191,15.57-36.996,38.887-41.689,65.654
		c-4.691,26.768,1.299,53.73,16.871,75.921l168.246,239.783c8.416,11.995,22.197,19.156,36.865,19.156
		c9.275,0,18.203-2.824,25.816-8.167C391.039,443.042,395.971,414.922,381.719,394.609z M246.039,323.116l69.65,12.211
		l29.705,42.334l-69.65-12.211L246.039,323.116z M299.443,312.174l-69.648-12.211l-29.705-42.335l69.648,12.211L299.443,312.174z
		 M142.627,134.054c1.051-5.988,2.752-11.75,5.014-17.233c6.172,6.724,15.881,13.314,30.986,18.537
		c4.859,1.68,9.639,2.999,13.98,4.029c-0.309,1.078-0.566,2.176-0.764,3.296c-1.459,8.33,0.406,16.722,5.256,23.631l10.445,14.886
		l-63.189-11.078C141.121,158.537,140.486,146.272,142.627,134.054z M289.82,101.255c3.836,5.466,5.313,12.099,4.16,18.676
		c-1.154,6.577-4.801,12.312-10.268,16.148c-4.23,2.969-9.186,4.538-14.328,4.538c-8.156,0-15.818-3.978-20.494-10.645
		c-4.271-6.084-10.516-10.385-17.539-12.313c0.996-11.943,6.24-33.908,30.717-41.139C272.965,82.45,282.516,90.845,289.82,101.255z
		 M176.105,81.319c13.777-9.668,29.947-14.779,46.758-14.779c4.367,0,8.689,0.354,12.934,1.032
		c-11.025,8.465-17.018,19.499-20.27,28.916c-2.924,8.462-3.941,16.523-4.25,22.269c-1.957,0.781-3.832,1.78-5.621,2.954
		c-15.443-2.709-40.998-9.987-46.975-23.889C163.58,91.566,169.426,86.005,176.105,81.319z M154.258,192.162l69.531,12.19
		l29.705,42.333l-69.65-12.211l-27.674-39.441C155.506,194.089,154.877,193.128,154.258,192.162z M359.24,440.921
		c-4.232,2.969-9.188,4.539-14.33,4.539c-8.156,0-15.818-3.979-20.494-10.644l-32.428-46.213l69.652,12.211l3.705,5.282
		C373.264,417.381,370.525,433.003,359.24,440.921z"/>
</g>
</svg>
