<?xml version="1.0" encoding="utf-8"?>
<!-- Generator: Adobe Illustrator 15.0.0, SVG Export Plug-In . SVG Version: 6.00 Build 0)  -->
<!DOCTYPE svg PUBLIC "-//W3C//DTD SVG 1.1//EN" "http://www.w3.org/Graphics/SVG/1.1/DTD/svg11.dtd">
<svg version="1.1" id="Capa_1" xmlns="http://www.w3.org/2000/svg" xmlns:xlink="http://www.w3.org/1999/xlink" x="0px" y="0px"
	 width="600px" height="600px" viewBox="0 0 600 600" enable-background="new 0 0 600 600" xml:space="preserve">
<g>
	<path fill="#222221" d="M493.768,292.193l-142.638-31.93l77.506-77.506c3.124-3.125,3.124-8.189,0-11.314
		c-3.125-3.123-8.189-3.123-11.314,0L339.766,249l-31.959-142.768c-0.818-3.654-4.062-6.252-7.807-6.252s-6.988,2.598-7.807,6.252
		L260.234,249l-77.556-77.557c-3.125-3.123-8.189-3.123-11.314,0c-3.124,3.125-3.124,8.189,0,11.314l77.506,77.506l-142.638,31.93
		c-3.654,0.818-6.252,4.062-6.252,7.807s2.598,6.988,6.252,7.807l142.638,31.93l-77.506,77.506c-3.124,3.125-3.124,8.189,0,11.314
		c1.562,1.562,3.609,2.343,5.657,2.343s4.095-0.781,5.657-2.343L260.234,351l31.959,142.768c0.818,3.654,4.062,6.252,7.807,6.252
		s6.988-2.598,7.807-6.252L339.766,351l77.556,77.557c1.562,1.562,3.609,2.343,5.657,2.343s4.095-0.781,5.657-2.343
		c3.124-3.125,3.124-8.189,0-11.314l-77.506-77.506l142.638-31.93c3.654-0.818,6.252-4.062,6.252-7.807
		S497.422,293.012,493.768,292.193z M333.374,327.315c-3.021,0.677-5.382,3.037-6.059,6.059L300,455.397l-27.315-122.023
		c-0.677-3.021-3.037-5.382-6.059-6.059L144.603,300l122.023-27.315c3.021-0.677,5.382-3.037,6.059-6.059L300,144.603
		l27.315,122.023c0.677,3.021,3.037,5.382,6.059,6.059L455.397,300L333.374,327.315z"/>
</g>
</svg>
