<?xml version="1.0" encoding="utf-8"?>
<!-- Generator: Adobe Illustrator 16.0.0, SVG Export Plug-In . SVG Version: 6.00 Build 0)  -->
<!DOCTYPE svg PUBLIC "-//W3C//DTD SVG 1.1//EN" "http://www.w3.org/Graphics/SVG/1.1/DTD/svg11.dtd">
<svg version="1.1" id="Layer_1" xmlns="http://www.w3.org/2000/svg" xmlns:xlink="http://www.w3.org/1999/xlink" x="0px" y="0px"
	 width="50px" height="50px" viewBox="0 0 50 50" enable-background="new 0 0 50 50" xml:space="preserve">
<g>
	<g>
		<path d="M15.777,26.167l0.792-0.212l-0.427-0.247c-0.059-0.033-0.079-0.108-0.045-0.166c0.033-0.059,0.108-0.079,0.167-0.045
			l0.426,0.247l-0.211-0.792c-0.018-0.064,0.021-0.132,0.086-0.149c0.066-0.018,0.132,0.021,0.149,0.086l0.275,1.027l0.43,0.248
			l0.11-0.017l0.289-0.584v-0.125l-0.752-0.752c-0.047-0.048-0.047-0.126,0-0.172c0.048-0.049,0.125-0.049,0.172,0l0.58,0.579V24.6
			c0-0.066,0.054-0.121,0.122-0.121s0.122,0.055,0.122,0.121v0.493l0.58-0.578c0.048-0.049,0.125-0.049,0.172,0
			c0.047,0.046,0.047,0.124,0,0.172l-0.752,0.751v0.126l0.288,0.584l0.11,0.017l0.43-0.248l0.275-1.027
			c0.017-0.064,0.083-0.104,0.149-0.086c0.064,0.018,0.104,0.085,0.086,0.149l-0.212,0.792l0.427-0.247
			c0.059-0.034,0.133-0.014,0.167,0.045c0.034,0.058,0.014,0.133-0.044,0.166l-0.427,0.247l0.792,0.212
			c0.018,0.005,0.028,0.021,0.041,0.032h2.25c-0.16-1.771-1.352-3.24-2.969-3.811v-1.382c0-0.738-0.542-1.347-1.249-1.461
			l-0.001-6.92h-0.386l0.001,6.911c-0.749,0.076-1.336,0.702-1.336,1.47v1.383c-1.617,0.569-2.809,2.039-2.969,3.81h2.25
			C15.749,26.188,15.758,26.172,15.777,26.167z M17.181,21.007c0-0.417,0.34-0.758,0.758-0.758c0.418,0,0.758,0.341,0.758,0.758
			v0.32h-1.516V21.007z"/>
		<path d="M18.743,26.451l-0.492-0.071c-0.04-0.005-0.074-0.029-0.092-0.066l-0.22-0.446l-0.22,0.446
			c-0.018,0.037-0.053,0.062-0.092,0.066l-0.493,0.071l0.356,0.348c0.029,0.029,0.042,0.068,0.035,0.108l-0.084,0.49l0.44-0.232
			c0.018-0.008,0.037-0.013,0.057-0.013c0.02,0,0.039,0.005,0.057,0.013l0.44,0.232l-0.084-0.49
			c-0.006-0.04,0.007-0.079,0.035-0.108L18.743,26.451z"/>
		<path d="M20.038,26.808v-0.405l-1.028-0.274l-0.161,0.093l0.173,0.024c0.046,0.008,0.084,0.039,0.099,0.084
			c0.014,0.043,0.002,0.093-0.031,0.125l-0.435,0.424l0.355,0.205L20.038,26.808z"/>
		<path d="M17.029,26.221l-0.161-0.093l-1.028,0.274v0.405l1.026,0.276l0.356-0.206l-0.435-0.424
			c-0.033-0.032-0.045-0.082-0.03-0.125c0.014-0.045,0.052-0.076,0.098-0.084L17.029,26.221z"/>
		<path d="M20.102,27.043l-0.792,0.213l0.427,0.246c0.058,0.035,0.078,0.109,0.044,0.168c-0.023,0.038-0.063,0.06-0.105,0.06
			c-0.021,0-0.042-0.005-0.061-0.017l-0.427-0.247l0.212,0.792c0.018,0.066-0.021,0.133-0.086,0.15
			c-0.011,0.003-0.021,0.004-0.031,0.004c-0.054,0-0.103-0.035-0.118-0.091l-0.275-1.027l-0.248-0.143l0.077,0.449
			c0.007,0.045-0.011,0.091-0.049,0.119c-0.021,0.015-0.046,0.022-0.071,0.022c-0.02,0-0.039-0.005-0.057-0.015l-0.48-0.253v0.299
			l0.752,0.752c0.047,0.047,0.047,0.124,0,0.172c-0.024,0.023-0.055,0.036-0.086,0.036c-0.032,0-0.063-0.013-0.086-0.036l-0.58-0.58
			v0.494c0,0.066-0.054,0.122-0.122,0.122s-0.122-0.056-0.122-0.122v-0.494l-0.58,0.58c-0.047,0.047-0.125,0.047-0.172,0
			c-0.047-0.048-0.047-0.125,0-0.172l0.752-0.753v-0.298l-0.48,0.253c-0.042,0.022-0.091,0.019-0.128-0.008
			c-0.038-0.028-0.056-0.074-0.048-0.119l0.077-0.448l-0.247,0.142l-0.276,1.027c-0.015,0.056-0.063,0.091-0.118,0.091
			c-0.01,0-0.021-0.001-0.031-0.004c-0.065-0.018-0.104-0.084-0.086-0.15l0.212-0.792l-0.427,0.247
			c-0.02,0.012-0.041,0.017-0.062,0.017c-0.042,0-0.083-0.021-0.105-0.06c-0.034-0.059-0.014-0.133,0.045-0.167l0.427-0.247
			l-0.792-0.213c-0.018-0.004-0.027-0.02-0.041-0.03h-2.25c0.206,2.28,2.121,4.067,4.453,4.067c2.334,0,4.248-1.787,4.454-4.067
			h-2.25C20.129,27.023,20.119,27.039,20.102,27.043z"/>
	</g>
	<g>
		<g>
			<path d="M26.717,35.165c-0.733,0.454-1.707,0.454-2.44,0c-0.733,0.454-1.707,0.454-2.44,0c-0.296,0.184-0.628,0.294-0.974,0.332
				c0.725,1.496,2.252,2.529,4.024,2.529c1.876,0,3.48-1.156,4.145-2.795C28.315,35.613,27.409,35.594,26.717,35.165z"/>
			<path d="M23.056,31.939c0.733-0.454,1.707-0.454,2.441,0c0.733-0.454,1.707-0.454,2.44,0c0.297-0.184,0.629-0.295,0.975-0.332
				c-0.512-1.055-1.423-1.878-2.54-2.271v-1.382c0-0.819-0.665-1.485-1.485-1.485s-1.485,0.666-1.485,1.485v1.382
				c-1.209,0.426-2.18,1.356-2.661,2.537C21.458,31.49,22.363,31.511,23.056,31.939z M24.128,27.954
				c0-0.418,0.341-0.758,0.758-0.758s0.757,0.34,0.757,0.758v0.32h-1.516V27.954z"/>
			<path d="M21.348,33.085l0.244-0.325c0.142-0.189,0.347-0.189,0.489-0.001l0.243,0.326c0.373,0.496,1.092,0.496,1.465,0
				l0.244-0.325c0.141-0.189,0.346-0.189,0.488-0.001l0.244,0.326c0.372,0.496,1.092,0.496,1.464,0l0.244-0.325
				c0.141-0.189,0.347-0.189,0.488-0.001l0.244,0.326c0.373,0.496,1.092,0.496,1.464,0l0.244-0.325
				c0.101-0.136,0.233-0.17,0.352-0.111c-0.043-0.214-0.102-0.42-0.175-0.62c-0.25,0.019-0.494,0.137-0.666,0.366l-0.244,0.324
				c-0.142,0.188-0.347,0.188-0.488,0l-0.244-0.325c-0.373-0.497-1.092-0.497-1.465,0.001l-0.244,0.324
				c-0.141,0.188-0.347,0.188-0.488,0l-0.244-0.325c-0.373-0.497-1.092-0.497-1.465,0.001L23.3,32.719
				c-0.141,0.188-0.346,0.188-0.488,0l-0.244-0.325c-0.373-0.497-1.092-0.497-1.464,0.001l-0.244,0.324
				c-0.11,0.146-0.258,0.176-0.385,0.094c-0.034,0.203-0.052,0.411-0.057,0.622C20.751,33.51,21.117,33.393,21.348,33.085z"/>
			<path d="M28.425,34.021l-0.244,0.324c-0.142,0.189-0.347,0.189-0.488,0l-0.244-0.324c-0.373-0.497-1.092-0.497-1.465,0
				l-0.244,0.324c-0.141,0.189-0.347,0.189-0.488,0l-0.244-0.324c-0.373-0.497-1.092-0.497-1.465,0L23.3,34.345
				c-0.141,0.189-0.346,0.189-0.488,0l-0.244-0.324c-0.373-0.497-1.092-0.497-1.464,0l-0.244,0.324
				c-0.102,0.136-0.236,0.171-0.355,0.111c0.043,0.213,0.107,0.419,0.18,0.62c0.25-0.02,0.493-0.137,0.664-0.365l0.244-0.325
				c0.142-0.188,0.347-0.188,0.489,0l0.243,0.325c0.373,0.496,1.092,0.497,1.465,0l0.244-0.325c0.141-0.188,0.346-0.188,0.488,0
				l0.244,0.325c0.372,0.496,1.092,0.497,1.464,0l0.244-0.325c0.141-0.188,0.347-0.188,0.488,0l0.244,0.325
				c0.373,0.496,1.092,0.497,1.464,0l0.244-0.325c0.109-0.146,0.255-0.176,0.382-0.097c0.033-0.202,0.054-0.408,0.06-0.619
				C29.021,33.595,28.657,33.712,28.425,34.021z"/>
		</g>
		<g>
			<rect x="24.736" y="12.626" width="0.386" height="14.197"/>
		</g>
	</g>
	<g>
		<path d="M28.898,22.308l0.792-0.212l-0.427-0.247c-0.059-0.033-0.079-0.108-0.045-0.166c0.034-0.059,0.108-0.079,0.167-0.045
			l0.427,0.247L29.6,21.093c-0.018-0.064,0.021-0.132,0.086-0.149c0.067-0.017,0.132,0.021,0.149,0.086l0.275,1.027l0.43,0.248
			l0.109-0.017l0.289-0.584v-0.125l-0.752-0.752c-0.048-0.048-0.048-0.125,0-0.172c0.048-0.049,0.125-0.049,0.172,0l0.58,0.579
			V20.74c0-0.066,0.054-0.121,0.122-0.121c0.068,0,0.123,0.055,0.123,0.121v0.494l0.579-0.579c0.048-0.049,0.125-0.049,0.173,0
			c0.047,0.047,0.047,0.124,0,0.172l-0.752,0.751v0.126l0.288,0.584l0.111,0.017l0.43-0.248l0.275-1.027
			c0.018-0.064,0.083-0.103,0.149-0.086c0.064,0.018,0.104,0.085,0.086,0.149l-0.211,0.792l0.426-0.247
			c0.059-0.034,0.133-0.014,0.167,0.045c0.034,0.058,0.014,0.133-0.044,0.166l-0.427,0.247l0.792,0.212
			c0.019,0.005,0.028,0.021,0.042,0.033h2.25c-0.16-1.771-1.352-3.241-2.969-3.812v-1.382c0-0.738-0.542-1.347-1.249-1.461l0-3.061
			h-0.386l0.001,3.052c-0.749,0.076-1.336,0.702-1.336,1.47v1.383c-1.617,0.569-2.809,2.04-2.969,3.811h2.25
			C28.871,22.329,28.88,22.312,28.898,22.308z M30.303,17.147c0-0.417,0.34-0.757,0.758-0.757c0.417,0,0.758,0.34,0.758,0.757v0.32
			h-1.516V17.147z"/>
		<path d="M31.865,22.592l-0.493-0.071c-0.04-0.005-0.074-0.029-0.092-0.066l-0.22-0.446l-0.22,0.446
			c-0.018,0.037-0.053,0.062-0.092,0.066l-0.492,0.071l0.356,0.348c0.029,0.029,0.042,0.068,0.035,0.108l-0.084,0.49l0.44-0.232
			c0.018-0.008,0.038-0.013,0.057-0.013s0.039,0.005,0.057,0.013l0.44,0.232l-0.084-0.49c-0.007-0.04,0.007-0.079,0.035-0.108
			L31.865,22.592z"/>
		<path d="M33.16,22.949v-0.406l-1.028-0.274l-0.161,0.093l0.174,0.024c0.045,0.008,0.084,0.039,0.098,0.084
			c0.014,0.043,0.002,0.093-0.031,0.125l-0.435,0.424l0.355,0.205L33.16,22.949z"/>
		<path d="M30.151,22.361l-0.161-0.093l-1.028,0.274v0.406l1.027,0.275l0.355-0.206l-0.435-0.424
			c-0.034-0.032-0.046-0.082-0.031-0.125c0.014-0.045,0.052-0.076,0.098-0.084L30.151,22.361z"/>
		<path d="M33.223,23.184l-0.792,0.213l0.427,0.246c0.058,0.035,0.078,0.109,0.044,0.168c-0.023,0.038-0.063,0.061-0.105,0.061
			c-0.021,0-0.042-0.006-0.061-0.018l-0.427-0.247l0.212,0.793c0.018,0.065-0.021,0.132-0.086,0.149
			c-0.011,0.003-0.021,0.004-0.031,0.004c-0.054,0-0.103-0.035-0.118-0.091l-0.275-1.027l-0.248-0.142l0.077,0.448
			c0.008,0.045-0.011,0.091-0.049,0.119c-0.021,0.015-0.046,0.022-0.072,0.022c-0.019,0-0.039-0.005-0.057-0.015l-0.479-0.252v0.298
			l0.752,0.752c0.047,0.047,0.047,0.124,0,0.172c-0.024,0.023-0.056,0.036-0.086,0.036c-0.032,0-0.063-0.013-0.086-0.036
			l-0.579-0.58v0.494c0,0.066-0.055,0.122-0.123,0.122c-0.067,0-0.122-0.056-0.122-0.122v-0.494l-0.58,0.58
			c-0.047,0.047-0.124,0.047-0.172,0c-0.048-0.048-0.048-0.125,0-0.172l0.752-0.752v-0.298l-0.481,0.252
			c-0.041,0.022-0.091,0.019-0.128-0.008c-0.038-0.028-0.056-0.074-0.048-0.119l0.077-0.448l-0.247,0.142l-0.276,1.027
			c-0.015,0.056-0.063,0.091-0.118,0.091c-0.01,0-0.021-0.001-0.031-0.004c-0.065-0.018-0.104-0.084-0.086-0.149l0.212-0.793
			l-0.427,0.247c-0.02,0.012-0.041,0.018-0.062,0.018c-0.042,0-0.083-0.022-0.105-0.061c-0.034-0.059-0.014-0.133,0.045-0.167
			l0.427-0.247l-0.792-0.213c-0.018-0.004-0.027-0.02-0.041-0.03h-2.25c0.206,2.28,2.121,4.067,4.454,4.067
			c2.333,0,4.248-1.787,4.453-4.067h-2.25C33.25,23.164,33.241,23.18,33.223,23.184z"/>
	</g>
</g>
</svg>
