<?xml version="1.0" encoding="utf-8"?>
<!-- Generator: Adobe Illustrator 16.0.4, SVG Export Plug-In . SVG Version: 6.00 Build 0)  -->
<!DOCTYPE svg PUBLIC "-//W3C//DTD SVG 1.1//EN" "http://www.w3.org/Graphics/SVG/1.1/DTD/svg11.dtd">
<svg version="1.1" id="Layer_1" xmlns="http://www.w3.org/2000/svg" xmlns:xlink="http://www.w3.org/1999/xlink" x="0px" y="0px"
	 width="18.461px" height="24px" viewBox="0 0 18.461 24" enable-background="new 0 0 18.461 24" xml:space="preserve">
<path d="M9.295,12c-2.683,0-5.055-0.788-5.055-0.788l4.992-6.391l4.992,6.391C14.225,11.212,11.979,12,9.295,12z M15.062,18.875
	c0.001,0.001-6.681,1.427-10.884-0.865C5.34,18.255,7,18.462,9.325,18.462c5.742,0,7.291-1.256,7.291-1.256l-3.788-4.601
	c0,0-4.722,0.274-6.474-0.884l-4.507,5.485c0,0,0.622,0.442,2.326,0.804L0,22.59c0,0,2.352,1.41,9.348,1.41
	c6.994,0,9.113-1.41,9.113-1.41L15.062,18.875z M7.533,5.23l1.699-1.067l1.699,1.067l-0.489-1.946l1.54-1.286L9.98,1.862L9.232,0
	L8.484,1.862L6.482,1.998l1.54,1.286L7.533,5.23z"/>
</svg>
