<?xml version="1.0" encoding="iso-8859-1"?>
<!-- Generator: Adobe Illustrator 16.0.0, SVG Export Plug-In . SVG Version: 6.00 Build 0)  -->
<!DOCTYPE svg PUBLIC "-//W3C//DTD SVG 1.1//EN" "http://www.w3.org/Graphics/SVG/1.1/DTD/svg11.dtd">
<svg version="1.1" xmlns="http://www.w3.org/2000/svg" xmlns:xlink="http://www.w3.org/1999/xlink" x="0px" y="0px" width="512px"
	 height="512px" viewBox="0 0 512 512" style="enable-background:new 0 0 512 512;" xml:space="preserve">
<g id="Artwork">
</g>
<g id="Layer_2">
	<path d="M451.387,147.02l-70.792-29.211c0-0.049,0.002-0.104,0.002-0.154c0-16.707-6.617-44.734-50.933-44.734
		c-14.332,0-32.018,3.969-47.489,10.752c7.001-8.553,15.266-15.668,23.539-20.129c5.088-2.746,6.988-9.094,4.245-14.182
		c-2.745-5.088-9.093-6.988-14.181-4.244c-14.401,7.768-27.904,21.271-37.302,35.66c-9.112-19.162-23.089-26.57-23.965-27.018
		c-5.149-2.631-11.454-0.588-14.083,4.561c-2.63,5.146-0.588,11.451,4.559,14.082c0.126,0.064,7.758,4.342,13.634,15.568
		c-17.208-9.377-39.146-15.051-56.286-15.051c-44.315,0-50.932,28.027-50.932,44.734c0,0.051,0.002,0.104,0.002,0.154L60.613,147.02
		c-0.237,0.098-0.469,0.203-0.695,0.316c-0.006,0.004-0.013,0.006-0.02,0.01c-0.35,0.176-2.803,1.166-4.151,3.422
		c-1.521,2.545-1.609,5.531-1.609,5.926v207.875c0,4.006,2.287,7.66,5.89,9.412l191.105,92.93c1.519,0.801,3.184,1.229,4.864,1.229
		c1.562,0,3.127-0.35,4.577-1.055l191.396-93.07c3.603-1.752,5.89-5.408,5.89-9.414V156.775c0-0.027,0.003-0.053,0.003-0.082
		C457.862,152.455,455.306,148.635,451.387,147.02z M331.52,93.33c26.365,0,29.999,11.439,29.999,23.801
		s-3.634,23.801-29.999,23.801c-15.324,0-63.661-7.902-63.661-19.029S302.518,93.33,331.52,93.33z M181.24,93.33
		c29.002,0,63.661,17.445,63.661,28.572s-48.337,19.029-63.661,19.029c-26.365,0-29.999-11.439-29.999-23.801
		S154.875,93.33,181.24,93.33z M142.021,390.574L75.071,358.02V172.336l66.949,27.625V390.574z M92.079,156.68l43.559-17.973
		c5.731,12.467,18.67,23.68,46.698,23.68c9.461,0,20.533-0.914,31.484-2.922l-55.443,24.494L92.079,156.68z M245.529,440.908
		l-82.575-40.154V208.6l82.575,34.074V440.908z M256.038,224.145l-70.84-29.148l71.014-31.375l70.691,31.365L256.038,224.145z
		 M349.046,400.785l-82.579,40.156V242.674l82.579-34.074V400.785z M298.653,159.551c10.796,1.947,21.686,2.836,31.011,2.836
		c28.028,0,40.966-11.213,46.698-23.678l43.592,17.984l-3.471,1.434l-62.802,25.84L298.653,159.551z M436.925,358.051
		l-66.946,32.555V199.961l54.943-22.67l12.002-4.939V358.051z"/>
</g>
</svg>
