<?xml version="1.0" encoding="iso-8859-1"?>
<!-- Generator: Adobe Illustrator 16.0.0, SVG Export Plug-In . SVG Version: 6.00 Build 0)  -->
<!DOCTYPE svg PUBLIC "-//W3C//DTD SVG 1.1//EN" "http://www.w3.org/Graphics/SVG/1.1/DTD/svg11.dtd">
<svg version="1.1" xmlns="http://www.w3.org/2000/svg" xmlns:xlink="http://www.w3.org/1999/xlink" x="0px" y="0px" width="512px"
	 height="512px" viewBox="0 0 512 512" style="enable-background:new 0 0 512 512;" xml:space="preserve">
<g id="Artwork">
</g>
<g id="Layer_2">
	<path d="M369.911,41.035c-39.909-8.588-80.579,11.395-107.453,48.084c15.789,18.219,27.956,41.584,34.183,68.297
		c11.347,48.672,0.111,96.108-26.018,126.297c9.242,8.449,19.882,15.001,31.677,19.133l-18.712,17.792l17.063,3.672l-44.668,146.533
		l-42.467-138.47l17.622-4.108l-19.014-17.469c51.811-19.15,80.376-85.054,64.448-153.38
		C259.588,84.571,198.466,36.56,140.05,50.178s-92.005,83.71-75.023,156.554c15.928,68.326,70.691,114.804,125.629,109.068
		l-9.328,24.077l22.425-5.229l42.413,138.295h19.63l44.665-146.523l23.125,4.977l-9.739-23.914
		c55.028,4.797,108.99-42.609,123.749-111.197C463.333,123.161,428.551,53.654,369.911,41.035z M101.507,230.355
		c-38.602-43.634-13.892-107.883-12.821-110.597l6.977,2.753l6.98,2.744c-0.228,0.58-22.36,58.47,10.099,95.16L101.507,230.355z
		 M422.177,187.553l-13.708-6.09c19.886-44.77-18.671-93.292-19.063-93.776l5.828-4.722l-5.822,4.729l11.644-9.456
		C402.895,80.502,445.827,134.311,422.177,187.553z"/>
</g>
</svg>
