<?xml version="1.0" encoding="iso-8859-1"?>
<!-- Generator: Adobe Illustrator 16.0.0, SVG Export Plug-In . SVG Version: 6.00 Build 0)  -->
<!DOCTYPE svg PUBLIC "-//W3C//DTD SVG 1.1//EN" "http://www.w3.org/Graphics/SVG/1.1/DTD/svg11.dtd">
<svg version="1.1" xmlns="http://www.w3.org/2000/svg" xmlns:xlink="http://www.w3.org/1999/xlink" x="0px" y="0px" width="512px"
	 height="512px" viewBox="0 0 512 512" style="enable-background:new 0 0 512 512;" xml:space="preserve">
<g id="Artwork">
</g>
<g id="Layer_2">
	<g>
		<g>
			<path style="fill-rule:evenodd;clip-rule:evenodd;" d="M499.496,132.133c-0.005,0.258-0.01,0.485-0.013,0.625
				C499.486,132.641,499.49,132.441,499.496,132.133z"/>
		</g>
	</g>
	<path d="M452.509,89.947c-41.176-20.837-115.922,11.643-154.848,40.785c-8.661-7.447-19.911-11.964-32.203-11.964h-18.946
		c-12.389,0-23.72,4.588-32.408,12.141c-40.52-31.3-116.964-60.341-158.089-34.538c-16.019,10.051-32.793,32.483-21.735,82.278
		c1.83,8.24,0.838,21.37-0.211,35.271c-1.965,26.027-4.192,55.526,11.042,72.349c7.156,7.901,17.22,12.06,29.911,12.358
		c0.978,0.023,1.955,0.035,2.941,0.035c31.432-0.001,66.87-11.757,99.855-32.57c-15.439,25.584-40.686,57.639-81.184,88.307
		c-3.599,2.725-4.925,7.522-3.238,11.709c1.687,4.188,5.969,6.719,10.453,6.193l44.204-5.239l-12.444,49.151
		c-1.042,4.117,0.63,8.443,4.169,10.789s8.175,2.2,11.562-0.362c52.449-39.716,85.086-82.002,104.646-114.505
		c19.561,32.503,52.198,74.79,104.646,114.505c1.781,1.348,3.906,2.027,6.037,2.027c1.921,0,3.846-0.553,5.524-1.665
		c3.54-2.346,5.212-6.672,4.17-10.789l-12.443-49.151l44.203,5.239c4.484,0.53,8.765-2.007,10.453-6.193
		c1.687-4.187,0.36-8.984-3.239-11.71c-40.792-30.889-66.109-63.158-81.535-88.877c13.576,8.832,30.165,18.33,47.839,25.534
		c18.819,7.671,34.074,10.638,46.414,10.638c19.305,0,31.474-7.262,38.993-15.138c16.093-16.857,12.218-41.515,9.104-61.327
		c-1.298-8.258-2.524-16.059-2.298-22.298c0.298-8.221,1.86-16.369,3.514-24.996c1.77-9.229,3.588-18.771,3.867-28.79
		c0.004-0.079,0.016-0.157,0.018-0.237l0.006-0.278c0-0.005,0-0.012,0-0.017l0.002-0.109h0v-0.004c0-0.007,0.001-0.015,0.001-0.021
		c0-0.026,0.001-0.055,0.001-0.084l0.006-0.31h-0.001C481.884,112.387,465.982,96.768,452.509,89.947z M217.042,168.239
		c0-16.25,13.221-29.471,29.471-29.471h18.946c16.25,0,29.469,13.221,29.469,29.471v48.785c0,16.249-13.22,29.469-29.469,29.469
		h-18.946c-16.25,0-29.471-13.22-29.471-29.469V168.239z M78.028,278.662c-0.844,0-1.692-0.01-2.534-0.029
		c-7.093-0.167-12.182-2.062-15.56-5.79c-9.469-10.455-7.585-35.404-5.923-57.417c1.164-15.418,2.264-29.981-0.208-41.112
		c-6.848-30.835-2.528-51.359,12.84-61.001c29.365-18.421,95.21,2.4,135.296,33.473c-3.138,6.493-4.899,13.772-4.899,21.454
		l-0.01,58.698C168.161,251.929,121.631,278.662,78.028,278.662z M376.894,348.459l-25.061-2.971
		c-3.273-0.392-6.521,0.859-8.692,3.334c-2.172,2.474-2.987,5.859-2.179,9.051l8.616,34.034
		c-44.115-38.452-70.169-77.29-84.763-104.743c-1.736-3.265-5.132-5.306-8.83-5.306c-3.698,0-7.094,2.041-8.83,5.307
		c-14.593,27.451-40.647,66.289-84.762,104.742l8.616-34.034c0.808-3.191-0.007-6.576-2.179-9.051
		c-2.172-2.475-5.424-3.728-8.692-3.334l-25.066,2.972c41.131-37.457,63.053-74.664,74.14-98.997
		c9.076,10.423,22.428,17.03,37.302,17.03h18.946c14.873,0,28.224-6.606,37.3-17.029
		C313.898,273.931,335.824,311.068,376.894,348.459z M461.263,148.034c0,0.036-0.001,0.071-0.001,0.107
		c-0.187,8.546-1.815,17.037-3.539,26.026c-1.723,8.988-3.505,18.282-3.859,28.038c-0.295,8.166,1.077,16.891,2.528,26.127
		c2.682,17.062,5.455,34.704-3.813,44.411c-26.385,27.645-98.362-13.296-137.623-45.667l-0.029-58.838
		c0-7.777-1.809-15.138-5.021-21.691c36.075-26.889,103.086-54.188,133.57-38.756C455.868,114.063,461.686,127.228,461.263,148.034z
		"/>
</g>
</svg>
