<?xml version="1.0" encoding="iso-8859-1"?>
<!-- Generator: Adobe Illustrator 16.0.0, SVG Export Plug-In . SVG Version: 6.00 Build 0)  -->
<!DOCTYPE svg PUBLIC "-//W3C//DTD SVG 1.1//EN" "http://www.w3.org/Graphics/SVG/1.1/DTD/svg11.dtd">
<svg version="1.1" xmlns="http://www.w3.org/2000/svg" xmlns:xlink="http://www.w3.org/1999/xlink" x="0px" y="0px" width="512px"
	 height="512px" viewBox="0 0 512 512" style="enable-background:new 0 0 512 512;" xml:space="preserve">
<g id="Artwork">
</g>
<g id="Layer_2">
	<path d="M443.142,104.908c-9.269-5.271-20.137-7.943-32.303-7.943c-26.984,0-61.349,13.25-102.137,39.385
		c-29.229,18.727-51.025,37.236-51.938,38.016L256,175.018l-0.765-0.652c-0.913-0.779-22.71-19.289-51.938-38.016
		c-40.789-26.135-75.152-39.385-102.138-39.385c-12.166,0-23.034,2.672-32.302,7.943c-12.91,7.34-27.688,22.576-24.777,53.467
		c1.682,17.846,8.785,37.66,15.655,56.822c4.538,12.656,9.161,25.559,11.975,37.203c28.813-79.172,150.645-52.514,150.645-52.514
		c-79.55,84.564-121.941,47.836-124.598,39.486c-5.889,6.693-12.45,17.063-15.939,23.762c25.705,40.271,79.985,24.764,108.912,5.844
		c13.607-8.9,25.951-18.949,36.69-29.715c0.2,0.49,0.409,0.977,0.638,1.453c-1.468,1.76-2.913,3.508-4.306,5.205
		c-7.949,9.691-15.691,20.045-23.011,30.771c-6.044,8.857-11.366,17.08-16.271,25.133c-6.029,9.9-12.224,20.906-18.939,33.646
		c-4.283,8.127-8.482,16.654-12.837,26.07c-3.165,6.842-5.987,13.918-8.717,20.762c-0.668,1.674-1.336,3.35-2.009,5.02l-4.834,12.01
		l48.126-32.133l32.801,47.834l0.072-12.777c0.022-3.99,0.056-7.982,0.089-11.973l0.054-6.662c0.048-6.43,0.614-13.047,1.161-19.447
		l0.244-2.885l0.154-2.018c1.187-10.994,2.527-22.68,4.24-34.244c1.435-9.693,3.3-19.672,5.543-29.662
		c2.641-11.758,5.538-24.234,9.35-36.117c0.503-1.57,0.998-3.146,1.493-4.721c0.133-0.424,0.269-0.852,0.402-1.277
		c3.292,1.494,6.945,2.332,10.796,2.332h8.676c3.851,0,7.504-0.838,10.796-2.332c0.136,0.434,0.274,0.869,0.409,1.299
		c0.492,1.568,0.984,3.135,1.486,4.699c3.809,11.873,6.707,24.354,9.35,36.117c2.244,10.002,4.109,19.98,5.543,29.662
		c1.713,11.564,3.057,23.279,4.246,34.307l0.146,1.949l0.246,2.906c0.547,6.395,1.113,13.008,1.16,19.432l0.055,6.783
		c0.033,3.949,0.066,7.9,0.09,11.852l0.072,12.777l32.801-47.834l48.127,32.133l-4.834-12.01c-0.674-1.67-1.34-3.342-2.008-5.016
		c-2.73-6.844-5.553-13.922-8.719-20.766c-4.346-9.396-8.545-17.924-12.838-26.07c-6.711-12.732-12.906-23.738-18.939-33.646
		c-4.895-8.041-10.217-16.262-16.271-25.133c-7.316-10.723-15.059-21.076-23.01-30.77c-1.392-1.697-2.837-3.445-4.305-5.207
		c0.229-0.475,0.438-0.961,0.638-1.453c10.738,10.766,23.081,20.814,36.689,29.715c28.928,18.92,83.207,34.428,108.912-5.844
		c-3.489-6.699-10.05-17.068-15.938-23.762c-2.657,8.35-45.049,45.078-124.599-39.486c0,0,121.832-26.658,150.646,52.514
		c2.813-11.645,7.436-24.547,11.974-37.203c6.871-19.162,13.975-38.977,15.656-56.822
		C470.829,127.484,456.051,112.248,443.142,104.908z M285.953,224.082c-2.466-11.889-12.996-20.822-25.615-20.822h-8.676
		c-12.619,0-23.149,8.934-25.615,20.822c-0.346-1.697-0.547-3.445-0.547-5.242c0-14.449,11.713-26.162,26.162-26.162h8.676
		c14.449,0,26.162,11.713,26.162,26.162C286.5,220.637,286.299,222.385,285.953,224.082z"/>
</g>
</svg>
