<?xml version="1.0" encoding="utf-8"?>
<!-- Generator: Adobe Illustrator 17.0.0, SVG Export Plug-In . SVG Version: 6.00 Build 0)  -->
<!DOCTYPE svg PUBLIC "-//W3C//DTD SVG 1.1//EN" "http://www.w3.org/Graphics/SVG/1.1/DTD/svg11.dtd">
<svg version="1.1" id="Layer_1" xmlns="http://www.w3.org/2000/svg" xmlns:xlink="http://www.w3.org/1999/xlink" x="0px" y="0px"
	 width="50px" height="50px" viewBox="0 0 50 50" enable-background="new 0 0 50 50" xml:space="preserve">
<path fill="#231F20" d="M14.33,35.255c0,0.828-0.671,1.499-1.499,1.499s-1.499-0.671-1.499-1.499s0.671-1.499,1.499-1.499
	S14.33,34.427,14.33,35.255z M16.614,34.03c-0.449,0-0.813,0.364-0.813,0.813c0,0.449,0.364,0.813,0.813,0.813
	c0.449,0,0.813-0.364,0.813-0.813C17.427,34.394,17.063,34.03,16.614,34.03z M20.674,33.486c-0.848,0-1.536,0.688-1.536,1.536
	c0,0.848,0.688,1.536,1.536,1.536s1.536-0.688,1.536-1.536C22.21,34.174,21.522,33.486,20.674,33.486z M25,35.469
	c0.473,0,0.857-0.384,0.857-0.857S25.473,33.755,25,33.755s-0.857,0.384-0.857,0.857S24.527,35.469,25,35.469z M29.056,33.756
	c-1.065,0-1.929,0.864-1.929,1.929s0.864,1.929,1.929,1.929c1.065,0,1.929-0.864,1.929-1.929S30.121,33.756,29.056,33.756z
	 M32.842,33.755c-0.679,0-1.229,0.55-1.229,1.229s0.55,1.229,1.229,1.229c0.679,0,1.229-0.55,1.229-1.229
	S33.521,33.755,32.842,33.755z M37.033,33.757c-0.902,0-1.634,0.732-1.634,1.634c0,0.902,0.732,1.634,1.634,1.634
	c0.902,0,1.634-0.732,1.634-1.634C38.667,34.489,37.935,33.757,37.033,33.757z M16.359,31.464c0-0.828-0.671-1.499-1.499-1.499
	s-1.499,0.671-1.499,1.499s0.671,1.499,1.499,1.499S16.359,32.292,16.359,31.464z M18.375,31.045c-0.53,0-0.959,0.429-0.959,0.959
	c0,0.53,0.429,0.959,0.959,0.959s0.959-0.429,0.959-0.959C19.334,31.474,18.905,31.045,18.375,31.045z M23.795,31.801
	c0-0.641-0.52-1.161-1.161-1.161c-0.641,0-1.161,0.52-1.161,1.161c0,0.641,0.52,1.161,1.161,1.161
	C23.275,32.962,23.795,32.442,23.795,31.801z M27.717,31.058c0-0.604-0.49-1.094-1.094-1.094s-1.094,0.49-1.094,1.094
	s0.49,1.094,1.094,1.094S27.717,31.662,27.717,31.058z M29.053,31.464c0,0.975,0.79,1.765,1.765,1.765s1.765-0.79,1.765-1.765
	s-0.79-1.765-1.765-1.765S29.053,30.489,29.053,31.464z M35.703,30.526c0-0.31-0.252-0.562-0.562-0.562s-0.562,0.252-0.562,0.562
	s0.252,0.562,0.562,0.562S35.703,30.836,35.703,30.526z M16.888,27.638c0.405,0,0.733-0.328,0.733-0.733
	c0-0.405-0.328-0.733-0.733-0.733s-0.733,0.328-0.733,0.733C16.155,27.31,16.483,27.638,16.888,27.638z M20.757,26.173
	c-1.034,0-1.872,0.838-1.872,1.872s0.838,1.872,1.872,1.872s1.872-0.838,1.872-1.872S21.791,26.173,20.757,26.173z M25,28.199
	c0.559,0,1.013-0.453,1.013-1.013c0-0.559-0.454-1.013-1.013-1.013s-1.013,0.454-1.013,1.013C23.987,27.745,24.441,28.199,25,28.199
	z M29.056,29.597c0.945,0,1.712-0.766,1.712-1.712s-0.766-1.712-1.712-1.712c-0.946,0-1.712,0.767-1.712,1.712
	S28.11,29.597,29.056,29.597z M33.112,26.173c-0.534,0-0.966,0.432-0.966,0.966s0.432,0.966,0.966,0.966s0.966-0.432,0.966-0.966
	S33.646,26.173,33.112,26.173z M18.916,25.379c0.828,0,1.499-0.671,1.499-1.499s-0.671-1.499-1.499-1.499s-1.499,0.671-1.499,1.499
	S18.088,25.379,18.916,25.379z M23.091,23.88c0-0.447-0.362-0.809-0.809-0.809c-0.447,0-0.809,0.362-0.809,0.809
	s0.362,0.809,0.809,0.809C22.729,24.689,23.091,24.327,23.091,23.88z M27.028,22.382c-0.422,0-0.764,0.342-0.764,0.764
	s0.342,0.764,0.764,0.764s0.764-0.342,0.764-0.764S27.45,22.382,27.028,22.382z M28.871,23.88c0,1.025,0.831,1.856,1.856,1.856
	s1.856-0.831,1.856-1.856s-0.831-1.856-1.856-1.856S28.871,22.855,28.871,23.88z M20.944,20.367c0.49,0,0.888-0.398,0.888-0.888
	s-0.398-0.888-0.888-0.888c-0.49,0-0.888,0.398-0.888,0.888S20.454,20.367,20.944,20.367z M23.179,20.41
	c0,1.006,0.815,1.821,1.821,1.821s1.821-0.815,1.821-1.821c0-1.006-0.815-1.821-1.821-1.821S23.179,19.404,23.179,20.41z
	 M29.056,20.748c0.596,0,1.079-0.483,1.079-1.079c0-0.596-0.483-1.079-1.079-1.079c-0.596,0-1.079,0.483-1.079,1.079
	C27.977,20.265,28.46,20.748,29.056,20.748z M21.679,16.091c0,0.714,0.579,1.293,1.293,1.293s1.293-0.579,1.293-1.293
	s-0.579-1.293-1.293-1.293S21.679,15.377,21.679,16.091z M25.529,16.297c0,0.614,0.498,1.112,1.112,1.112s1.112-0.498,1.112-1.112
	s-0.498-1.112-1.112-1.112S25.529,15.683,25.529,16.297z M26.061,12.943c0-0.586-0.475-1.061-1.061-1.061s-1.061,0.475-1.061,1.061
	c0,0.586,0.475,1.061,1.061,1.061S26.061,13.529,26.061,12.943z M23.026,44h4.513l-2.257-6.452L23.026,44z M23.66,10.427l1.11-0.583
	l1.109,0.583l-0.212-1.236l0.898-0.875l-1.241-0.18L24.77,7.012l-0.555,1.124l-1.241,0.18l0.898,0.875L23.66,10.427z M21.454,11.301
	l-0.708,0.102l0.512,0.499l-0.121,0.705l0.633-0.333l0.633,0.333l-0.121-0.705l0.512-0.499l-0.708-0.102L21.77,10.66L21.454,11.301z
	 M20.95,7.136l0.369-0.194l0.369,0.194l-0.07-0.411l0.299-0.291l-0.413-0.06L21.319,6l-0.184,0.374l-0.413,0.06l0.299,0.291
	L20.95,7.136z"/>
</svg>
