<?xml version="1.0" encoding="iso-8859-1"?>
<!-- Generator: Adobe Illustrator 16.0.0, SVG Export Plug-In . SVG Version: 6.00 Build 0)  -->
<!DOCTYPE svg PUBLIC "-//W3C//DTD SVG 1.1//EN" "http://www.w3.org/Graphics/SVG/1.1/DTD/svg11.dtd">
<svg version="1.1" xmlns="http://www.w3.org/2000/svg" xmlns:xlink="http://www.w3.org/1999/xlink" x="0px" y="0px" width="512px"
	 height="512px" viewBox="0 0 512 512" style="enable-background:new 0 0 512 512;" xml:space="preserve">
<g id="Artwork">
</g>
<g id="Layer_3">
	<path d="M461.226,138.36c-0.064-2.223-0.12-4.143-0.113-5.551l0.002-0.35c0.045-9.44,0.151-31.549-18.015-35.203
		c-13.148-2.645-25.565,6.232-34.63,12.714c-1.842,1.317-3.582,2.562-5.05,3.508c-17.359,11.189-37.568,7.889-58.963,4.396
		c-1.751-0.286-3.504-0.572-5.256-0.851c-27.501-4.373-54.65-4.746-79.914-4.499c-53.961,0.53-109.104,6.886-146.888,49.434
		c-15.127,17.034-27.935,38.068-40.305,66.195l-0.839,1.906c-9.846,22.343-22.1,50.151-10.652,76.304
		c9.227,21.08,25.923,33.748,42.934,41.702H60.594c-3.355,0-6.486,1.682-8.338,4.479c-1.852,2.797-2.178,6.337-0.868,9.425
		l20,47.152c1.567,3.695,5.192,6.095,9.206,6.095h305.789c4.014,0,7.639-2.4,9.206-6.095l20-47.152
		c1.31-3.088,0.984-6.628-0.868-9.425c-1.852-2.797-4.983-4.479-8.338-4.479h-50.679c8.236-4.502,14.181-10.86,19.948-17.046
		c1.167-1.251,2.342-2.511,3.544-3.762c0.049-0.051,0.098-0.102,0.145-0.154c8.79-9.537,52.898-58.276,58.014-81.312
		c3.543-15.953-10.893-27.372-23.63-37.448c-10.478-8.289-18.048-14.727-19.655-20.832c5.388,0.402,8.646,0.863,8.823,0.889
		c0.107,0.016,0.215,0.03,0.322,0.043c1.859,0.218,3.75,0.464,5.661,0.713c10.365,1.347,22.113,2.875,33.428,0.636
		C462.594,185.783,461.737,156.097,461.226,138.36z M379.762,395.22H87.214l-11.517-27.152h315.582L379.762,395.22z
		 M440.927,159.294c-0.798,7.763-2.395,10.333-2.882,10.954c-8.021,1.49-17.46,0.265-26.591-0.922
		c-1.944-0.252-3.867-0.502-5.759-0.726c-2.657-0.385-29.814-4.089-60.824,0.63c-43.979,6.695-74.292,27.218-87.662,59.353
		c-2.122,5.099,0.292,10.953,5.391,13.074c5.098,2.121,10.953-0.292,13.074-5.392c16.975-40.795,66.005-48.726,98.005-49.313
		c0.932,15.955,16.026,27.894,27.638,37.08c6.485,5.13,17.338,13.715,16.515,17.426c-3.059,13.771-34.179,51.446-53.127,72.018
		c-1.248,1.299-2.468,2.607-3.679,3.906c-5.82,6.242-10.848,11.633-17.566,14.419c-8.206,3.404-17.322,5.578-25.157,7.256
		c-23.738,5.083-49.8,7.96-79.675,8.793c-33.7,0.938-62.63-1.176-88.449-6.463c-20.121-4.12-57.573-11.788-71.253-43.041
		c-7.925-18.107,1.934-40.48,10.632-60.22l0.845-1.919c11.507-26.164,23.248-45.537,36.951-60.967
		c30.793-34.676,75.092-42.154,132.131-42.715c3.552-0.035,7.139-0.057,10.76-0.057c21.235,0,43.566,0.771,65.816,4.309
		c1.726,0.274,3.45,0.556,5.175,0.837c24.184,3.947,49.193,8.031,73.02-7.324c1.874-1.208,3.805-2.589,5.849-4.05
		c5.682-4.063,14.237-10.177,18.922-9.398c1.774,1.966,2.118,9.489,2.089,15.522l-0.002,0.355c-0.008,1.742,0.052,3.816,0.121,6.218
		C441.399,144.662,441.625,152.502,440.927,159.294z"/>
</g>
</svg>
