<?xml version="1.0" encoding="iso-8859-1"?>
<!-- Generator: Adobe Illustrator 16.0.0, SVG Export Plug-In . SVG Version: 6.00 Build 0)  -->
<!DOCTYPE svg PUBLIC "-//W3C//DTD SVG 1.1//EN" "http://www.w3.org/Graphics/SVG/1.1/DTD/svg11.dtd">
<svg version="1.1" xmlns="http://www.w3.org/2000/svg" xmlns:xlink="http://www.w3.org/1999/xlink" x="0px" y="0px" width="512px"
	 height="512px" viewBox="0 0 512 512" style="enable-background:new 0 0 512 512;" xml:space="preserve">
<g id="Artwork">
</g>
<g id="Layer_2">
	<g>
		<path d="M383.134,380.767l-63.96-86.077h37.141c3.766,0,7.212-2.115,8.917-5.473c1.705-3.357,1.379-7.388-0.844-10.428
			l-52.343-71.604h18.523c3.86,0,7.376-2.222,9.033-5.709c1.656-3.487,1.158-7.616-1.281-10.609l-74.93-91.937
			c-1.899-2.33-4.746-3.682-7.751-3.682s-5.853,1.352-7.751,3.682l-74.93,91.937c-2.439,2.993-2.938,7.122-1.281,10.609
			c1.657,3.487,5.172,5.709,9.033,5.709h18.523l-52.343,71.604c-2.223,3.04-2.549,7.071-0.844,10.428
			c1.705,3.358,5.151,5.473,8.917,5.473h37.141l-63.96,86.077c-2.254,3.034-2.605,7.08-0.907,10.457
			c1.698,3.377,5.154,5.508,8.934,5.508h109.47v78.629c0,5.523,4.477,10,10,10s10-4.477,10-10v-78.629h109.47
			c3.78,0,7.236-2.131,8.934-5.508C385.739,387.846,385.388,383.8,383.134,380.767z M255.637,121.077l53.879,66.108H201.758
			L255.637,121.077z M224.004,207.185h63.266l49.347,67.505H174.658L224.004,207.185z M156.057,376.731l60.962-82.042h77.237
			l60.962,82.042H156.057z"/>
		<path d="M236.836,72.176l-2.906,16.941c-0.288,1.679,0.402,3.375,1.78,4.376c1.378,1,3.204,1.133,4.712,0.34l15.215-7.998
			l15.215,7.998c0.655,0.344,1.37,0.514,2.082,0.514c0.006,0,0.014,0,0.021,0c2.471,0,4.475-2.003,4.475-4.475
			c0-0.408-0.055-0.803-0.157-1.178l-2.834-16.52l12.309-11.998c1.22-1.189,1.659-2.967,1.132-4.587
			c-0.526-1.62-1.926-2.8-3.612-3.045l-17.01-2.472l-7.608-15.414c-0.753-1.527-2.309-2.494-4.012-2.494s-3.259,0.967-4.012,2.494
			l-7.608,15.414l-17.01,2.472c-1.686,0.245-3.086,1.426-3.612,3.045c-0.526,1.62-0.087,3.398,1.132,4.587L236.836,72.176z
			 M247.632,58.591c1.458-0.212,2.717-1.127,3.369-2.448l4.637-9.394l4.637,9.394c0.651,1.32,1.911,2.236,3.369,2.448l10.366,1.506
			l-7.501,7.312c-1.055,1.028-1.536,2.509-1.287,3.96l1.771,10.324l-9.272-4.874c-0.652-0.343-1.367-0.514-2.082-0.514
			s-1.43,0.171-2.082,0.514l-9.272,4.874l1.771-10.324c0.249-1.452-0.232-2.933-1.287-3.96l-7.501-7.312L247.632,58.591z"/>
	</g>
</g>
</svg>
