<?xml version="1.0" encoding="iso-8859-1"?>
<!-- Generator: Adobe Illustrator 16.0.0, SVG Export Plug-In . SVG Version: 6.00 Build 0)  -->
<!DOCTYPE svg PUBLIC "-//W3C//DTD SVG 1.1//EN" "http://www.w3.org/Graphics/SVG/1.1/DTD/svg11.dtd">
<svg version="1.1" xmlns="http://www.w3.org/2000/svg" xmlns:xlink="http://www.w3.org/1999/xlink" x="0px" y="0px" width="512px"
	 height="512px" viewBox="0 0 512 512" style="enable-background:new 0 0 512 512;" xml:space="preserve">
<g id="Artwork">
</g>
<g id="Layer_3">
	<path d="M300.094,196.347v-24.04h-6.472c0.054-0.821,0.089-1.645,0.089-2.48c0-18.841-13.89-34.502-31.967-37.276v-9.937h5.127
		c4.083,4.094,8.777,7.916,13.953,11.301c11.002,7.198,33.553,13.097,43.33-2.221c-1.328-2.549-3.824-6.493-6.062-9.04
		c-1.013,3.176-19.039,17.146-49.297-15.017c0,0,46.341-10.142,57.303,19.974c1.07-4.43,2.826-9.336,4.554-14.152
		c2.612-7.288,5.315-14.824,5.955-21.613c1.107-11.748-4.513-17.544-9.424-20.337c-3.525-2.003-7.659-3.02-12.287-3.02
		c-10.264,0-23.335,5.038-38.85,14.979c-5.773,3.7-10.769,7.368-14.301,10.089V32.234h-11.488v61.324
		c-3.532-2.721-8.53-6.389-14.304-10.089c-15.513-9.94-28.583-14.979-38.849-14.979c-4.628,0-8.761,1.016-12.286,3.02
		c-4.911,2.793-10.532,8.589-9.425,20.337c0.641,6.789,3.342,14.325,5.956,21.613c1.725,4.815,3.484,9.722,4.554,14.152
		c10.959-30.116,57.3-19.974,57.3-19.974c-30.257,32.163-48.283,18.193-49.295,15.017c-2.239,2.546-4.734,6.491-6.062,9.04
		c9.777,15.318,32.326,9.419,43.328,2.221c5.175-3.385,9.871-7.207,13.956-11.301h5.127v9.937
		c-18.079,2.775-31.971,18.436-31.971,37.276c0,0.835,0.039,1.659,0.091,2.48h-6.47v24.04
		c-58.589,18.665-101.029,73.519-101.029,138.296c0,80.148,64.973,145.123,145.123,145.123s145.125-64.975,145.125-145.123
		C401.124,269.866,358.682,215.01,300.094,196.347z M163.153,346.541l-14.971,0.927c-0.051-0.81-1.175-20.099,4.468-42.237
		c7.708-30.241,24.403-51.177,48.278-60.546l5.479,13.964C159.519,277.047,163.111,345.848,163.153,346.541z M270.977,172.307
		h-29.956c-0.133-0.809-0.22-1.633-0.22-2.48c0-8.378,6.818-15.197,15.197-15.197c8.38,0,15.196,6.819,15.196,15.197
		C271.195,170.674,271.111,171.499,270.977,172.307z"/>
</g>
</svg>
