<?xml version="1.0" encoding="iso-8859-1"?>
<!-- Generator: Adobe Illustrator 16.0.0, SVG Export Plug-In . SVG Version: 6.00 Build 0)  -->
<!DOCTYPE svg PUBLIC "-//W3C//DTD SVG 1.1//EN" "http://www.w3.org/Graphics/SVG/1.1/DTD/svg11.dtd">
<svg version="1.1" xmlns="http://www.w3.org/2000/svg" xmlns:xlink="http://www.w3.org/1999/xlink" x="0px" y="0px" width="512px"
	 height="512px" viewBox="0 0 512 512" style="enable-background:new 0 0 512 512;" xml:space="preserve">
<g id="Artwork">
</g>
<g id="Layer_2">
	<path d="M325.024,147.441c0.127-0.636,0.196-1.292,0.196-1.966c0.003-7.817,0.002-15.633,0-23.45l0-5.861
		c0-3.684-2.026-7.07-5.273-8.811c-9.508-5.101-19.046-9.057-28.602-11.884c1.987-4.713,3.042-9.81,3.042-15.039
		c0-21.367-17.383-38.75-38.75-38.75s-38.75,17.383-38.75,38.75c0,5.229,1.055,10.327,3.042,15.04
		c-9.555,2.827-19.093,6.783-28.602,11.882c-3.248,1.742-5.274,5.128-5.274,8.814c0.001,9.768,0.001,19.536-0.001,29.304
		c0,0.675,0.069,1.334,0.196,1.972c-58.622,26.521-99.509,85.565-99.509,153.979c0,93.13,75.767,168.897,168.897,168.897
		s168.897-75.767,168.897-168.897C424.535,233.007,383.646,173.963,325.024,147.441z M255.637,61.681
		c10.339,0,18.75,8.411,18.75,18.75c0,3.407-0.918,6.703-2.632,9.578H239.52c-1.714-2.875-2.632-6.171-2.632-9.578
		C236.887,70.092,245.298,61.681,255.637,61.681z M206.054,122.28c33.313-16.203,65.86-16.203,99.167,0
		c0.001,5.892,0,11.783-0.001,17.674c-15.686-4.827-32.335-7.432-49.583-7.432s-33.898,2.605-49.584,7.432
		C206.054,134.063,206.055,128.172,206.054,122.28z M255.637,152.523c47.674,0,90.183,22.525,117.454,57.489
		c-7.279,2.548-12.159,7.041-16.058,10.644c-4.955,4.58-7.945,7.344-14.852,7.344s-9.897-2.764-14.852-7.344
		C321.551,215.315,313.636,208,298.903,208c-14.732,0-22.646,7.315-28.424,12.657c-4.954,4.579-7.944,7.343-14.848,7.343
		c-6.905,0-9.895-2.764-14.85-7.343C235.003,215.315,227.089,208,212.357,208s-22.646,7.315-28.424,12.657
		c-4.954,4.579-7.944,7.343-14.848,7.343c-6.904,0-9.894-2.764-14.847-7.343c-3.897-3.603-8.777-8.096-16.055-10.644
		C165.454,175.049,207.962,152.523,255.637,152.523z M126.135,228.008c6.671,0.087,9.652,2.83,14.526,7.335
		C146.44,240.685,154.354,248,169.085,248c14.732,0,22.646-7.315,28.424-12.657c4.954-4.579,7.944-7.343,14.848-7.343
		c6.904,0,9.895,2.764,14.849,7.343c5.778,5.341,13.692,12.657,28.425,12.657c14.732,0,22.646-7.315,28.424-12.657
		c4.954-4.579,7.944-7.343,14.848-7.343c6.906,0,9.897,2.764,14.852,7.344c5.779,5.342,13.694,12.656,28.427,12.656
		c14.733,0,22.647-7.314,28.427-12.656c4.875-4.506,7.857-7.248,14.53-7.335c12.337,21.679,19.396,46.736,19.396,73.414
		c0,12.838-1.633,25.301-4.703,37.194c-0.757-0.166-1.541-0.259-2.347-0.259c-16.098,0-24.746,7.993-31.06,13.829
		c-5.414,5.003-8.682,8.023-16.228,8.023s-10.813-3.02-16.228-8.023c-6.314-5.836-14.962-13.829-31.06-13.829
		c-16.097,0-24.743,7.993-31.057,13.829c-5.413,5.003-8.68,8.023-16.224,8.023c-7.544,0-10.812-3.02-16.225-8.023
		c-6.314-5.836-14.961-13.829-31.058-13.829c-16.096,0-24.743,7.993-31.057,13.829c-5.412,5.003-8.679,8.023-16.223,8.023
		s-10.811-3.02-16.223-8.023c-6.314-5.836-14.96-13.829-31.057-13.829c-0.807,0-1.59,0.094-2.347,0.259
		c-3.069-11.893-4.703-24.356-4.703-37.194C106.74,274.745,113.798,249.687,126.135,228.008z M255.637,450.319
		c-60.979,0-113.504-36.851-136.5-89.448c4.134,1.143,6.941,3.725,10.875,7.361c6.313,5.836,14.96,13.829,31.056,13.829
		s24.743-7.993,31.057-13.829c5.412-5.003,8.679-8.023,16.223-8.023c7.544,0,10.812,3.02,16.225,8.023
		c6.314,5.836,14.961,13.829,31.058,13.829s24.743-7.993,31.057-13.829c5.413-5.003,8.68-8.023,16.224-8.023
		c7.546,0,10.813,3.02,16.228,8.024c6.314,5.836,14.962,13.829,31.06,13.829s24.746-7.993,31.06-13.829
		c3.936-3.638,6.744-6.22,10.88-7.362C369.141,413.468,316.616,450.319,255.637,450.319z"/>
</g>
</svg>
