<?xml version="1.0" encoding="iso-8859-1"?>
<!-- Generator: Adobe Illustrator 16.0.0, SVG Export Plug-In . SVG Version: 6.00 Build 0)  -->
<!DOCTYPE svg PUBLIC "-//W3C//DTD SVG 1.1//EN" "http://www.w3.org/Graphics/SVG/1.1/DTD/svg11.dtd">
<svg version="1.1" xmlns="http://www.w3.org/2000/svg" xmlns:xlink="http://www.w3.org/1999/xlink" x="0px" y="0px" width="512px"
	 height="512px" viewBox="0 0 512 512" style="enable-background:new 0 0 512 512;" xml:space="preserve">
<g id="Artwork">
</g>
<g id="Layer_3">
	<path d="M399.152,327.488l-23.443-13.535l54.6-18.937l-6.335-18.265l-70.405,24.417l-20.545-11.859l0.506-1.216
		c4.24-10.209,6.391-21.007,6.391-32.094s-2.15-21.885-6.391-32.093l-0.506-1.216l20.545-11.86l70.405,24.416l6.334-18.264
		l-54.599-18.936l23.444-13.536l49.748,17.254l6.335-18.265l-33.942-11.772l31.069-17.937l-9.666-16.742l-31.071,17.938
		l6.777-35.282l-18.984-3.646l-9.932,51.709l-23.444,13.537l10.9-56.753l-18.984-3.647l-14.057,73.183l-20.578,11.881l-0.801-1.041
		c-13.7-17.804-33.429-29.206-55.553-32.107l-1.305-0.171v-23.732l56.349-48.764l-12.649-14.617l-43.699,37.816V96.281
		l39.815-34.455l-12.649-14.618l-27.166,23.509V34.841h-19.332v35.876l-27.166-23.509l-12.649,14.618l39.815,34.455v27.072
		l-43.698-37.816l-12.65,14.617l56.349,48.764v23.732l-1.305,0.171c-22.124,2.901-41.853,14.304-55.553,32.107l-0.801,1.041
		l-20.578-11.882l-14.057-73.182l-18.984,3.647l10.9,56.751l-23.444-13.535l-9.932-51.709l-18.984,3.646l6.777,35.281
		l-31.071-17.938l-9.666,16.742l31.071,17.938l-33.943,11.772l6.335,18.266l49.748-17.255l23.443,13.535l-54.6,18.937l6.335,18.264
		l70.405-24.418l20.545,11.862l-0.506,1.216c-4.24,10.208-6.391,21.006-6.391,32.093s2.15,21.885,6.391,32.094l0.506,1.216
		l-20.545,11.859l-70.406-24.416l-6.334,18.264l54.6,18.936l-23.444,13.536l-49.748-17.254l-6.335,18.265l33.942,11.771
		l-31.069,17.938l9.666,16.742l31.071-17.938l-6.777,35.282l18.984,3.646l9.932-51.71l23.444-13.535l-10.9,56.753l18.984,3.646
		l14.056-73.181l20.579-11.882l0.801,1.041c13.699,17.803,33.429,29.206,55.553,32.108l1.305,0.171v23.73l-56.349,48.765
		l12.65,14.617l43.698-37.817v27.073l-39.815,34.456l12.649,14.617l27.166-23.509v35.876h19.332v-35.877l27.166,23.51l12.649-14.617
		l-39.815-34.457v-27.071l43.699,37.816l12.649-14.617l-56.349-48.764v-23.731l1.305-0.171
		c22.124-2.902,41.854-14.306,55.553-32.108l0.801-1.041l20.578,11.881l14.057,73.183l18.984-3.647l-10.9-56.751l23.444,13.535
		l9.932,51.709l18.984-3.646l-6.776-35.282l31.069,17.939l9.666-16.742l-31.07-17.938l33.944-11.772l-6.335-18.265L399.152,327.488z
		 M256,320.589c-35.614,0-64.589-28.975-64.589-64.589s28.975-64.589,64.589-64.589s64.589,28.975,64.589,64.589
		S291.614,320.589,256,320.589z"/>
</g>
</svg>
