<?xml version="1.0" encoding="iso-8859-1"?>
<!-- Generator: Adobe Illustrator 16.0.0, SVG Export Plug-In . SVG Version: 6.00 Build 0)  -->
<!DOCTYPE svg PUBLIC "-//W3C//DTD SVG 1.1//EN" "http://www.w3.org/Graphics/SVG/1.1/DTD/svg11.dtd">
<svg version="1.1" xmlns="http://www.w3.org/2000/svg" xmlns:xlink="http://www.w3.org/1999/xlink" x="0px" y="0px" width="512px"
	 height="512px" viewBox="0 0 512 512" style="enable-background:new 0 0 512 512;" xml:space="preserve">
<g id="Artwork">
</g>
<g id="Layer_2">
	<g>
		<rect x="106.199" y="242.891" width="299.603" height="226.489"/>
		<path d="M375.282,135.896c0.259-0.204,0.527-0.399,0.781-0.608c9.537-7.877,19.695-23.319,13.929-52.146
			c-5.403-27.015-19.429-36.197-30.244-39.144c-18.923-5.159-42.609,4.128-72.408,28.386c-13.663,11.122-25.197,22.676-31.34,29.111
			c-6.143-6.435-17.677-17.989-31.34-29.111c-29.799-24.257-53.485-33.541-72.408-28.386c-10.815,2.946-24.841,12.129-30.244,39.143
			c-5.765,28.827,4.263,44.161,13.691,51.949c0.335,0.277,0.688,0.538,1.034,0.806H81.715v83.996h156.286v-83.067l35.998,1.576
			v81.491h156.286v-83.996H375.282z M153.441,113.613c-5.192-4.289-6.576-12.702-4.115-25.007
			c1.441-7.205,4.388-16.129,10.246-17.727c0.643-0.175,1.652-0.355,3.082-0.355c6.008,0,19.432,3.181,44.168,23.263
			c7.362,5.977,14.135,12.188,19.613,17.489C197.568,119.448,165.567,123.629,153.441,113.613z M358.321,113.811
			c-12.757,10.538-46.119,6.065-73.948-1.376c5.673-5.543,12.899-12.23,20.805-18.648c30.624-24.861,43.909-23.821,47.25-22.907
			c5.857,1.598,8.805,10.522,10.246,17.728C366.383,107.15,360.315,112.163,358.321,113.811z"/>
	</g>
</g>
</svg>
