<?xml version="1.0" encoding="iso-8859-1"?>
<!-- Generator: Adobe Illustrator 16.0.0, SVG Export Plug-In . SVG Version: 6.00 Build 0)  -->
<!DOCTYPE svg PUBLIC "-//W3C//DTD SVG 1.1//EN" "http://www.w3.org/Graphics/SVG/1.1/DTD/svg11.dtd">
<svg version="1.1" xmlns="http://www.w3.org/2000/svg" xmlns:xlink="http://www.w3.org/1999/xlink" x="0px" y="0px" width="512px"
	 height="512px" viewBox="0 0 512 512" style="enable-background:new 0 0 512 512;" xml:space="preserve">
<g id="Artwork">
</g>
<g id="Layer_3">
	<path d="M396.676,356.47c-28.269-25.442-49.445-47.649-68.104-71.618h29.546c4.141,0,7.853-2.552,9.336-6.417
		s0.432-8.246-2.646-11.016c-24.529-22.076-58.057-60.418-62.611-69.2h42.578c4.141,0,7.853-2.552,9.336-6.417
		s0.432-8.246-2.646-11.016c-29.489-26.541-49.67-52.252-71.525-90.473l-1.979-11.538l12.652-12.333
		c1.749-1.705,2.378-4.254,1.623-6.577c-0.754-2.323-2.762-4.015-5.179-4.367l-17.485-2.541l-7.818-15.843
		c-1.081-2.19-3.312-3.577-5.754-3.577s-4.673,1.387-5.754,3.577l-7.818,15.843l-17.485,2.541c-2.417,0.352-4.425,2.044-5.179,4.367
		c-0.755,2.322-0.126,4.872,1.623,6.577l12.652,12.333l-1.995,11.632c-22.195,38.93-41.661,63.521-71.504,90.379
		c-3.078,2.77-4.13,7.15-2.646,11.016s5.195,6.417,9.336,6.417h42.58c-16.952,24.295-36.003,45.251-62.613,69.2
		c-3.078,2.77-4.13,7.15-2.646,11.016s5.195,6.417,9.336,6.417h29.546c-0.215,0.275-0.427,0.552-0.642,0.826
		c-0.091,0.107-0.174,0.219-0.259,0.329c-18.439,23.53-39.39,45.429-67.204,70.463c-3.078,2.77-4.13,7.149-2.646,11.015
		s5.195,6.417,9.336,6.417H246v98.145c0,5.523,4.478,10,10,10s10-4.477,10-10v-98.145h71.662c0.006,0,0.012,0.001,0.018,0.001
		c0.007,0,0.014-0.001,0.021-0.001h52.286c4.141,0,7.853-2.552,9.336-6.417S399.754,359.239,396.676,356.47z M247.608,65.17
		c2.09-0.303,3.896-1.616,4.831-3.51l3.558-7.209l3.558,7.209c0.935,1.894,2.741,3.207,4.831,3.51l7.958,1.157l-5.758,5.613
		c-1.512,1.474-2.202,3.598-1.845,5.679l1.346,7.85c-0.022,0.011-7.104-3.667-7.104-3.667c-0.935-0.491-1.96-0.737-2.985-0.737
		s-2.051,0.246-2.985,0.737c0,0-7.029,3.582-7.085,3.553l1.326-7.735c0.357-2.082-0.333-4.206-1.845-5.679l-5.758-5.613
		L247.608,65.17z M250.838,97.442l5.159-2.712l5.071,2.666c0,0,20.932,39.979,40.527,60.58
		c-39.994-6.267-59.025-27.436-65.211-35.977C244.313,110.875,250.838,97.442,250.838,97.442z M192.141,178.219
		c11.941-12.209,22.471-24.776,32.555-38.886c11.275,13.017,35.063,33.212,77.125,38.886h-18.242h-55.154H192.141z M233.903,198.219
		h44.195c1.971,3.044,3.958,6.029,5.972,8.966c-10.768,7.769-35.54,22.14-77.359,27.991
		C216.54,223.431,225.384,211.378,233.903,198.219z M179.165,264.852c2.606-2.558,5.132-5.098,7.597-7.631
		c59.465-3.479,94.047-22.88,109.082-33.818c10.893,14.179,22.85,27.567,36.991,41.449h-24.177H203.342H179.165z M147.5,353.902
		c16.501-15.817,30.529-30.802,43.282-46.251c20.534,21.506,46.688,36.25,71.171,46.251H147.5z M338.283,353.902
		c-7.192-0.926-89.601-12.55-134.964-62.129c1.729-2.289,3.446-4.591,5.144-6.922h95.074c17.479,24.008,36.512,45.613,60.963,69.051
		H338.283z"/>
</g>
</svg>
