<?xml version="1.0" encoding="utf-8"?>
<!-- Generator: Adobe Illustrator 15.0.0, SVG Export Plug-In . SVG Version: 6.00 Build 0)  -->
<!DOCTYPE svg PUBLIC "-//W3C//DTD SVG 1.1//EN" "http://www.w3.org/Graphics/SVG/1.1/DTD/svg11.dtd">
<svg version="1.1" id="Capa_1" xmlns="http://www.w3.org/2000/svg" xmlns:xlink="http://www.w3.org/1999/xlink" x="0px" y="0px"
	 width="600px" height="600px" viewBox="0 0 600 600" enable-background="new 0 0 600 600" xml:space="preserve">
<g>
	<path fill="#222221" d="M313.639,236.077l-73.226,37.063c-14.742,7.462-25.696,20.217-30.844,35.917s-3.874,32.466,3.588,47.207
		c1.409,2.784,4.224,4.39,7.144,4.39c1.215,0,2.448-0.278,3.606-0.864c3.942-1.995,5.521-6.809,3.525-10.75
		c-5.532-10.93-6.476-23.358-2.66-34.997s11.937-21.096,22.866-26.627l73.225-37.063c22.559-11.418,50.205-2.354,61.624,20.206
		c1.995,3.94,6.809,5.518,10.751,3.524c3.941-1.995,5.52-6.809,3.524-10.751C381.359,232.902,344.07,220.677,313.639,236.077z"/>
	<path fill="#222221" d="M542.983,271.162l-75.868-149.894c-0.958-1.894-2.629-3.328-4.645-3.989
		c-2.018-0.661-4.213-0.494-6.105,0.464c-22.114,11.193-41.07,31.564-52.01,55.893c-6.135,13.643-9.215,27.301-9.244,40.3
		c-13.359-10.264-29.945-16.071-47.562-16.071c-12.299,0-24.136,2.835-35.18,8.425l-95.209,48.19
		c-18.595,9.412-32.412,25.502-38.906,45.306c-2.792,8.516-4.077,17.278-3.897,25.98c-16.589-12.188-38.756-19.146-63.279-19.146
		c-18.239,0-35.714,3.966-50.537,11.468c-1.893,0.958-3.328,2.629-3.989,4.646c-0.661,2.016-0.495,4.212,0.464,6.104l75.868,149.894
		c0.958,1.894,2.629,3.328,4.645,3.989c0.812,0.267,1.653,0.398,2.492,0.398c1.244,0,2.483-0.29,3.613-0.862
		c22.114-11.193,41.07-31.564,52.009-55.892c6.135-13.643,9.215-27.301,9.244-40.301c13.36,10.265,29.945,16.072,47.563,16.072
		c12.299,0,24.136-2.835,35.18-8.425l95.209-48.189c18.595-9.412,32.413-25.502,38.906-45.307
		c2.792-8.515,4.076-17.278,3.896-25.981c16.589,12.188,38.757,19.145,63.278,19.146c0.001,0,0,0,0.002,0
		c18.236,0,35.713-3.966,50.535-11.468c1.893-0.958,3.328-2.629,3.988-4.646C544.108,275.251,543.941,273.055,542.983,271.162z
		 M181.052,419.804c-8.147,18.118-21.916,34.155-37.687,44.205L75.082,329.101c10.915-4.255,23.203-6.48,35.996-6.48
		c25.68,0,58.001,9.645,71.701,36.711C191.475,376.513,190.862,397.988,181.052,419.804z M406.543,295.231
		c-5.162,15.743-16.146,28.534-30.928,36.016l-95.209,48.189c-8.784,4.445-18.189,6.7-27.955,6.7
		c-23.545,0-44.772-13.04-55.397-34.03c-7.482-14.782-8.759-31.594-3.597-47.336c5.162-15.743,16.146-28.534,30.928-36.016
		l95.208-48.19c8.784-4.445,18.189-6.7,27.955-6.7c23.545,0,44.771,13.04,55.396,34.03
		C410.428,262.677,411.705,279.488,406.543,295.231z M488.922,277.38c-25.68,0-58.001-9.645-71.701-36.712
		c-8.695-17.18-8.082-38.655,1.728-60.471c8.147-18.119,21.915-34.156,37.687-44.206l68.283,134.908
		C514.003,275.154,501.715,277.38,488.922,277.38z"/>
</g>
</svg>
