<?xml version="1.0" encoding="iso-8859-1"?>
<!-- Generator: Adobe Illustrator 16.0.0, SVG Export Plug-In . SVG Version: 6.00 Build 0)  -->
<!DOCTYPE svg PUBLIC "-//W3C//DTD SVG 1.1//EN" "http://www.w3.org/Graphics/SVG/1.1/DTD/svg11.dtd">
<svg version="1.1" xmlns="http://www.w3.org/2000/svg" xmlns:xlink="http://www.w3.org/1999/xlink" x="0px" y="0px" width="512px"
	 height="512px" viewBox="0 0 512 512" style="enable-background:new 0 0 512 512;" xml:space="preserve">
<g id="Artwork">
</g>
<g id="Layer_2">
	<path d="M448.086,97.989c-10.793-6.139-23.324-9.251-37.246-9.251c-28.93,0-65.109,13.782-107.531,40.965
		c-21.326,13.663-38.738,27.185-47.309,34.105c-8.569-6.92-25.981-20.441-47.307-34.105C166.27,102.521,130.09,88.738,101.16,88.738
		c-13.922,0-26.454,3.112-37.244,9.25c-12.668,7.202-33.383,24.977-29.791,63.099c1.8,19.1,9.12,39.516,16.198,59.259
		c4.412,12.304,11.907,37.014,12.062,37.414c4.335,16.01,13.953,27.217,27.908,32.427c6.122,2.286,13.074,3.427,20.839,3.427
		c19.767,0,44.791-7.395,74.74-22.119c15.27-7.507,28.931-15.502,38.776-21.619c-28.405,39.363-57.008,95.78-57.008,163.387
		c0,5.522,4.478,10,10,10c5.523,0,10-4.478,10-10c0-72.083,35.594-130.948,65.453-167.637c0.049-0.061,0.089-0.125,0.137-0.186
		h5.541c0.047,0.061,0.086,0.125,0.135,0.186c29.859,36.688,65.453,95.554,65.453,167.637c0,5.522,4.479,10,10,10
		c5.523,0,10-4.478,10-10c0-67.558-28.561-123.941-56.947-163.301c9.836,6.105,23.441,14.062,38.641,21.533
		c29.951,14.726,54.973,22.119,74.74,22.119c7.762,0,14.717-1.141,20.838-3.427c13.795-5.149,23.352-16.16,27.756-31.876
		c0.258-0.568,7.879-25.665,12.289-37.965c7.08-19.741,14.398-40.155,16.199-59.26C481.467,122.966,460.752,105.19,448.086,97.989z
		 M97.288,271.45c-7.406-2.765-12.221-8.167-15.004-16.861c24.111-57.992,110.757-47.731,132.805-44.095
		c-0.053,0.754-0.089,1.512-0.089,2.279c0,6.098,1.684,11.807,4.604,16.697C188.938,249.271,127.37,282.681,97.288,271.45z
		 M222.859,191.557c-6.959-1.369-34.842-6.239-65.966-3.284c-37.585,3.566-65.646,17.258-82.559,40.001
		c-1.68-4.901-3.443-9.82-5.186-14.678c-6.66-18.579-13.549-37.79-15.112-54.386c-1.935-20.531,4.715-35.279,19.766-43.836
		c7.741-4.403,16.945-6.636,27.357-6.636c25.043,0,57.592,12.72,96.743,37.805c21.638,13.863,38.988,27.493,46.636,33.718
		C235.889,181.086,228.217,185.301,222.859,191.557z M271.969,222.856l-0.922,0.64c-1.949,1.224-4.246,1.943-6.713,1.943h-16.668
		c-6.983,0-12.666-5.682-12.666-12.666s5.683-12.666,12.666-12.666h16.668c6.984,0,12.666,5.682,12.666,12.666
		C277,216.889,275.02,220.541,271.969,222.856z M414.641,271.448c-30.025,11.224-91.563-22.145-122.264-41.945
		c2.934-4.897,4.623-10.618,4.623-16.729c0-0.77-0.035-1.531-0.088-2.288c22.029-3.665,108.545-14.018,132.762,43.995
		C426.896,263.237,422.074,268.671,414.641,271.448z M457.963,159.21c-1.564,16.599-8.451,35.809-15.113,54.386
		c-1.74,4.856-3.506,9.775-5.184,14.678c-16.914-22.744-44.975-36.435-82.561-40.001c-31.119-2.954-59.004,1.915-65.965,3.284
		c-5.357-6.256-13.029-10.471-21.68-11.296c7.646-6.224,24.998-19.854,46.637-33.718c39.15-25.085,71.699-37.805,96.742-37.805
		c10.412,0,19.617,2.232,27.359,6.637C453.248,123.931,459.898,138.68,457.963,159.21z"/>
</g>
</svg>
