<?xml version="1.0" encoding="utf-8"?>
<!-- Generator: Adobe Illustrator 15.0.0, SVG Export Plug-In . SVG Version: 6.00 Build 0)  -->
<!DOCTYPE svg PUBLIC "-//W3C//DTD SVG 1.1//EN" "http://www.w3.org/Graphics/SVG/1.1/DTD/svg11.dtd">
<svg version="1.1" id="Layer_1" xmlns="http://www.w3.org/2000/svg" xmlns:xlink="http://www.w3.org/1999/xlink" x="0px" y="0px"
	 width="50px" height="50px" viewBox="0 0 50 50" enable-background="new 0 0 50 50" xml:space="preserve">
<g>
	<g>
		<polygon fill="#231F20" points="25,6 25.917,7.858 27.967,8.156 26.483,9.602 26.834,11.643 25,10.679 23.167,11.643 
			23.517,9.602 22.034,8.156 24.083,7.858 		"/>
	</g>
	<g>
		<path fill="#231F20" d="M39,38.578l-6.322-6.322h5.265l-6.489-6.488h4.331l-5.407-5.407h2.888L25,12.097l-8.265,8.264h2.888
			l-5.407,5.407h4.331l-6.488,6.488h5.264L11,38.578h12.301L22.323,44h5.354l-0.978-5.422H39z M29.902,33.416l0.205,0.416
			l0.458,0.066l-0.332,0.324l0.079,0.456l-0.41-0.216l-0.41,0.216l0.078-0.456l-0.331-0.324l0.458-0.066L29.902,33.416z
			 M26.731,19.404l0.459-0.931l0.459,0.931l1.027,0.149l-0.743,0.725l0.176,1.022l-0.919-0.483L26.272,21.3l0.175-1.022
			l-0.743-0.725L26.731,19.404z M24.781,15.771l0.205-0.416l0.205,0.416l0.458,0.066l-0.332,0.324l0.079,0.456l-0.41-0.216
			l-0.41,0.216l0.078-0.456l-0.331-0.324L24.781,15.771z M22.396,21.837l0.31-0.627l0.31,0.627l0.692,0.101l-0.5,0.488l0.118,0.689
			l-0.619-0.325l-0.619,0.325l0.118-0.689l-0.5-0.488L22.396,21.837z M24.911,35.584l-2.003-1.053l-2.003,1.053l0.382-2.229
			l-1.618-1.581l2.239-0.325l1-2.029l1.002,2.029l2.238,0.325l-1.62,1.581L24.911,35.584z M25.421,25.773l1.463-0.212l0.653-1.326
			l0.655,1.326l1.462,0.212l-1.059,1.032l0.251,1.457l-1.309-0.688l-1.309,0.688l0.25-1.457L25.421,25.773z"/>
	</g>
</g>
</svg>
