<?xml version="1.0" encoding="iso-8859-1"?>
<!-- Generator: Adobe Illustrator 16.0.0, SVG Export Plug-In . SVG Version: 6.00 Build 0)  -->
<!DOCTYPE svg PUBLIC "-//W3C//DTD SVG 1.1//EN" "http://www.w3.org/Graphics/SVG/1.1/DTD/svg11.dtd">
<svg version="1.1" xmlns="http://www.w3.org/2000/svg" xmlns:xlink="http://www.w3.org/1999/xlink" x="0px" y="0px" width="512px"
	 height="512px" viewBox="0 0 512 512" style="enable-background:new 0 0 512 512;" xml:space="preserve">
<g id="Artwork">
</g>
<g id="Layer_2">
	<g>
		<path d="M200.138,290.871l36.631,17.853c0.152,0.073,0.247,0.226,0.247,0.394s-0.093,0.319-0.244,0.394l-10.45,5.168
			c-0.979,0.484-1.451,1.616-1.108,2.651c0.344,1.038,1.398,1.664,2.472,1.465l10.232-1.86c0.139,0,0.271,0.066,0.353,0.179
			c0.099,0.135,0.112,0.317,0.034,0.464l-18.31,34.411c-0.513,0.964-0.237,2.159,0.646,2.801c0.883,0.641,2.104,0.533,2.862-0.251
			l27.661-28.659c0.115-0.118,0.277-0.167,0.45-0.112c0.157,0.051,0.274,0.189,0.298,0.354l1.643,11.238
			c0.157,1.076,1.08,1.873,2.166,1.873c0.004,0,0.009,0,0.013,0c1.092-0.006,2.012-0.816,2.157-1.897l1.501-11.176
			c0.022-0.165,0.139-0.305,0.298-0.357c0.158-0.052,0.336-0.005,0.451,0.113l27.626,28.624c0.426,0.441,1,0.669,1.576,0.669
			c0.005,0,0.01,0,0.017,0c1.209,0,2.189-0.98,2.189-2.189c0-0.465-0.145-0.897-0.393-1.252l-18.305-34.402
			c-0.078-0.146-0.065-0.326,0.032-0.461c0.083-0.116,0.204-0.2,0.428-0.175l10.228,1.745c0.137,0.021,0.267,0.03,0.408,0.03
			c1.199-0.012,2.167-0.987,2.167-2.189c0-0.937-0.588-1.736-1.416-2.049l-10.046-4.823c-0.15-0.072-0.248-0.228-0.248-0.395
			c0-0.166,0.096-0.32,0.246-0.395l36.484-17.782c0.981-0.479,1.46-1.606,1.123-2.645s-1.387-1.665-2.463-1.479l-39.245,6.925
			c-0.137,0-0.269-0.067-0.351-0.181c-0.098-0.133-0.111-0.314-0.034-0.462l4.677-8.913c0.507-0.967,0.225-2.159-0.663-2.796
			c-0.887-0.637-2.107-0.522-2.861,0.268l-7.17,7.516c-0.114,0.119-0.275,0.17-0.452,0.114c-0.158-0.052-0.275-0.191-0.298-0.355
			l-5.595-39.891c-0.151-1.081-1.076-1.885-2.168-1.885s-2.017,0.804-2.168,1.885l-5.656,40.325
			c-0.023,0.164-0.139,0.303-0.295,0.354c-0.159,0.052-0.335,0.009-0.452-0.109l-7.584-7.768c-0.762-0.781-1.983-0.881-2.864-0.234
			c-0.879,0.646-1.148,1.842-0.629,2.804l4.639,8.598c0.079,0.146,0.067,0.328-0.031,0.465c-0.082,0.113-0.205,0.171-0.431,0.174
			l-38.687-6.833c-1.071-0.186-2.126,0.441-2.463,1.48C198.677,289.265,199.156,290.393,200.138,290.871z"/>
		<path d="M325.024,147.441c0.126-0.635,0.196-1.291,0.196-1.963c0.003-7.817,0.002-15.636,0-23.453l0-5.861
			c0-3.685-2.027-7.07-5.273-8.812c-9.508-5.1-19.047-9.055-28.602-11.882c1.987-4.713,3.042-9.811,3.042-15.04
			c0-21.367-17.383-38.75-38.75-38.75s-38.75,17.383-38.75,38.75c0,5.229,1.055,10.327,3.042,15.04
			c-9.555,2.827-19.093,6.781-28.602,11.88c-3.248,1.742-5.275,5.129-5.274,8.815c0.001,9.767,0.001,19.534-0.001,29.302
			c0,0.676,0.069,1.336,0.197,1.975c-58.622,26.521-99.51,85.565-99.51,153.979c0,93.131,75.767,168.897,168.897,168.897
			s168.897-75.767,168.897-168.897C424.535,233.007,383.646,173.963,325.024,147.441z M255.637,152.523
			c40.007,0,76.375,15.865,103.155,41.628c-25.052,14.313-62.231,22.665-102.313,22.665c-40.114,0-78.382-8.768-103.349-23.29
			C179.848,168.131,215.954,152.523,255.637,152.523z M255.637,61.681c10.339,0,18.75,8.411,18.75,18.75
			c0,3.407-0.918,6.703-2.632,9.578H239.52c-1.714-2.875-2.632-6.171-2.632-9.578C236.887,70.092,245.298,61.681,255.637,61.681z
			 M206.054,122.28c33.314-16.201,65.86-16.2,99.167,0.001c0.001,5.891,0,11.782-0.001,17.674
			c-15.686-4.827-32.335-7.432-49.583-7.432s-33.898,2.604-49.584,7.432C206.054,134.063,206.055,128.172,206.054,122.28z
			 M140.263,207.409c27.984,17.609,70.507,27.944,116.216,27.944c44.983,0,87.097-10.078,115.093-27.248
			c20.605,25.549,32.962,58.015,32.962,93.316c0,35.073-12.197,67.348-32.563,92.82c-27.98-17.72-70.634-28.128-116.5-28.128
			c-45.626,0-88.293,10.372-116.278,27.993c-20.3-25.452-32.454-57.674-32.454-92.686
			C106.74,265.799,119.32,233.063,140.263,207.409z M151.855,408.08c25.055-14.778,62.83-23.429,103.617-23.429
			c40.363,0,78.854,8.88,103.809,23.564c-26.826,26.042-63.391,42.104-103.643,42.104
			C215.316,450.319,178.693,434.201,151.855,408.08z"/>
	</g>
</g>
</svg>
