<?xml version="1.0" encoding="utf-8"?>
<!-- Generator: Adobe Illustrator 15.0.0, SVG Export Plug-In . SVG Version: 6.00 Build 0)  -->
<!DOCTYPE svg PUBLIC "-//W3C//DTD SVG 1.1//EN" "http://www.w3.org/Graphics/SVG/1.1/DTD/svg11.dtd">
<svg version="1.1" id="Capa_1" xmlns="http://www.w3.org/2000/svg" xmlns:xlink="http://www.w3.org/1999/xlink" x="0px" y="0px"
	 width="600px" height="600px" viewBox="0 0 600 600" enable-background="new 0 0 600 600" xml:space="preserve">
<g>
	<path fill="#222221" d="M300,247.662c-12.131,0-22,9.869-22,22s9.869,22,22,22s22-9.869,22-22S312.131,247.662,300,247.662z
		 M300,275.662c-3.309,0-6-2.691-6-6s2.691-6,6-6s6,2.691,6,6S303.309,275.662,300,275.662z"/>
	<path fill="#222221" d="M300,301.662c-12.131,0-22,9.869-22,22s9.869,22,22,22s22-9.869,22-22S312.131,301.662,300,301.662z
		 M300,329.662c-3.309,0-6-2.691-6-6s2.691-6,6-6s6,2.691,6,6S303.309,329.662,300,329.662z"/>
	<path fill="#222221" d="M339.245,170.437c-3.124-3.124-8.188-3.124-11.313-0.001c-15.402,15.402-40.462,15.401-55.863,0.001
		c-3.124-3.125-8.189-3.124-11.313,0c-3.125,3.124-3.125,8.189,0,11.313c10.821,10.82,25.03,16.229,39.245,16.229
		c14.211,0,28.426-5.411,39.245-16.229C342.369,178.626,342.369,173.561,339.245,170.437z"/>
	<circle fill="#222221" cx="273" cy="136.324" r="11.333"/>
	<circle fill="#222221" cx="327" cy="136.324" r="11.333"/>
	<path fill="#222221" d="M483.891,253.019c-4.67-7.613-12.021-12.972-20.754-15.043c-26.717-6.339-91.764-21.562-106.609-26.428
		C370.301,197.154,378,178.145,378,157.773c0-43.009-34.99-78-78-78c-43.009,0-78,34.991-78,78c0,20.371,7.699,39.381,21.472,53.774
		c-14.845,4.865-79.924,20.097-106.652,26.438c-8.69,2.062-16.041,7.42-20.71,15.033c-4.67,7.613-6.095,16.589-4.014,25.274
		c3.673,15.325,17.417,25.654,32.501,25.654c2.562,0,5.165-0.299,7.762-0.921l25.408-5.938L238,283.359v85.918
		c0,0.217,0.001,0.436,0.004,0.655c0,0-74.252,90.546-75.758,92.252c-12.407,14.055-13.255,34.827,0,48.083
		c6.422,6.422,14.96,9.959,24.042,9.959S203.92,515.08,210,508.334c18.814-20.877,71.154-85.363,71.154-85.363h37.691
		c0,0,53.34,64.152,72.154,85.029c6.08,6.746,13.629,12.227,22.711,12.227s17.621-3.537,24.042-9.959
		c13.256-13.256,12.593-34.193-0.001-48.084c-20.043-22.109-75.756-92.251-75.756-92.251c0.002-0.22,0.004-0.438,0.004-0.655
		v-85.918l60.236,13.729l25.36,5.927c2.608,0.625,5.22,0.925,7.792,0.925c15.106,0,28.844-10.327,32.516-25.647
		C489.985,269.607,488.561,260.632,483.891,253.019z M148.675,287.456c-9.346,2.24-18.779-3.542-21.019-12.892
		c-1.085-4.529-0.342-9.21,2.093-13.181c2.435-3.97,6.27-6.754,10.756-7.828l7.42-1.734c5.351,6.999,8.263,15.54,8.263,24.447
		c0,3.3-0.4,6.55-1.181,9.708L148.675,287.456z M199.016,498.954c-3.399,3.399-7.919,5.272-12.728,5.272s-9.328-1.873-12.728-5.272
		c-7.018-7.019-7.018-18.438,0-25.456l3.257-3.256c12.56,3.424,22.012,13.702,24.37,26.541L199.016,498.954z M426.439,498.954
		c-3.4,3.399-7.92,5.272-12.729,5.272c-4.808,0-9.328-1.873-12.728-5.273l-2.171-2.17c2.357-12.84,11.811-23.117,24.37-26.541
		l3.257,3.256C433.457,480.517,433.457,491.936,426.439,498.954z M355.777,265.531c-2.373-0.542-4.863,0.028-6.766,1.546
		c-1.903,1.519-3.012,3.82-3.012,6.254c0,0-0.092,97.05-0.107,98.741c-0.02,2.018,0.492,4.002,1.762,5.571l64.382,79.61
		c-11.288,4.942-20.278,13.873-25.322,25.01l-57.771-72.287c-1.519-1.899-3.818-3.006-6.25-3.006h-45.387
		c-2.432,0-4.731,1.106-6.25,3.006l-57.771,72.287c-5.044-11.137-14.034-20.067-25.322-25.01l64.382-79.61
		c1.269-1.569,1.779-3.554,1.762-5.571c-0.017-1.979-0.108-98.741-0.108-98.741c0-2.434-1.108-4.735-3.011-6.254
		c-1.902-1.518-4.394-2.086-6.767-1.546l-72.337,16.487c0.193-1.903,0.302-3.82,0.302-5.75c0-10.068-2.671-19.8-7.648-28.33
		c0,0,30.051-6.676,50.536-11.849c43.643-11.021,46.82-14.69,48.922-17.119c1.451-1.676,2.141-3.879,1.907-6.083
		c-0.235-2.204-1.373-4.212-3.145-5.545C247.024,195.5,238,177.433,238,157.773c0-34.187,27.813-62,62-62c34.188,0,62,27.813,62,62
		c0,19.659-9.024,37.727-24.76,49.569c-1.771,1.333-2.91,3.341-3.145,5.545s0.456,4.407,1.906,6.083
		c2.103,2.429,5.279,6.099,48.923,17.119c20.485,5.173,50.536,11.849,50.536,11.849c-4.977,8.53-7.648,18.262-7.648,28.33
		c0,1.93,0.109,3.847,0.303,5.75L355.777,265.531z M472.344,274.564c-2.24,9.35-11.673,15.134-21.062,12.882l-6.287-1.47
		c-0.781-3.158-1.182-6.408-1.182-9.708c0-8.907,2.912-17.448,8.264-24.447l7.377,1.724c4.528,1.085,8.363,3.869,10.799,7.839
		C472.687,265.354,473.43,270.035,472.344,274.564z"/>
</g>
</svg>
