<?xml version="1.0" encoding="iso-8859-1"?>
<!-- Generator: Adobe Illustrator 16.0.0, SVG Export Plug-In . SVG Version: 6.00 Build 0)  -->
<!DOCTYPE svg PUBLIC "-//W3C//DTD SVG 1.1//EN" "http://www.w3.org/Graphics/SVG/1.1/DTD/svg11.dtd">
<svg version="1.1" xmlns="http://www.w3.org/2000/svg" xmlns:xlink="http://www.w3.org/1999/xlink" x="0px" y="0px" width="512px"
	 height="512px" viewBox="0 0 512 512" style="enable-background:new 0 0 512 512;" xml:space="preserve">
<g id="Artwork">
</g>
<g id="Layer_3">
	<g>
		<path d="M294.92,131.832c31.797,12.01,57.282,37.002,69.92,68.569c1.564,3.909,5.318,6.286,9.286,6.286
			c1.237,0,2.495-0.231,3.714-0.719c5.127-2.053,7.619-7.873,5.566-13c-14.716-36.758-44.392-65.86-81.42-79.846
			c-5.167-1.951-10.937,0.656-12.888,5.822C287.146,124.11,289.753,129.881,294.92,131.832z"/>
		<path d="M444.272,435.927l-49.678-72.809c-0.311-0.455-0.666-0.867-1.04-1.259c28.941-33.167,44.729-75.134,44.729-119.611
			c0-100.512-81.772-182.284-182.284-182.284S73.716,141.737,73.716,242.249c0,44.477,15.788,86.444,44.729,119.611
			c-0.374,0.392-0.729,0.804-1.04,1.259l-50,73.281c-2.089,3.063-2.313,7.029-0.581,10.308c1.731,3.278,5.135,5.329,8.842,5.329
			h360.668c0.006,0,0.014,0,0.02,0c5.523,0,10-4.477,10-10C446.354,439.735,445.577,437.617,444.272,435.927z M256,79.964
			c89.483,0,162.284,72.8,162.284,162.284c0,42.395-16.113,82.231-45.461,112.631H266v-31.671h74.248
			c4.104,0,7.792-2.508,9.301-6.325c1.508-3.817,0.53-8.168-2.466-10.974c-15.539-14.551-27.627-27.466-38.235-40.965h11.361
			c4.104,0,7.792-2.508,9.301-6.325c1.508-3.817,0.53-8.169-2.466-10.974c-14.633-13.702-25.575-25.885-35.191-39.383h19.966
			c4.104,0,7.792-2.508,9.3-6.325c1.509-3.817,0.531-8.168-2.464-10.974c-19.708-18.458-40.625-45.29-53.478-68.571
			c-0.854-1.977-2.352-3.693-4.389-4.804c-4.849-2.644-10.923-0.858-13.567,3.992c-12.815,23.499-33.962,50.733-53.875,69.383
			c-2.995,2.806-3.973,7.157-2.464,10.974c1.508,3.817,5.195,6.325,9.3,6.325h19.965c-9.614,13.496-20.558,25.679-35.191,39.384
			c-2.995,2.805-3.973,7.157-2.465,10.974c1.509,3.817,5.196,6.325,9.301,6.325h11.36c-10.607,13.499-22.694,26.413-38.234,40.965
			c-2.996,2.806-3.974,7.157-2.466,10.974c1.509,3.817,5.196,6.325,9.301,6.325H246v31.671H139.177
			c-29.348-30.399-45.461-70.236-45.461-112.631C93.716,152.765,166.517,79.964,256,79.964z M273.34,188.261h-34.68h-14.801
			c11.728-13.096,22.919-27.805,32.134-42.271c9.198,14.367,20.488,29.18,32.184,42.271H273.34z M267.767,208.261
			c8.373,13.243,17.279,24.839,28.283,36.683h-6.94h-66.221h-6.939c11.006-11.845,19.911-23.44,28.284-36.683H267.767z
			 M283.889,264.943c9.402,13.27,19.547,25.468,31.899,38.265H196.212c12.352-12.796,22.498-24.997,31.898-38.265H283.889z
			 M94.595,432.036l36.354-53.281h250.102l36.354,53.281H94.595z"/>
	</g>
</g>
</svg>
