<?xml version="1.0" encoding="utf-8"?>
<!-- Generator: Adobe Illustrator 16.0.0, SVG Export Plug-In . SVG Version: 6.00 Build 0)  -->
<!DOCTYPE svg PUBLIC "-//W3C//DTD SVG 1.1//EN" "http://www.w3.org/Graphics/SVG/1.1/DTD/svg11.dtd">
<svg version="1.1" id="Layer_1" xmlns="http://www.w3.org/2000/svg" xmlns:xlink="http://www.w3.org/1999/xlink" x="0px" y="0px"
	 width="50px" height="50px" viewBox="0 0 50 50" enable-background="new 0 0 50 50" xml:space="preserve">
<g>
	<path d="M29.501,32.174c-1.803,1.115-4.197,1.115-6,0c-1.803,1.115-4.197,1.115-6,0c-0.729,0.451-1.544,0.725-2.394,0.817
		c1.781,3.676,5.536,6.217,9.894,6.217c4.614,0,8.558-2.844,10.191-6.872C33.432,33.277,31.205,33.229,29.501,32.174z"/>
	<path d="M20.501,24.243c1.803-1.115,4.197-1.115,6,0c1.803-1.115,4.197-1.115,6,0c0.73-0.452,1.546-0.726,2.398-0.817
		c-1.258-2.591-3.501-4.616-6.246-5.583v-3.398c0-2.017-1.635-3.652-3.652-3.652c-2.016,0-3.652,1.635-3.652,3.652v3.399
		c-2.973,1.048-5.36,3.333-6.541,6.238C16.57,23.141,18.798,23.189,20.501,24.243z M23.138,14.444c0-1.027,0.836-1.863,1.863-1.863
		s1.863,0.836,1.863,1.863v0.789h-3.727V14.444z"/>
	<path d="M16.302,27.058l0.6-0.799c0.348-0.465,0.853-0.464,1.2,0l0.6,0.8c0.916,1.22,2.685,1.22,3.601,0l0.6-0.799
		c0.348-0.465,0.853-0.464,1.2,0l0.6,0.8c0.916,1.22,2.685,1.22,3.601,0l0.6-0.799c0.348-0.465,0.853-0.464,1.2,0l0.6,0.8
		c0.916,1.22,2.685,1.22,3.601,0l0.6-0.799c0.247-0.331,0.573-0.415,0.866-0.275c-0.107-0.522-0.251-1.03-0.43-1.521
		c-0.615,0.046-1.215,0.336-1.636,0.896l-0.6,0.799c-0.348,0.465-0.853,0.464-1.2,0l-0.6-0.8c-0.916-1.22-2.685-1.22-3.601,0
		l-0.6,0.799c-0.348,0.465-0.853,0.464-1.2,0l-0.6-0.8c-0.916-1.22-2.685-1.22-3.601,0l-0.6,0.799c-0.348,0.465-0.853,0.464-1.2,0
		l-0.6-0.8c-0.916-1.22-2.685-1.22-3.601,0l-0.6,0.799c-0.271,0.362-0.635,0.433-0.948,0.231c-0.083,0.498-0.127,1.009-0.141,1.528
		C14.833,28.103,15.732,27.817,16.302,27.058z"/>
	<path d="M33.701,29.359l-0.6,0.799c-0.348,0.465-0.853,0.464-1.2,0l-0.6-0.8c-0.916-1.22-2.685-1.22-3.601,0l-0.6,0.799
		c-0.348,0.465-0.853,0.464-1.2,0l-0.6-0.8c-0.916-1.22-2.685-1.22-3.601,0l-0.6,0.799c-0.348,0.465-0.853,0.464-1.2,0l-0.6-0.8
		c-0.916-1.22-2.685-1.22-3.601,0l-0.6,0.799c-0.25,0.334-0.58,0.418-0.875,0.272c0.108,0.524,0.265,1.029,0.444,1.523
		c0.613-0.047,1.212-0.337,1.632-0.896l0.6-0.799c0.348-0.465,0.853-0.464,1.2,0l0.6,0.8c0.916,1.22,2.685,1.22,3.601,0l0.6-0.799
		c0.348-0.465,0.853-0.464,1.2,0l0.6,0.8c0.916,1.22,2.685,1.22,3.601,0l0.6-0.799c0.348-0.465,0.853-0.464,1.2,0l0.6,0.8
		c0.916,1.22,2.685,1.22,3.601,0l0.6-0.799c0.268-0.358,0.628-0.434,0.938-0.24c0.083-0.497,0.133-1.003,0.147-1.52
		C35.168,28.315,34.271,28.601,33.701,29.359z"/>
</g>
</svg>
