<?xml version="1.0" encoding="iso-8859-1"?>
<!-- Generator: Adobe Illustrator 16.0.0, SVG Export Plug-In . SVG Version: 6.00 Build 0)  -->
<!DOCTYPE svg PUBLIC "-//W3C//DTD SVG 1.1//EN" "http://www.w3.org/Graphics/SVG/1.1/DTD/svg11.dtd">
<svg version="1.1" xmlns="http://www.w3.org/2000/svg" xmlns:xlink="http://www.w3.org/1999/xlink" x="0px" y="0px" width="512px"
	 height="512px" viewBox="0 0 512 512" style="enable-background:new 0 0 512 512;" xml:space="preserve">
<g id="Artwork">
</g>
<g id="Layer_2">
	<path d="M467.479,346.549l-76.105,2.679c15.682-32.138,10.213-72.076-16.452-98.74L261.512,137.079
		c-26.665-26.667-66.602-32.134-98.736-16.454l2.675-76.104l-39.219-2.514l-9.776,27.226l-27.14,6.62l-7.901,21.558l-24.469,15.093
		L42.01,159.314l79.668,4.242c-13.699,31.515-7.709,69.602,18.023,95.334l113.407,113.408c25.732,25.73,63.819,31.723,95.333,18.022
		l4.244,79.671l46.809-14.938l15.096-24.47l21.557-7.9l6.619-27.139l27.225-9.778L467.479,346.549z M167.705,165.083
		c18.142-18.144,47.662-18.144,65.804-0.002l3.253,3.253l-82.647,30.384C153.925,186.559,158.448,174.341,167.705,165.083z
		 M161.998,223.949l95.33-35.046l35.44,35.437l-96.231,35.379L161.998,223.949z M252.544,315.727l-35.439-35.438l96.233-35.377
		l35.358,35.466L252.544,315.727z M346.916,344.295c-18.142,18.143-47.662,18.143-65.803,0l-8.001-7.999l86.873-31.939
		C362.129,318.493,357.779,333.432,346.916,344.295z"/>
</g>
</svg>
