<?xml version="1.0" encoding="utf-8"?>
<!-- Generator: Adobe Illustrator 16.0.0, SVG Export Plug-In . SVG Version: 6.00 Build 0)  -->
<!DOCTYPE svg PUBLIC "-//W3C//DTD SVG 1.1//EN" "http://www.w3.org/Graphics/SVG/1.1/DTD/svg11.dtd">
<svg version="1.1" id="Layer_1" xmlns="http://www.w3.org/2000/svg" xmlns:xlink="http://www.w3.org/1999/xlink" x="0px" y="0px"
	 width="50px" height="50px" viewBox="0 0 50 50" enable-background="new 0 0 50 50" xml:space="preserve">
<g>
	<polygon points="11.548,34.603 15.7,33.076 16.454,37.435 24.028,24.312 17.488,24.312 	"/>
	<polygon points="32.512,24.312 25.972,24.312 33.546,37.435 34.301,33.076 38.452,34.603 	"/>
	<path d="M37.071,21.512v-6.741c0-0.828-1.004-2.379-4.371-2.026c-3.317,0.348-7.7,4.051-7.7,4.051s-4.407-3.559-7.7-4.051
		c-3.447-0.513-4.371,1.198-4.371,2.026v6.741c0,0.827,1.035,2.024,4.371,2.024c3.33,0,7.7,0,7.7,0s4.366,0,7.7,0
		C36.036,23.536,37.071,22.339,37.071,21.512z M17.3,16.796c-2.407,0-3.263-0.713-3.263-1.324c0-0.612,0.861-1.631,3.263-1.325
		c1.522,0.194,3.8,1.361,5.473,2.649H17.3z M25,21.715c-0.855,0-1.549-0.695-1.549-1.551s0.694-1.549,1.549-1.549
		s1.55,0.693,1.55,1.549S25.855,21.715,25,21.715z M32.7,14.147c2.44-0.347,3.262,0.713,3.262,1.325
		c0,0.611-0.855,1.324-3.262,1.324h-5.475C28.896,15.508,31.178,14.363,32.7,14.147z"/>
</g>
</svg>
