<?xml version="1.0" encoding="iso-8859-1"?>
<!-- Generator: Adobe Illustrator 16.0.0, SVG Export Plug-In . SVG Version: 6.00 Build 0)  -->
<!DOCTYPE svg PUBLIC "-//W3C//DTD SVG 1.1//EN" "http://www.w3.org/Graphics/SVG/1.1/DTD/svg11.dtd">
<svg version="1.1" xmlns="http://www.w3.org/2000/svg" xmlns:xlink="http://www.w3.org/1999/xlink" x="0px" y="0px" width="512px"
	 height="512px" viewBox="0 0 512 512" style="enable-background:new 0 0 512 512;" xml:space="preserve">
<g id="Artwork">
</g>
<g id="Layer_2">
	<path style="fill-rule:evenodd;clip-rule:evenodd;" d="M499.859,132.133c-0.005,0.258-0.01,0.485-0.013,0.625
		C499.849,132.641,499.853,132.441,499.859,132.133z"/>
	<g>
		<path d="M206.926,201.641c0,21.857,17.719,39.576,39.576,39.576h18.997c21.856,0,39.575-17.719,39.575-39.576v-21.367
			c0-21.855-17.719-39.575-39.575-39.575h-18.997c-21.857,0-39.576,17.72-39.576,39.575V201.641z"/>
		<path d="M476.776,145.545c0,0.002,0,0.004,0,0.006c-0.003,0.149-0.006,0.28-0.009,0.403
			C476.771,145.809,476.774,145.669,476.776,145.545z"/>
		<path d="M303.275,136.997c10.232,9.42,16.844,22.705,17.502,37.516c0.059,1.034,0.095,2.073,0.095,3.123v23.071
			c0,0.96-0.025,1.915-0.075,2.863c-0.456,11.461-4.482,22.019-10.991,30.594c37.946,31.288,120.789,82.2,155.229,46.124
			c18.923-19.822,3.295-55.434,4.148-79.051c0.685-18.88,7.2-36.814,7.593-55.687c0-0.004,0-0.007,0-0.012c0-0.002,0-0.004,0-0.005
			c0-0.002,0-0.004,0-0.004c0.013-0.613,0.009-0.426,0-0.012C478.765,47.545,352.54,99.234,303.275,136.997z"/>
		<path d="M190.53,203.579c-0.049-0.95-0.076-1.908-0.076-2.872v-23.071c0-1.05,0.036-2.091,0.095-3.126
			c0.662-14.851,7.306-28.17,17.586-37.592C145.73,87.611,12.105,54.98,38.644,174.485c7.36,33.149-21.78,113.745,32.014,115.013
			c45.981,1.09,95.712-24.478,131.065-55.078C195.098,225.802,190.992,215.153,190.53,203.579z"/>
		<path d="M309.179,235.439c-10.068,12.847-25.71,21.126-43.26,21.126h-20.511c-17.292,0-32.733-8.035-42.814-20.559
			c-10.539,26.203-38.382,79.559-103.825,129.114l60.142-7.127l-16.421,64.863c60.197-45.584,94.497-94.28,113.51-130.049
			c19.014,35.769,53.313,84.465,113.511,130.049l-16.421-64.863l60.141,7.127C347.313,315.206,319.542,261.435,309.179,235.439z"/>
	</g>
</g>
</svg>
