<?xml version="1.0" encoding="iso-8859-1"?>
<!-- Generator: Adobe Illustrator 16.0.0, SVG Export Plug-In . SVG Version: 6.00 Build 0)  -->
<!DOCTYPE svg PUBLIC "-//W3C//DTD SVG 1.1//EN" "http://www.w3.org/Graphics/SVG/1.1/DTD/svg11.dtd">
<svg version="1.1" xmlns="http://www.w3.org/2000/svg" xmlns:xlink="http://www.w3.org/1999/xlink" x="0px" y="0px" width="512px"
	 height="512px" viewBox="0 0 512 512" style="enable-background:new 0 0 512 512;" xml:space="preserve">
<g id="Artwork">
</g>
<g id="Layer_2">
	<path d="M468.945,208.845c-1.576-5.293-7.145-8.305-12.439-6.729l-37.109,11.052l17.086-31.58
		c2.627-4.857,0.82-10.926-4.037-13.554c-4.855-2.626-10.926-0.821-13.553,4.037l-26.602,49.169l-48.438,14.426l14.951-87.181
		c0.643-3.752-0.9-7.543-3.979-9.781c-3.08-2.237-7.164-2.532-10.531-0.761l-78.658,41.353v-52.484l39.531-39.531
		c3.906-3.905,3.906-10.237,0-14.143c-3.906-3.904-10.236-3.904-14.143,0l-25.389,25.389v-38.72c0-5.523-4.477-10-10-10
		s-10,4.477-10,10v38.72L220.249,73.14c-3.905-3.906-10.237-3.905-14.142,0c-3.905,3.905-3.905,10.237,0,14.142l39.531,39.531
		v52.485l-78.659-41.353c-3.37-1.772-7.452-1.477-10.531,0.761c-3.079,2.237-4.622,6.029-3.978,9.781l14.952,87.181l-48.437-14.426
		l-26.603-49.169c-2.628-4.857-8.696-6.665-13.554-4.037c-4.857,2.628-6.665,8.696-4.037,13.554l17.086,31.58l-37.109-11.052
		c-5.294-1.578-10.861,1.437-12.438,6.729c-1.576,5.293,1.437,10.862,6.729,12.438l37.11,11.052l-31.58,17.085
		c-4.857,2.628-6.665,8.696-4.037,13.554c1.81,3.345,5.25,5.244,8.804,5.244c1.607,0,3.237-0.388,4.75-1.207l49.171-26.602
		l48.332,14.395l-63.934,62.321c-2.726,2.657-3.707,6.631-2.531,10.251s4.306,6.258,8.073,6.806l82.616,12.006l-27.221,35.153
		l-55.461,7.054c-5.479,0.697-9.355,5.703-8.658,11.182c0.696,5.479,5.702,9.359,11.182,8.658l35.621-4.53l-23.708,30.618
		c-3.381,4.367-2.583,10.648,1.784,14.029c1.822,1.411,3.977,2.094,6.115,2.094c2.988,0,5.943-1.333,7.914-3.878l23.706-30.615
		l4.529,35.615c0.642,5.051,4.946,8.74,9.907,8.74c0.42,0,0.846-0.026,1.274-0.081c5.479-0.696,9.355-5.703,8.659-11.181
		l-7.052-55.457l30.614-39.536l41.632,84.354c1.685,3.413,5.161,5.574,8.967,5.574s7.283-2.161,8.968-5.574l40.537-82.138
		l28.9,39.149l-8.324,55.284c-0.822,5.461,2.938,10.555,8.398,11.378c0.506,0.076,1.006,0.113,1.502,0.113
		c4.865,0,9.131-3.556,9.877-8.512l5.346-35.507l23,31.154c1.961,2.656,4.986,4.061,8.053,4.061c2.063,0,4.145-0.636,5.932-1.955
		c4.443-3.28,5.385-9.542,2.105-13.985L366.936,406.3l35.502,5.347c5.455,0.819,10.555-2.938,11.377-8.399
		s-2.938-10.555-8.398-11.378l-55.279-8.326l-27.299-36.977l85.221-12.384c3.766-0.547,6.895-3.186,8.072-6.806
		c1.176-3.62,0.195-7.594-2.531-10.251l-63.934-62.322l48.33-14.395l49.172,26.602c1.514,0.818,3.143,1.207,4.75,1.207
		c3.555,0,6.994-1.899,8.805-5.244c2.627-4.857,0.82-10.926-4.037-13.554l-31.58-17.085l37.109-11.052
		C467.508,219.707,470.521,214.138,468.945,208.845z M335.666,165.076l-13.199,76.96l-56.83,16.926v-57.069L335.666,165.076z
		 M175.606,165.076l70.031,36.817v57.069l-56.832-16.926L175.606,165.076z M126.145,317.304l57.412-55.963l55.238,16.452
		l-38.895,50.23L126.145,317.304z M255.637,411.386l-36.978-74.924l36.787-47.508l36.327,49.208L255.637,411.386z M385.131,317.304
		l-75.768,11.01l-37.223-50.421l55.578-16.553L385.131,317.304z"/>
</g>
</svg>
