<?xml version="1.0" encoding="iso-8859-1"?>
<!-- Generator: Adobe Illustrator 16.0.0, SVG Export Plug-In . SVG Version: 6.00 Build 0)  -->
<!DOCTYPE svg PUBLIC "-//W3C//DTD SVG 1.1//EN" "http://www.w3.org/Graphics/SVG/1.1/DTD/svg11.dtd">
<svg version="1.1" xmlns="http://www.w3.org/2000/svg" xmlns:xlink="http://www.w3.org/1999/xlink" x="0px" y="0px" width="512px"
	 height="512px" viewBox="0 0 512 512" style="enable-background:new 0 0 512 512;" xml:space="preserve">
<g id="Artwork">
</g>
<g id="Layer_2">
	<path d="M465.236,315.721c-0.817-1.507-1.879-2.886-3.162-4.104c-0.162-0.162-0.331-0.319-0.505-0.471l-28.915-25.173
		c-11.121-20.241-27.185-47.328-43.422-67.317c3.936-4.023,7.452-9.578,9.623-17.282c0.207-0.492,0.377-1.005,0.506-1.537
		c2.004-8.292,5.417-17.811,8.719-27.017c5.387-15.025,10.958-30.563,12.343-45.268c2.838-30.116-13.625-44.211-23.688-49.932
		c-8.511-4.841-18.367-7.295-29.292-7.295c-22.286,0-50.003,10.52-82.381,31.267c-14.902,9.548-27.378,19.084-34.332,24.629
		c-6.956-5.546-19.447-15.095-34.328-24.629c-32.379-20.747-60.097-31.267-82.383-31.267c-10.925,0-20.78,2.454-29.289,7.294
		c-10.066,5.721-26.529,19.816-23.691,49.933c1.386,14.707,6.957,30.243,12.343,45.268c3.305,9.218,6.722,18.749,8.718,27.016
		c0.083,0.347,0.191,0.682,0.309,1.012c3.202,11.834,9.535,18.709,15.801,22.715c-21.959,26.791-36.415,66.837-46.714,99.862
		l-23.35,30.409c-0.14,0.183-0.274,0.369-0.4,0.561c-1.015,1.446-1.783,3.009-2.289,4.659c-3.612,11.84,5.748,24.167,28.612,37.686
		c18.209,10.766,43.401,21.321,70.934,29.722c26.899,8.207,59.509,15.214,83.965,15.213c12.96,0,23.633-1.968,29.948-6.768
		c2.848-2.164,4.323-5.684,3.869-9.231l-0.236-1.843c0.178,0.407,0.372,0.807,0.583,1.195c3.621,6.695,10.816,10.03,21.795,10.029
		c6.875,0,15.234-1.309,25.125-3.917c20.454-5.396,45.663-15.909,70.984-29.602c25.321-13.693,47.919-29.034,63.632-43.197
		C464.399,340.558,471.129,326.619,465.236,315.721z M295.852,118.433c29.106-18.65,53.193-28.106,71.592-28.106
		c7.416,0,13.944,1.574,19.406,4.681c10.425,5.926,15.021,16.244,13.662,30.67c-1.149,12.2-6.288,26.532-11.257,40.393
		c-0.815,2.272-1.636,4.563-2.445,6.857c-13.34-15.581-34.06-24.995-61.143-27.564c-22.069-2.097-42.027,0.959-49.058,2.25
		c-3.149-3.304-7.118-5.82-11.583-7.206C271.807,135.067,282.821,126.781,295.852,118.433z M378.999,197.836
		c-2.483,6.949-6.558,9.247-9.55,10.365c-17.844,6.671-54.727-9.933-81.689-26.19c-0.64-0.507-1.338-0.927-2.075-1.263
		c-1.461-0.896-2.899-1.791-4.29-2.679c1.68-3.46,2.639-7.329,2.694-11.413C302.939,163.813,361.67,158.435,378.999,197.836z
		 M244.45,159.196h12.563c3.907,0,7.085,3.178,7.085,7.084c0,2.237-1.044,4.231-2.668,5.531c-0.263,0.163-0.518,0.341-0.766,0.53
		c-1.068,0.646-2.314,1.024-3.651,1.024H244.45c-3.906,0-7.084-3.179-7.084-7.086C237.365,162.374,240.543,159.196,244.45,159.196z
		 M258.116,192.615l-13.367,10.767c-0.122-0.205-6.344-10.769-6.344-10.769l19.659,0.004
		C258.081,192.617,258.098,192.615,258.116,192.615z M114.653,172.928c-0.809-2.295-1.63-4.585-2.445-6.857
		c-4.969-13.86-10.107-28.192-11.257-40.395c-1.359-14.425,3.237-24.743,13.664-30.67c5.46-3.105,11.989-4.68,19.404-4.68
		c18.399,0,42.486,9.456,71.593,28.106c13.011,8.337,24.037,16.632,30.823,21.975c-4.464,1.386-8.432,3.901-11.581,7.206
		c-7.03-1.291-26.988-4.346-49.058-2.251C148.713,147.932,127.993,157.346,114.653,172.928z M220.058,178.047
		c-27.18,17.357-68.753,37.377-88.096,30.156c-2.983-1.113-7.044-3.397-9.53-10.294c17.289-39.485,76.093-34.095,94.943-31.253
		C217.431,170.73,218.385,174.593,220.058,178.047z M150.841,407.332c-23.424-7.147-45.379-16.059-61.823-25.094
		c-4.844-2.661-8.787-5.102-11.976-7.284c24.493-0.849,100.599,0.728,161.455,46.259
		C224.189,422.763,193.613,420.381,150.841,407.332z M258.166,411.229c-41.211-33.879-90.234-47.317-124.105-52.624
		c-27.354-4.284-50.016-4.263-61.656-3.522l15.75-20.512c0.841-0.996,1.499-2.173,1.907-3.488
		c10.416-33.617,25.232-75.289,47.531-99.346c0.606-0.653,1.758-2.112,1.89-2.108c0.662,0.024,1.331,0.037,2.008,0.036
		c15.328,0,34.569-5.653,57.469-16.912c7.924-3.896,15.274-7.965,21.525-11.634l10.413,17.965
		c-11.822,17.509-16.003,39.001-12.435,64.195c3.757,26.528,15.544,57.197,38.169,99.259l3.866,30.798
		C260.468,413.283,259.974,412.765,258.166,411.229z M279.308,402.411l-3.07-24.236c-0.156-1.227-0.537-2.413-1.125-3.5
		c-45.615-84.348-49.688-130.387-14.056-158.909c0.101-0.08,0.203-0.165,0.3-0.249c3.172-2.747,11.922-9.753,19.815-14.251
		c6.196,3.632,13.457,7.644,21.274,11.487c22.901,11.259,42.14,16.912,57.469,16.912c4.103,0,7.919-0.415,11.457-1.226
		c16.451,19.439,33.328,48.079,44.606,68.72c0.648,1.186,1.508,2.194,2.51,2.999l18.756,16.328
		c-14.581,0.806-41.482,5.729-81.324,26.219C312.234,365.172,288.758,390.455,279.308,402.411z M427.143,347.092
		c-14.326,12.116-34.079,25.204-55.62,36.854c-21.541,11.648-43.307,21.013-61.289,26.368c-5.735,1.708-10.541,2.847-14.521,3.582
		c8.299-10.169,29.893-33.111,69.355-53.406c37.75-19.414,61.906-23.451,73.457-24.049
		C435.672,339.472,431.953,343.024,427.143,347.092z"/>
</g>
</svg>
