<?xml version="1.0" encoding="utf-8"?>
<!-- Generator: Adobe Illustrator 15.0.0, SVG Export Plug-In . SVG Version: 6.00 Build 0)  -->
<!DOCTYPE svg PUBLIC "-//W3C//DTD SVG 1.1//EN" "http://www.w3.org/Graphics/SVG/1.1/DTD/svg11.dtd">
<svg version="1.1" id="Capa_1" xmlns="http://www.w3.org/2000/svg" xmlns:xlink="http://www.w3.org/1999/xlink" x="0px" y="0px"
	 width="600px" height="600px" viewBox="0 0 600 600" enable-background="new 0 0 600 600" xml:space="preserve">
<g>
	<path fill="#222221" d="M475.465,323.406l-21.785-15.975h17.057c4.418,0,8-3.581,8-7.999c0-4.419-3.582-8-8-8h-17.052l21.78-15.971
		c3.564-2.613,4.335-7.619,1.722-11.183c-2.612-3.563-7.617-4.334-11.182-1.721l-39.38,28.874h-70.599v-18.062
		c0-2.858-1.524-5.499-4-6.929l-4.896-2.826l48.063-48.063l48.263-7.428c4.367-0.672,7.362-4.757,6.69-9.124
		c-0.673-4.367-4.757-7.362-9.124-6.689l-26.697,4.108l12.06-12.059c3.124-3.124,3.124-8.189,0-11.313
		c-3.125-3.124-8.189-3.124-11.314,0l-12.057,12.057l4.108-26.695c0.672-4.366-2.323-8.451-6.69-9.123
		c-4.367-0.675-8.451,2.323-9.124,6.689l-7.428,48.263l-51.096,51.096L308,241.024v-68.216l28.875-39.38
		c2.613-3.563,1.843-8.569-1.721-11.183c-3.564-2.613-8.57-1.841-11.182,1.722L308,145.751v-17.053c0-4.419-3.582-8-8-8
		s-8,3.581-8,8v17.052l-15.972-21.782c-2.613-3.563-7.618-4.334-11.182-1.722c-3.563,2.613-4.334,7.619-1.721,11.183L292,172.807
		v68.218l-24.785,14.31l-51.094-51.094l-7.429-48.265c-0.673-4.366-4.756-7.365-9.124-6.689c-4.367,0.672-7.362,4.757-6.69,9.124
		l4.109,26.695l-12.059-12.059c-3.123-3.124-8.188-3.125-11.314,0c-3.124,3.124-3.124,8.189,0,11.313l12.06,12.06l-26.697-4.108
		c-4.371-0.673-8.451,2.322-9.124,6.689c-0.672,4.367,2.323,8.452,6.69,9.124l48.264,7.428l48.062,48.063l-4.896,2.826
		c-2.476,1.43-4,4.07-4,6.929v18.062h-70.597l-39.381-28.875c-3.563-2.613-8.571-1.842-11.182,1.721
		c-2.613,3.563-1.843,8.569,1.721,11.183l21.783,15.972h-17.055c-4.418,0-8,3.581-8,8c0,4.418,3.582,7.999,8,7.999h17.057
		l-21.785,15.975c-3.563,2.612-4.334,7.619-1.721,11.182c1.567,2.138,3.996,3.271,6.458,3.271c1.642,0,3.298-0.504,4.724-1.55
		l39.382-28.877h70.596v21.396c0,2.858,1.524,5.499,4,6.929l2.782,1.606l-45.95,45.95l-48.263,7.428
		c-4.367,0.673-7.362,4.757-6.69,9.124c0.609,3.955,4.017,6.784,7.897,6.784c0.404,0,0.814-0.03,1.227-0.094l26.695-4.108
		l-12.058,12.058c-3.124,3.125-3.124,8.189,0,11.314c1.562,1.562,3.609,2.343,5.657,2.343s4.095-0.781,5.657-2.343l12.058-12.058
		l-4.108,26.695c-0.672,4.367,2.323,8.451,6.69,9.124c0.412,0.063,0.821,0.094,1.227,0.094c3.881,0,7.288-2.83,7.897-6.784
		l7.428-48.263l48.982-48.982L292,361.174v66.016l-28.875,39.381c-2.613,3.563-1.843,8.569,1.721,11.182
		c1.426,1.046,3.082,1.55,4.724,1.55c2.462,0,4.892-1.133,6.458-3.271L292,454.247v17.056c0,4.418,3.582,8,8,8s8-3.582,8-8v-17.056
		l15.973,21.784c1.567,2.138,3.996,3.271,6.458,3.271c1.642,0,3.298-0.504,4.724-1.55c3.563-2.612,4.334-7.618,1.721-11.182
		L308,427.189v-66.016l26.897-15.528l48.981,48.981l7.429,48.264c0.609,3.955,4.017,6.784,7.897,6.784
		c0.404,0,0.814-0.03,1.227-0.094c4.367-0.673,7.362-4.757,6.69-9.124l-4.108-26.696l12.059,12.059
		c1.562,1.562,3.609,2.343,5.657,2.343s4.095-0.781,5.657-2.343c3.124-3.125,3.124-8.189,0-11.314l-12.058-12.058l26.694,4.108
		c0.412,0.063,0.822,0.094,1.227,0.094c3.881,0,7.288-2.83,7.897-6.784c0.672-4.367-2.323-8.451-6.69-9.124l-48.263-7.428
		l-45.95-45.95l2.782-1.606c2.476-1.43,4-4.07,4-6.929v-21.396h70.596l39.382,28.877c1.426,1.046,3.082,1.55,4.724,1.55
		c2.462,0,4.891-1.133,6.458-3.271C479.799,331.025,479.028,326.019,475.465,323.406z M340.026,324.209L300,347.317l-40.026-23.108
		v-46.22L300,254.881l40.026,23.108V324.209z"/>
</g>
</svg>
