<?xml version="1.0" encoding="iso-8859-1"?>
<!-- Generator: Adobe Illustrator 16.0.0, SVG Export Plug-In . SVG Version: 6.00 Build 0)  -->
<!DOCTYPE svg PUBLIC "-//W3C//DTD SVG 1.1//EN" "http://www.w3.org/Graphics/SVG/1.1/DTD/svg11.dtd">
<svg version="1.1" xmlns="http://www.w3.org/2000/svg" xmlns:xlink="http://www.w3.org/1999/xlink" x="0px" y="0px" width="512px"
	 height="512px" viewBox="0 0 512 512" style="enable-background:new 0 0 512 512;" xml:space="preserve">
<g id="Artwork">
</g>
<g id="Layer_2">
	<g>
		<path d="M481.613,216.374l-9.377-28.867l-58.492,19.01l20.232-39.708l-27.047-13.772l-34.002,66.739l-27.956,9.088l12.881-74.847
			l-22.007-16.007l-64.67,33.946v-26.11l52.973-52.967l-21.467-21.456l-31.506,31.503V41.432h-30.353v61.496l-31.506-31.503
			l-21.46,21.456l52.966,52.967v25.998l-64.451-33.936l-22.029,15.986l12.813,75.001l-28.078-9.121l-34.007-66.739L78.023,166.81
			l20.232,39.708l-58.492-19.01l-9.377,28.867l58.492,19.008l-39.705,20.227l13.78,27.037l66.741-34.001l25.272,8.214l-50.003,48.67
			l8.399,25.899l74.103,10.816l-18.904,26.006l-73.991,11.721l4.751,29.985l44.013-6.978l-36.15,49.752l24.551,17.837l36.15-49.752
			l6.972,44.017l29.977-4.746l-11.721-73.996l17.828-24.536l31.376,63.685l27.214,0.01l31.504-63.717l17.848,24.559l-11.721,73.996
			l29.977,4.746l6.973-44.017l36.15,49.752l24.551-17.837l-36.145-49.752l44.008,6.978l4.751-29.985l-73.991-11.721l-18.848-25.94
			l74.023-10.715l8.423-25.876l-50.055-48.848l25.323-8.227l66.741,34.001l13.78-27.037l-39.699-20.227L481.613,216.374z
			 M271.176,206.238l51.548-27.057l-10.38,60.276l-41.168,13.384V206.238z M240.823,206.146v46.695l-41.065-13.351L189.437,179.1
			L240.823,206.146z M207.616,314.504l-59.449-8.674l39.423-38.376l43.856,14.242L207.616,314.504z M255.954,384.237l-24.848-50.432
			L256,299.546l24.886,34.248L255.954,384.237z M363.838,305.965l-59.409,8.596l-23.878-32.864l43.831-14.232L363.838,305.965z"/>
	</g>
</g>
</svg>
