<?xml version="1.0" encoding="utf-8"?>
<!-- Generator: Adobe Illustrator 16.0.4, SVG Export Plug-In . SVG Version: 6.00 Build 0)  -->
<!DOCTYPE svg PUBLIC "-//W3C//DTD SVG 1.1//EN" "http://www.w3.org/Graphics/SVG/1.1/DTD/svg11.dtd">
<svg version="1.1" id="Layer_1" xmlns="http://www.w3.org/2000/svg" xmlns:xlink="http://www.w3.org/1999/xlink" x="0px" y="0px"
	 width="50px" height="50px" viewBox="0 0 50 50" enable-background="new 0 0 50 50" xml:space="preserve">
<path d="M33.869,19.681c-0.023-1.552,3.367-4.87,1.814-5.815c-0.836-0.509-0.035,0.815-0.701,1.604
	c-0.414,0.491-2.096-2.472-2.313-1.719c-0.329,1.133,1.743,2.987-0.05,5.183c-0.241,0.296-0.496,0.592-0.762,0.885
	c-0.244,0.271-0.319-3.157-0.682-3.081c-0.689,0.146,0.146,3.999-1.355,5.117c-0.717,0.533-1.383,1.044-1.986,1.482
	c-0.003-0.003-0.005-0.007-0.008-0.011c-0.085-0.092-0.182-0.177-0.286-0.254c-0.498-1.241-0.026-2.245,0.017-2.811
	c0.151,0.194,0.385,0.321,0.651,0.321c0.451,0,0.819-0.368,0.819-0.823c0-0.455-0.368-0.823-0.819-0.823
	c-0.457,0-0.824,0.369-0.824,0.823c0,0.028,0.003,0.055,0.007,0.084c-0.094-0.053-0.227-0.084-0.427-0.084
	c-1.389,0-3.801,1.241-4.491,3.232c-0.139,0.092-0.258,0.194-0.364,0.306c-0.588-0.429-1.235-0.927-1.929-1.442
	c-1.502-1.118-0.666-4.972-1.356-5.117c-0.361-0.076-0.437,3.353-0.682,3.081c-0.265-0.293-0.52-0.589-0.761-0.885
	c-1.793-2.196,0.279-4.05-0.05-5.183c-0.219-0.753-1.9,2.21-2.314,1.719c-0.665-0.789,0.135-2.113-0.701-1.604
	c-1.553,0.945,1.84,4.263,1.815,5.815c-0.014,0.931-2.07-1.343-1.505,0.517c0.414,1.36,4.552,2.174,5.179,2.648
	c0.76,0.574,1.218,1.151,1.502,1.645c-0.263-0.17-0.58-0.349-0.973-0.519c-1.057-0.456-3.15-0.833-3.22-0.714
	c-0.092,0.16-0.078,1.753,1.091,2.643c1.061,0.808,3.252,0.91,3.252,1.091c0,1.381,0.582,3.375,0.582,5.801
	c0,1.978,1.022,3.582,3.001,3.582c1.979,0,3.001-1.604,3.001-3.582c0-2.426,0.581-4.42,0.581-5.801c0-0.175,2.418-0.3,3.489-1.109
	c1.166-0.881,0.959-2.446,0.871-2.6c-0.069-0.125-2.15,0.243-3.199,0.691c-0.482,0.206-0.854,0.427-1.147,0.628
	c0.276-0.517,0.74-1.137,1.56-1.755c0.628-0.474,4.766-1.288,5.18-2.648C35.939,18.337,33.883,20.611,33.869,19.681z M26.777,22.082
	l0.203,0.114l-0.215,0.092l-0.05,0.229l-0.153-0.176l-0.23,0.026l0.121-0.201l-0.096-0.212l0.227,0.052l0.173-0.157L26.777,22.082z
	 M26.318,20.327l0.119,0.027l0.088-0.081l0.01,0.119l0.104,0.061l-0.109,0.046l-0.023,0.117l-0.078-0.09l-0.121,0.013l0.061-0.102
	L26.318,20.327z M26.247,21.017l0.172,0.039l0.128-0.118l0.016,0.175l0.154,0.087l-0.16,0.069l-0.035,0.172l-0.114-0.131
	l-0.177,0.019l0.092-0.151L26.247,21.017z M25.369,20.499l0.119,0.026l0.087-0.081l0.013,0.119l0.104,0.059l-0.107,0.046
	l-0.027,0.118l-0.078-0.091l-0.117,0.015l0.06-0.103L25.369,20.499z M24.693,21.263l0.474,0.11l0.364-0.331l0.042,0.488l0.423,0.24
	l-0.447,0.191l-0.098,0.479l-0.322-0.369l-0.484,0.056l0.25-0.42L24.693,21.263z M23.871,21.613l0.171,0.038l0.131-0.119
	l0.016,0.176l0.151,0.087l-0.16,0.068l-0.036,0.173l-0.116-0.134l-0.174,0.021l0.091-0.152L23.871,21.613z M23.406,22.152
	l0.12,0.028l0.088-0.082l0.008,0.119l0.104,0.059l-0.108,0.047l-0.025,0.118l-0.079-0.09l-0.118,0.014l0.062-0.103L23.406,22.152z
	 M22.595,27.682c0-0.382,0.309-0.69,0.689-0.69c0.382,0,0.691,0.31,0.691,0.69s-0.31,0.689-0.691,0.689
	C22.903,28.371,22.595,28.062,22.595,27.682z M25.067,35.441c-0.588,0-1.452-1.043-1.452-1.848c0-0.802,0.65-0.664,1.452-0.664
	c0.803,0,1.453-0.138,1.453,0.664C26.521,34.398,25.654,35.441,25.067,35.441z M26.66,28.371c-0.381,0-0.689-0.309-0.689-0.689
	c0-0.382,0.309-0.69,0.689-0.69c0.382,0,0.691,0.31,0.691,0.69S27.042,28.371,26.66,28.371z M28.055,25.089
	c-0.002,0.013-0.002,0.025-0.004,0.035c-0.307-0.21-1.085-0.712-3.101-0.712c-2.015,0-2.797,0.502-3.1,0.712
	c-0.004-0.01-0.004-0.022-0.006-0.035c-0.036-0.313-0.12-1.047,0.387-1.621c0.493-0.55,1.406-0.83,2.719-0.83
	c1.312,0,2.225,0.28,2.716,0.83C28.178,24.042,28.092,24.776,28.055,25.089z"/>
</svg>
