<?xml version="1.0" encoding="iso-8859-1"?>
<!-- Generator: Adobe Illustrator 16.0.0, SVG Export Plug-In . SVG Version: 6.00 Build 0)  -->
<!DOCTYPE svg PUBLIC "-//W3C//DTD SVG 1.1//EN" "http://www.w3.org/Graphics/SVG/1.1/DTD/svg11.dtd">
<svg version="1.1" xmlns="http://www.w3.org/2000/svg" xmlns:xlink="http://www.w3.org/1999/xlink" x="0px" y="0px" width="512px"
	 height="512px" viewBox="0 0 512 512" style="enable-background:new 0 0 512 512;" xml:space="preserve">
<g id="Artwork">
</g>
<g id="Layer_2">
	<path d="M429.922,137.396h-32.619h-1.711c5.165-10.574,7.771-25.067,3.842-44.715c-6.742-33.714-26.339-43.812-37.419-46.831
		c-4.213-1.148-8.652-1.731-13.194-1.731c-19.403,0-41.698,10.471-68.157,32.009c-9.814,7.989-18.582,16.222-25.027,22.602
		c-6.445-6.38-15.212-14.612-25.027-22.602c-26.459-21.538-48.754-32.008-68.161-32.008c-4.541,0-8.978,0.582-13.189,1.729
		c-11.082,3.019-30.679,13.117-37.421,46.831c-3.94,19.701-1.353,34.183,3.781,44.715h-0.983H81.352c-5.523,0-10,4.477-10,10v83.996
		c0,5.523,4.477,10,10,10h14.484V457.88c0,5.523,4.477,10,10,10h109.301h81h109.301c5.523,0,10-4.477,10-10V241.392h14.484
		c5.523,0,10-4.477,10-10v-83.996C439.922,141.874,435.445,137.396,429.922,137.396z M131.451,96.603
		c3.533-17.665,11.294-28.249,23.066-31.456c2.498-0.681,5.167-1.026,7.932-1.026c14.418,0,33.103,9.259,55.535,27.519
		c13.433,10.934,24.824,22.399,30.419,28.261c1.887,1.977,4.5,3.095,7.233,3.095s5.346-1.118,7.233-3.095
		c5.595-5.861,16.987-17.327,30.419-28.261c22.433-18.261,41.116-27.52,55.531-27.52c2.766,0,5.435,0.346,7.936,1.027
		c11.772,3.207,19.533,13.791,23.066,31.457c3.62,18.096,0.715,31.807-8.61,40.792h-19.94c8.761-10.774,11.691-21.991,10.093-30.598
		c-1.76-9.478-8.698-16.006-18.558-17.463c-23.471-3.462-56.609,29.932-68.618,48.061h-37.107
		c-12.008-18.13-45.145-51.534-68.618-48.061c-9.86,1.457-16.797,7.985-18.558,17.463c-1.599,8.606,1.332,19.823,10.093,30.598
		h-19.953C130.708,128.518,127.81,114.813,131.451,96.603z M322.72,137.396H297.81c13.249-15.212,33.411-30.704,42.241-29.398
		c2.417,0.357,2.595,1.317,2.768,2.246C343.863,115.87,338.219,127.661,322.72,137.396z M213.464,137.396h-24.91
		c-15.499-9.735-21.143-21.526-20.098-27.152c0.172-0.929,0.351-1.889,2.768-2.246C180.053,106.698,200.215,122.186,213.464,137.396
		z M205.137,447.88h-89.301V241.392h89.301V447.88z M286.137,447.88h-61V241.392h61V447.88z M395.438,447.88h-89.301V241.392h89.301
		V447.88z M419.922,221.392h-14.464c-0.007,0-0.013-0.001-0.02-0.001H105.836c-0.006,0-0.013,0.001-0.02,0.001H91.352v-63.996
		h23.285h21.733h238.548h22.385h22.619V221.392z"/>
</g>
</svg>
