<?xml version="1.0" encoding="iso-8859-1"?>
<!-- Generator: Adobe Illustrator 16.0.0, SVG Export Plug-In . SVG Version: 6.00 Build 0)  -->
<!DOCTYPE svg PUBLIC "-//W3C//DTD SVG 1.1//EN" "http://www.w3.org/Graphics/SVG/1.1/DTD/svg11.dtd">
<svg version="1.1" xmlns="http://www.w3.org/2000/svg" xmlns:xlink="http://www.w3.org/1999/xlink" x="0px" y="0px" width="512px"
	 height="512px" viewBox="0 0 512 512" style="enable-background:new 0 0 512 512;" xml:space="preserve">
<g id="Artwork">
</g>
<g id="Layer_2">
	<path d="M421.345,313.724l-6.74-25.148l-51.79,13.875L341.8,256.002l21.015-46.455l51.79,13.877l6.74-25.147l-26.858-7.199
		l45.036-26.002l-13.019-22.547l-45.036,26l7.195-26.859l-25.15-6.736l-13.877,51.789l-50.734-5.027l-29.724-41.423l37.915-37.913
		l-18.412-18.415l-19.662,19.665V51.604h-26.037v52.004l-19.662-19.665l-18.412,18.415l37.915,37.913l-29.724,41.423l-50.734,5.027
		l-13.877-51.789l-25.15,6.736l7.195,26.859l-45.036-26l-13.019,22.547l45.036,26.002l-26.858,7.199l6.74,25.147l51.79-13.875
		l21.013,46.453l-21.013,46.451l-51.79-13.878l-6.74,25.148l26.858,7.198l-45.036,26.002l13.019,22.548l45.036-26l-7.195,26.858
		l25.15,6.737l13.877-51.791l50.735,5.027l29.723,41.425l-37.914,37.912l18.41,18.415l19.663-19.662v52.002h26.037v-52.004
		l19.662,19.664l18.412-18.415l-37.915-37.912l29.723-41.425l50.736-5.027l13.876,51.791l25.15-6.737l-7.195-26.858l45.036,26
		l13.019-22.548l-45.037-26.002L421.345,313.724z M175.074,256l13.722-23.767L229.962,256l-41.166,23.766L175.074,256z
		 M242.981,326.083h-27.444l-13.723-23.768l41.167-23.769V326.083z M242.981,233.452l-41.167-23.77l13.723-23.768h27.444V233.452z
		 M269.019,185.915h27.443l13.724,23.768l-41.167,23.77V185.915z M296.464,326.083h-27.445v-47.536l41.167,23.769L296.464,326.083z
		 M323.204,279.766L282.038,256l41.166-23.767l13.722,23.764L323.204,279.766z"/>
</g>
</svg>
