<?xml version="1.0" encoding="iso-8859-1"?>
<!-- Generator: Adobe Illustrator 16.0.0, SVG Export Plug-In . SVG Version: 6.00 Build 0)  -->
<!DOCTYPE svg PUBLIC "-//W3C//DTD SVG 1.1//EN" "http://www.w3.org/Graphics/SVG/1.1/DTD/svg11.dtd">
<svg version="1.1" xmlns="http://www.w3.org/2000/svg" xmlns:xlink="http://www.w3.org/1999/xlink" x="0px" y="0px" width="512px"
	 height="512px" viewBox="0 0 512 512" style="enable-background:new 0 0 512 512;" xml:space="preserve">
<g id="Artwork">
</g>
<g id="Layer_2">
	<path d="M444.334,353.393l-59.579-34.397l31.142-8.345c5.334-1.43,8.5-6.913,7.071-12.247c-1.43-5.334-6.915-8.503-12.248-7.071
		l-50.46,13.521l-0.75-0.434l-28.933-48.542l28.719-48.183l0.953-0.551l50.472,13.523c0.867,0.232,1.737,0.344,2.594,0.344
		c4.415,0,8.456-2.947,9.653-7.415c1.43-5.334-1.736-10.817-7.071-12.247l-31.153-8.348l8.282-4.781
		c0.004-0.002,0.007-0.005,0.012-0.008l51.292-29.613c4.783-2.762,6.422-8.877,3.66-13.66c-2.761-4.782-8.878-6.423-13.66-3.66
		l-59.579,34.397l8.344-31.142c1.43-5.334-1.736-10.817-7.071-12.247c-5.332-1.43-10.818,1.736-12.247,7.071l-13.521,50.46
		l-0.592,0.342l-56.557,0.114l-27.475-48.482v-0.817l36.948-36.948c3.905-3.905,3.905-10.237,0-14.143
		c-3.905-3.904-10.237-3.904-14.142,0l-22.805,22.806v-9.563v-59.24c0-5.522-4.477-10-10-10s-10,4.478-10,10v59.24v9.556
		l-22.798-22.798c-3.905-3.904-10.237-3.904-14.143,0c-3.905,3.905-3.905,10.237,0,14.143l36.94,36.94v0.839l-27.466,48.469
		l-56.574-0.114l-0.574-0.331l-13.523-50.471c-1.43-5.335-6.914-8.502-12.247-7.071c-5.335,1.43-8.501,6.913-7.071,12.247
		l8.347,31.152l-8.281-4.781c-0.004-0.002-0.008-0.004-0.012-0.006L76.94,141.287c-4.784-2.761-10.899-1.124-13.66,3.66
		c-2.762,4.783-1.123,10.898,3.66,13.66l59.579,34.397l-31.142,8.345c-5.335,1.43-8.501,6.913-7.071,12.247
		c1.197,4.468,5.237,7.415,9.653,7.415c0.856,0,1.728-0.111,2.594-0.344l50.461-13.521l0.972,0.562l28.711,48.169l-28.941,48.556
		l-0.731,0.423l-50.471-13.524c-5.336-1.431-10.818,1.736-12.248,7.071c-1.43,5.334,1.736,10.817,7.071,12.247l31.153,8.348
		l-59.585,34.401c-4.783,2.762-6.422,8.877-3.66,13.66c1.852,3.208,5.213,5.002,8.669,5.002c1.696,0,3.416-0.433,4.991-1.342
		l51.296-29.615c0.002-0.002,0.005-0.003,0.007-0.004l8.275-4.777l-8.344,31.142c-1.43,5.334,1.736,10.817,7.071,12.247
		c0.867,0.232,1.738,0.344,2.595,0.344c4.415-0.001,8.456-2.947,9.653-7.415l13.521-50.46l1.02-0.589l56.13-0.145l27.474,48.515
		v1.063l-36.948,36.948c-3.905,3.905-3.905,10.237,0,14.143c3.905,3.904,10.237,3.904,14.143,0l22.806-22.806v9.563v59.24
		c0,5.522,4.477,10,10,10s10-4.478,10-10v-59.24v-9.556l22.797,22.798c1.953,1.952,4.512,2.929,7.071,2.929
		c2.559,0,5.119-0.977,7.071-2.929c3.905-3.905,3.906-10.237,0-14.143l-36.94-36.94v-1.084l27.467-48.501l56.145,0.145l1.001,0.578
		l13.523,50.471c1.197,4.468,5.237,7.415,9.653,7.415c0.856,0,1.728-0.111,2.595-0.344c5.334-1.43,8.5-6.913,7.071-12.247
		l-8.347-31.152l8.282,4.781c0.002,0.002,0.005,0.002,0.007,0.004l51.296,29.615c1.575,0.909,3.294,1.342,4.991,1.342
		c3.456,0,6.817-1.794,8.669-5.002C450.756,362.27,449.117,356.154,444.334,353.393z M310.346,260.998l13.666,22.927l-48.375-27.929
		l48.16-27.806l-13.451,22.567C308.465,253.912,308.465,257.844,310.346,260.998z M200.929,250.758l-13.443-22.554l48.151,27.801
		l-48.382,27.933l13.673-22.939C202.809,257.844,202.809,253.912,200.929,250.758z M255.641,257.393
		c-0.281,0-0.556,0.02-0.831,0.042c-0.117-0.247-0.237-0.494-0.376-0.735c-0.143-0.248-0.3-0.481-0.46-0.712
		c0.155-0.224,0.318-0.439,0.457-0.68c0.141-0.243,0.262-0.492,0.38-0.742c0.272,0.022,0.545,0.042,0.824,0.042
		c0.281,0,0.556-0.02,0.831-0.042c0.117,0.247,0.237,0.494,0.376,0.735c0.14,0.242,0.304,0.461,0.46,0.687
		c-0.159,0.229-0.314,0.46-0.457,0.706c-0.14,0.243-0.262,0.491-0.379,0.741C256.193,257.412,255.919,257.393,255.641,257.393z
		 M287.288,210.287c0.006,0,0.014,0,0.02,0l27.596-0.056l-49.271,28.446v-56.318l12.954,22.858
		C280.363,208.352,283.687,210.287,287.288,210.287z M223.968,210.287c0.007,0,0.013,0,0.02,0c3.601,0,6.924-1.937,8.7-5.069
		l12.945-22.845v56.309l-49.278-28.45L223.968,210.287z M223.988,301.433c-0.008,0-0.017,0-0.026,0l-27.13,0.07l48.809-28.181
		v56.054l-12.952-22.871C230.914,303.37,227.59,301.433,223.988,301.433z M287.313,301.433c-0.009,0-0.017,0-0.026,0
		c-3.602,0-6.926,1.938-8.702,5.072l-12.945,22.857v-56.044l48.816,28.185L287.313,301.433z"/>
</g>
</svg>
