<?xml version="1.0" encoding="iso-8859-1"?>
<!-- Generator: Adobe Illustrator 16.0.0, SVG Export Plug-In . SVG Version: 6.00 Build 0)  -->
<!DOCTYPE svg PUBLIC "-//W3C//DTD SVG 1.1//EN" "http://www.w3.org/Graphics/SVG/1.1/DTD/svg11.dtd">
<svg version="1.1" xmlns="http://www.w3.org/2000/svg" xmlns:xlink="http://www.w3.org/1999/xlink" x="0px" y="0px" width="512px"
	 height="512px" viewBox="0 0 512 512" style="enable-background:new 0 0 512 512;" xml:space="preserve">
<g id="Artwork">
</g>
<g id="Layer_2">
	<path d="M469.152,202.24c-0.127-3.313-0.246-6.443-0.246-9.38c0-13.808-4.455-22.8-9.881-28.636
		c0.029-0.119,0.068-0.232,0.094-0.354c2.418-11.317,9.779-45.757-12.33-58.574c-12.238-7.093-30-5.15-54.301,5.945
		c-17.256,7.879-38.127,20.52-62.037,37.572c-35.412,25.257-67.369,53.044-74.814,59.604c-7.443-6.56-39.402-34.347-74.814-59.604
		c-23.908-17.053-44.781-29.693-62.035-37.572c-24.299-11.094-42.063-13.04-54.303-5.945c-22.107,12.817-14.748,47.257-12.33,58.574
		c0.025,0.121,0.064,0.234,0.096,0.354c-5.428,5.836-9.881,14.828-9.881,28.636c0,2.937-0.121,6.066-0.246,9.38
		c-0.693,18.126-1.557,40.685,17.193,54.755c10.148,7.616,24.816,11.466,44.748,11.466c22.338,0,51.297-4.84,87.908-14.631
		c-25.494,31.689-42.428,80.6-50.428,145.829c-0.672,5.482,3.227,10.471,8.709,11.144c0.414,0.051,0.824,0.075,1.23,0.075
		c4.979,0,9.291-3.716,9.912-8.783c10.865-88.592,37.256-129.308,57.48-147.863c5.451-5.001,10.707-8.668,15.523-11.369
		c-14.486,24.327-35.674,68.173-36.664,117.8c-0.111,5.521,4.275,10.087,9.799,10.197c0.066,0.001,0.135,0.002,0.203,0.002
		c5.43,0,9.885-4.347,9.994-9.801c0.988-49.532,25.051-94.071,37.904-114.423c12.855,20.352,36.918,64.892,37.906,114.423
		c0.109,5.454,4.563,9.801,9.994,9.801c0.066,0,0.135-0.001,0.203-0.002c5.521-0.11,9.908-4.676,9.799-10.197
		c-0.99-49.605-22.16-93.435-36.645-117.768c4.395,2.46,9.148,5.715,14.068,10.048c20.775,18.294,47.861,59.021,58.914,149.151
		c0.623,5.069,4.934,8.784,9.914,8.784c0.406,0,0.816-0.024,1.23-0.075c5.48-0.673,9.379-5.661,8.707-11.143
		c-8-65.229-24.93-114.14-50.426-145.829c36.613,9.791,65.568,14.631,87.906,14.63c19.928-0.001,34.602-3.851,44.748-11.466
		C470.707,242.925,469.846,220.366,469.152,202.24z M342.064,165.097c69.893-49.848,90.152-45.133,94.693-42.497
		c5.443,3.156,6.822,14.368,3.953,31.124c-22.648-5.982-58.168,1.811-107.986,23.634c-6.23,2.729-12.316,5.522-18.168,8.3
		C323.178,178.942,332.488,171.927,342.064,165.097z M74.516,122.601c4.541-2.633,24.77-7.351,94.57,42.409
		c9.613,6.854,18.967,13.9,27.627,20.646c-5.852-2.776-11.934-5.569-18.164-8.298c-49.816-21.823-85.338-29.615-107.986-23.634
		C67.693,136.968,69.072,125.756,74.516,122.601z M71.322,240.999c-9.648-7.239-9.912-19.744-9.215-37.995
		c0.129-3.355,0.262-6.825,0.262-10.144c0-11.818,4.543-15.769,7.959-17.711c2.633-1.496,7.646-3.274,16.605-3.274
		c14.77,0,40.252,4.833,83.424,23.729c21.533,9.425,41.668,19.831,55.662,27.427c-43.631,13.656-78.943,21.875-105.176,24.467
		C96.889,249.867,80.223,247.679,71.322,240.999z M439.953,240.999c-8.902,6.68-25.566,8.867-49.521,6.498
		c-26.234-2.592-61.545-10.811-105.176-24.467c13.994-7.596,34.127-18.002,55.66-27.427c69.359-30.356,93.061-24.417,100.029-20.454
		c3.418,1.942,7.961,5.893,7.961,17.711c0,3.318,0.133,6.788,0.26,10.144C449.865,221.255,449.6,233.76,439.953,240.999z"/>
</g>
</svg>
