<?xml version="1.0" encoding="iso-8859-1"?>
<!-- Generator: Adobe Illustrator 16.0.0, SVG Export Plug-In . SVG Version: 6.00 Build 0)  -->
<!DOCTYPE svg PUBLIC "-//W3C//DTD SVG 1.1//EN" "http://www.w3.org/Graphics/SVG/1.1/DTD/svg11.dtd">
<svg version="1.1" xmlns="http://www.w3.org/2000/svg" xmlns:xlink="http://www.w3.org/1999/xlink" x="0px" y="0px" width="512px"
	 height="512px" viewBox="0 0 512 512" style="enable-background:new 0 0 512 512;" xml:space="preserve">
<g id="Artwork">
</g>
<g id="Layer_2">
	<path d="M188.404,181.771c-16.074-18.171-14.367-46.03,3.803-62.104c18.17-16.073,46.029-14.368,62.104,3.803l6.957,7.864
		l53.18-47.042l-6.957-7.865c-42.014-47.493-114.832-51.951-162.326-9.938c-47.492,42.014-51.951,114.832-9.938,162.325
		l217.182,245.511l53.178-47.043L188.404,181.771z M257.66,65.864c9.563,4.018,18.611,9.672,26.707,16.999l-21.92,19.39
		c-6.088-4.972-13.02-8.747-20.406-11.217L257.66,65.864z M159.078,82.218c16.174-14.307,35.939-22.099,56.027-23.444l-6.336,30.107
		c-9.922,1.952-19.281,6.208-27.311,12.451l-29.801-11.775C153.971,87.005,156.439,84.552,159.078,82.218z M130.195,175.459
		c-3.836-15.423-3.695-31.581,0.324-46.871l30.143,0.854c-2.375,6.251-3.773,12.807-4.156,19.426L130.195,175.459z M185.311,253.736
		l-31.498-35.606l13.545-29.362c1.602,2.388,3.361,4.705,5.318,6.917l25.904,29.283L185.311,253.736z M251.568,328.636
		l-41.793-47.243l13.27-28.769l41.793,47.243L251.568,328.636z M317.824,403.535l-41.791-47.243l13.27-28.768l41.791,47.243
		L317.824,403.535z M342.289,431.192l13.27-28.769l20.385,23.043l-21.721,19.214L342.289,431.192z"/>
</g>
</svg>
