<?xml version="1.0" encoding="iso-8859-1"?>
<!-- Generator: Adobe Illustrator 16.0.0, SVG Export Plug-In . SVG Version: 6.00 Build 0)  -->
<!DOCTYPE svg PUBLIC "-//W3C//DTD SVG 1.1//EN" "http://www.w3.org/Graphics/SVG/1.1/DTD/svg11.dtd">
<svg version="1.1" xmlns="http://www.w3.org/2000/svg" xmlns:xlink="http://www.w3.org/1999/xlink" x="0px" y="0px" width="512px"
	 height="512px" viewBox="0 0 512 512" style="enable-background:new 0 0 512 512;" xml:space="preserve">
<g id="Artwork">
</g>
<g id="Layer_2">
	<g>
		<path d="M218.411,309.889l-14.968-2.174l-6.694-13.564c-0.842-1.706-2.58-2.787-4.483-2.787s-3.642,1.08-4.483,2.787
			l-6.695,13.564l-14.969,2.174c-1.883,0.273-3.448,1.593-4.036,3.403c-0.588,1.81-0.098,3.797,1.265,5.125l10.833,10.56
			l-2.558,14.908c-0.322,1.876,0.449,3.772,1.989,4.891c1.539,1.118,3.582,1.267,5.266,0.381l13.389-7.039l13.389,7.039
			c0.731,0.385,1.53,0.574,2.326,0.574c1.036,0,2.068-0.322,2.939-0.955c1.539-1.118,2.311-3.015,1.989-4.891l-2.558-14.908
			l10.831-10.56c1.363-1.328,1.854-3.315,1.266-5.126C221.859,311.481,220.295,310.162,218.411,309.889z"/>
		<path d="M297.324,393.555l2.148-9.834c0.406-1.859-0.279-3.788-1.768-4.975c-1.486-1.188-3.521-1.426-5.242-0.618l-9.111,4.277
			l-8.686-5.081c-1.641-0.961-3.689-0.906-5.277,0.142c-1.59,1.048-2.445,2.907-2.209,4.795l1.25,9.985l-7.516,6.69
			c-1.42,1.266-2,3.228-1.494,5.063c0.504,1.835,2.008,3.224,3.877,3.582l9.885,1.897l4.041,9.216
			c0.766,1.743,2.453,2.901,4.354,2.987c0.076,0.003,0.152,0.005,0.227,0.005c1.816,0,3.496-0.986,4.379-2.587l4.855-8.813
			l10.016-0.995c1.893-0.188,3.516-1.436,4.186-3.217c0.67-1.782,0.27-3.789-1.033-5.178L297.324,393.555z"/>
		<path d="M322.895,297.373l4.127-9.178c0.781-1.735,0.508-3.765-0.703-5.232s-3.148-2.12-5.002-1.686l-9.797,2.307l-7.451-6.761
			c-1.41-1.279-3.424-1.648-5.193-0.948c-1.77,0.698-2.99,2.341-3.148,4.237l-0.834,10.028l-8.734,4.999
			c-1.652,0.945-2.623,2.747-2.508,4.646c0.117,1.899,1.303,3.568,3.059,4.305l9.279,3.892l2.055,9.851
			c0.389,1.863,1.801,3.344,3.645,3.819c0.414,0.107,0.834,0.159,1.25,0.159c1.436,0,2.824-0.618,3.787-1.736l6.57-7.624
			l10.004,1.089c1.9,0.208,3.738-0.68,4.76-2.285s1.043-3.652,0.057-5.279L322.895,297.373z"/>
		<path d="M387.285,230.219c-21.938-34.32-48.73-64.208-74.711-83.58c34.965-57.251,39.305-83.457,39.479-84.587
			c0.609-3.983-1.232-7.943-4.67-10.045s-7.803-1.934-11.07,0.425c-9.09,6.564-19.119,9.621-31.563,9.621
			c-15.846,0-35.215-5.007-53.786-10.417c-12.826-3.737-25.337-5.632-37.186-5.632c-33.122,0-50.732,14.821-51.466,15.452
			c-3.711,3.191-4.566,8.601-2.021,12.781l42.733,70.188c-26.667,18.993-55.354,50.339-77.896,85.35
			C99.096,270.209,84.758,309,84.758,339.002c0,57.935,29.709,126.994,171.242,126.994s171.242-69.06,171.242-126.994
			C427.242,309.166,413.053,270.533,387.285,230.219z M182.565,72.362c6.297-2.964,16.681-6.358,31.213-6.358
			c9.955,0,20.584,1.626,31.591,4.833c19.994,5.825,41.025,11.216,59.381,11.216c7.318,0,14.154-0.849,20.584-2.569
			c-5.424,13.047-14.893,32.523-31.248,59.055l-71.289-0.099L182.565,72.362z M308.326,188.129
			c-2.506,2.544-5.174,3.833-7.934,3.833c-3.307,0-7.002-1.916-10.684-5.542c-9.465-9.319-13.099-23.268-10.049-26.514
			c1.453-1.547,4.672-1.25,5.934-1.057c6.676,0.807,15.242,4.959,20.896,10.526C313.33,176.109,313.947,182.419,308.326,188.129z
			 M252.031,186.42c-3.683,3.626-7.376,5.542-10.682,5.542c-2.76,0-5.43-1.289-7.934-3.832c-5.622-5.711-5.005-12.021,1.833-18.754
			c5.966-5.873,15.271-10.334,21.962-10.6c0.494,0.001,0.973,0.003,1.479,0.004c1.576,0.103,2.766,0.491,3.391,1.125
			C265.205,163.081,261.498,177.101,252.031,186.42z M364.74,422.397c-25.219,15.659-61.805,23.599-108.74,23.599
			c-46.935,0-83.521-7.939-108.74-23.599c-28.6-17.757-42.502-45.036-42.502-83.396c0-56.896,61.418-145.545,112.828-180.351
			l8.415,0.012c-0.22,0.209-0.448,0.435-0.663,0.646c-12.375,12.185-13.156,27.388-1.989,38.731
			c5.186,5.266,11.41,8.049,18.001,8.049c4.792,0,12.067-1.582,19.848-8.901c-2.383,13.952-7.939,31.446-20.431,47.81
			c-2.367,3.101-1.771,7.533,1.329,9.9c1.279,0.978,2.786,1.449,4.28,1.449c2.127,0,4.23-0.956,5.62-2.777
			c9.455-12.386,15.408-25.258,19.123-37.13c3.488,10.021,8.414,19.512,14.867,27.109c1.396,1.646,3.385,2.491,5.387,2.491
			c1.615,0,3.24-0.552,4.568-1.68c2.975-2.525,3.338-6.983,0.813-9.956c-7.473-8.799-13.303-22.83-16.15-37.161
			c7.758,7.271,15.008,8.845,19.787,8.846c0.002,0,0.002,0,0.002,0c6.59,0,12.814-2.783,18-8.05
			c4.004-4.066,6.463-8.63,7.412-13.372c44.092,44.255,81.438,111.908,81.438,154.334
			C407.242,377.361,393.34,404.641,364.74,422.397z"/>
	</g>
</g>
</svg>
