<?xml version="1.0" encoding="utf-8"?>
<!-- Generator: Adobe Illustrator 15.0.0, SVG Export Plug-In . SVG Version: 6.00 Build 0)  -->
<!DOCTYPE svg PUBLIC "-//W3C//DTD SVG 1.1//EN" "http://www.w3.org/Graphics/SVG/1.1/DTD/svg11.dtd">
<svg version="1.1" id="Capa_1" xmlns="http://www.w3.org/2000/svg" xmlns:xlink="http://www.w3.org/1999/xlink" x="0px" y="0px"
	 width="600px" height="600px" viewBox="0 0 600 600" enable-background="new 0 0 600 600" xml:space="preserve">
<g>
	<path fill="#222221" d="M427.06,398.057h-38.063v-16.434c0-0.362-0.032-0.717-0.079-1.066
		c28.261-24.772,46.143-61.112,46.143-101.559c0-74.472-60.588-135.06-135.06-135.06s-135.06,60.587-135.06,135.06
		c0,40.446,17.882,76.786,46.143,101.559c-0.047,0.35-0.079,0.704-0.079,1.066v16.434H172.94c-4.418,0-8,3.582-8,8v42.005
		c0,4.418,3.582,8,8,8H427.06c4.418,0,8-3.582,8-8v-42.005C435.06,401.639,431.478,398.057,427.06,398.057z M180.94,278.998
		c0-65.65,53.41-119.06,119.06-119.06s119.06,53.41,119.06,119.06c0,38.543-18.422,72.853-46.91,94.625H308v-30.396h40.497
		c2.818,0,5.43-1.483,6.873-3.905c1.441-2.423,1.504-5.425,0.161-7.904l-11.656-21.526h0.456c0.008,0,0.014,0,0.02,0
		c4.419,0,8-3.582,8-8c0-1.575-0.454-3.043-1.24-4.281l-11.4-21.054h0.455c0.008,0,0.014,0,0.021,0c4.419,0,8-3.582,8-8
		c0-1.77-0.575-3.406-1.548-4.731l-39.889-62.678c-1.469-2.308-4.014-3.705-6.749-3.705s-5.28,1.397-6.749,3.705l-40.166,63.114
		c-1.567,2.463-1.668,5.585-0.264,8.145c1.405,2.56,4.094,4.15,7.014,4.15h0.455l-11.656,21.525
		c-1.342,2.479-1.281,5.481,0.162,7.903c1.443,2.423,4.054,3.906,6.873,3.906h0.456l-11.656,21.526
		c-1.343,2.479-1.28,5.481,0.161,7.904c1.443,2.422,4.055,3.905,6.873,3.905H292v30.396h-64.149
		C199.362,351.851,180.94,317.541,180.94,278.998z M276.427,297.797c-1.442-2.422-4.053-3.906-6.873-3.906h-0.455l11.656-21.525
		c1.342-2.479,1.281-5.482-0.162-7.904c-1.328-2.229-3.645-3.663-6.203-3.877L300,220.343l25.61,40.242
		c-2.559,0.214-4.875,1.649-6.203,3.877c-1.443,2.422-1.504,5.424-0.162,7.904l11.656,21.525h-0.455
		c-2.82,0-5.431,1.484-6.873,3.906c-1.443,2.422-1.505,5.424-0.162,7.904l11.656,21.526h-70.135l11.656-21.526
		C277.932,303.222,277.87,300.219,276.427,297.797z M227.004,389.623h145.992v8.434H227.004V389.623z M419.06,440.062H180.94
		v-26.005h38.063h161.992h38.063V440.062z"/>
	<path fill="#222221" d="M292.491,188.143c4.328-0.886,7.119-5.113,6.232-9.441c-0.885-4.328-5.111-7.119-9.441-6.233
		c-46.206,9.455-83.467,45.137-94.924,90.904c-1.073,4.286,1.531,8.63,5.817,9.703c0.652,0.164,1.306,0.242,1.948,0.242
		c3.584,0,6.846-2.425,7.755-6.059C219.851,227.426,252.278,196.372,292.491,188.143z"/>
</g>
</svg>
