<?xml version="1.0" encoding="iso-8859-1"?>
<!-- Generator: Adobe Illustrator 16.0.0, SVG Export Plug-In . SVG Version: 6.00 Build 0)  -->
<!DOCTYPE svg PUBLIC "-//W3C//DTD SVG 1.1//EN" "http://www.w3.org/Graphics/SVG/1.1/DTD/svg11.dtd">
<svg version="1.1" xmlns="http://www.w3.org/2000/svg" xmlns:xlink="http://www.w3.org/1999/xlink" x="0px" y="0px" width="512px"
	 height="512px" viewBox="0 0 512 512" style="enable-background:new 0 0 512 512;" xml:space="preserve">
<g id="Artwork">
</g>
<g id="Layer_3">
	<g>
		<g>
			<g>
				<g>
					<path d="M197.187,373.719c-4.825,0-8.961-3.445-9.835-8.189C176.765,308.023,167.04,272.873,146,251.833
						s-56.191-30.765-113.697-41.352c-4.745-0.874-8.189-5.01-8.189-9.835s3.445-8.961,8.189-9.835
						C89.809,180.225,124.96,170.5,146,149.459s30.765-56.191,41.352-113.697c0.874-4.745,5.01-8.189,9.835-8.189
						s8.961,3.445,9.835,8.189c10.586,57.506,20.312,92.657,41.352,113.697s56.191,30.765,113.697,41.352
						c4.745,0.874,8.189,5.01,8.189,9.835s-3.445,8.961-8.189,9.835c-57.506,10.586-92.657,20.312-113.697,41.352
						s-30.765,56.191-41.352,113.697C206.148,370.274,202.011,373.719,197.187,373.719z M82.783,200.646
						c35.099,8.738,59.633,19.319,77.359,37.044s28.307,42.26,37.044,77.359c8.738-35.099,19.319-59.633,37.044-77.359
						s42.26-28.307,77.359-37.044c-35.099-8.738-59.633-19.319-77.359-37.044s-28.307-42.26-37.044-77.359
						c-8.738,35.099-19.319,59.633-37.044,77.359S117.882,191.908,82.783,200.646z"/>
				</g>
			</g>
		</g>
		<g>
			<g>
				<g>
					<path d="M374.178,484.427c-4.825,0-8.961-3.445-9.835-8.189c-6.6-35.849-12.585-57.685-25.292-70.392
						c-12.708-12.708-34.543-18.693-70.392-25.292c-4.745-0.874-8.189-5.01-8.189-9.835s3.445-8.961,8.189-9.835
						c35.849-6.599,57.685-12.584,70.392-25.292c12.707-12.708,18.692-34.543,25.292-70.392c0.874-4.745,5.01-8.189,9.835-8.189
						s8.961,3.445,9.835,8.189c6.6,35.849,12.585,57.685,25.292,70.392c12.708,12.708,34.543,18.693,70.392,25.292
						c4.745,0.874,8.189,5.01,8.189,9.835s-3.445,8.961-8.189,9.835c-35.849,6.599-57.685,12.584-70.392,25.292
						c-12.707,12.707-18.692,34.543-25.292,70.392C383.139,480.982,379.002,484.427,374.178,484.427z M314.887,370.718
						c33.689,10.466,48.824,25.601,59.291,59.292c10.466-33.69,25.601-48.825,59.291-59.292
						c-33.69-10.466-48.824-25.601-59.291-59.292C363.711,345.117,348.577,360.252,314.887,370.718z"/>
				</g>
			</g>
		</g>
	</g>
</g>
</svg>
