<?xml version="1.0" encoding="iso-8859-1"?>
<!-- Generator: Adobe Illustrator 16.0.0, SVG Export Plug-In . SVG Version: 6.00 Build 0)  -->
<!DOCTYPE svg PUBLIC "-//W3C//DTD SVG 1.1//EN" "http://www.w3.org/Graphics/SVG/1.1/DTD/svg11.dtd">
<svg version="1.1" xmlns="http://www.w3.org/2000/svg" xmlns:xlink="http://www.w3.org/1999/xlink" x="0px" y="0px" width="512px"
	 height="512px" viewBox="0 0 512 512" style="enable-background:new 0 0 512 512;" xml:space="preserve">
<g id="Artwork">
</g>
<g id="Layer_2">
	<path d="M459.814,99.563c0-17.516-24.721-25.964-32.844-28.74c-17.209-5.883-41.645-10.808-70.66-14.243
		c-0.107-0.013-0.213-0.023-0.32-0.032c-0.535-0.047-1.842-0.156-3.453-0.279c0.012-0.271,0.029-0.542,0.035-0.816
		c0.008-0.185,0.012-0.369,0.01-0.553c0.223-16.706-7.688-24.254-14.393-27.646c-20.326-10.286-53.537,6.814-66.438,16.707
		c-0.689,0.528-1.279,1.135-1.791,1.789c-3.262-1.584-6.922-2.475-10.785-2.475h-7.08c-4.086,0-7.938,0.999-11.338,2.757
		c-0.531-0.738-1.164-1.42-1.914-2.012c-16.15-12.767-48.977-26.054-68.15-14.032c-6.295,3.948-12.875,11.585-12.582,26.199
		l-3.262,0.401c-28.986,3.44-53.393,8.366-70.578,14.246c-8.115,2.775-32.807,11.223-32.807,28.729l-0.035,17.76v0.092
		c0,0.003,0,0.006,0,0.008v87.271c0,4.614,3.158,8.63,7.643,9.718c1.744,0.424,3.514,0.84,5.293,1.253
		c-0.023,0.283-0.043,0.569-0.043,0.859v226.654c0,2.424,0.881,4.765,2.477,6.588c23.111,26.391,111.496,38.203,188.838,38.203
		c77.344,0,165.729-11.813,188.838-38.203c1.598-1.823,2.477-4.164,2.477-6.588V216.523c0-0.288-0.02-0.571-0.043-0.854
		c1.779-0.412,3.549-0.828,5.293-1.251c4.484-1.088,7.643-5.103,7.643-9.718v-87.379L459.814,99.563z M283.922,59.83
		c13.305-10.203,36.791-19.004,45.236-14.733c0.887,0.448,3.584,1.814,3.422,9.771c0,0.026-0.002,0.053-0.002,0.08
		c-0.057,2.75-0.635,5.754-1.246,8.933c-0.701,3.651-1.428,7.427-1.584,11.629c-0.135,3.718,0.465,7.511,1.043,11.178
		c0.645,4.091,1.619,10.271,0.178,11.779c-5.092,5.331-26.641-3.43-44.342-18.027c-0.873-0.72-1.834-1.257-2.836-1.635
		c0.104-0.914,0.16-1.841,0.16-2.781v-7.979c0-2.605-0.406-5.117-1.156-7.478C283.18,60.347,283.559,60.107,283.922,59.83z
		 M247.318,68.045c0-2.631,2.143-4.771,4.777-4.771h7.08c2.633,0,4.775,2.141,4.775,4.771v7.979c0,2.629-2.143,4.768-4.775,4.768
		h-7.08c-2.635,0-4.777-2.139-4.777-4.768V68.045z M181.32,46.93c7.994-5.017,30.768,1.431,45.121,12.778
		c0.609,0.481,1.26,0.872,1.934,1.19c-0.684,2.264-1.057,4.662-1.057,7.146v7.979c0,0.892,0.051,1.771,0.143,2.639
		c-1.344,0.389-2.629,1.059-3.756,2.033c-13.254,11.475-29.393,18.419-42.133,18.12c-1.09-0.025-1.525-0.209-1.531-0.197
		c-1.834-2.068-1.057-12.394-0.682-17.359c0.48-6.375,0.936-12.396-0.211-17.549C178.027,58.655,176.816,49.754,181.32,46.93z
		 M245.637,467.902c-81.998-1.05-143.955-14.878-161.314-28.964V219.933c54.225,10.719,118.4,16.819,161.314,17.673V467.902z
		 M245.637,217.598c-47.086-0.987-120.033-8.586-174.207-20.833v-73.644c10.584,5.161,25.482,9.599,44.961,13.459
		c34.918,6.92,80.492,10.928,129.246,11.411V217.598z M126.049,118.058c-38.41-6.998-51.664-15.178-54.285-18.499
		c3.391-4.338,23.984-15.817,85.488-23.116l2.424-0.299c-0.078,1.204-0.17,2.429-0.26,3.611c-0.844,11.2-1.801,23.894,5.807,32.296
		c2.695,2.975,7.635,6.563,15.877,6.759c0.412,0.01,0.82,0.015,1.234,0.015c17.49-0.001,37.748-8.538,54.461-23.008
		c0.068-0.059,0.127-0.123,0.191-0.184c4.186,3.23,9.424,5.158,15.109,5.158h7.08c5.527,0,10.639-1.82,14.764-4.891
		c3.896,3.208,30.195,24.167,52.326,24.167c7.113,0,13.797-2.167,19.166-7.785c8.275-8.664,6.447-20.25,5.115-28.709
		c-0.432-2.731-0.877-5.557-0.813-7.333c0-0.04,0.008-0.082,0.008-0.123c1.545,0.111,3.102,0.234,4.377,0.343
		c61.416,7.287,82.004,18.761,85.395,23.099c-2.621,3.322-15.875,11.501-54.285,18.499c-35.338,6.438-81.359,9.983-129.592,9.983
		C207.408,128.041,161.385,124.495,126.049,118.058z M426.951,438.938c-17.357,14.086-79.316,27.914-161.314,28.964V237.605
		c42.906-0.854,107.08-6.952,161.314-17.668V438.938z M439.844,196.771c-54.186,12.244-127.129,19.839-174.207,20.826v-69.606
		c48.756-0.483,94.33-4.491,129.25-11.411c19.477-3.859,34.373-8.297,44.957-13.457V196.771z"/>
</g>
</svg>
