<?xml version="1.0" encoding="iso-8859-1"?>
<!-- Generator: Adobe Illustrator 16.0.0, SVG Export Plug-In . SVG Version: 6.00 Build 0)  -->
<!DOCTYPE svg PUBLIC "-//W3C//DTD SVG 1.1//EN" "http://www.w3.org/Graphics/SVG/1.1/DTD/svg11.dtd">
<svg version="1.1" xmlns="http://www.w3.org/2000/svg" xmlns:xlink="http://www.w3.org/1999/xlink" x="0px" y="0px" width="512px"
	 height="512px" viewBox="0 0 512 512" style="enable-background:new 0 0 512 512;" xml:space="preserve">
<g id="Artwork">
</g>
<g id="Layer_2">
	<g>
		<path d="M191.496,225.503c11.998,1.229,47.533,8.454,53.436,24.958c0.688,1.999,2.012,3.795,3.896,5.055
			c0.004,0.003,0.004,0.002,0.004,0.003c0.135,0.09,0.271,0.177,0.412,0.261c1.605,0.964,3.379,1.425,5.133,1.425
			c0.363,0,0.723-0.02,1.08-0.059c0.795-0.085,1.568-0.265,2.305-0.528c1.758-0.629,3.354-1.752,4.555-3.32
			c0.186-0.24,0.359-0.49,0.523-0.749c8.199-12.615,42.389-23.36,62.045-27.175c3.465-0.67,6.311-3.125,7.504-6.446
			c1.193-3.32,0.541-7.034-1.705-9.756c-0.088-0.106-8.846-10.823-13.908-25.812c-6.33-18.744-4.148-35.465,6.482-49.697
			c2.027-2.712,2.543-6.267,1.371-9.443c-1.17-3.177-3.869-5.545-7.172-6.294c-35.752-8.104-49.777-49.713-49.908-50.109
			c-1.332-4.131-5.178-6.931-9.518-6.931h-0.561c-4.322,0-8.164,2.801-9.51,6.907c-0.139,0.42-14.164,42.029-49.916,50.133
			c-3.303,0.749-6.002,3.117-7.172,6.294c-1.172,3.177-0.656,6.73,1.371,9.443c10.631,14.232,12.813,30.953,6.48,49.697
			c-5.061,14.988-13.818,25.705-13.891,25.793c-2.367,2.839-2.975,6.753-1.58,10.176S187.818,225.126,191.496,225.503z
			 M215.361,133.256c20.938-8.94,34.455-25.972,42.389-39.51c7.936,13.538,21.453,30.569,42.391,39.51
			c-8.412,17.17-9.168,36.684-2.084,57.17c2.502,7.241,5.654,13.604,8.578,18.683c-9.504,2.527-22.143,6.481-33.73,12.011
			c3.662-18.238,4.531-41.776-6.006-65.65c-2.23-5.053-8.133-7.346-13.186-5.111c-5.053,2.229-7.342,8.133-5.111,13.186
			c9.947,22.537,7.563,44.767,2.436,62.814c-12.09-10.012-29.17-15.362-41.676-18.116c2.781-4.929,5.721-10.981,8.084-17.815
			C224.529,169.939,223.773,150.426,215.361,133.256z"/>
		<path d="M439.672,365.278c1.811-2.861,2.049-6.444,0.637-9.521c-1.414-3.076-4.289-5.229-7.639-5.72
			c-17.576-2.574-30.926-12.876-39.676-30.621c-6.996-14.188-8.359-27.961-8.371-28.074c-0.328-3.682-2.66-6.882-6.064-8.321
			c-3.404-1.438-7.324-0.885-10.195,1.444c-9.365,7.6-39.627,27.562-55.457,20.056c-1.949-0.958-4.225-1.291-6.516-0.798
			c-2.328,0.503-4.289,1.777-5.676,3.499c-0.482,0.6-0.891,1.245-1.219,1.925c-0.822,1.701-1.172,3.645-0.914,5.628
			c0.039,0.303,0.092,0.605,0.158,0.906c3.1,14.723-13.529,46.469-24.756,63.047c-1.982,2.92-2.264,6.67-0.766,9.864
			c1.5,3.194,4.584,5.363,8.096,5.705c0.137,0.014,13.906,1.421,28.074,8.462c17.717,8.806,27.977,22.188,30.494,39.774
			c0.48,3.352,2.623,6.232,5.695,7.655c1.338,0.62,2.773,0.927,4.203,0.927c1.854,0,3.701-0.516,5.32-1.532
			c31.043-19.502,70.352,0.064,70.723,0.254c3.861,1.982,8.561,1.252,11.637-1.813l0.396-0.396c3.072-3.064,3.818-7.76,1.846-11.625
			C439.504,435.61,419.941,396.465,439.672,365.278z M414.457,424.555c-15.178-3.986-36.773-6.505-57.914,1.945
			c-6.164-18.1-19.406-32.454-38.887-41.962c-6.885-3.361-13.609-5.642-19.266-7.175c4.947-8.5,11.107-20.223,15.41-32.319
			c10.283,15.501,26.285,32.786,50.602,42.257c5.152,2.004,10.943-0.544,12.947-5.689c2.004-5.146-0.543-10.943-5.689-12.947
			c-22.955-8.939-36.961-26.365-46.07-42.769c15.629-1.445,31.506-9.716,42.307-16.593c1.51,5.454,3.699,11.817,6.852,18.325
			c9.445,19.51,23.758,32.797,41.836,39.018C408.068,387.759,410.52,409.365,414.457,424.555z"/>
		<path d="M212.533,315.681c0.068-0.301,0.121-0.604,0.16-0.906c0.256-1.983-0.092-3.927-0.916-5.628
			c-0.328-0.68-0.734-1.325-1.219-1.925c-1.342-1.668-3.227-2.917-5.461-3.45c-0.002,0-0.006-0.001-0.01-0.002l0,0
			c-0.096-0.022-0.191-0.044-0.287-0.063c-0.002-0.002-0.008-0.001-0.01-0.003c-2.256-0.465-4.492-0.13-6.414,0.813
			c-15.764,7.486-46.082-12.465-55.465-20.051c-2.873-2.329-6.793-2.883-10.195-1.444c-3.404,1.439-5.738,4.64-6.066,8.321
			c-0.047,0.523-5.166,52.416-48.047,58.695c-3.35,0.49-6.225,2.644-7.637,5.72c-1.414,3.077-1.174,6.66,0.635,9.521
			c19.6,30.979,0.158,70.351-0.029,70.724c-1.973,3.865-1.227,8.561,1.844,11.625l0.398,0.396c3.061,3.054,7.76,3.782,11.613,1.824
			c0.395-0.2,39.701-19.767,70.746-0.265c1.617,1.017,3.465,1.532,5.32,1.532c1.43,0,2.863-0.307,4.201-0.927
			c3.072-1.423,5.217-4.304,5.697-7.655c2.518-17.587,12.777-30.969,30.494-39.774c14.166-7.041,27.936-8.448,28.049-8.459
			c3.521-0.326,6.607-2.488,8.119-5.686c1.512-3.196,1.221-6.955-0.762-9.883C226.063,362.149,209.434,330.403,212.533,315.681z
			 M193.617,384.538c-19.48,9.508-32.721,23.861-38.885,41.961c-10.33-4.127-20.768-5.637-30.514-5.637
			c-10.199,0-19.641,1.653-27.4,3.692c3.938-15.189,6.387-36.796-2.129-57.909c18.08-6.221,32.391-19.508,41.838-39.018
			c3.15-6.508,5.34-12.871,6.852-18.325c10.801,6.879,26.676,15.148,42.307,16.593c-9.111,16.403-23.117,33.829-46.072,42.769
			c-5.146,2.004-7.693,7.801-5.689,12.947c2.004,5.146,7.797,7.691,12.947,5.689c24.318-9.471,40.32-26.756,50.604-42.257
			c4.303,12.097,10.463,23.819,15.408,32.319C207.227,378.896,200.502,381.177,193.617,384.538z"/>
		<path d="M238.031,259.695c-13.816-4.016-28.27,3.928-32.287,17.742s3.924,28.271,17.74,32.289c1.752,0.51,3.518,0.824,5.27,0.963
			c-0.023-2.885,0.359-5.82,1.205-8.729c3.588-12.342,14.367-20.672,26.453-21.775C254.736,270.727,247.877,262.559,238.031,259.695
			z"/>
		<path d="M257.201,265.221c4.332,3.951,7.215,9.279,8.166,15.07c2.074,0.152,4.16,0.52,6.234,1.123
			c10.576,3.074,18.213,11.43,20.877,21.363c4.75-3.285,8.443-8.16,10.18-14.139c4.018-13.814-3.926-28.27-17.742-32.287
			C274.432,253.303,263.58,257.15,257.201,265.221z"/>
		<circle cx="261.91" cy="315.271" r="26.049"/>
	</g>
</g>
</svg>
