<?xml version="1.0" encoding="iso-8859-1"?>
<!-- Generator: Adobe Illustrator 16.0.0, SVG Export Plug-In . SVG Version: 6.00 Build 0)  -->
<!DOCTYPE svg PUBLIC "-//W3C//DTD SVG 1.1//EN" "http://www.w3.org/Graphics/SVG/1.1/DTD/svg11.dtd">
<svg version="1.1" xmlns="http://www.w3.org/2000/svg" xmlns:xlink="http://www.w3.org/1999/xlink" x="0px" y="0px" width="512px"
	 height="512px" viewBox="0 0 512 512" style="enable-background:new 0 0 512 512;" xml:space="preserve">
<g id="Artwork">
</g>
<g id="Layer_3">
	<path d="M451.949,307.714l-58.997,15.809l-22.876-13.207l39.68-10.633c5.335-1.43,8.501-6.913,7.071-12.247
		c-1.429-5.334-6.915-8.503-12.247-7.071l-58.999,15.809l-24.615-14.211c3.222-8.034,5.014-16.79,5.014-25.962
		c0-9.171-1.791-17.927-5.014-25.96l24.617-14.213l58.999,15.808c0.867,0.232,1.737,0.344,2.594,0.344
		c4.415-0.001,8.456-2.947,9.653-7.415c1.43-5.335-1.736-10.818-7.071-12.247l-39.68-10.632l22.875-13.207l58.997,15.808
		c0.867,0.232,1.737,0.344,2.594,0.344c4.415-0.001,8.456-2.947,9.653-7.415c1.43-5.334-1.736-10.817-7.071-12.247l-39.679-10.632
		l30.437-17.572c4.783-2.762,6.422-8.877,3.66-13.66c-2.761-4.781-8.877-6.422-13.66-3.66l-30.437,17.573l10.631-39.679
		c1.43-5.335-1.736-10.818-7.071-12.247s-10.817,1.737-12.247,7.071l-15.807,58.996l-22.876,13.208l10.632-39.681
		c1.43-5.334-1.736-10.817-7.071-12.247c-5.338-1.43-10.817,1.736-12.247,7.071l-15.809,58.999l-24.642,14.227
		c-10.87-13.772-26.785-23.377-44.94-25.987v-28.414l43.189-43.19c3.905-3.905,3.905-10.237,0-14.143
		c-3.906-3.904-10.236-3.904-14.143,0L266,130.048v-26.412l43.189-43.19c3.905-3.905,3.905-10.237,0-14.143
		c-3.906-3.904-10.236-3.904-14.143,0L266,75.351V40.205c0-5.522-4.478-10-10-10s-10,4.478-10,10v35.146l-29.047-29.046
		c-3.906-3.904-10.236-3.904-14.143,0c-3.905,3.905-3.905,10.237,0,14.143L246,103.636v26.412l-29.047-29.046
		c-3.906-3.904-10.236-3.904-14.143,0c-3.905,3.905-3.905,10.237,0,14.143L246,158.333v28.414
		c-18.154,2.61-34.069,12.215-44.938,25.986l-24.644-14.228l-15.81-58.998c-1.43-5.336-6.916-8.502-12.247-7.071
		c-5.335,1.43-8.501,6.913-7.071,12.247l10.633,39.68l-22.875-13.206l-15.809-58.997c-1.43-5.336-6.915-8.503-12.247-7.071
		c-5.335,1.43-8.501,6.913-7.071,12.247l10.633,39.68l-30.438-17.573c-4.784-2.762-10.899-1.122-13.66,3.66
		c-2.762,4.783-1.123,10.898,3.66,13.66l30.437,17.573l-39.677,10.632c-5.335,1.43-8.501,6.913-7.071,12.247
		c1.197,4.469,5.237,7.415,9.653,7.415c0.856,0,1.728-0.111,2.594-0.344l58.996-15.809l22.876,13.207l-39.679,10.633
		c-5.335,1.43-8.501,6.913-7.071,12.247c1.197,4.469,5.237,7.415,9.653,7.415c0.856,0,1.728-0.111,2.594-0.344l58.998-15.809
		l24.616,14.212c-3.223,8.033-5.014,16.789-5.014,25.961c0,9.171,1.791,17.927,5.014,25.96l-24.617,14.213l-58.999-15.808
		c-5.336-1.429-10.817,1.737-12.247,7.071c-1.43,5.335,1.736,10.817,7.071,12.247l39.68,10.632l-22.876,13.207L60.05,307.715
		c-5.337-1.431-10.817,1.737-12.247,7.071c-1.43,5.335,1.736,10.817,7.071,12.247l39.679,10.632l-30.437,17.572
		c-4.783,2.762-6.422,8.877-3.66,13.66c1.853,3.208,5.213,5.002,8.67,5.002c1.696,0,3.416-0.433,4.99-1.342l30.438-17.573
		l-10.632,39.679c-1.43,5.334,1.736,10.817,7.071,12.247c0.867,0.232,1.737,0.344,2.594,0.344c4.415,0,8.456-2.947,9.653-7.415
		l15.808-58.996l22.876-13.208l-10.632,39.681c-1.43,5.335,1.736,10.817,7.071,12.247c0.867,0.232,1.737,0.344,2.594,0.344
		c4.415,0,8.456-2.947,9.653-7.415l15.808-58.998l24.643-14.228c10.869,13.772,26.784,23.377,44.939,25.987v28.413l-43.189,43.191
		c-3.905,3.905-3.905,10.237,0,14.143c1.953,1.952,4.512,2.929,7.071,2.929s5.118-0.977,7.071-2.929L246,381.951v26.414
		l-43.188,43.189c-3.905,3.905-3.905,10.237,0,14.143c1.953,1.952,4.512,2.929,7.071,2.929s5.118-0.977,7.071-2.929L246,436.65
		v35.145c0,5.522,4.478,10,10,10s10-4.478,10-10v-35.146l29.047,29.046c3.906,3.904,10.236,3.904,14.143,0
		c3.905-3.905,3.905-10.237,0-14.143L266,408.365v-26.414l29.048,29.047c3.906,3.904,10.236,3.904,14.143,0
		c3.905-3.905,3.905-10.237,0-14.143L266,353.666v-28.413c18.155-2.61,34.07-12.215,44.939-25.986l24.643,14.228l15.811,58.999
		c1.197,4.468,5.237,7.414,9.653,7.414c0.856-0.001,1.728-0.111,2.595-0.344c5.334-1.43,8.5-6.913,7.07-12.248l-10.633-39.679
		l22.875,13.207l15.809,58.996c1.197,4.469,5.237,7.415,9.653,7.415c0.856-0.001,1.728-0.111,2.594-0.344
		c5.335-1.43,8.501-6.913,7.071-12.247l-10.633-39.679l30.437,17.572c1.575,0.909,3.294,1.342,4.99,1.342
		c3.456,0,6.818-1.794,8.67-5.002c2.762-4.783,1.123-10.898-3.66-13.66l-30.437-17.572l39.678-10.633
		c5.335-1.43,8.501-6.913,7.071-12.247C462.767,309.45,457.283,306.283,451.949,307.714z M256,305.979
		c-27.559,0-49.979-22.42-49.979-49.979s22.42-49.979,49.979-49.979s49.979,22.42,49.979,49.979S283.559,305.979,256,305.979z"/>
</g>
</svg>
