<?xml version="1.0" encoding="utf-8"?>
<!-- Generator: Adobe Illustrator 16.0.0, SVG Export Plug-In . SVG Version: 6.00 Build 0)  -->
<!DOCTYPE svg PUBLIC "-//W3C//DTD SVG 1.1//EN" "http://www.w3.org/Graphics/SVG/1.1/DTD/svg11.dtd">
<svg version="1.1" id="Layer_1" xmlns="http://www.w3.org/2000/svg" xmlns:xlink="http://www.w3.org/1999/xlink" x="0px" y="0px"
	 width="50px" height="50px" viewBox="0 0 50 50" enable-background="new 0 0 50 50" xml:space="preserve">
<g>
	<path d="M28.325,24.546c-2.048-0.421-3.31-2.889-3.31-2.889s-1.495,2.075-3.309,2.6c0.607,1.339,0.739,3.545-1.521,4.386
		c1.367,0.499,2.519,1.602,1.89,4.517c2.18,0.262,2.468,3.125,2.939,4.175c0.633-1.654,0.815-3.729,2.812-3.992
		c-0.553-2.468,0.917-4.201,1.971-4.648C28.431,27.802,27.144,26.358,28.325,24.546z"/>
	<path d="M19.227,17.544c-2.052,0.671-3.114-0.946-3.624-2.497c-0.705,0.901-2.761,1.872-4.999,0.702
		c-0.773,1.857-2.825,1.5-4.583,1.681c0.892,0.727,3.58,1.746,3.271,3.919c2.981,0.146,3.746,1.546,3.874,2.998
		c1.397-1.966,3.491-1.268,4.63-0.335c0.973-1.615,3.368-2.525,3.368-2.525S19.107,19.629,19.227,17.544z"/>
	<path d="M39.398,15.753c-2.238,1.171-4.299,0.201-4.999-0.702c-0.51,1.552-1.572,3.169-3.624,2.497
		c0.123,2.088-1.937,3.944-1.937,3.944s2.392,0.909,3.368,2.524c1.135-0.932,3.232-1.628,4.63,0.333
		c0.128-1.447,0.896-2.848,3.87-2.995c-0.311-2.171,2.383-3.193,3.274-3.92C42.224,17.253,40.167,17.613,39.398,15.753z"/>
	<path d="M21.461,18.745c0,1.328,1.074,2.404,2.399,2.404c1.075,0,1.95-0.717,2.26-1.689c-1.278-0.519-2.217-1.681-2.442-3.081
		C22.441,16.477,21.461,17.482,21.461,18.745z M24.179,19.875c0,0.215-0.174,0.391-0.391,0.391c-0.212,0-0.391-0.175-0.391-0.391
		c0-0.216,0.179-0.391,0.391-0.391C24.005,19.484,24.179,19.659,24.179,19.875z"/>
	<path d="M27.628,18.836c1.708,0,3.093-1.385,3.093-3.091c0-1.706-1.385-3.089-3.093-3.089c-1.707,0-3.088,1.384-3.088,3.089
		C24.54,17.451,25.921,18.836,27.628,18.836z M28.839,14.405c0.217,0,0.391,0.175,0.391,0.391c0,0.216-0.174,0.391-0.391,0.391
		s-0.391-0.175-0.391-0.391C28.448,14.58,28.622,14.405,28.839,14.405z"/>
	<path d="M21.443,16.721c0.535-0.645,1.305-1.077,2.188-1.146c0.03-0.653,0.217-1.26,0.519-1.794
		c-0.378-0.537-0.969-0.911-1.674-0.911c-1.151,0-2.081,0.933-2.081,2.083C20.395,15.718,20.827,16.361,21.443,16.721z
		 M22.271,13.331c0.217,0,0.391,0.175,0.391,0.391c0,0.216-0.174,0.391-0.391,0.391s-0.391-0.175-0.391-0.391
		C21.881,13.506,22.055,13.331,22.271,13.331z"/>
</g>
</svg>
