<?xml version="1.0" encoding="utf-8"?>
<!-- Generator: Adobe Illustrator 15.0.0, SVG Export Plug-In . SVG Version: 6.00 Build 0)  -->
<!DOCTYPE svg PUBLIC "-//W3C//DTD SVG 1.1//EN" "http://www.w3.org/Graphics/SVG/1.1/DTD/svg11.dtd">
<svg version="1.1" id="Capa_1" xmlns="http://www.w3.org/2000/svg" xmlns:xlink="http://www.w3.org/1999/xlink" x="0px" y="0px"
	 width="600px" height="600px" viewBox="0 0 600 600" enable-background="new 0 0 600 600" xml:space="preserve">
<g>
	<path fill="#222221" d="M362.098,323.279l49.751-48.496c2.181-2.125,2.966-5.305,2.024-8.201s-3.445-5.007-6.458-5.445
		l-68.755-9.989l-30.747-62.303c-1.348-2.73-4.128-4.459-7.174-4.459c-3.045,0-5.826,1.729-7.174,4.459l-30.748,62.303
		l-68.754,9.989c-3.013,0.438-5.517,2.549-6.458,5.445s-0.156,6.075,2.024,8.201l49.751,48.496l-11.745,68.476
		c-0.515,3.001,0.719,6.034,3.183,7.825c2.463,1.789,5.729,2.026,8.425,0.608l61.496-32.33l61.495,32.33
		c1.171,0.615,2.449,0.919,3.723,0.919c1.658,0,3.309-0.516,4.703-1.527c2.463-1.791,3.697-4.824,3.182-7.825L362.098,323.279z
		 M304.462,351.739c-1.165-0.612-2.444-0.919-3.723-0.919c-1.279,0-2.558,0.307-3.723,0.919l-50.871,26.744l9.715-56.645
		c0.445-2.595-0.415-5.243-2.301-7.081l-41.155-40.117l56.875-8.263c2.605-0.379,4.858-2.015,6.023-4.376l25.435-51.538
		l25.435,51.538c1.166,2.361,3.418,3.998,6.023,4.376l56.875,8.263l-41.154,40.117c-1.886,1.838-2.746,4.486-2.301,7.081
		l9.715,56.645L304.462,351.739z"/>
	<path fill="#222221" d="M300.739,170.434c4.419,0,8-3.582,8-8v-35.824c0-4.418-3.581-8-8-8c-4.418,0-8,3.582-8,8v35.824
		C292.739,166.852,296.321,170.434,300.739,170.434z"/>
	<path fill="#222221" d="M397.797,211.249c2.047,0,4.094-0.781,5.656-2.343l25.332-25.332c3.125-3.124,3.125-8.189,0-11.313
		c-3.124-3.124-8.189-3.124-11.313,0l-25.332,25.332c-3.124,3.124-3.124,8.189,0,11.313
		C393.701,210.468,395.749,211.249,397.797,211.249z"/>
	<path fill="#222221" d="M473.391,292.739h-35.824c-4.419,0-8,3.582-8,8c0,4.419,3.581,8,8,8h35.824c4.418,0,8-3.581,8-8
		C481.391,296.321,477.809,292.739,473.391,292.739z"/>
	<path fill="#222221" d="M402.408,392.141c-3.125-3.125-8.189-3.125-11.314,0c-3.124,3.123-3.124,8.189,0,11.312l25.332,25.332
		c1.562,1.562,3.609,2.344,5.657,2.344s4.095-0.781,5.657-2.344c3.124-3.123,3.124-8.189,0-11.312L402.408,392.141z"/>
	<path fill="#222221" d="M299.261,429.566c-4.418,0-8,3.582-8,8v35.824c0,4.418,3.582,8,8,8c4.419,0,8-3.582,8-8v-35.824
		C307.261,433.148,303.68,429.566,299.261,429.566z"/>
	<path fill="#222221" d="M196.547,391.096l-25.332,25.33c-3.125,3.125-3.125,8.189,0,11.314c1.562,1.562,3.609,2.343,5.657,2.343
		c2.047,0,4.095-0.781,5.657-2.343l25.332-25.332c3.125-3.123,3.125-8.189,0-11.312
		C204.737,387.971,199.672,387.971,196.547,391.096z"/>
	<path fill="#222221" d="M162.434,291.262H126.61c-4.418,0-8,3.582-8,8c0,4.418,3.582,8,8,8h35.824c4.418,0,8-3.582,8-8
		C170.434,294.843,166.853,291.262,162.434,291.262z"/>
	<path fill="#222221" d="M197.592,207.86c1.562,1.562,3.609,2.343,5.657,2.343s4.095-0.781,5.657-2.343
		c3.125-3.124,3.125-8.189,0-11.313l-25.332-25.332c-3.124-3.124-8.189-3.124-11.313,0c-3.125,3.124-3.125,8.189,0,11.313
		L197.592,207.86z"/>
</g>
</svg>
