<?xml version="1.0" encoding="iso-8859-1"?>
<!-- Generator: Adobe Illustrator 16.0.0, SVG Export Plug-In . SVG Version: 6.00 Build 0)  -->
<!DOCTYPE svg PUBLIC "-//W3C//DTD SVG 1.1//EN" "http://www.w3.org/Graphics/SVG/1.1/DTD/svg11.dtd">
<svg version="1.1" xmlns="http://www.w3.org/2000/svg" xmlns:xlink="http://www.w3.org/1999/xlink" x="0px" y="0px" width="512px"
	 height="512px" viewBox="0 0 512 512" style="enable-background:new 0 0 512 512;" xml:space="preserve">
<g id="Artwork">
</g>
<g id="Layer_3">
	<path d="M480.778,159.441c-8.73-1.802-19.313,4.99-26.633,8.968c-2.471,1.342-6.584,4.839-9.489,4.895
		c-5.235,0.104-10.693-0.901-15.908-1.365c-21.202-1.882-42.499-4.036-63.813-3.463c-42.936,1.154-79.015,17.922-104.471,52.969
		c0.689-3.075,1.387-5.022,1.387-5.022c29.239-70.274,137.939-53.909,137.939-53.909c11.591,1.36,24.371,3.768,35.982,1.471
		c13.95-2.759,10.698-15.405,10.749-26.624c0.035-7.774,0.267-23.641-9.984-25.703c-11.063-2.225-23.758,9.323-32.291,14.824
		c-22.162,14.283-46.675,8.916-71.206,5.016c-26.167-4.161-51.8-4.635-78.245-4.375c-50.88,0.5-103.748,5.803-139.51,46.074
		c-16.599,18.692-28.616,40.815-38.628,63.581c-9.39,21.352-20.142,46.833-11.484,70.175c0.853,2.3,1.881,4.534,3.067,6.681
		c-22.593,6.61-36.558,14.708-42.18,24.479l16.921,35.699c23.915,12.818,52.853,17.089,79.431,20.656
		c33.166,4.452,66.71,6.156,100.158,6.156c32.534,0,65.149-1.625,97.428-5.796c27.442-3.547,57.473-7.785,82.16-21.016
		l16.922-35.699c-5.543-9.634-19.193-17.642-41.232-24.201c10.137-10.822,19.876-21.982,29.827-32.968
		c10.101-11.149,37.936-23.362,22.536-40.481l-27.782-27.952c-16.631,19.545-45.809,33.613-71.124,35.552
		c-13.899,1.548-27.443-2.496-41.353-0.293l-0.274-1.034c13.615-3.404,27.391-0.586,41.02-3.349
		c19.107-3.158,36.723-13.019,50.964-25.925c14.284-12.946,27.502-23.729,47.573-15.78c10.828,4.288,37.973,24.779,48.233,10.334
		c5.507-7.756,4.491-19.116,5.385-28.115C483.44,177.998,490.642,161.479,480.778,159.441
		C477.007,158.663,484.3,160.168,480.778,159.441z M399.627,339.708c-2.927,3.795-8.162,6.094-12.386,7.973
		c-13.9,6.182-29.146,9.488-44.027,12.27c-39.656,7.412-80.36,9.689-120.643,9.689c-39.463,0-79.289-2.221-118.176-9.236
		c-15.264-2.754-30.838-6.053-45.171-12.148c-4.632-1.969-10.511-4.399-13.709-8.548c1.357-1.761,7.592-7.927,31.321-14.532
		c17.193,17.845,43.151,25.773,66.747,30.604c29.743,6.089,60.446,7.505,90.733,6.662c27.281-0.76,54.773-3.289,81.49-9.01
		c9.102-1.949,18.276-4.223,26.895-7.797c10.391-4.309,16.985-12.689,24.698-20.71C391.879,331.625,398.253,337.925,399.627,339.708
		C397.943,341.892,398.253,337.925,399.627,339.708z"/>
</g>
</svg>
