<?xml version="1.0" encoding="iso-8859-1"?>
<!-- Generator: Adobe Illustrator 16.0.0, SVG Export Plug-In . SVG Version: 6.00 Build 0)  -->
<!DOCTYPE svg PUBLIC "-//W3C//DTD SVG 1.1//EN" "http://www.w3.org/Graphics/SVG/1.1/DTD/svg11.dtd">
<svg version="1.1" xmlns="http://www.w3.org/2000/svg" xmlns:xlink="http://www.w3.org/1999/xlink" x="0px" y="0px" width="512px"
	 height="512px" viewBox="0 0 512 512" style="enable-background:new 0 0 512 512;" xml:space="preserve">
<g id="Artwork">
</g>
<g id="Layer_2">
	<g>
		<path d="M95.89,161.615c3.596,10.029,7.259,20.254,9.488,29.481c22.832-62.738,119.375-41.613,119.375-41.613
			c-63.037,67.011-100.592,37.906-102.696,31.29c-4.667,5.304-9.866,13.521-12.631,18.829c20.369,31.912,67.344,19.623,90.267,4.631
			c10.782-7.053,20.563-15.016,29.074-23.547c0.158,0.389,0.324,0.774,0.505,1.151c-1.163,1.395-2.308,2.779-3.411,4.125
			c-3.338,4.068-6.627,8.289-9.847,12.618c17.46-8.373,27.081-9.14,34.287-9.809c17.455-1.62,34.247,6.796,34.247,6.796
			c-2.492-3.277-5.022-6.484-7.581-9.604c-1.103-1.345-2.248-2.729-3.411-4.126c0.181-0.376,0.347-0.762,0.505-1.151
			c8.51,8.531,18.29,16.494,29.074,23.547c22.923,14.992,69.897,27.281,90.267-4.631c-2.765-5.309-7.964-13.525-12.63-18.829
			c-2.105,6.616-39.66,35.721-102.697-31.29c0,0,96.542-21.125,119.375,41.613c2.229-9.228,5.892-19.452,9.488-29.481
			c5.445-15.184,11.074-30.886,12.406-45.027c2.306-24.479-9.405-36.552-19.634-42.368c-7.344-4.177-15.957-6.294-25.597-6.294
			c-21.383,0-48.614,10.5-80.936,31.209c-23.162,14.84-40.434,29.507-41.158,30.125l-0.605,0.517l-0.606-0.517
			c-0.724-0.618-17.996-15.285-41.157-30.125c-32.322-20.709-59.552-31.209-80.936-31.209c-9.641,0-18.253,2.117-25.597,6.294
			c-10.23,5.816-21.941,17.89-19.635,42.368C84.816,130.729,90.445,146.432,95.89,161.615z M247.976,143.771h6.875
			c11.45,0,20.731,9.282,20.731,20.731c0,1.424-0.159,2.81-0.434,4.154c-1.954-9.421-10.298-16.5-20.298-16.5h-6.875
			c-10,0-18.344,7.079-20.298,16.5c-0.274-1.345-0.434-2.73-0.434-4.154C227.244,153.053,236.526,143.771,247.976,143.771z"/>
		<path d="M247.124,394.05c-22.627-42-34.384-72.478-38.107-98.771c-4.437-31.33,2.929-55.837,22.502-74.736l2.14-2.161
			c-0.864-1.947-2.586-5.468-2.954-7.527c-34.666,7.325-65.991,29.211-81.569,29.211c-6.829,0-13.139-0.927-18.873-2.724
			c-21.536,23.232-36.564,60.629-49.75,103.184l-0.01-0.002l-24.42,31.803l0.007,0.004c-0.479,0.635-0.839,1.313-1.063,2.044
			c-4.097,13.43,37.495,38.02,92.899,54.925c49.471,15.094,93.224,18.955,104.945,10.048l-1.019-7.963L247.124,394.05z
			 M215.727,432.658c-18.547-1.721-41.513-6.557-64.667-13.622c-23.155-7.065-44.91-15.872-61.258-24.8
			c-13.445-7.344-19.995-13-22.753-16.195c4.073-1.111,12.663-2.146,27.918-0.734c16.515,1.531,36.532,5.538,57.065,11.384
			l-2.035,6.672c-2.973,0.992-5.305,3.074-6.176,5.931c-1.597,5.233,2.291,11.056,8.684,13.006
			c6.392,1.951,12.867-0.711,14.464-5.941c0.872-2.857,0.1-5.887-1.813-8.369l2.036-6.672c20.3,6.611,39.146,14.463,53.701,22.412
			c13.446,7.343,19.995,12.998,22.753,16.193C239.573,433.035,230.982,434.07,215.727,432.658z"/>
		<path d="M456.451,332.89c-0.364-0.672-0.854-1.267-1.447-1.794l0.006-0.005l-30.241-26.327l-0.009,0.003
			c-14.014-25.648-28.365-48.957-43.84-67.187c-5.519,1.635-11.548,2.485-18.058,2.485c-19.115,0-37.771-7.051-50.072-14.298
			c0,0-25.771-17.272-50.88-17.272c-4,0-7.99,0.278-11.951,0.782c0.327,2.075,1.003,4.131,2.059,6.084l1.896,3.506
			c0.28,0.517,0.583,1.014,0.901,1.494c-48.031,38.447-26.328,101.51,11.509,171.473l4.896,38.649l0.007-0.003
			c0.115,0.785,0.345,1.521,0.709,2.192c6.678,12.351,53.398,0.024,104.351-27.528C427.237,377.589,463.128,345.24,456.451,332.89z
			 M426.305,359.252c-14.252,11.992-33.83,24.939-55.124,36.454c-21.293,11.515-42.845,20.811-60.683,26.173
			c-14.672,4.41-23.297,5.099-27.51,4.815c2.07-3.679,7.367-10.52,19.09-20.384c12.69-10.677,29.604-22.108,48.191-32.615
			l3.318,6.136c-1.383,2.813-1.539,5.935-0.119,8.563c2.603,4.812,9.478,6.137,15.356,2.956c5.879-3.18,8.534-9.658,5.932-14.468
			c-1.421-2.628-4.119-4.207-7.229-4.589l-3.318-6.137c18.967-9.802,37.793-17.698,53.676-22.473
			c14.671-4.41,23.297-5.099,27.509-4.816C443.326,342.547,438.028,349.389,426.305,359.252z"/>
	</g>
</g>
</svg>
