<?xml version="1.0" encoding="iso-8859-1"?>
<!-- Generator: Adobe Illustrator 16.0.0, SVG Export Plug-In . SVG Version: 6.00 Build 0)  -->
<!DOCTYPE svg PUBLIC "-//W3C//DTD SVG 1.1//EN" "http://www.w3.org/Graphics/SVG/1.1/DTD/svg11.dtd">
<svg version="1.1" xmlns="http://www.w3.org/2000/svg" xmlns:xlink="http://www.w3.org/1999/xlink" x="0px" y="0px" width="512px"
	 height="512px" viewBox="0 0 512 512" style="enable-background:new 0 0 512 512;" xml:space="preserve">
<g id="Artwork">
</g>
<g id="Layer_3">
	<g>
		<path d="M470.436,217.25c-1.176-3.62-4.306-6.258-8.073-6.806l-136.398-19.82l-41.388-83.863
			c6.584-7.016,10.629-16.442,10.629-26.8c0-21.618-17.588-39.206-39.206-39.206s-39.206,17.588-39.206,39.206
			c0,10.358,4.045,19.784,10.629,26.8l-41.389,83.863l-136.397,19.82c-3.767,0.547-6.896,3.186-8.073,6.806
			s-0.195,7.594,2.531,10.251l98.697,96.207l-23.299,135.845c-0.644,3.751,0.898,7.543,3.978,9.781
			c3.08,2.237,7.163,2.532,10.531,0.761L256,405.958l121.997,64.138c1.463,0.769,3.061,1.148,4.652,1.148
			c2.073,0,4.137-0.644,5.879-1.91c3.08-2.237,4.622-6.029,3.978-9.781l-23.299-135.845l98.697-96.207
			C470.631,224.845,471.612,220.871,470.436,217.25z M256,60.756c10.59,0,19.206,8.616,19.206,19.206S266.59,99.168,256,99.168
			s-19.206-8.616-19.206-19.206S245.41,60.756,256,60.756z M351.483,313.057c-2.357,2.297-3.433,5.607-2.876,8.851l20.762,121.056
			l-108.716-57.155c-2.913-1.532-6.394-1.532-9.307,0l-108.716,57.155l20.762-121.056c0.557-3.244-0.519-6.554-2.876-8.851
			l-87.953-85.733l121.548-17.662c3.257-0.473,6.073-2.519,7.529-5.47l42.818-86.758c3.65,1.126,7.525,1.735,11.54,1.735
			c4.015,0,7.89-0.609,11.54-1.735l42.817,86.758c1.457,2.951,4.272,4.997,7.529,5.47l121.549,17.662L351.483,313.057z"/>
		<path d="M264.967,176.169c-1.685-3.413-5.161-5.574-8.967-5.574s-7.283,2.161-8.967,5.574l-28.922,58.603l-64.674,9.399
			c-3.767,0.547-6.896,3.186-8.073,6.806s-0.195,7.594,2.531,10.251l46.799,45.617l-11.049,64.412
			c-0.644,3.751,0.898,7.543,3.978,9.78c3.079,2.238,7.162,2.533,10.531,0.762L256,351.388l57.847,30.411
			c1.463,0.769,3.061,1.148,4.652,1.148c2.073,0,4.137-0.644,5.879-1.91c3.08-2.237,4.622-6.029,3.978-9.78l-11.049-64.412
			l14.42-14.056l32.378-31.561c2.726-2.657,3.707-6.631,2.531-10.251s-4.306-6.258-8.073-6.806l-64.673-9.399L264.967,176.169z
			 M299.583,296.193c-2.357,2.297-3.433,5.607-2.876,8.851l8.512,49.623l-44.564-23.429c-2.914-1.532-6.394-1.532-9.308,0
			l-44.564,23.429l8.512-49.623c0.557-3.244-0.519-6.554-2.876-8.851l-36.054-35.144l49.825-7.241
			c3.257-0.473,6.073-2.519,7.529-5.47L256,203.19l22.282,45.148c1.457,2.951,4.272,4.997,7.529,5.47l49.825,7.241L299.583,296.193z
			"/>
	</g>
</g>
</svg>
