<?xml version="1.0" encoding="utf-8"?>
<!-- Generator: Adobe Illustrator 15.0.0, SVG Export Plug-In . SVG Version: 6.00 Build 0)  -->
<!DOCTYPE svg PUBLIC "-//W3C//DTD SVG 1.1//EN" "http://www.w3.org/Graphics/SVG/1.1/DTD/svg11.dtd">
<svg version="1.1" id="Capa_1" xmlns="http://www.w3.org/2000/svg" xmlns:xlink="http://www.w3.org/1999/xlink" x="0px" y="0px"
	 width="600px" height="600px" viewBox="0 0 600 600" enable-background="new 0 0 600 600" xml:space="preserve">
<g>
	<path fill="#222221" d="M527.332,423.866l-0.373-0.375c-1.945-1.955-4.763-2.771-7.449-2.157c-2.924,0.666-5.932,1.004-8.938,1.004
		c-10.707,0-20.767-4.176-28.324-11.758c-9.782-9.816-13.753-23.756-10.62-37.289c0.621-2.684-0.183-5.5-2.128-7.451l-2.459-2.467
		c-1.521-1.525-3.597-2.398-5.744-2.353c-2.153,0.021-4.207,0.909-5.697,2.464l-0.352,0.375c-0.07,0.074-0.139,0.15-0.226,0.238
		c-7.549,7.523-17.575,11.668-28.233,11.668c-10.709,0-20.771-4.178-28.33-11.763c-1.737-1.743-3.283-3.626-4.653-5.623
		c1.333-11.22-2.275-22.922-10.853-31.526c-4.463-4.477-9.838-7.707-15.707-9.526c4.1-6.077,6.503-13.39,6.516-21.25
		c0.02-12.222-5.735-23.124-14.69-30.141c-0.38-2.107-0.494-4.452-0.489-7.145c0.036-22.018,17.977-39.93,40.065-39.93
		c0.1,0.001,0.198,0.007,0.296,0.011l0.556,0.019c2.155,0.06,4.23-0.77,5.77-2.271c1.54-1.503,2.409-3.562,2.413-5.713l0.006-3.483
		c0.005-2.756-1.409-5.32-3.742-6.787c-11.759-7.392-18.767-20.079-18.744-33.938c0.023-13.865,7.073-26.534,18.857-33.89
		c2.332-1.456,3.754-4.008,3.764-6.758l0.002-0.529c0.01-2.601-1.245-5.043-3.364-6.55c-2.12-1.506-4.839-1.89-7.292-1.026
		c-4.268,1.503-8.732,2.265-13.338,2.265c-22.053-0.037-39.966-18.01-39.93-40.063c0-0.005,0-0.009,0-0.014
		c0-4.412-3.573-7.992-7.987-8c-0.004,0-0.009,0-0.013,0c-4.412,0-7.993,3.573-8,7.987c-0.036,22.017-17.979,39.93-40.064,39.93
		c-4.561-0.008-9.046-0.784-13.331-2.309c-2.45-0.87-5.17-0.497-7.294,1.002s-3.387,3.937-3.387,6.536v0.529
		c0,2.751,1.413,5.309,3.741,6.772c11.76,7.395,18.767,20.087,18.743,33.953c-0.022,13.858-7.071,26.521-18.856,33.876
		c-2.338,1.459-3.76,4.018-3.765,6.773l-0.006,3.483c-0.004,2.152,0.86,4.215,2.396,5.723s3.601,2.325,5.766,2.29l0.553-0.018
		c0.1-0.004,0.199-0.01,0.298-0.01c22.054,0.037,39.966,18.009,39.93,40.063c-0.004,2.464-0.243,4.893-0.688,7.276
		c-8.873,6.994-14.596,17.818-14.615,29.957c-0.005,2.862,0.313,5.674,0.918,8.402c-1.322-0.14-2.664-0.216-4.022-0.218
		c-12.196,0-23.075,5.76-30.08,14.694c-2.066,0.371-4.36,0.486-6.988,0.486h-0.151c-10.684-0.018-20.721-4.195-28.262-11.762
		c-7.541-7.567-11.685-17.618-11.666-28.314c0-0.096,0.006-0.19,0.01-0.285c0.008-0.186,0.015-0.37,0.02-0.556
		c0.049-2.151-0.77-4.23-2.272-5.771c-1.502-1.539-3.561-2.409-5.712-2.413l-3.484-0.006c-0.005,0-0.009,0-0.014,0
		c-2.751,0-5.309,1.414-6.773,3.743c-7.376,11.735-20.039,18.742-33.938,18.743c-13.865-0.023-26.535-7.073-33.892-18.858
		c-1.458-2.336-4.017-3.758-6.771-3.764l-0.528-0.001c-0.006,0-0.011,0-0.016,0c-2.592,0-5.024,1.257-6.524,3.371
		c-1.504,2.119-1.885,4.836-1.021,7.286c1.51,4.286,2.271,8.773,2.263,13.337c-0.037,22.019-17.979,39.931-40.061,39.931
		c-0.005,0-0.01,0-0.014,0c-4.412,0-7.993,3.574-8,7.987c-0.008,4.418,3.568,8.006,7.986,8.013
		c10.684,0.018,20.72,4.195,28.261,11.762c7.542,7.566,11.686,17.617,11.667,28.301c-0.008,4.564-0.784,9.05-2.307,13.331
		c-0.871,2.448-0.499,5.167,0.999,7.29c1.497,2.125,3.932,3.389,6.53,3.391l0.529,0.001c0.003,0,0.005,0,0.008,0
		c2.75,0,5.308-1.413,6.772-3.741c7.381-11.736,20.048-18.744,33.953-18.744c13.859,0.023,26.523,7.072,33.876,18.856
		c1.459,2.338,4.018,3.761,6.773,3.765l3.484,0.006c0.005,0,0.009,0,0.014,0c2.15,0,4.212-0.865,5.717-2.402
		c1.508-1.541,2.33-3.625,2.281-5.779l-0.018-0.525c-0.004-0.105-0.01-0.21-0.01-0.303c0.037-22.018,17.979-39.93,40.062-39.93
		c2.452,0.004,4.867,0.24,7.238,0.68c0.926,1.175,1.916,2.309,2.988,3.385c7.207,7.23,16.799,11.223,27.009,11.24
		c0.005-0.001,0.059-0.002,0.065,0c10.438,0,19.915-4.218,26.822-11.033c1.838,4.086,4.422,7.916,7.767,11.271
		c7.223,7.248,16.837,11.24,27.071,11.24h0.003c1.562,0,3.108-0.104,4.637-0.288c1.755,1.221,3.491,2.776,5.388,4.679
		c15.568,15.621,15.526,40.995-0.093,56.562c-0.074,0.074-0.152,0.144-0.229,0.214l-0.385,0.357
		c-1.561,1.484-2.458,3.537-2.486,5.691c-0.029,2.153,0.812,4.229,2.333,5.754l2.459,2.468c1.944,1.951,4.759,2.765,7.444,2.152
		c2.927-0.667,5.936-1.005,8.943-1.005c10.702,0,20.756,4.172,28.31,11.75c9.788,9.82,13.762,23.764,10.63,37.297
		c-0.621,2.682,0.181,5.494,2.122,7.446l0.373,0.375c1.515,1.522,3.561,2.358,5.672,2.358c0.443,0,0.891-0.037,1.336-0.113
		c2.562-0.434,4.753-2.084,5.877-4.427c1.969-4.104,4.604-7.817,7.833-11.034c7.549-7.524,17.576-11.668,28.234-11.668
		c10.709,0,20.771,4.177,28.331,11.762c1.563,1.568,3.614,2.353,5.666,2.353c0.007-0.001,0.015-0.001,0.02,0c4.419,0,8-3.581,8-8
		c0-2.362-1.023-4.485-2.651-5.95c-7.354-7.531-11.389-17.457-11.371-27.998c0.018-10.684,4.194-20.721,11.761-28.262
		c3.231-3.219,6.952-5.843,11.06-7.797c2.344-1.115,4.001-3.298,4.445-5.855C529.986,428.32,529.162,425.707,527.332,423.866z
		 M335.504,318.234c-5.937-0.01-11.513-2.33-15.702-6.534c-4.19-4.204-6.492-9.788-6.481-15.724
		c0.021-12.233,9.988-22.186,22.258-22.186c12.252,0.021,22.204,10.007,22.184,22.26c-0.021,12.232-9.988,22.185-22.221,22.184
		H335.504z M287.326,204.613c9.529-10.196,14.96-23.664,14.982-38.053c0.02-11.164-3.216-21.783-9.098-30.761
		c18.075-1.709,33.686-12.056,42.641-26.857c8.897,14.813,24.464,25.203,42.556,26.993c-5.914,8.958-9.187,19.57-9.206,30.736
		c-0.022,14.39,5.362,27.875,14.855,38.102c-20.473,5.508-36.348,22.373-40.436,43.387l0.154-93.169
		c0.007-4.418-3.568-8.006-7.986-8.013c-0.005,0-0.01,0-0.014,0c-4.412,0-7.992,3.573-8,7.986l-0.154,93.173
		C323.606,227.102,307.793,210.189,287.326,204.613z M202.819,390.57c-10.201-9.53-23.687-14.96-38.148-14.984
		c-11.126,0-21.712,3.235-30.663,9.1c-1.206-12.92-6.811-24.914-16.088-34.223c-3.27-3.28-6.872-6.104-10.734-8.443
		c14.812-8.912,25.194-24.482,26.961-42.532c8.969,5.915,19.604,9.188,30.824,9.207c14.345-0.001,27.789-5.38,37.991-14.841
		c2.499,9.361,7.417,17.947,14.439,24.994c7.997,8.023,17.998,13.317,28.878,15.429l-93.082-0.155c-0.005,0-0.01,0-0.014,0
		c-4.412,0-7.992,3.573-8,7.986c-0.008,4.418,3.568,8.006,7.986,8.014l93.17,0.155C225.309,354.294,208.396,370.115,202.819,390.57z
		 M294.219,364.578h-0.037c-5.937-0.01-11.513-2.331-15.702-6.535c-4.19-4.204-6.492-9.788-6.481-15.725
		c0.021-12.232,9.987-22.185,22.256-22.185c12.253,0.021,22.206,10.006,22.186,22.259
		C316.419,354.627,306.451,364.578,294.219,364.578z M340.194,338.097c4.194-4.181,9.766-6.483,15.687-6.483
		c5.95,0,11.54,2.321,15.74,6.535c8.649,8.678,8.626,22.775-0.051,31.426c-4.196,4.181-9.767,6.482-15.687,6.482h-0.002
		c-5.95,0-11.54-2.32-15.739-6.535C331.493,360.844,331.517,346.746,340.194,338.097z M487.886,486.278
		c-4.396-1.092-8.956-1.653-13.604-1.653c-13.106,0-25.531,4.475-35.522,12.703c-2.153-10.514-7.342-20.326-15.223-28.232
		c-10.062-10.094-23.293-15.875-37.457-16.414c10.6-18.374,9.908-41.53-2.072-59.293l65.768,65.986
		c1.562,1.568,3.614,2.353,5.666,2.353c2.043,0,4.086-0.778,5.647-2.334c3.129-3.118,3.138-8.185,0.019-11.313l-65.712-65.931
		c9.191,6.25,20.03,9.616,31.394,9.616c9.916,0,19.442-2.562,27.814-7.369c0.479,13.939,6.161,27.293,16.312,37.479
		c7.831,7.857,17.58,13.102,28.196,15.297c-8.291,9.992-12.814,22.443-12.836,35.592
		C486.269,477.379,486.815,481.908,487.886,486.278z"/>
</g>
</svg>
