<?xml version="1.0" encoding="utf-8"?>
<!-- Generator: Adobe Illustrator 15.0.0, SVG Export Plug-In . SVG Version: 6.00 Build 0)  -->
<!DOCTYPE svg PUBLIC "-//W3C//DTD SVG 1.1//EN" "http://www.w3.org/Graphics/SVG/1.1/DTD/svg11.dtd">
<svg version="1.1" id="Layer_1" xmlns="http://www.w3.org/2000/svg" xmlns:xlink="http://www.w3.org/1999/xlink" x="0px" y="0px"
	 width="50px" height="50px" viewBox="0 0 50 50" enable-background="new 0 0 50 50" xml:space="preserve">
<g>
	<g>
		<g>
			<g>
				<g>
					<polygon fill="#231F20" points="11.356,35.168 11.737,35.602 12.312,35.533 12.017,36.031 12.259,36.556 11.694,36.429 
						11.271,36.82 11.218,36.245 10.713,35.963 11.243,35.734 					"/>
				</g>
			</g>
			<g>
				<g>
					<polygon fill="#231F20" points="13.506,34.591 13.887,35.024 14.461,34.956 14.165,35.454 14.407,35.978 13.844,35.851 
						13.42,36.243 13.366,35.669 12.862,35.386 13.393,35.156 					"/>
				</g>
			</g>
			<g>
				<g>
					<polygon fill="#231F20" points="15.655,34.013 16.035,34.447 16.609,34.378 16.314,34.877 16.557,35.4 15.993,35.273 
						15.569,35.666 15.516,35.092 15.012,34.809 15.542,34.58 					"/>
				</g>
			</g>
			<g>
				<g>
					<polygon fill="#231F20" points="17.804,33.436 18.185,33.87 18.759,33.802 18.464,34.299 18.706,34.823 18.142,34.696 
						17.718,35.089 17.665,34.514 17.16,34.23 17.69,34.003 					"/>
				</g>
			</g>
			<g>
				<g>
					<polygon fill="#231F20" points="19.952,32.859 20.334,33.292 20.908,33.225 20.613,33.723 20.854,34.246 20.291,34.119 
						19.866,34.511 19.813,33.937 19.309,33.653 19.839,33.425 					"/>
				</g>
			</g>
			<g>
				<g>
					<polygon fill="#231F20" points="22.102,32.28 22.482,32.716 23.057,32.646 22.761,33.144 23.005,33.669 22.44,33.541 
						22.016,33.934 21.963,33.36 21.458,33.076 21.988,32.848 					"/>
				</g>
			</g>
			<g>
				<g>
					<polygon fill="#231F20" points="24.25,31.704 24.633,32.138 25.207,32.069 24.911,32.567 25.152,33.091 24.59,32.965 
						24.165,33.357 24.112,32.781 23.607,32.5 24.138,32.271 					"/>
				</g>
			</g>
			<g>
				<g>
					<polygon fill="#231F20" points="26.399,31.127 26.782,31.561 27.354,31.492 27.06,31.99 27.303,32.514 26.737,32.387 
						26.313,32.779 26.261,32.204 25.756,31.921 26.287,31.693 					"/>
				</g>
			</g>
			<g>
				<g>
					<polygon fill="#231F20" points="28.549,30.55 28.931,30.983 29.504,30.915 29.209,31.413 29.451,31.937 28.887,31.81 
						28.462,32.202 28.41,31.627 27.904,31.344 28.436,31.116 					"/>
				</g>
			</g>
			<g>
				<g>
					<polygon fill="#231F20" points="30.698,29.972 31.079,30.406 31.653,30.337 31.358,30.835 31.601,31.359 31.036,31.232 
						30.611,31.625 30.559,31.05 30.054,30.768 30.585,30.538 					"/>
				</g>
			</g>
			<g>
				<g>
					<polygon fill="#231F20" points="32.847,29.395 33.229,29.829 33.802,29.761 33.507,30.258 33.748,30.781 33.185,30.655 
						32.762,31.048 32.708,30.473 32.204,30.189 32.734,29.962 					"/>
				</g>
			</g>
			<g>
				<g>
					<polygon fill="#231F20" points="34.996,28.817 35.377,29.251 35.95,29.183 35.656,29.681 35.897,30.205 35.334,30.078 
						34.91,30.471 34.857,29.895 34.354,29.612 34.884,29.384 					"/>
				</g>
			</g>
		</g>
		<g>
			<g>
				<g>
					<polygon fill="#231F20" points="15.116,27.287 15.497,27.721 16.072,27.652 15.776,28.151 16.02,28.675 15.455,28.548 
						15.03,28.939 14.978,28.365 14.473,28.082 15.003,27.854 					"/>
				</g>
			</g>
			<g>
				<g>
					<polygon fill="#231F20" points="17.266,26.71 17.646,27.145 18.22,27.075 17.926,27.573 18.167,28.098 17.604,27.97 
						17.18,28.362 17.127,27.788 16.622,27.505 17.152,27.276 					"/>
				</g>
			</g>
			<g>
				<g>
					<polygon fill="#231F20" points="19.415,26.133 19.796,26.566 20.369,26.498 20.074,26.996 20.316,27.52 19.752,27.394 
						19.329,27.785 19.276,27.211 18.771,26.928 19.302,26.699 					"/>
				</g>
			</g>
			<g>
				<g>
					<polygon fill="#231F20" points="21.562,25.555 21.944,25.989 22.519,25.921 22.224,26.418 22.466,26.942 21.901,26.815 
						21.478,27.208 21.425,26.634 20.92,26.351 21.45,26.122 					"/>
				</g>
			</g>
			<g>
				<g>
					<polygon fill="#231F20" points="23.712,24.979 24.094,25.411 24.668,25.344 24.372,25.842 24.614,26.365 24.051,26.239 
						23.626,26.631 23.573,26.056 23.068,25.773 23.599,25.545 					"/>
				</g>
			</g>
			<g>
				<g>
					<polygon fill="#231F20" points="25.861,24.401 26.243,24.835 26.816,24.766 26.521,25.265 26.764,25.788 26.2,25.66 
						25.775,26.053 25.723,25.479 25.218,25.195 25.749,24.967 					"/>
				</g>
			</g>
			<g>
				<g>
					<polygon fill="#231F20" points="28.012,23.823 28.393,24.258 28.966,24.188 28.672,24.687 28.913,25.21 28.349,25.084 
						27.925,25.477 27.872,24.901 27.366,24.618 27.898,24.391 					"/>
				</g>
			</g>
			<g>
				<g>
					<polygon fill="#231F20" points="30.16,23.246 30.542,23.68 31.115,23.611 30.821,24.109 31.062,24.633 30.498,24.507 
						30.073,24.899 30.021,24.323 29.515,24.041 30.047,23.812 					"/>
				</g>
			</g>
			<g>
				<g>
					<polygon fill="#231F20" points="32.308,22.669 32.69,23.103 33.263,23.035 32.968,23.532 33.21,24.056 32.646,23.929 
						32.223,24.321 32.17,23.747 31.666,23.463 32.196,23.235 					"/>
				</g>
			</g>
		</g>
		<g>
			<g>
				<g>
					<polygon fill="#231F20" points="18.876,19.277 19.257,19.71 19.832,19.642 19.536,20.141 19.778,20.664 19.215,20.537 
						18.79,20.929 18.737,20.354 18.232,20.071 18.763,19.843 					"/>
				</g>
			</g>
			<g>
				<g>
					<polygon fill="#231F20" points="21.025,18.698 21.406,19.134 21.979,19.064 21.685,19.562 21.928,20.087 21.364,19.959 
						20.939,20.352 20.887,19.778 20.382,19.494 20.912,19.266 					"/>
				</g>
			</g>
			<g>
				<g>
					<polygon fill="#231F20" points="23.174,18.122 23.557,18.556 24.13,18.487 23.835,18.985 24.076,19.509 23.513,19.383 
						23.089,19.775 23.036,19.199 22.531,18.918 23.062,18.689 					"/>
				</g>
			</g>
			<g>
				<g>
					<polygon fill="#231F20" points="25.323,17.545 25.704,17.979 26.279,17.91 25.982,18.408 26.227,18.932 25.661,18.805 
						25.237,19.196 25.185,18.622 24.679,18.339 25.211,18.11 					"/>
				</g>
			</g>
			<g>
				<g>
					<polygon fill="#231F20" points="27.474,16.968 27.854,17.401 28.429,17.332 28.134,17.831 28.375,18.354 27.812,18.228 
						27.387,18.62 27.334,18.045 26.828,17.762 27.36,17.534 					"/>
				</g>
			</g>
			<g>
				<g>
					<polygon fill="#231F20" points="29.623,16.39 30.004,16.824 30.577,16.755 30.283,17.253 30.524,17.776 29.961,17.65 
						29.536,18.043 29.483,17.468 28.978,17.186 29.51,16.956 					"/>
				</g>
			</g>
		</g>
		<g>
			<g>
				<g>
					<polygon fill="#231F20" points="22.636,11.396 23.018,11.828 23.592,11.761 23.296,12.259 23.537,12.782 22.975,12.655 
						22.55,13.048 22.497,12.473 21.992,12.19 22.522,11.962 					"/>
				</g>
			</g>
			<g>
				<g>
					<polygon fill="#231F20" points="24.785,10.817 25.167,11.252 25.74,11.183 25.444,11.681 25.688,12.205 25.124,12.077 
						24.699,12.47 24.646,11.896 24.142,11.612 24.673,11.384 					"/>
				</g>
			</g>
			<g>
				<g>
					<polygon fill="#231F20" points="26.936,10.24 27.316,10.675 27.891,10.605 27.596,11.104 27.838,11.627 27.273,11.501 
						26.849,11.894 26.796,11.317 26.29,11.035 26.822,10.808 					"/>
				</g>
			</g>
		</g>
		<g>
			<g>
				<polygon fill="#231F20" points="20.875,14.471 18.943,18.477 29.581,15.576 28.098,12.501 				"/>
			</g>
			<g>
				<polygon fill="#231F20" points="35.518,27.882 34.032,24.804 13.143,30.5 11.209,34.508 				"/>
			</g>
			<g>
				<polygon fill="#231F20" points="32.55,21.729 31.064,18.652 17.01,22.484 15.075,26.493 				"/>
			</g>
			<g>
				<polygon fill="#231F20" points="26.613,9.425 24.961,6 22.81,10.461 				"/>
			</g>
			<g>
				<polygon fill="#231F20" points="9.363,38.493 40.637,38.493 37.001,30.958 				"/>
			</g>
		</g>
	</g>
	<g>
		<rect x="23.405" y="37.621" fill="#231F20" width="3.188" height="6.379"/>
	</g>
</g>
</svg>
