<?xml version="1.0" encoding="iso-8859-1"?>
<!-- Generator: Adobe Illustrator 16.0.0, SVG Export Plug-In . SVG Version: 6.00 Build 0)  -->
<!DOCTYPE svg PUBLIC "-//W3C//DTD SVG 1.1//EN" "http://www.w3.org/Graphics/SVG/1.1/DTD/svg11.dtd">
<svg version="1.1" xmlns="http://www.w3.org/2000/svg" xmlns:xlink="http://www.w3.org/1999/xlink" x="0px" y="0px" width="512px"
	 height="512px" viewBox="0 0 512 512" style="enable-background:new 0 0 512 512;" xml:space="preserve">
<g id="Artwork">
</g>
<g id="Layer_3">
	<g>
		<path d="M137.518,143.53c-0.126,0.754-0.238,1.504-0.336,2.247c-2.192,16.684,2.495,30.994,12.231,37.346
			c3.443,2.246,7.288,3.365,11.287,3.365c4.384,0,8.953-1.346,13.375-4.029c7.998-4.852,12.204-12.071,11.844-20.326
			c-0.475-10.896-9.301-21.93-23.829-30.02c7.014-14.148,21.256-28.399,45.276-36.273c15.941-5.227,32.852-2.668,46.546,3.019
			c-4.116,17.034-2.546,31.349,4.085,40.015c5.694,7.441,16.924,12.468,31.367,4.261c11.635-6.612,15.445-18.438,9.944-30.864
			c-3.597-8.125-11.208-16.242-21.171-22.953c6.649-15.611,17.956-31.842,32.504-46.509c3.889-3.921,3.863-10.252-0.058-14.142
			c-3.921-3.889-10.253-3.865-14.142,0.058c-16.92,17.058-28.788,34.816-36.038,51.252c-19.979-8.017-40.983-9.138-59.269-3.142
			c-30.494,9.997-48.605,28.816-57.532,47.623c-11.901-3.508-24.975-4.986-38.054-4.216c-22.619,1.333-45.064,9.38-64.912,23.273
			c-4.525,3.167-5.625,9.402-2.458,13.927c3.167,4.523,9.402,5.625,13.927,2.458C82.998,138.276,115.044,137.07,137.518,143.53z
			 M272.147,109.67c4.268,3.571,7.368,7.293,8.874,10.696c1.463,3.305,0.782,4.061-1.538,5.379
			c-1.094,0.622-4.424,2.513-5.602,0.974C272.415,124.803,270.766,119.217,272.147,109.67z M156.676,152.253
			c6.709,4.637,9.186,8.994,9.262,10.75c0.039,0.878-1.552,1.94-2.237,2.356c-1.173,0.711-2.757,1.406-3.36,1.012
			C158.904,165.435,156.339,160.714,156.676,152.253z"/>
		<path d="M258.855,386.747l-25.02-0.763c-5.516-0.191-10.131,4.17-10.3,9.69c-0.168,5.52,4.17,10.132,9.69,10.3l25.02,0.763
			c0.104,0.003,0.207,0.005,0.311,0.005c5.381,0,9.824-4.279,9.989-9.695C268.714,391.526,264.376,386.915,258.855,386.747z"/>
		<path d="M206.324,449.449c-2.614-4.865-8.676-6.688-13.542-4.076c-4.865,2.614-6.689,8.677-4.076,13.542l11.848,22.05
			c1.805,3.359,5.254,5.269,8.818,5.269c1.598,0,3.219-0.384,4.725-1.193c4.865-2.614,6.689-8.677,4.076-13.542L206.324,449.449z"/>
		<path d="M134.362,443.59c-4.696-2.905-10.86-1.455-13.766,3.242l-13.171,21.287c-2.906,4.696-1.455,10.859,3.242,13.766
			c1.639,1.014,3.457,1.498,5.252,1.498c3.349,0,6.622-1.683,8.513-4.74l13.171-21.287
			C140.51,452.659,139.059,446.496,134.362,443.59z"/>
		<path d="M97.008,381.807l-25.02-0.764c-5.554-0.199-10.132,4.17-10.3,9.69c-0.169,5.521,4.17,10.132,9.69,10.3l25.02,0.764
			c0.104,0.003,0.208,0.005,0.311,0.005c5.381,0,9.824-4.279,9.989-9.695C106.867,386.586,102.528,381.975,97.008,381.807z"/>
		<path d="M441.638,304.855c1.79,0,3.603-0.48,5.238-1.489l21.309-13.134c4.702-2.898,6.164-9.059,3.266-13.76
			c-2.897-4.702-9.059-6.163-13.76-3.266l-21.309,13.134c-4.702,2.898-6.164,9.059-3.266,13.76
			C435.006,303.167,438.283,304.855,441.638,304.855z"/>
		<path d="M470.374,366.358l-22.028-11.888c-4.86-2.623-10.927-0.81-13.549,4.051c-2.623,4.86-0.809,10.926,4.051,13.549
			l22.028,11.888c1.51,0.815,3.137,1.202,4.74,1.202c3.557,0,7.001-1.903,8.809-5.253
			C477.048,375.047,475.234,368.981,470.374,366.358z"/>
		<path d="M385.041,389.189c-5.521,0.159-9.867,4.763-9.708,10.284l0.72,25.021c0.156,5.422,4.601,9.712,9.991,9.712
			c0.098,0,0.195-0.001,0.293-0.004c5.521-0.159,9.867-4.763,9.708-10.284l-0.72-25.021
			C395.166,393.376,390.556,389.012,385.041,389.189z"/>
		<path d="M319.847,358.168l-21.309,13.134c-4.702,2.898-6.164,9.058-3.266,13.76c1.89,3.066,5.167,4.754,8.522,4.754
			c1.79,0,3.603-0.48,5.238-1.489l21.309-13.134c4.702-2.898,6.164-9.058,3.266-13.76
			C330.709,356.732,324.548,355.27,319.847,358.168z"/>
		<path d="M235.646,307.818c0-29.83-7.334-54.518-21.208-71.395c-0.336-0.408-0.656-0.83-1.086-1.287
			c0.014-1.096,0.041-2.027,0.074-3.112c0.228-7.609,0.512-17.08-6.753-24.566c-7.233-7.453-19.771-10.711-41.782-10.829
			c-22.011,0.118-34.548,3.376-41.782,10.829c-7.265,7.486-6.98,16.957-6.753,24.566c0.033,1.085,0.061,1.916,0.074,3.012
			c-0.467,0.575-0.787,1.023-1.086,1.388c-13.874,16.877-21.208,41.564-21.208,71.395c0,36.025,16.365,69.512,26.121,86.266
			c5.936,10.196,26.611,43.305,44.633,43.709c18.022-0.404,38.697-33.513,44.633-43.709
			C219.281,377.33,235.646,343.844,235.646,307.818z M137.462,221.387c1.363-1.404,6.76-4.631,27.429-4.758
			c20.669,0.127,26.066,3.354,27.429,4.758c1.28,1.319,1.3,4.673,1.139,10.038c-0.047,1.557-0.12,3.165-0.12,4.868
			c0,10.384-12.902,19.195-28.449,19.649c-15.546-0.454-28.449-9.266-28.449-19.649c0-1.703-0.073-3.312-0.12-4.868
			C136.162,226.06,136.182,222.706,137.462,221.387z M164.892,417.434c-4.754-2.559-16.806-14.572-28.875-36.079
			c-8.172-14.562-21.88-43.479-21.88-73.536c0-19.967,3.646-36.862,10.6-49.617c8.695,10.436,23.41,17.396,40.155,17.731
			c16.745-0.336,31.46-7.296,40.155-17.731c6.954,12.755,10.6,29.65,10.6,49.617c0,30.058-13.708,58.975-21.88,73.536
			C181.697,402.861,169.646,414.875,164.892,417.434z"/>
		<path d="M355.067,167.682c-0.485-0.21-0.962-0.44-1.553-0.652c-0.486-0.982-0.886-1.824-1.351-2.805
			c-3.26-6.879-7.317-15.441-17.192-18.802c-9.833-3.345-22.479-0.54-42.133,9.372c-19.545,10.122-29.228,18.728-32.277,28.657
			c-3.062,9.972,1.501,18.276,5.167,24.948c0.524,0.951,0.926,1.679,1.437,2.648c-0.154,0.724-0.235,1.269-0.336,1.73
			c-4.674,21.342,0.031,46.663,13.605,73.224c16.395,32.079,46.206,54.45,62.518,64.929c9.926,6.378,43.403,26.451,59.634,18.609
			c15.864-8.562,19.207-47.452,19.853-59.232c1.063-19.358,0.396-56.624-15.998-88.703
			C392.867,195.042,375.102,176.396,355.067,167.682z M279.681,189.322c0.574-1.871,3.912-7.2,22.259-16.719
			c18.463-9.293,24.737-8.876,26.59-8.246c1.74,0.592,3.284,3.569,5.582,8.42c0.667,1.408,1.334,2.874,2.109,4.39
			c4.726,9.246-2.753,22.964-16.39,30.443c-14.05,6.67-29.549,4.696-34.274-4.551c-0.775-1.517-1.572-2.916-2.322-4.281
			C280.649,194.074,279.141,191.079,279.681,189.322z M402.614,306.143c-0.959,24.644-6.223,40.826-9.292,45.268
			c-5.397-0.115-21.596-5.328-42.13-18.987c-13.903-9.248-39.269-28.758-52.948-55.523c-9.086-17.779-13.529-34.483-13.141-49.005
			c12.491,5.335,28.762,4.837,43.825-2.484c14.758-7.919,24.693-20.813,27.687-34.063c11.997,8.193,22.932,21.578,32.019,39.357
			C402.311,257.47,403.264,289.458,402.614,306.143z"/>
	</g>
</g>
</svg>
