<?xml version="1.0" encoding="iso-8859-1"?>
<!-- Generator: Adobe Illustrator 16.0.0, SVG Export Plug-In . SVG Version: 6.00 Build 0)  -->
<!DOCTYPE svg PUBLIC "-//W3C//DTD SVG 1.1//EN" "http://www.w3.org/Graphics/SVG/1.1/DTD/svg11.dtd">
<svg version="1.1" xmlns="http://www.w3.org/2000/svg" xmlns:xlink="http://www.w3.org/1999/xlink" x="0px" y="0px" width="512px"
	 height="512px" viewBox="0 0 512 512" style="enable-background:new 0 0 512 512;" xml:space="preserve">
<g id="Artwork">
</g>
<g id="Layer_2">
	<path d="M454.867,337.877l-75.488-18.074c0.115-1.532,0.189-3.072,0.189-4.625c0-16.402-6.387-31.823-17.986-43.421l-28.43-28.431
		c-0.008-0.008-0.016-0.016-0.023-0.023l-62.043-62.044c-0.004-0.003-0.008-0.007-0.01-0.01l-27.848-27.848
		c-11.038-11.037-25.54-17.343-41.052-17.928c-0.059-0.001-1.659-0.058-2.368-0.058c-2.152,0-4.287,0.116-6.399,0.334
		l-10.723-69.408c-0.615-3.979-3.555-7.201-7.461-8.176l-41.871-10.451c-2.681-0.668-5.519-0.199-7.841,1.298
		c-2.322,1.497-3.921,3.888-4.418,6.605l-3.714,20.315l-27.123,6.305c-4.367,1.015-7.525,4.813-7.726,9.292l-1.054,23.468
		l-24.288,5.666c-5.169,1.206-8.496,6.24-7.578,11.469l5.972,33.993c0.689,3.925,3.644,7.066,7.52,7.994l75.516,18.085
		c-1.288,17.226,4.623,34.894,17.766,48.037l118.355,118.355c11.6,11.598,27.02,17.985,43.422,17.985
		c2.152,0,4.285-0.116,6.398-0.334l10.723,69.408c0.613,3.979,3.555,7.201,7.461,8.176l41.869,10.452
		c0.799,0.199,1.611,0.298,2.422,0.298c1.904,0,3.789-0.545,5.418-1.595c2.322-1.497,3.922-3.889,4.418-6.606l3.482-19.041
		l19.467-1.129c3.953-0.229,7.398-2.769,8.785-6.476l8.85-23.628l19.209-9.308c3.43-1.662,5.615-5.13,5.639-8.94l0.234-40.2
		C462.566,343.013,459.387,338.959,454.867,337.877z M143.327,172.767l-69.18-16.567l-3.199-18.208l22.451-5.237
		c4.364-1.018,7.518-4.813,7.718-9.29l1.054-23.462l26.13-6.074c3.881-0.902,6.856-4.022,7.573-7.941l2.978-16.286l25.083,6.261
		l10.061,65.119c-6.463,2.997-12.42,7.134-17.608,12.322C150.657,159.133,146.314,165.729,143.327,172.767z M170.529,226.1
		c-9.925-9.925-13.738-23.675-11.459-36.548c0.316-1.354,1.93-12.052,11.459-22.008c4.619-4.826,10.393-8.155,16.575-10.141
		l1.744-0.517c1.047-0.285,2.105-0.534,3.177-0.737l-0.043,91.651L170.529,226.1z M253.792,309.862l-41.785-42.284l0.02-110.335
		c6.372,1.959,12.212,5.453,17.06,10.301l24.941,24.941L253.792,309.862z M288.885,344.455l-14.756-14.605l-0.057-117.319
		l42.016,42.016l0.227,101.992C305.949,356.086,296.268,351.838,288.885,344.455z M336.307,352.409l-0.174-77.818l11.309,11.309
		c7.82,7.82,12.127,18.219,12.127,29.278s-4.307,21.457-12.129,29.277C344.141,347.755,340.379,350.42,336.307,352.409z
		 M442.34,381.518l-17.205,8.338c-2.311,1.12-4.102,3.086-5.002,5.491l-7.969,21.275l-20.811,1.207
		c-4.604,0.268-8.428,3.647-9.258,8.185l-2.979,16.285l-25.082-6.261l-10.059-65.119c6.461-2.997,12.418-7.134,17.605-12.321
		c5.652-5.652,10.057-12.217,13.098-19.355l67.813,16.236L442.34,381.518z"/>
</g>
</svg>
