<?xml version="1.0" encoding="iso-8859-1"?>
<!-- Generator: Adobe Illustrator 16.0.0, SVG Export Plug-In . SVG Version: 6.00 Build 0)  -->
<!DOCTYPE svg PUBLIC "-//W3C//DTD SVG 1.1//EN" "http://www.w3.org/Graphics/SVG/1.1/DTD/svg11.dtd">
<svg version="1.1" xmlns="http://www.w3.org/2000/svg" xmlns:xlink="http://www.w3.org/1999/xlink" x="0px" y="0px" width="512px"
	 height="512px" viewBox="0 0 512 512" style="enable-background:new 0 0 512 512;" xml:space="preserve">
<g id="Artwork">
</g>
<g id="Layer_3">
	<g>
		<path d="M247.236,270.835l44.901-74.151c1.972-3.256,1.924-7.349-0.123-10.558c-2.047-3.208-5.731-4.975-9.522-4.563
			l-86.168,9.462l-56.644-65.618c-2.486-2.881-6.396-4.101-10.079-3.146c-3.685,0.956-6.507,3.919-7.281,7.646l-17.63,84.874
			l-79.911,33.594c-3.51,1.476-5.877,4.815-6.106,8.614c-0.23,3.799,1.717,7.4,5.021,9.288l75.273,42.995l7.257,86.382
			c0.318,3.793,2.763,7.076,6.306,8.469c1.187,0.466,2.426,0.693,3.657,0.693c2.445,0,4.854-0.897,6.728-2.6l64.148-58.303
			l84.397,19.794c3.708,0.869,7.584-0.441,10.003-3.379c2.42-2.938,2.961-6.996,1.396-10.466L247.236,270.835z M186.512,323.245
			c-3.203-0.75-6.573,0.122-9.009,2.335l-53.045,48.211l-6.001-71.429c-0.275-3.279-2.147-6.213-5.005-7.846l-62.244-35.553
			l66.079-27.78c3.034-1.275,5.247-3.962,5.916-7.185l14.578-70.183l46.839,54.26c2.149,2.491,5.385,3.765,8.661,3.406l71.254-7.825
			l-37.13,61.316c-1.705,2.815-1.915,6.289-0.563,9.289l29.458,65.351L186.512,323.245z"/>
		<path d="M488.461,157.613c-39.44-23.48-94.15-50.433-167.742-50.433c-43.499,0-89.679,9.712-137.256,28.868
			c-5.124,2.063-7.604,7.888-5.542,13.011c2.063,5.124,7.889,7.604,13.011,5.542c45.192-18.195,88.859-27.421,129.787-27.421
			c55.235,0,99.382,16.442,133.919,34.408c-41.692,10.066-79.008,28.631-111.229,55.378c-33.198,27.559-54.116,58.281-65.817,79.2
			c-2.696,4.82-0.975,10.913,3.846,13.609c1.545,0.864,3.22,1.274,4.873,1.274c3.504,0,6.904-1.845,8.736-5.12
			c23.182-41.443,78.661-113.419,189.761-129.832c4.186-0.618,7.529-3.803,8.35-7.954
			C493.977,163.995,492.097,159.778,488.461,157.613z"/>
	</g>
</g>
</svg>
