<?xml version="1.0" encoding="utf-8"?>
<!-- Generator: Adobe Illustrator 15.0.0, SVG Export Plug-In . SVG Version: 6.00 Build 0)  -->
<!DOCTYPE svg PUBLIC "-//W3C//DTD SVG 1.1//EN" "http://www.w3.org/Graphics/SVG/1.1/DTD/svg11.dtd">
<svg version="1.1" id="Capa_1" xmlns="http://www.w3.org/2000/svg" xmlns:xlink="http://www.w3.org/1999/xlink" x="0px" y="0px"
	 width="600px" height="600px" viewBox="0 0 600 600" enable-background="new 0 0 600 600" xml:space="preserve">
<g>
	<path fill="#222221" d="M444.992,307.826c-13.912-23.443-33.248-47.698-57.471-72.09c-12.744-12.833-25.423-24.293-36.9-34.034
		c14.727-1.369,26.296-13.791,26.296-28.87c0-15.991-13.01-29-29-29c-4.841,0-11.946,2.41-19.378,5.69l24.994-31.738
		c1.896-2.408,2.25-5.686,0.912-8.443c-1.338-2.756-4.133-4.507-7.197-4.507h-94.496c-3.064,0-5.859,1.75-7.197,4.507
		c-1.338,2.757-0.983,6.035,0.912,8.443l24.994,31.738c-7.432-3.281-14.537-5.69-19.378-5.69c-15.991,0-29,13.009-29,29
		c0,14.311,10.422,26.226,24.074,28.573c-10.865,8.886-22.705,19.258-34.6,30.913c-24.269,23.778-43.641,47.934-57.578,71.798
		c-17.696,30.301-26.668,60.261-26.668,89.048c0,23.358,11.106,49.089,29.709,68.831c20.156,21.39,45.829,33.169,72.291,33.169
		h139.379c26.873,0,52.515-11.148,72.203-31.391c18.937-19.469,29.797-45.205,29.797-70.609
		C471.689,366.389,462.707,337.677,444.992,307.826z M360.917,172.833c0,7.168-5.831,13-13,13c-4.386,0-17.26-5.955-30.048-13.001
		c12.784-7.046,25.655-12.999,30.048-12.999C355.086,159.833,360.917,165.665,360.917,172.833z M330.766,120.836L300,159.902
		l-30.765-39.066H330.766z M239.083,172.833c0-7.168,5.832-13,13-13c4.386,0,17.26,5.955,30.048,13.001
		c-12.784,7.046-25.656,12.999-30.048,12.999C244.915,185.833,239.083,180.001,239.083,172.833z M369.689,479.164H230.311
		c-47.639,0-86-47.047-86-86c0-59.073,43.08-113.74,79.22-149.198c23.553-23.108,47.312-41.287,62.884-52.34l-19.199,68.375
		c-1.194,4.254,1.285,8.67,5.54,9.865c0.723,0.203,1.451,0.3,2.167,0.3c3.495,0,6.707-2.309,7.698-5.839l17.381-61.9l17.381,61.9
		c0.991,3.531,4.203,5.839,7.697,5.839c0.717,0,1.444-0.097,2.168-0.3c4.254-1.194,6.733-5.611,5.539-9.865l-18.859-67.167
		c42.071,32.022,141.764,116.733,141.764,200.329C455.689,438.978,415.502,479.164,369.689,479.164z"/>
</g>
</svg>
