<?xml version="1.0" encoding="utf-8"?>
<!-- Generator: Adobe Illustrator 15.0.0, SVG Export Plug-In . SVG Version: 6.00 Build 0)  -->
<!DOCTYPE svg PUBLIC "-//W3C//DTD SVG 1.1//EN" "http://www.w3.org/Graphics/SVG/1.1/DTD/svg11.dtd">
<svg version="1.1" id="Capa_1" xmlns="http://www.w3.org/2000/svg" xmlns:xlink="http://www.w3.org/1999/xlink" x="0px" y="0px"
	 width="600px" height="600px" viewBox="0 0 600 600" enable-background="new 0 0 600 600" xml:space="preserve">
<g>
	<path fill="#222221" d="M546.229,342.24c-0.53-23.465-4.552-48.249-8.134-58.653c-3.642-10.576-10.914-19.153-20.129-24.546
		c3.41-1.817,5.097-5.884,3.799-9.653l-11.361-32.994c-0.691-2.006-2.15-3.656-4.058-4.586c-1.906-0.931-4.106-1.064-6.112-0.374
		l-14.441,4.974l-2.337-6.785c-0.85-2.465-2.206-4.647-3.915-6.469c18.157-12.034,35.25-25.972,51.011-41.732
		c3.124-3.125,3.124-8.189,0-11.314c-3.126-3.124-8.19-3.122-11.314,0C460.628,208.716,382.769,240.994,300,240.994
		c-82.77,0-160.628-32.278-219.237-90.888c-3.124-3.121-8.188-3.123-11.315,0c-3.123,3.125-3.123,8.189,0,11.314
		c15.762,15.761,32.854,29.698,51.012,41.732c-1.71,1.821-3.066,4.005-3.916,6.47l-2.336,6.784l-14.442-4.974
		c-2.004-0.689-4.204-0.557-6.111,0.374c-1.907,0.93-3.366,2.58-4.058,4.586l-11.361,32.994c-1.298,3.77,0.389,7.836,3.799,9.653
		c-9.215,5.393-16.487,13.97-20.129,24.546c-3.582,10.404-7.604,35.188-8.134,58.653c-0.728,32.232,5.003,49.995,17.517,54.304
		c1.781,0.614,3.675,0.926,5.628,0.926c0.027,0,0.055,0,0.083,0c4.482,0,17.862-0.217,43.546-35.67
		c11.946-16.492,23.85-37.336,27.687-48.483c3.598-10.441,3.303-21.582-0.752-31.732c0.457,0.08,0.919,0.125,1.381,0.125
		c1.204,0,2.404-0.271,3.507-0.81c1.907-0.93,3.366-2.58,4.058-4.586l11.361-32.994c1.438-4.177-0.782-8.729-4.959-10.168
		l-14.442-4.975l2.337-6.784c0.047-0.136,0.074-0.273,0.118-0.409c40.513,20.908,85.163,33.084,131.612,35.536
		c-0.33,1.364-0.525,2.781-0.525,4.246v7.176H266.65c-2.122,0-4.156,0.843-5.657,2.344c-1.5,1.5-2.343,3.535-2.343,5.656
		l0.002,34.896c0,3.99,2.924,7.287,6.743,7.892c-7.142,8.278-11.048,18.717-11.047,29.761c0,11.002,4.267,35.744,11.407,58.104
		c9.807,30.712,21.009,45.641,34.243,45.642h0.002c13.235,0,24.438-14.93,34.244-45.642c7.14-22.362,11.405-47.104,11.405-58.104
		c0-11.045-3.906-21.483-11.046-29.762c3.819-0.604,6.743-3.902,6.743-7.892v-34.896c0-4.418-3.582-8-7.999-8l-15.276-0.001v-7.175
		c0-1.465-0.194-2.882-0.525-4.246c46.451-2.452,91.102-14.628,131.615-35.536c0.043,0.137,0.071,0.274,0.118,0.411l2.335,6.782
		l-14.441,4.975c-4.177,1.438-6.397,5.991-4.959,10.168l11.361,32.994c0.691,2.006,2.15,3.656,4.057,4.586
		c1.104,0.538,2.304,0.81,3.508,0.81c0.461,0,0.924-0.045,1.381-0.125c-4.055,10.15-4.35,21.291-0.754,31.731
		c3.839,11.147,15.742,31.99,27.688,48.481c25.843,35.673,39.229,35.673,43.627,35.673c1.952,0,3.847-0.312,5.629-0.925
		C541.227,392.235,546.957,374.473,546.229,342.24z M133.104,308.106c-2.929,8.507-13.274,27.405-25.518,44.307
		C90.97,375.352,80.492,381.47,76.921,381.47H76.92c-0.122,0-0.294-0.009-0.423-0.054c-1.595-0.549-7.409-8.745-6.731-38.814
		c0.489-21.616,4.152-44.76,7.268-53.806c4.12-11.967,15.385-20.007,28.033-20.007c3.274,0,6.523,0.548,9.656,1.627
		c7.489,2.579,13.525,7.92,16.997,15.039C135.191,292.573,135.684,300.617,133.104,308.106z M150.052,245.674L143.9,263.54
		l-47.933-16.507l6.151-17.866l14.442,4.974c4.173,1.437,8.729-0.782,10.169-4.959l4.94-14.347c0.334-0.969,1.226-1.402,1.96-1.402
		c0.226,0,0.452,0.039,0.678,0.116c1.08,0.372,1.655,1.555,1.284,2.635l-4.942,14.346c-1.438,4.178,0.781,8.73,4.959,10.169
		L150.052,245.674z M319.002,401.728c-9.148,28.652-17.315,34.509-19.001,34.509h-0.002c-1.686,0-9.853-5.856-19.002-34.509
		c-6.577-20.598-10.648-43.672-10.648-53.238c-0.001-7.92,3.083-15.366,8.683-20.967c5.602-5.601,13.049-8.685,20.969-8.685
		c7.921,0,15.367,3.084,20.967,8.685s8.684,13.047,8.684,20.969C329.65,358.056,325.581,381.129,319.002,401.728z M325.348,283.94
		v18.897h-50.695l-0.002-18.896h15.275c4.418,0,8-3.582,8-8v-15.175c0-1.143,0.931-2.073,2.074-2.073
		c1.143,0,2.072,0.93,2.072,2.072v15.174c0,4.418,3.581,8,7.999,8L325.348,283.94z M449.947,245.674l14.443-4.976
		c4.178-1.438,6.397-5.991,4.958-10.169l-4.94-14.344c-0.373-1.082,0.203-2.265,1.286-2.638c0.223-0.076,0.449-0.115,0.675-0.115
		c0.734,0,1.626,0.434,1.96,1.401l4.941,14.348c1.438,4.177,5.989,6.397,10.168,4.959l14.442-4.974l6.15,17.866L456.1,263.54
		L449.947,245.674z M523.502,381.417c-0.128,0.044-0.299,0.053-0.419,0.053c-3.572,0-14.052-6.12-30.669-29.06
		c-12.244-16.9-22.589-35.798-25.519-44.305c-2.579-7.488-2.087-15.532,1.385-22.65c3.472-7.119,9.508-12.46,16.997-15.04
		c3.133-1.078,6.382-1.626,9.656-1.626c12.647,0,23.913,8.04,28.033,20.007c3.114,9.046,6.778,32.189,7.267,53.806
		C530.912,372.671,525.098,380.867,523.502,381.417z"/>
</g>
</svg>
