<?xml version="1.0" encoding="iso-8859-1"?>
<!-- Generator: Adobe Illustrator 16.0.0, SVG Export Plug-In . SVG Version: 6.00 Build 0)  -->
<!DOCTYPE svg PUBLIC "-//W3C//DTD SVG 1.1//EN" "http://www.w3.org/Graphics/SVG/1.1/DTD/svg11.dtd">
<svg version="1.1" xmlns="http://www.w3.org/2000/svg" xmlns:xlink="http://www.w3.org/1999/xlink" x="0px" y="0px" width="512px"
	 height="512px" viewBox="0 0 512 512" style="enable-background:new 0 0 512 512;" xml:space="preserve">
<g id="Artwork">
</g>
<g id="Layer_2">
	<g>
		<path d="M373.632,379.625l-39.219,29.375l-39.212-29.374L255.987,409l-39.212-29.374L177.563,409l-39.206-29.373l-22.527,16.878
			c29.113,46.868,81.054,78.144,140.17,78.144c59.116,0,111.057-31.276,140.17-78.143L373.632,379.625z"/>
		<path d="M334.414,253.785l-39.213,29.375l-39.214-29.374l-39.212,29.374l-39.21-29.373l-39.208,29.375l-37.768-28.297
			c-6.162,17.36-9.486,35.876-9.486,54.888c0,19.03,3.251,37.313,9.209,54.335l38.045-28.505l39.208,29.375l39.21-29.373
			l39.212,29.374l39.214-29.374l39.213,29.375l39.218-29.373l38.056,28.503c5.958-17.022,9.21-35.306,9.21-54.337
			c0-19.013-3.324-37.529-9.487-54.891l-37.778,28.296L334.414,253.785z"/>
		<path d="M138.356,239.116l39.206-29.373l39.212,29.375l39.212-29.374l39.214,29.375l39.212-29.374l39.219,29.375l22.16-16.599
			c-16.958-27.142-41.741-49.391-72.054-63.104L322,158.63v-42.633c0,0-3.875-2.424-12.213-5.123
			c1.717-5.393,2.651-11.132,2.651-17.086c0-31.12-25.318-56.438-56.438-56.438s-56.438,25.318-56.438,56.438
			c0,5.934,0.926,11.654,2.632,17.031c-8.531,2.72-12.528,5.178-12.528,5.178v42.784l-1.406,0.636
			c-30.313,13.714-55.095,35.963-72.053,63.104L138.356,239.116z M256,62.559c17.22,0,31.229,14.009,31.229,31.229
			c0,4.131-0.813,8.073-2.277,11.686c-8.17-1.089-17.778-1.81-28.953-1.81c-11.153,0-20.765,0.719-28.955,1.804
			c-1.462-3.611-2.274-7.551-2.274-11.68C224.771,76.568,238.78,62.559,256,62.559z"/>
	</g>
</g>
</svg>
