<?xml version="1.0" encoding="iso-8859-1"?>
<!-- Generator: Adobe Illustrator 16.0.0, SVG Export Plug-In . SVG Version: 6.00 Build 0)  -->
<!DOCTYPE svg PUBLIC "-//W3C//DTD SVG 1.1//EN" "http://www.w3.org/Graphics/SVG/1.1/DTD/svg11.dtd">
<svg version="1.1" xmlns="http://www.w3.org/2000/svg" xmlns:xlink="http://www.w3.org/1999/xlink" x="0px" y="0px" width="512px"
	 height="512px" viewBox="0 0 512 512" style="enable-background:new 0 0 512 512;" xml:space="preserve">
<g id="Artwork">
</g>
<g id="Layer_3">
	<g>
		<path d="M258.404,59.518l14.252,7.492l-3.182-18.546l13.474-13.134l-18.621-2.706L256,15.75l-8.327,16.874l-18.621,2.706
			l13.474,13.134l-3.182,18.546l14.253-7.492c-4.165,7.3-13.413,23.129-25.116,40.804l-0.755,1.11
			c8.893,8.861,41.257,37.834,87.831,42.097C290.273,114.107,265.965,72.77,258.404,59.518z"/>
		<path d="M229.2,178.305c-13.081,20.282-29.551,43.855-46.14,62.426c55.876-2.537,96.064-32.58,110.928-45.564
			c-3.931-5.75-7.682-11.425-11.188-16.862c29.714,8.012,71.2,1.945,71.2,1.945c-9.346-2.459-20.021-10.913-30.809-22.254
			c-31.579-0.917-57.167-12.826-73.538-23.109c-12.724-7.992-21.746-16.042-26.514-20.709l-3.075,4.523
			C200.525,146.673,176.623,175.35,158,180.25C158,180.25,199.486,186.317,229.2,178.305z"/>
		<path d="M295.671,277.955c33.456,6.309,74.329,0.33,74.329,0.33c-21.149-5.565-48.152-37.49-70.569-69.278
			c-6.273,5.435-16.224,13.225-29.428,20.96c-20.807,12.19-53.806,26.398-94.53,26.398c-0.491,0-0.99-0.017-1.483-0.021
			c-11.226,11.189-22.23,19.373-31.989,21.94c0,0,40.873,5.979,74.329-0.33c-3.94,5.962-8.075,12.074-12.354,18.212
			c31.76,42.217,74.974,65.416,106.088,77.524C359.167,393,399,386.565,399,386.565C367.608,378.304,325.93,323.744,295.671,277.955
			z"/>
		<path d="M198.266,312.247c-27.448,38.313-59.754,75.605-85.266,82.319c0,0,75.198,10.999,117.997-7.708V496.25h50V386.855
			l25.637,3.646C274.956,378.174,231.166,354.708,198.266,312.247z"/>
	</g>
</g>
</svg>
