<?xml version="1.0" encoding="utf-8"?>
<!-- Generator: Adobe Illustrator 15.0.0, SVG Export Plug-In . SVG Version: 6.00 Build 0)  -->
<!DOCTYPE svg PUBLIC "-//W3C//DTD SVG 1.1//EN" "http://www.w3.org/Graphics/SVG/1.1/DTD/svg11.dtd">
<svg version="1.1" id="Capa_1" xmlns="http://www.w3.org/2000/svg" xmlns:xlink="http://www.w3.org/1999/xlink" x="0px" y="0px"
	 width="600px" height="600px" viewBox="0 0 600 600" enable-background="new 0 0 600 600" xml:space="preserve">
<g>
	<path fill="#222221" d="M300,95.043c-67.82,0-122.996,55.176-122.996,122.996c0,22.374,18.202,40.576,40.576,40.576
		c22.375,0,40.578-18.202,40.578-40.576c0-23.072,18.771-41.842,41.842-41.842s41.842,18.77,41.842,41.842v246.34
		c0,22.375,18.202,40.578,40.576,40.578c22.375,0,40.578-18.203,40.578-40.578v-246.34C422.996,150.219,367.82,95.043,300,95.043z
		 M357.842,456.379V419h49.154v37.379H357.842z M406.996,312.241v37.38h-49.154v-37.38H406.996z M357.842,296.241v-37.38h49.154
		v37.38H357.842z M406.996,365.621V403h-49.154v-37.379H406.996z M406.996,218.039v24.822h-49.154v-24.822
		c0-4.312-0.489-8.511-1.389-12.557h49.803C406.739,209.603,406.996,213.791,406.996,218.039z M368.726,136.103H231.274
		c18.604-15.63,42.583-25.06,68.726-25.06S350.121,120.473,368.726,136.103z M217.58,242.615c-13.552,0-24.576-11.024-24.576-24.576
		c0-4.248,0.257-8.437,0.74-12.557h49.803c-0.899,4.046-1.389,8.244-1.389,12.557C242.158,231.591,231.133,242.615,217.58,242.615z
		 M300,160.197c-21.513,0-40.306,11.813-50.27,29.285H196.88c3.817-13.768,10.318-26.43,18.911-37.38h168.418
		c8.593,10.95,15.094,23.612,18.911,37.38H350.27C340.306,172.011,321.513,160.197,300,160.197z M382.418,488.957
		c-10.751,0-19.905-6.943-23.232-16.578h46.467C402.324,482.014,393.17,488.957,382.418,488.957z"/>
</g>
</svg>
