<?xml version="1.0" encoding="iso-8859-1"?>
<!-- Generator: Adobe Illustrator 16.0.0, SVG Export Plug-In . SVG Version: 6.00 Build 0)  -->
<!DOCTYPE svg PUBLIC "-//W3C//DTD SVG 1.1//EN" "http://www.w3.org/Graphics/SVG/1.1/DTD/svg11.dtd">
<svg version="1.1" xmlns="http://www.w3.org/2000/svg" xmlns:xlink="http://www.w3.org/1999/xlink" x="0px" y="0px" width="512px"
	 height="512px" viewBox="0 0 512 512" style="enable-background:new 0 0 512 512;" xml:space="preserve">
<g id="Artwork">
</g>
<g id="Layer_2">
	<g>
		<path d="M325.023,147.441c0.127-0.636,0.197-1.293,0.197-1.967v-29.308c0-3.685-2.027-7.072-5.275-8.814
			c-9.508-5.099-19.047-9.054-28.602-11.881c1.988-4.713,3.043-9.811,3.043-15.041c0-21.367-17.383-38.75-38.75-38.75
			s-38.75,17.383-38.75,38.75c0,5.229,1.055,10.327,3.043,15.04c-9.555,2.827-19.094,6.782-28.602,11.882
			c-3.248,1.741-5.273,5.127-5.273,8.812v29.307c0,0.675,0.068,1.333,0.195,1.971c-58.623,26.521-99.51,85.565-99.51,153.98
			c0,93.13,75.766,168.897,168.896,168.897s168.898-75.767,168.898-168.897C424.535,233.007,383.646,173.963,325.023,147.441z
			 M255.637,61.681c10.34,0,18.75,8.411,18.75,18.75c0,3.407-0.918,6.703-2.633,9.578H239.52c-1.715-2.875-2.633-6.171-2.633-9.578
			C236.887,70.092,245.299,61.681,255.637,61.681z M206.055,122.28c33.305-16.201,65.852-16.202,99.166,0.001v17.673
			c-15.686-4.827-32.336-7.431-49.584-7.431s-33.896,2.604-49.582,7.431V122.28z M255.637,450.319
			c-82.102,0-148.896-66.795-148.896-148.897c0-82.103,66.795-148.898,148.896-148.898c82.104,0,148.898,66.795,148.898,148.898
			C404.535,383.524,337.74,450.319,255.637,450.319z"/>
		<path d="M147.945,298.632c0-23.364,8.967-45.464,25.244-62.229c3.848-3.962,3.756-10.293-0.207-14.141
			c-3.961-3.847-10.295-3.753-14.141,0.208c-19.924,20.519-30.896,47.566-30.896,76.162c0,28.595,10.973,55.643,30.896,76.162
			c1.961,2.02,4.566,3.034,7.176,3.034c2.51,0,5.021-0.939,6.965-2.826c3.963-3.847,4.055-10.178,0.209-14.141
			C156.912,344.096,147.945,321.996,147.945,298.632z"/>
	</g>
</g>
</svg>
