<?xml version="1.0" encoding="utf-8"?>
<!-- Generator: Adobe Illustrator 15.0.0, SVG Export Plug-In . SVG Version: 6.00 Build 0)  -->
<!DOCTYPE svg PUBLIC "-//W3C//DTD SVG 1.1//EN" "http://www.w3.org/Graphics/SVG/1.1/DTD/svg11.dtd">
<svg version="1.1" id="Capa_1" xmlns="http://www.w3.org/2000/svg" xmlns:xlink="http://www.w3.org/1999/xlink" x="0px" y="0px"
	 width="600px" height="600px" viewBox="0 0 600 600" enable-background="new 0 0 600 600" xml:space="preserve">
<g>
	<path fill="#222221" d="M452.497,226.783c2.233,0.548,4.471,0.81,6.673,0.81c12.601,0,24.082-8.577,27.216-21.352
		c1.783-7.269,0.627-14.797-3.252-21.197c-2.789-4.601-6.751-8.216-11.456-10.551c0.161-5.347-1.212-10.633-4.05-15.315
		c-3.879-6.401-10.02-10.908-17.288-12.69c-15.003-3.68-30.206,5.535-33.888,20.541c-0.907,3.698-1.027,7.407-0.475,10.953
		c-8.446,5.053-22.354,13.396-37.561,22.615c-11.286-3.729-23.338-5.759-35.858-5.759h-89.527
		c-63.2,0-114.617,51.417-114.617,114.618c0,41.907,22.611,78.626,56.27,98.616h-73.887c-2.504,0-4.864,1.173-6.376,3.169
		s-2.003,4.585-1.325,6.996l8.504,30.25c0.97,3.451,4.117,5.835,7.702,5.835H466.29c3.584,0,6.731-2.384,7.701-5.835l8.504-30.25
		c0.678-2.411,0.188-5-1.324-6.996c-1.513-1.996-3.873-3.169-6.377-3.169h-73.888c33.659-19.99,56.271-56.709,56.271-98.616
		c0-29.052-10.871-55.607-28.75-75.828l15.244-10.697C446.332,224.692,449.306,226.001,452.497,226.783z M431.991,170.84
		c1.58-6.438,8.106-10.392,14.538-8.812c3.118,0.764,5.751,2.697,7.416,5.443c1.664,2.746,2.159,5.976,1.396,9.094
		c-0.548,2.234,0.122,4.353,1.07,6.262c1.152,2.32,2.918,4.405,5.623,5.068c3.118,0.765,5.752,2.698,7.417,5.443
		c1.664,2.746,2.159,5.975,1.396,9.092c-1.579,6.438-8.1,10.393-14.539,8.813c-3.118-0.765-5.752-2.698-7.417-5.443
		c-1.664-2.746-2.159-5.975-1.396-9.094c0.548-2.234-0.121-4.353-1.07-6.262c-1.152-2.32-2.918-4.404-5.622-5.068
		C434.366,183.798,430.413,177.277,431.991,170.84z M431.158,198.771c-0.123,4.053,0.636,8.069,2.248,11.816l-13.278,9.316
		L407.8,201.545c5.861-3.525,11.013-6.614,15.092-9.055C425.194,195.045,427.985,197.188,431.158,198.771z M378.651,261.077
		c10.875,9.568,17.111,23.345,17.111,37.798c0,27.758-22.583,50.34-50.342,50.34c-27.758,0-50.34-22.582-50.34-50.34
		c0-21.948,15.811-36.976,29.075-45.718c15.957-10.517,45.643-28.663,69.926-43.341l12.947,19.278l-27.688,19.428
		c-2.008,1.409-3.258,3.661-3.393,6.11C375.813,257.082,376.811,259.457,378.651,261.077z M464.235,424.071l-4.006,14.25H135.362
		l-4.006-14.25h121.599c0.025,0,0.051,0.001,0.077,0.001h89.527c0.026,0,0.052-0.001,0.077-0.001H464.235z M441.177,309.455
		c0,54.353-44.198,98.574-98.541,98.616h-89.681c-54.342-0.042-98.541-44.264-98.541-98.616c0-54.378,44.24-98.618,98.617-98.618
		h89.527c5.69,0,11.265,0.499,16.694,1.431c-16.931,10.364-33.355,20.58-43.902,27.53c-16.546,10.906-36.27,30.007-36.27,59.077
		c0,36.58,29.76,66.34,66.34,66.34c36.581,0,66.342-29.76,66.342-66.34c0-15.69-5.573-30.773-15.544-42.649l19.019-13.344
		C431.333,260.438,441.177,283.815,441.177,309.455z"/>
</g>
</svg>
