<?xml version="1.0" encoding="utf-8"?>
<!-- Generator: Adobe Illustrator 15.0.0, SVG Export Plug-In . SVG Version: 6.00 Build 0)  -->
<!DOCTYPE svg PUBLIC "-//W3C//DTD SVG 1.1//EN" "http://www.w3.org/Graphics/SVG/1.1/DTD/svg11.dtd">
<svg version="1.1" id="Capa_1" xmlns="http://www.w3.org/2000/svg" xmlns:xlink="http://www.w3.org/1999/xlink" x="0px" y="0px"
	 width="600px" height="600px" viewBox="0 0 600 600" enable-background="new 0 0 600 600" xml:space="preserve">
<g>
	<path fill="#222221" d="M300,326c-15.991,0-29,13.01-29,29c0,15.991,13.009,29.001,29,29.001c15.99,0,29-13.01,29-29.001
		C329,339.01,315.99,326,300,326z M300,368.001c-7.168,0-13-5.832-13-13.001c0-7.168,5.832-13,13-13c7.168,0,13,5.832,13,13
		C313,362.169,307.168,368.001,300,368.001z"/>
	<path fill="#222221" d="M469.203,355c0-11.655-5.18-21.404-12.711-25.498v-81.113c7.674-7.163,12.001-17.057,12.001-27.72
		c0-20.953-17.047-38-38-38s-38,17.047-38,38c0,9.308,3.297,18.029,9.239,24.86l-35.833,46.493l-37.062-46.58
		c5.895-6.817,9.163-15.504,9.163-24.773c0-20.953-17.047-38-38-38s-38,17.047-38,38c0,9.356,3.332,18.121,9.332,24.967
		l-35.76,48.295l-37.304-48.402c5.941-6.831,9.238-15.552,9.238-24.86c0-20.953-17.047-38-38-38s-38,17.047-38,38
		c0,10.663,4.327,20.557,12.001,27.72v81.114c-7.531,4.094-12.709,13.842-12.709,25.497c0,11.656,5.179,21.404,12.709,25.498v28.833
		c0,4.418,3.582,8,8,8h296.985c4.418,0,8-3.582,8-8v-28.833C464.023,376.404,469.203,366.656,469.203,355z M448.465,369.431
		c-3.513,0-7.596-6.304-7.596-14.431c0-8.126,4.083-14.43,7.596-14.43s7.596,6.304,7.596,14.43
		C456.061,363.127,451.978,369.431,448.465,369.431z M151.535,340.57c3.513,0,7.596,6.304,7.596,14.43
		c0,8.127-4.083,14.431-7.596,14.431s-7.596-6.304-7.596-14.431C143.939,346.874,148.022,340.57,151.535,340.57z M159.507,401.331
		v-20.804c7.562-4.076,12.766-13.843,12.766-25.527c0-11.684-5.205-21.45-12.766-25.526V244.67c0-2.516-1.184-4.885-3.195-6.396
		c-5.596-4.204-8.806-10.62-8.806-17.604c0-12.131,9.869-22,22-22s22,9.869,22,22c0,6.985-3.209,13.401-8.805,17.604
		c-1.71,1.284-2.835,3.2-3.123,5.32c-0.288,2.12,0.285,4.266,1.591,5.96l46.495,60.326c1.515,1.965,3.855,3.116,6.336,3.116h3.333
		c2.535,0,4.92-1.202,6.429-3.239l44.668-60.326c2.617-3.533,1.891-8.517-1.625-11.157c-5.596-4.203-8.805-10.62-8.805-17.604
		c0-12.131,9.869-22,22-22s22,9.869,22,22c0,6.985-3.209,13.401-8.805,17.604c-1.729,1.297-2.857,3.238-3.131,5.381
		c-0.275,2.143,0.329,4.306,1.674,5.996l48.002,60.327c1.518,1.908,3.823,3.019,6.26,3.019c0.021,0,0.041,0,0.062,0
		c2.459-0.02,4.772-1.168,6.273-3.116l46.494-60.326c1.307-1.694,1.879-3.841,1.592-5.96c-0.288-2.12-1.412-4.036-3.123-5.32
		c-5.596-4.204-8.806-10.62-8.806-17.604c0-12.131,9.869-22,22-22s22,9.869,22,22c0,6.985-3.21,13.401-8.806,17.604
		c-2.012,1.511-3.195,3.88-3.195,6.396v84.805c-7.561,4.076-12.766,13.842-12.766,25.525c0,11.685,5.205,21.45,12.766,25.527v20.804
		H159.507z"/>
</g>
</svg>
