<?xml version="1.0" encoding="iso-8859-1"?>
<!-- Generator: Adobe Illustrator 17.1.0, SVG Export Plug-In . SVG Version: 6.00 Build 0)  -->
<!DOCTYPE svg PUBLIC "-//W3C//DTD SVG 1.1//EN" "http://www.w3.org/Graphics/SVG/1.1/DTD/svg11.dtd">
<svg version="1.1" id="Capa_1" xmlns="http://www.w3.org/2000/svg" xmlns:xlink="http://www.w3.org/1999/xlink" x="0px" y="0px"
	 viewBox="0 0 150 150" style="enable-background:new 0 0 150 150;" xml:space="preserve">
<g>
	<path d="M117.631,11.304c-0.275-0.877-0.757-1.585-1.779-1.846c0.966,1.769,0.489,3.452-0.312,4.996
		c-0.853,1.643-1.393,2.072-3.098,1.669c2.068-4.049,1.483-7.671-1.893-10.766c-0.101,0.387-0.102,0.765-0.011,1.119
		c0.174,0.676,0.41,1.336,0.602,2.008c0.394,1.377,0.292,2.708-0.415,3.97c-0.629,1.121-1.589,1.291-2.555,0.455
		c-0.481-0.416-0.912-0.906-1.438-1.251c-1.889-1.236-3.705-2.549-5.178-4.285c-0.177-0.209-0.419-0.364-0.631-0.543
		c-0.092,0.057-0.184,0.114-0.276,0.171c0.451,1.156,0.902,2.313,1.37,3.514c-0.376-0.086-0.7-0.16-1.023-0.233
		c0.053,0.407,0.2,0.661,0.402,0.857c0.588,0.572,1.177,1.146,1.803,1.676c2.24,1.899,3.774,4.212,4.11,7.179
		c0.133,1.169,0.153,2.363,0.097,3.539c-0.047,0.987-0.068,2.062-0.467,2.93c-1.293,2.81-2.751,5.544-4.158,8.301
		c-0.094,0.185-0.287,0.319-0.616,0.671c0-2.023,0.108-3.784-0.03-5.526c-0.137-1.73-0.38-3.48-1.338-5.01
		c-0.108,0.23-0.121,0.438-0.127,0.646c-0.072,2.489-0.034,4.987-0.242,7.465c-0.229,2.726-0.924,5.331-3.049,7.3
		c-1.377,1.275-2.743,2.562-4.143,3.81c-0.179,0.16-0.533,0.123-0.806,0.178c-0.023-0.254-0.099-0.517-0.06-0.762
		c0.18-1.138,0.467-2.263,0.576-3.407c0.219-2.296,0.349-4.601,0.506-6.902c0.01-0.15-0.06-0.305-0.145-0.7
		c-0.916,1.996-1.618,3.806-1.814,5.753c-0.257,2.544-0.761,4.975-2.295,7.11c-0.285,0.396-0.335,0.999-0.384,1.516
		c-0.074,0.777-0.409,1.283-1.135,1.599c-1.755,0.763-3.538,0.926-5.423,0.562c-0.874-0.169-1.513-0.476-1.976-1.252
		c-0.646-1.082-1.244-2.233-2.086-3.149c-1.138-1.239-2.09-2.509-2.377-4.201c-0.071-0.419-0.171-0.835-0.289-1.243
		c-0.535-1.844-1.081-3.685-1.624-5.526c-0.105,0.021-0.209,0.041-0.314,0.062c-0.023,3.242,0.37,6.453,1.019,9.823
		c-0.545-0.427-0.92-0.728-1.302-1.02c-1.944-1.488-3.582-3.202-4.214-5.666c-0.294-1.147-0.611-2.29-0.885-3.442
		c-0.318-1.336-0.601-2.681-0.9-4.021c-1.017,2.263-0.23,4.57-0.372,6.897c-1.309-2.248-2.712-4.463-3.683-6.853
		c-1.212-2.981-1.538-6.08-0.204-9.222c0.641-1.51,1.695-2.625,2.701-3.836c0.532-0.64,0.796-1.502,1.258-2.417
		c-0.568,0-0.826,0-1.137,0c0.37-1.96,0.935-3.84,0.857-5.831c-0.306,0.15-0.491,0.333-0.628,0.547
		c-1.063,1.665-2.11,3.34-3.177,5.002c-0.821,1.279-1.631,2.566-2.506,3.808c-0.617,0.875-1.297,1.062-2.149,0.676
		c0.264-0.5,0.525-0.994,0.785-1.488c-0.062-0.043-0.124-0.087-0.185-0.13c-0.475,0.345-0.95,0.691-1.475,1.073
		c-0.742-1.161-0.942-2.347-0.763-3.571c0.258-1.773,0.619-3.531,0.908-5.3c0.078-0.478,0.054-0.972,0.077-1.458
		c-0.097-0.024-0.194-0.048-0.291-0.072c-0.169,0.26-0.375,0.503-0.502,0.783c-0.667,1.466-1.276,2.96-1.975,4.41
		c-1.163,2.41-0.929,4.694,0.419,6.953c0.276,0.463,0.302,1.068,0.491,1.59c0.334,0.923,0.677,1.845,1.067,2.746
		c0.609,1.406,1.453,2.714,1.341,4.364c-0.206,3.025,0.594,5.751,2.789,7.916c1.984,1.957,4.012,3.875,6.114,5.703
		c2.337,2.033,4.788,3.936,7.17,5.918c0.573,0.477,1.072,1.043,1.604,1.568c-1.771-0.466-3.358-1.174-5.011-1.651
		c-1.743-0.502-3.156-1.353-4.157-2.875c-0.099-0.151-0.327-0.218-0.494-0.324c-0.106,0.198-0.335,0.425-0.297,0.589
		c0.136,0.581,0.255,1.211,0.574,1.695c1.386,2.1,2.791,4.193,4.293,6.21c0.656,0.881,1.447,1.806,2.393,2.282
		c0.751,0.378,1.574,0.567,2.07,1.305c0.341,0.507,0.608,1.064,0.911,1.596c0.738,1.293,0.849,2.575-0.041,3.852
		c-0.085,0.122-0.152,0.268-0.187,0.412c-0.72,3.006-1.425,6.015-2.16,9.017c-0.074,0.302-0.253,0.643-0.49,0.83
		c-1.212,0.96-2.575,1.589-4.146,1.675c-3.426,0.189-6.852,0.395-10.281,0.538c-0.711,0.03-1.432-0.181-2.148-0.288
		c-0.506-0.076-1.028-0.295-1.511-0.227c-1.972,0.277-3.932,0.641-5.897,0.969c-0.683,0.114-1.433,0.073-2.039,0.35
		c-1.507,0.689-3.046,1.382-4.391,2.33c-1.68,1.185-3.899,1.683-4.945,3.715c-0.05,0.098-0.185,0.154-0.282,0.227
		c-1.895,1.412-2.889,3.409-3.439,5.614c-0.609,2.442,0.27,4.866,0.305,7.307c0,0.029,0.017,0.058,0.024,0.088
		c0.724,3.311,1.621,6.596,2.119,9.94c0.443,2.974,0.481,6.013,0.628,9.026c0.127,2.602,0.16,5.209,0.225,7.815
		c0.009,0.362,0.035,0.751-0.075,1.086c-0.715,2.188-1.27,4.46-2.267,6.516c-0.762,1.573-1.111,3.008-0.974,4.759
		c0.151,1.944-0.191,3.923-0.268,5.889c-0.05,1.266-0.009,2.536-0.009,3.805c-0.368,2.272-0.179,3.385,3.106,2.838
		c3.285-0.548,4.563,1.643,4.106-0.913s-3.177-3.849-3.177-3.849c-0.161-0.224-0.483-0.473-0.454-0.668
		c0.103-0.683,0.303-1.356,0.512-2.018c0.646-2.05,1.297-4.099,1.979-6.136c0.451-1.348,0.9-2.702,1.456-4.008
		c1.531-3.599,3.114-7.176,4.685-10.759c0.85-1.94,1.512-3.98,3.022-5.738c0.9,1.302,1.401-0.316,2.064-0.165
		c1.476,1.005,0.828,2.56,0.994,3.858c0.177,1.391,0.153,2.842-0.581,4.174c-1.348,2.445-2.567,4.965-3.987,7.366
		c-0.776,1.313-0.77,2.433-0.109,3.759c1.252,2.514,2.57,5.022,3.49,7.661c0.486,1.395,1.506,2.4,1.976,3.756
		c0.262,0.621-0.829,3.035,0.813,2.676c1.643-0.359,5.479,0.633,5.57,0s-0.639-3.378-2.555-4.656
		c-1.916-1.278-1.88-5.435-1.88-5.435c-0.615-2.788,0.269-5.13,2.054-7.25c1.03-1.223,2.086-2.452,2.917-3.809
		c0.883-1.442,1.514-3.039,2.258-4.567c0.213-0.437,0.447-0.863,0.658-1.301c0.279-0.58,0.703-0.904,1.374-0.826
		c0.06,0.007,0.127,0.021,0.181,0.003c1.434-0.458,2.84-0.097,4.261,0.102c0.71,0.099,1.449-0.018,2.165,0.059
		c0.285,0.031,0.721,0.269,0.787,0.499c1.16,4.081,2.543,8.108,2.804,12.404c0.059,0.963,0.622,1.888,0.88,2.849
		c0.234,0.872-0.094,1.763-0.015,2.659l0.227,2.556c0,0-0.999,5.097-0.33,5.218c0.669,0.122,2.373-0.304,3.407,0.182
		c1.034,0.487,3.437-0.243,3.437-0.243c0.274-1.643-2.539-3.721-2.539-3.721c-0.027-2.056-0.143-4.118,0.015-6.169
		c0.068-0.888,0.585-1.745,0.638-2.632c0.058-0.972-0.117-1.975-0.307-2.941c-0.367-1.872-0.94-3.71-1.194-5.594
		c-0.232-1.724-0.138-3.491-0.224-5.237c-0.037-0.746,0.245-1.203,0.862-1.648c1.771-1.279,5.502-1.363,7.229,0.38
		c0.254,0.257,0.851,0.174,1.494,0.234c0.092,0.008,0.164,0.081,0.176,0.172c0.652,5.024,1.327,10.216,2.008,15.464
		c0.018,0.135,1.077,4.164,0.563,4.724c-0.28,0.305-0.119,1.014-0.072,1.735c0.01,0.151-1.167,2.495,0.293,4.229
		c1.46,1.734,6.388,1.551,6.388,1.551s-0.182-0.912-0.639-2.92c-0.456-2.008-1.171-2.09-1.171-2.09
		c-0.628-1.015-0.559-1.888,0.213-2.708c-0.019-0.15,0.02-0.368-0.062-0.435c-0.842-0.682-0.55-1.55-0.5-2.424
		c0.064-1.114,0-2.237-0.046-3.354c-0.129-3.12-0.497-6.25-0.351-9.357c0.121-2.567,0.895-5.097,1.274-7.66
		c0.256-1.736,0.369-3.498,0.47-5.252c0.071-1.249,0.379-2.336,1.25-3.296c0.588-0.648,1.04-1.441,1.451-2.223
		c0.348-0.662,0.489-1.432,0.827-2.101c1.063-2.105,2.095-4.199,1.204-6.652c-0.02-0.055-0.012-0.121-0.018-0.181
		c-0.23-2.327-0.459-4.654-0.689-6.981c-0.075-0.755-0.241-1.513-0.209-2.263c0.052-1.234,0.357-2.465,0.33-3.693
		c-0.047-2.119-0.025-4.286-0.476-6.335c-0.513-2.325-1.397-4.592-2.335-6.793c-0.95-2.23-2.06-4.409-3.296-6.495
		c-0.828-1.397-0.737-2.751-0.438-4.176c0.072-0.342,0.378-0.675,0.653-0.928c1.191-1.092,2.557-2.022,3.053-3.699
		c0.133-0.451,0.353-0.917,0.657-1.269c1.14-1.324,2.349-2.59,3.496-3.909c0.453-0.521,0.855-1.101,1.186-1.706
		c0.152-0.277,0.075-0.679,0.102-1.024c-0.355,0.045-0.502,0.114-0.571,0.23c-0.762,1.277-1.937,1.929-3.313,2.4
		c-1.716,0.587-3.379,1.326-5.07,1.99c-0.17,0.067-0.367,0.063-0.794,0.13c0.456-0.587,0.724-1.027,1.082-1.375
		c1.174-1.145,2.363-2.277,3.579-3.377c1.667-1.508,3.388-2.958,5.043-4.479c1.764-1.62,3.434-3.344,5.225-4.931
		c2.744-2.432,3.924-5.43,3.433-9.043c-0.294-2.165,0.727-3.788,1.964-5.349c0.488-0.615,1.025-1.205,1.613-1.723
		c0.326-0.287,0.791-0.525,1.215-0.566c0.848-0.081,0.976-0.29,0.63-1.088c-0.157-0.363-0.205-0.863-0.093-1.238
		C117.615,14.297,118.117,12.851,117.631,11.304z"/>
</g>
</svg>
