<?xml version="1.0" encoding="iso-8859-1"?>
<!-- Generator: Adobe Illustrator 17.1.0, SVG Export Plug-In . SVG Version: 6.00 Build 0)  -->
<!DOCTYPE svg PUBLIC "-//W3C//DTD SVG 1.1//EN" "http://www.w3.org/Graphics/SVG/1.1/DTD/svg11.dtd">
<svg version="1.1" id="Capa_1" xmlns="http://www.w3.org/2000/svg" xmlns:xlink="http://www.w3.org/1999/xlink" x="0px" y="0px"
	 viewBox="0 0 150 150" style="enable-background:new 0 0 150 150;" xml:space="preserve">
<g>
	<path d="M141.92,51.365c-2.62-1.108-5.068-2.514-7.292-4.289c-0.704-0.562-1.37-1.181-1.996-1.828
		c-1.154-1.193-2.482-2.157-3.982-2.817c-1.529-0.673-2.503-1.781-3.128-3.267c-0.546-1.298-0.821-2.671-1.077-4.046
		c-0.064-0.344-0.004-0.712,0.003-1.069c0.006-0.272,0.032-0.545,0.028-0.816c-0.009-0.522-0.174-0.93-0.676-1.219
		c-0.731-0.42-1.23-1.07-1.519-1.868c-0.208-0.575-0.264-1.162-0.089-1.758c0.236-0.802,0.49-1.599,0.71-2.405
		c0.107-0.392,0.18-0.798,0.222-1.203c0.048-0.468-0.06-0.917-0.306-1.324c-0.297-0.489-0.797-0.644-1.267-0.315
		c-0.326,0.228-0.625,0.536-0.845,0.869c-0.926,1.404-1.619,2.919-2.045,4.551c-0.155,0.596-0.492,1.085-0.925,1.506
		c-0.672,0.652-1.318,0.738-2.141,0.291c-1.332-0.724-2.656-1.464-3.992-2.182c-0.75-0.403-1.508-0.793-2.277-1.16
		c-2.388-1.142-3.417-4.171-2.274-6.594c0.407-0.864,0.615-1.806,0.682-2.766c0.016-0.234-0.009-0.479-0.06-0.709
		c-0.132-0.595-0.533-0.858-1.135-0.732c-0.691,0.144-1.257,0.516-1.709,1.055c-0.745,0.89-1.228,1.926-1.585,3.015
		c-0.318,0.972-0.588,1.961-0.844,2.951c-0.22,0.853-0.605,1.589-1.311,2.136c-0.417,0.323-0.89,0.507-1.418,0.516
		c-2.266,0.039-4.535,0.094-6.791-0.162c-1.15-0.131-2.29-0.354-3.434-0.537c-0.067-0.011-0.137-0.024-0.197-0.054
		c-1.46-0.727-2.838-1.569-3.862-2.878c-0.674-0.862-1.033-1.847-0.96-2.948c0.025-0.383,0.162-0.762,0.277-1.134
		c0.161-0.521,0.36-1.03,0.52-1.552c0.117-0.382,0.098-0.428-0.088-0.936c-0.449,0.08-0.882,0.147-1.311,0.237
		c-0.45,0.094-0.892,0.228-1.343,0.314c-0.6,0.114-1.159-0.015-1.637-0.4c-0.344-0.277-0.675-0.573-0.99-0.882
		c-0.292-0.286-0.541-0.616-0.835-0.9c-0.281-0.27-0.576-0.536-0.9-0.749c-0.46-0.302-0.883-0.071-0.914,0.481
		c-0.023,0.402,0.094,0.78,0.313,1.116c0.465,0.715,0.929,1.43,1.412,2.132c0.493,0.717,1.023,1.408,1.509,2.129
		c0.498,0.74,0.873,1.543,1.082,2.417c0.134,0.56,0.172,1.102-0.372,1.473c-0.563,0.384-1.16,0.362-1.735,0.017
		c-0.823-0.493-1.575-1.085-2.213-1.801c-0.68-0.764-1.322-1.561-1.985-2.341c-0.729-0.857-1.453-1.719-2.197-2.563
		c-0.487-0.552-1.033-1.041-1.738-1.313c-0.048-0.018-0.094-0.041-0.142-0.058c-0.825-0.287-1.124-0.054-1.068,0.836
		c0.035,0.563,0.267,1.057,0.567,1.518c0.335,0.514,0.667,1.035,1.05,1.514c1.118,1.398,2.232,2.802,3.401,4.157
		c1.501,1.739,3.368,3.024,5.396,4.071c1.437,0.743,2.999,1.116,4.579,1.418c0.584,0.112,1.179,0.16,1.73,0.43
		c1.326,0.648,2.175,2.231,1.919,3.64c-0.094,0.515-0.308,0.973-0.713,1.324c-0.239,0.207-0.403,0.458-0.481,0.767
		c-0.07,0.281-0.032,0.541,0.129,0.782c0.467,0.701,1.077,1.226,1.88,1.51c0.161,0.057,0.32,0.127,0.486,0.16
		c1.107,0.216,2.065,0.778,3.04,1.301c1.863,1,3.76,1.932,5.722,2.724c2.462,0.994,4.992,1.74,7.65,1.984
		c0.287,0.026,0.578,0.011,0.867,0.02c0.612,0.019,1.224,0.024,1.834,0.065c0.612,0.042,1.176,0.276,1.644,0.65
		c0.78,0.624,1.651,1.081,2.529,1.534c0.257,0.133,0.51,0.276,0.755,0.43c0.987,0.623,1.303,1.562,0.83,2.646
		c-0.237,0.542-0.523,1.081-0.884,1.547c-0.947,1.226-1.455,2.624-1.676,4.125c-0.208,1.415-0.316,2.845-0.479,4.267
		c-0.202,1.76-0.355,3.529-0.636,5.277c-0.39,2.429-1.037,4.802-1.812,7.137c-0.22,0.663-0.432,1.331-0.685,1.982
		c-0.754,1.932-2.058,3.437-3.704,4.663c-1.624,1.209-3.438,2.018-5.397,2.505c-3.652,0.908-7.363,1.159-11.112,0.96
		c-2.182-0.116-4.277-0.619-6.336-1.329c-2.327-0.802-4.543-1.857-6.781-2.864c-1.523-0.685-3.051-1.368-4.612-1.957
		c-0.87-0.328-1.805-0.508-2.725-0.675c-1.677-0.305-3.361-0.573-5.048-0.816c-1.148-0.165-2.307-0.226-3.467-0.139
		c-0.217,0.016-0.45,0.044-0.641,0.137c-1.173,0.57-2.407,0.97-3.666,1.279c-1.339,0.328-2.602,0.818-3.769,1.547
		c-1.697,1.06-3.596,1.536-5.525,1.922c-1.032,0.207-2.067,0.169-3.098-0.055c-0.226-0.049-0.478-0.061-0.703-0.015
		c-0.386,0.079-0.514,0.323-0.469,0.716c0.134,1.176,0.794,1.964,1.818,2.485c0.334,0.17,0.682,0.312,1.008,0.495
		c0.19,0.106,0.366,0.252,0.519,0.408c0.306,0.313,0.38,0.686,0.165,1.079c-0.269,0.493-0.504,1.017-0.85,1.452
		c-1.001,1.261-1.765,2.668-2.606,4.029c-0.215,0.347-0.44,0.689-0.685,1.016c-0.402,0.535-0.93,0.871-1.591,1.043
		c-0.813,0.211-1.621,0.396-2.468,0.357c-0.687-0.032-1.336-0.188-1.985-0.435c-1.051-0.4-2.125-0.738-3.27-0.779
		c-0.631-0.023-1.134,0.139-1.589,0.622c-0.904,0.96-1.674,2.018-2.442,3.082c-0.897,1.243-1.783,2.497-2.749,3.685
		c-0.565,0.695-1.254,1.297-1.931,1.891c-0.718,0.629-1.485,1.202-2.235,1.793c-0.678,0.534-1.452,0.889-2.251,1.197
		c-0.764,0.295-1.538,0.565-2.289,0.89c-0.483,0.209-0.969,0.446-1.388,0.759c-1.209,0.904-2.573,1.302-4.056,1.365
		c-0.323,0.014-0.651,0.047-0.97,0.011c-1.104-0.124-2.046,0.272-2.919,0.88c-0.781,0.543-1.402,1.241-1.877,2.065
		c-0.335,0.581-0.36,1.201-0.177,1.829c0.125,0.43,0.43,0.662,0.882,0.744c2.074,0.376,4.073,0.138,6.005-0.695
		c0.573-0.247,1.186-0.302,1.8-0.334c0.527-0.028,1.055-0.045,1.582-0.079c0.675-0.044,1.309-0.228,1.883-0.594
		c1.726-1.102,3.452-2.202,5.174-3.309c1.279-0.822,2.583-1.602,3.974-2.219c0.478-0.212,1-0.337,1.512-0.454
		c0.737-0.169,1.426-0.39,2.058-0.85c0.661-0.481,1.435-0.786,2.242-0.971c0.698-0.16,1.385-0.138,2.062,0.119
		c1.292,0.49,2.583,0.98,3.881,1.456c1.718,0.63,3.459,1.161,5.304,1.274c0.407,0.025,0.808,0.135,1.215,0.172
		c0.821,0.074,1.635-0.008,2.439-0.178c1.368-0.289,2.734-0.585,4.098-0.886c0.786-0.173,1.535-0.446,2.264-0.794
		c0.443-0.211,0.926-0.343,1.395-0.497c1.068-0.351,2.133-0.712,3.211-1.033c0.603-0.18,1.223-0.311,1.843-0.424
		c2.135-0.388,4.298-0.524,6.461-0.56c0.72-0.012,1.456,0.172,2.164,0.347c0.927,0.228,1.832,0.541,2.75,0.807
		c0.655,0.189,1.321,0.343,1.973,0.543c0.798,0.245,1.597,0.495,2.378,0.788c2.059,0.772,4.119,1.544,6.161,2.361
		c1.429,0.572,2.88,1.066,4.377,1.417c2.1,0.492,4.232,0.732,6.388,0.713c0.714-0.006,1.427-0.111,2.142-0.126
		c1.167-0.026,2.295,0.164,3.416,0.525c1.388,0.447,2.698,1.05,3.997,1.695c1.412,0.701,2.876,1.222,4.445,1.485
		c1.276,0.214,2.53,0.565,3.789,0.874c1.857,0.457,3.725,0.839,5.642,0.945c0.799,0.044,1.596,0.121,2.392,0.206
		c0.232,0.025,0.469,0.102,0.681,0.202c0.754,0.356,0.948,0.905,0.628,1.684c-0.248,0.605-0.675,1.059-1.2,1.43
		c-0.634,0.447-1.335,0.754-2.08,0.963c-2.242,0.628-4.54,0.925-6.851,1.134c-0.916,0.083-1.835,0.136-2.751,0.228
		c-0.282,0.028-0.569,0.106-0.83,0.216c-0.644,0.273-1.267,0.594-1.912,0.865c-0.777,0.326-1.585,0.536-2.44,0.438
		c-0.253-0.029-0.502-0.09-0.75-0.15c-0.829-0.199-1.655-0.41-2.485-0.602c-0.214-0.05-0.439-0.055-0.66-0.07
		c-2.072-0.141-3.007,1.627-3.096,2.976c-0.01,0.151,0.008,0.307,0.034,0.457c0.07,0.399,0.264,0.661,0.692,0.785
		c0.974,0.283,1.975,0.371,2.973,0.494c1.979,0.244,3.957,0.492,5.933,0.753c1.37,0.18,2.738,0.355,4.125,0.236
		c0.79-0.068,1.541-0.248,2.257-0.602c0.826-0.408,1.66-0.804,2.51-1.156c0.612-0.253,1.263-0.413,1.887-0.639
		c1.431-0.517,2.897-0.881,4.398-1.137c0.469-0.08,0.905-0.382,1.342-0.609c0.544-0.282,1.075-0.592,1.61-0.891
		c0.074-0.041,0.148-0.085,0.217-0.135c1.829-1.315,3.358-2.898,4.284-4.98c0.295-0.664,0.466-1.386,0.664-2.091
		c0.052-0.186,0.015-0.407-0.018-0.605c-0.175-1.032-0.717-1.864-1.435-2.6c-0.666-0.682-1.48-1.154-2.312-1.581
		c-1.576-0.808-3.179-1.566-4.77-2.345c-0.199-0.097-0.407-0.182-0.591-0.303c-1.424-0.934-2.836-1.888-4.27-2.808
		c-0.412-0.264-0.883-0.436-1.328-0.65c-0.199-0.096-0.406-0.18-0.598-0.288c-1.045-0.589-1.32-1.898-0.568-2.841
		c0.239-0.3,0.554-0.558,0.877-0.772c2.958-1.967,5.362-4.459,7.183-7.512c0.785-1.317,1.582-2.627,2.389-3.93
		c0.232-0.375,0.493-0.74,0.788-1.067c0.329-0.365,0.535-0.784,0.699-1.232c0.821-2.241,1.289-4.558,1.502-6.931
		c0.282-3.149,0.151-6.299,0.014-9.449c-0.051-1.174-0.123-2.349-0.126-3.524c-0.002-1.006,0.296-1.952,0.818-2.813
		c0.277-0.457,0.697-0.744,1.231-0.84c1.726-0.309,3.364-0.858,4.918-1.681c0.328-0.174,0.755-0.212,1.139-0.22
		c0.697-0.015,1.396,0.077,2.093,0.056c1.599-0.047,3.199-0.108,4.795-0.214c1.899-0.126,3.245-1.213,4.364-2.646
		c0.124-0.159,0.217-0.347,0.301-0.532c0.366-0.806,0.236-1.519-0.396-2.151C143.418,52.096,142.694,51.692,141.92,51.365z
		 M117.119,37.936c-0.431,0.429-0.914,0.778-1.491,0.961c-0.485,0.154-0.985,0.275-1.488,0.356
		c-0.689,0.112-1.387,0.167-2.079,0.255c-0.852,0.109-1.662,0.331-2.423,0.758c-0.823,0.463-1.712,0.76-2.666,0.825
		c-0.864,0.059-1.658-0.131-2.371-0.632c-0.594-0.418-0.862-1.001-0.838-1.713c0.023-0.692,0.285-1.295,0.768-1.791
		c0.261-0.269,0.547-0.512,0.815-0.774c0.071-0.069,0.115-0.166,0.225-0.328c-0.579,0.218-1.053,0.404-1.533,0.575
		c-1.313,0.47-2.513,0.247-3.608-0.603c-0.212-0.165-0.431-0.32-0.646-0.48c-0.104,0.55-0.151,1.045-0.297,1.509
		c-0.283,0.901-0.962,1.238-1.877,1.014c-1.194-0.292-2.194-0.929-3.079-1.748c-1.357-1.256-2.545-2.66-3.531-4.228
		c-0.189-0.301-0.346-0.628-0.479-0.958c-0.518-1.281,0.387-2.48,1.46-2.666c0.384-0.066,0.778-0.107,1.166-0.101
		c2.452,0.034,4.904,0.072,7.355,0.132c1.551,0.038,3.107,0.112,4.61,0.536c1.411,0.398,2.802,0.864,4.2,1.309
		c0.438,0.14,0.891,0.262,1.298,0.469c2.146,1.089,4.209,2.311,6.088,3.828c0.455,0.367,0.761,0.828,0.927,1.378
		C117.865,36.618,117.728,37.329,117.119,37.936z"/>
</g>
</svg>
