<?xml version="1.0" encoding="utf-8"?>
<!-- Generator: Adobe Illustrator 15.0.0, SVG Export Plug-In . SVG Version: 6.00 Build 0)  -->
<!DOCTYPE svg PUBLIC "-//W3C//DTD SVG 1.1//EN" "http://www.w3.org/Graphics/SVG/1.1/DTD/svg11.dtd">
<svg version="1.1" id="Layer_1" xmlns="http://www.w3.org/2000/svg" xmlns:xlink="http://www.w3.org/1999/xlink" x="0px" y="0px"
	 width="26px" height="26px" viewBox="0 0 26 26" enable-background="new 0 0 26 26" xml:space="preserve">
<g>
	<path d="M12.926,7.761c0.063-0.113,0.141-0.219,0.241-0.313c0.075-0.07,0.163-0.175,0.16-0.275
		c-0.003-0.107-0.106-0.219-0.142-0.25C13.026,6.795,13,6.556,13.131,6.394c0.063-0.078,0.152-0.127,0.254-0.138
		c0.1-0.014,0.199,0.017,0.277,0.081c0.043,0.034,0.404,0.339,0.422,0.808c0.007,0.198-0.052,0.386-0.162,0.564
		c0.107,0.025,0.262-0.063,0.546-0.443c0.799-1.85-1.262-3.196-1.262-3.196C11.189,6.417,12.546,7.518,12.926,7.761z"/>
	<path d="M18.95,14.075c-0.069,0.399-0.469,1.655-0.563,1.983c-0.05,0.166-0.282,0.374-0.457,0.243
		c-0.386-0.288-0.646-0.636-0.899-1.013c-0.246,0.692-0.698,0.949-1.521,0.268c-0.802-0.665-0.849,0.042-1.567,0.243
		c-0.275,0.078-1.269-0.381-1.492-0.605c-0.779-0.782-1.317,2.149-2.453,0.818c-0.367-0.43-0.65-0.916-0.998-1.358
		c-0.026-0.034-0.467-0.608-0.547-0.429c-0.082,0.181-0.132,0.372-0.173,0.566l1.126,6.012c0,0.622,0.504,1.126,1.126,1.126h6.105
		c0.622,0,1.084-0.283,1.278-1.075C17.914,20.854,19.549,14.464,18.95,14.075z"/>
	<path d="M8.894,13.414c0.392,0.174,0.68,0.696,0.911,1.031c0.36,0.522,0.842,1.562,1.3,0.628c0.284-0.577,0.532-0.873,1.172-0.958
		c0.529-0.071,1.425,1.24,1.938,0.667c0.352-0.393,0.663-0.589,1.173-0.357c0.723,0.327,1.088,1.366,1.29-0.023
		c0.029-0.194,0.34-0.524,0.51-0.27c0.267,0.398,0.503,0.796,0.828,1.132c0.144-0.673,0.239-1.337,0.593-1.946v-0.222
		c-1.247-0.917-2.527-1.405-3.746-1.616V8.107c0,0,0.408-0.451,0-0.422c-0.409,0.028-0.646,0.306-1.316,0.472
		c-0.068,0.017-0.133,0.027-0.199,0.041c0.027-0.142,0.094-0.282,0.227-0.406c0.223-0.206,0.33-0.429,0.32-0.663
		c-0.014-0.366-0.314-0.61-0.327-0.621c-0.054-0.044-0.134-0.035-0.177,0.019c-0.043,0.055-0.035,0.134,0.019,0.178
		c0.003,0.001,0.226,0.186,0.233,0.435c0.006,0.157-0.075,0.314-0.24,0.468c-0.201,0.188-0.289,0.409-0.311,0.631
		c-0.311,0.036-0.732,0.006-1.089-0.047c-0.356-0.053,0,0.484,0,0.484v2.771c-2.18,0.318-3.723,1.316-3.723,1.647v0.372
		C8.439,13.34,8.641,13.301,8.894,13.414z"/>
</g>
</svg>
