<?xml version="1.0" encoding="utf-8"?>
<!-- Generator: Adobe Illustrator 15.0.0, SVG Export Plug-In . SVG Version: 6.00 Build 0)  -->
<!DOCTYPE svg PUBLIC "-//W3C//DTD SVG 1.1//EN" "http://www.w3.org/Graphics/SVG/1.1/DTD/svg11.dtd">
<svg version="1.1" id="Capa_1" xmlns="http://www.w3.org/2000/svg" xmlns:xlink="http://www.w3.org/1999/xlink" x="0px" y="0px"
	 width="600px" height="600px" viewBox="0 0 600 600" enable-background="new 0 0 600 600" xml:space="preserve">
<g>
	<path fill="#222221" d="M468.022,278.376l8.251-124.217c0.153-2.302-0.694-4.556-2.325-6.188c-1.631-1.631-3.886-2.478-6.188-2.325
		l-124.216,8.251c-3.133,0.208-5.854,2.229-6.959,5.168c-1.104,2.939-0.389,6.251,1.832,8.472l14.143,14.142l-23.142,23.141
		l-69.724,69.724l-69.725,69.724l-20.078,20.079c-3.124,3.124-3.124,8.189,0,11.313l32.068,32.068
		c-19.53,14.099-47.025,12.372-64.596-5.198c-3.124-3.124-8.189-3.124-11.313,0s-3.124,8.19,0,11.313
		c23.817,23.818,61.45,25.574,87.326,5.303l6.159,6.159l26.723,26.722c3.124,3.125,8.189,3.125,11.313,0l26.723-26.722
		l69.724-69.724l69.725-69.724l16.497-16.498l14.142,14.142c2.221,2.22,5.533,2.936,8.472,1.832
		C465.793,284.229,467.814,281.508,468.022,278.376z M345.05,341.924H214.941l53.724-53.722l130.108,0L345.05,341.924z
		 M354.39,202.477l9.483-9.484l9.484,9.484L354.39,202.477z M198.941,357.926h130.107l-53.723,53.723h-46.818l-41.645-41.645
		L198.941,357.926z M244.509,427.649h14.815l-7.407,7.408L244.509,427.649z M414.773,272.201l-130.107,0l53.723-53.723h50.97
		l39.569,39.569L414.773,272.201z M445.898,252.39l-47.57-47.569l-28.798-28.798l-7.328-7.329l97.501-6.477l-6.477,97.501
		L445.898,252.39z"/>
</g>
</svg>
