<?xml version="1.0" encoding="iso-8859-1"?>
<!-- Generator: Adobe Illustrator 17.1.0, SVG Export Plug-In . SVG Version: 6.00 Build 0)  -->
<!DOCTYPE svg PUBLIC "-//W3C//DTD SVG 1.1//EN" "http://www.w3.org/Graphics/SVG/1.1/DTD/svg11.dtd">
<svg version="1.1" id="Layer_1" xmlns="http://www.w3.org/2000/svg" xmlns:xlink="http://www.w3.org/1999/xlink" x="0px" y="0px"
	 viewBox="0 0 64 64" style="enable-background:new 0 0 64 64;" xml:space="preserve">
<g>
	<path d="M14,23v15h17V24.372V21h0.453h2.236H35v3.014V38h17V23c0-1.105-0.895-2-2-2H39.996c0.743-0.609,1.459-1.254,2.111-1.889
		c1.732-1.687,7.187-7.39,4.664-9.98c-0.315-0.324-0.882-0.71-1.793-0.71c-2.258,0-5.772,2.639-8.308,5.108
		c-0.915,0.891-2.861,2.903-4.129,4.984c-1.268-2.017-3.131-3.939-4.02-4.805c-2.536-2.469-6.05-5.108-8.308-5.108
		c-0.911,0-1.478,0.386-1.793,0.71c-2.522,2.59,2.932,8.294,4.664,9.98c0.588,0.573,1.23,1.153,1.895,1.709H16
		C14.895,21,14,21.895,14,23z M38.959,15.879c1.831-1.783,3.437-2.939,4.551-3.574c-0.664,1.098-1.862,2.672-3.693,4.455
		c-1.83,1.782-3.436,2.938-4.551,3.573C35.931,19.236,37.129,17.662,38.959,15.879z M21.682,12.486
		c1.115,0.635,2.72,1.791,4.551,3.573c1.83,1.782,3.028,3.357,3.692,4.455c-1.115-0.635-2.721-1.791-4.551-3.573
		S22.346,13.583,21.682,12.486z"/>
	<path d="M52,56V42H35v16h15C51.105,58,52,57.105,52,56z"/>
	<path d="M31,58V42H14v14c0,1.105,0.895,2,2,2H31z"/>
</g>
</svg>
