<?xml version="1.0" encoding="utf-8"?>
<!-- Generator: Adobe Illustrator 17.0.0, SVG Export Plug-In . SVG Version: 6.00 Build 0)  -->
<!DOCTYPE svg PUBLIC "-//W3C//DTD SVG 1.1//EN" "http://www.w3.org/Graphics/SVG/1.1/DTD/svg11.dtd">
<svg version="1.1" id="Capa_1" xmlns="http://www.w3.org/2000/svg" xmlns:xlink="http://www.w3.org/1999/xlink" x="0px" y="0px"
	 width="64px" height="64px" viewBox="0 0 64 64" enable-background="new 0 0 64 64" xml:space="preserve">
<g>
	<path d="M7.835,26.55v9.25H25.01V24.55H9.835C8.731,24.55,7.835,25.445,7.835,26.55z"/>
	<path d="M50.835,24.55H35.662V35.8h17.174v-9.25C52.835,25.445,51.94,24.55,50.835,24.55z"/>
	<path d="M9.96,51.3c0,1.104,0.896,2,2,2h13.05V38.05H9.96V51.3z"/>
	<path d="M35.662,53.3H48.71c1.104,0,2-0.896,2-2V38.05H35.662V53.3z"/>
	<path d="M35.789,24.027l6.083-1.118c1.718-0.317,2.898-1.734,2.636-3.167c-0.264-1.431-1.871-2.336-3.59-2.02l-1.73,0.316
		c-1.718,0.317-2.412-0.658-1.55-2.179l0.462-0.814c0.862-1.519,0.536-3.335-0.731-4.053c-1.267-0.721-2.991-0.07-3.855,1.449
		l-1.659,2.927c-0.864,1.521-2.261,1.521-3.125,0l-1.659-2.927c-0.864-1.519-2.589-2.17-3.855-1.449
		c-1.268,0.718-1.594,2.534-0.732,4.053l0.462,0.814c0.862,1.52,0.169,2.496-1.55,2.179l-1.73-0.316
		c-1.719-0.316-3.325,0.589-3.59,2.02c-0.263,1.433,0.918,2.85,2.636,3.167l6.083,1.118c0.697,0.129,1.374,0.315,1.956,0.523h-0.086
		V53.3h7.256V24.55h-0.086C34.415,24.342,35.091,24.156,35.789,24.027z"/>
</g>
</svg>
