<?xml version="1.0" encoding="utf-8"?>
<!-- Generator: Adobe Illustrator 17.0.0, SVG Export Plug-In . SVG Version: 6.00 Build 0)  -->
<!DOCTYPE svg PUBLIC "-//W3C//DTD SVG 1.1//EN" "http://www.w3.org/Graphics/SVG/1.1/DTD/svg11.dtd">
<svg version="1.1" id="Capa_1" xmlns="http://www.w3.org/2000/svg" xmlns:xlink="http://www.w3.org/1999/xlink" x="0px" y="0px"
	 width="64px" height="64px" viewBox="0 0 64 64" enable-background="new 0 0 64 64" xml:space="preserve">
<g>
	<path d="M27.133,18.449c1.648,0.17,3.2-1.16,3.273-2.815c0.204-4.626-0.472-12.769-8.136-10.484
		C12.42,8.084,13.918,17.084,27.133,18.449z M24.085,14.926c-5.409-1.159-5.708-5.2-1.046-6.589c3.197-0.952,4.021,1.636,4.16,3.909
		C27.299,13.9,25.705,15.273,24.085,14.926z"/>
</g>
<g>
	<path d="M37.19,18.449c13.215-1.365,14.713-10.365,4.863-13.3c-7.664-2.284-8.34,5.858-8.136,10.484
		C33.99,17.289,35.542,18.619,37.19,18.449z M40.238,14.926c-1.62,0.348-3.214-1.025-3.113-2.68c0.139-2.273,0.963-4.861,4.16-3.909
		C45.946,9.726,45.647,13.767,40.238,14.926z"/>
</g>
<g>
	<rect x="30.625" y="36" width="3.25" height="22.087"/>
	<path d="M14.851,34h13.774V20.164h-15.42c-1.657,0-3,1.343-3,3v6.175c0,1.657,1.1,3,2.458,3C13.623,32.339,14.447,33.019,14.851,34
		z"/>
	<rect x="30.625" y="20.164" width="3.25" height="13.836"/>
	<path d="M51.209,20.164H35.875V34h13.689c0.404-0.981,1.227-1.661,2.188-1.661c1.357,0,2.457-1.343,2.457-3v-6.175
		C54.209,21.507,52.866,20.164,51.209,20.164z"/>
	<path d="M28.625,36H15.12v19.087c0,1.657,1.343,3,3,3h10.505V36z"/>
	<path d="M35.875,36v22.087h10.42c1.657,0,3-1.343,3-3V36H35.875z"/>
</g>
</svg>
