<?xml version="1.0" encoding="utf-8"?>
<!-- Generator: Adobe Illustrator 16.0.4, SVG Export Plug-In . SVG Version: 6.00 Build 0)  -->
<!DOCTYPE svg PUBLIC "-//W3C//DTD SVG 1.1//EN" "http://www.w3.org/Graphics/SVG/1.1/DTD/svg11.dtd">
<svg version="1.1" id="Layer_1" xmlns="http://www.w3.org/2000/svg" xmlns:xlink="http://www.w3.org/1999/xlink" x="0px" y="0px"
	 width="24.078px" height="23.953px" viewBox="0 0 24.078 23.953" enable-background="new 0 0 24.078 23.953" xml:space="preserve">
<path d="M22.078,21.107c0,0.467-0.381,0.846-0.848,0.846h-0.708c-1.319-0.268-2.135-1.241-2.58-2.005
	C22.32,19.896,23,18.107,23,18.107c0-3.16-1.688-5.154-5.02-5.154c-2.855,0-4.691-1.649-5.625-4C11.671,7.225,12,2.611,12,0
	C8.5,0,7,0.825,7,3.045c-2.741,0-4,0.956-4,3.48v3.497c0,2.99-1,3.533-1,7.162c0,0.963,0.215,1.562,0.215,1.562
	s0.58,0.196,2.338,0.207c-0.253,1.696-1.518,2.729-2.896,3.001H0v2h21.23c1.568,0,2.848-1.275,2.848-2.846H22.078z M16,13.953
	c0.553,0,1,0.448,1,1s-0.447,1-1,1c-0.551,0-1-0.448-1-1S15.449,13.953,16,13.953z M12,11.953c0.552,0,1,0.448,1,1s-0.447,1-1,1
	c-0.552,0-1-0.448-1-1S11.448,11.953,12,11.953z M11,9.953c0,0.552-0.448,1-1,1s-1-0.448-1-1s0.448-1,1-1S11,9.401,11,9.953z
	 M9,5.402c0.552,0,1,0.448,1,1c0,0.552-0.448,1-1,1s-1-0.448-1-1C8,5.85,8.448,5.402,9,5.402z M6.428,18.979
	c4.306,0.115,7.116,0.635,9.419,0.863c0.175,0.445,0.572,1.299,1.273,2.11H5.15C5.829,21.172,6.303,20.171,6.428,18.979z"/>
</svg>
