<?xml version="1.0" encoding="iso-8859-1"?>
<!-- Generator: Adobe Illustrator 16.0.0, SVG Export Plug-In . SVG Version: 6.00 Build 0)  -->
<!DOCTYPE svg PUBLIC "-//W3C//DTD SVG 1.1//EN" "http://www.w3.org/Graphics/SVG/1.1/DTD/svg11.dtd">
<svg version="1.1" xmlns="http://www.w3.org/2000/svg" xmlns:xlink="http://www.w3.org/1999/xlink" x="0px" y="0px" width="512px"
	 height="512px" viewBox="0 0 512 512" style="enable-background:new 0 0 512 512;" xml:space="preserve">
<g id="Artwork">
</g>
<g id="Layer_2">
	<path d="M473.09,449.5h-65.785v-42.311h34.514c4.916,0,9.104-3.573,9.877-8.428c15.01-94.298,4.018-131.001-4.008-157.801
		c-3.516-11.739-6.293-21.011-6.293-32.795V52.5c0-5.522-4.477-10-10-10H302.83c-2.705,0-5.295,1.097-7.18,3.039
		c-1.883,1.942-2.898,4.566-2.814,7.271c0.762,24.612,0.744,53.851-5.15,84.015c-11.496,56.432-25.955,86.314-51.568,106.581
		c-25.217,19.951-63.316,32.11-135.889,43.367c-25.178,3.906-44.092,14.795-53.311,30.677
		c-12.328,18.785-18.066,72.625-18.684,78.736c-0.238,2.354,0.367,4.716,1.707,6.666l42.799,62.311
		c1.865,2.715,4.947,4.338,8.242,4.338H473.09c5.523,0,10-4.478,10-10S478.613,449.5,473.09,449.5z M387.305,449.5H175.398v-45.901
		c32.48-2.635,80.848-11.187,117.814-17.724c23.049-4.076,42.957-7.597,49.01-7.885c1.963-0.083,2.73,0.499,3.297,1.062
		c3.289,3.264,4.514,12.495,4.307,17.677c-0.127,2.729,0.869,5.391,2.756,7.367c1.887,1.976,4.5,3.094,7.232,3.094h27.49V449.5z
		 M63.711,328.315c0.141-0.211,0.275-0.426,0.4-0.646c5.982-10.495,20.264-18.197,39.184-21.133
		c22.689-3.52,43.514-7.294,62.406-11.854l-0.631,0.298c0.361,0.768,9.139,18.885,32.369,25.188
		c0.877,0.237,1.758,0.352,2.625,0.352c4.402,0,8.436-2.931,9.645-7.384c1.447-5.33-1.701-10.823-7.031-12.271
		c-9.346-2.536-14.818-7.934-17.502-11.392c10.547-3.13,20.377-6.618,29.471-10.581c3.846,4.928,14.502,16.192,33.338,19.09
		c0.516,0.079,1.027,0.117,1.533,0.117c4.85,0,9.109-3.537,9.871-8.48c0.84-5.459-2.904-10.564-8.363-11.404
		c-8.863-1.363-14.697-5.537-17.938-8.637c5.498-3.224,10.652-6.702,15.438-10.489c2.328-1.843,4.572-3.764,6.748-5.753
		c5.811,5.04,15.404,11.087,29.072,12.6c0.375,0.041,0.744,0.062,1.113,0.062c5.029,0,9.359-3.786,9.926-8.901
		c0.607-5.489-3.35-10.432-8.84-11.039c-8.412-0.931-14.225-4.475-17.686-7.359c4.148-5.279,7.977-11.025,11.523-17.326
		c5.896,4.319,14.414,8.673,25.719,9.924c0.375,0.041,0.744,0.062,1.113,0.062c5.029,0,9.359-3.786,9.926-8.901
		c0.607-5.489-3.35-10.432-8.84-11.039c-9.566-1.059-15.773-5.494-18.975-8.496c3.031-7.26,5.824-15.146,8.428-23.712
		c5.578,2.543,12.982,4.742,21.93,4.742c1.748,0,3.561-0.084,5.424-0.267c5.498-0.536,9.518-5.428,8.98-10.924
		c-0.535-5.497-5.432-9.521-10.924-8.981c-9.363,0.921-16.248-1.983-20.059-4.244c1.457-5.974,2.854-12.221,4.193-18.796
		c5.469-27.989,6.209-54.805,5.785-78.238h108.311v145.666c0,14.715,3.465,26.284,7.133,38.532
		c7.639,25.503,17.084,57.041,4.713,140.491h-63.982c-0.959-7.059-3.424-16.115-9.596-22.279
		c-4.859-4.853-11.213-7.231-18.391-6.896c-6.988,0.332-23.305,3.174-51.543,8.167c-43.502,7.693-103.078,18.229-131.445,18.229
		H49.793C52.68,363.389,57.813,337.045,63.711,328.315z M55.275,404.41h100.123v45.09H86.246L55.275,404.41z"/>
</g>
</svg>
