<?xml version="1.0" encoding="iso-8859-1"?>
<!-- Generator: Adobe Illustrator 16.0.0, SVG Export Plug-In . SVG Version: 6.00 Build 0)  -->
<!DOCTYPE svg PUBLIC "-//W3C//DTD SVG 1.1//EN" "http://www.w3.org/Graphics/SVG/1.1/DTD/svg11.dtd">
<svg version="1.1" xmlns="http://www.w3.org/2000/svg" xmlns:xlink="http://www.w3.org/1999/xlink" x="0px" y="0px" width="512px"
	 height="512px" viewBox="0 0 512 512" style="enable-background:new 0 0 512 512;" xml:space="preserve">
<g id="Artwork">
</g>
<g id="Layer_3">
	<g>
		<path d="M317.138,276.596V100.284c0-33.712-27.426-61.14-61.138-61.14s-61.138,27.427-61.138,61.14v176.312
			c-29.228,20.14-46.509,52.857-46.509,88.611c0,59.357,48.291,107.648,107.647,107.648s107.647-48.291,107.647-107.648
			C363.647,329.453,346.366,296.736,317.138,276.596z M256,452.855c-48.329,0-87.647-39.319-87.647-87.648
			c0-30.658,15.609-58.576,41.754-74.682c2.955-1.82,4.755-5.043,4.755-8.514V100.284c0-22.685,18.455-41.14,41.138-41.14
			s41.138,18.455,41.138,41.14v55.314h-14.817c-5.523,0-10,4.477-10,10s4.477,10,10,10h14.817v32.643h-14.817
			c-5.523,0-10,4.477-10,10s4.477,10,10,10h14.817v53.77c0,3.471,1.8,6.694,4.755,8.514c26.146,16.106,41.754,44.024,41.754,74.682
			C343.647,413.537,304.329,452.855,256,452.855z"/>
		<path d="M266,316.143V111.729c0-5.523-4.477-10-10-10s-10,4.477-10,10v204.414c-23.181,4.657-40.698,25.17-40.698,49.702
			c0,27.955,22.743,50.698,50.698,50.698s50.698-22.743,50.698-50.698C306.698,341.313,289.181,320.799,266,316.143z M256,396.543
			c-16.927,0-30.698-13.771-30.698-30.698c0-16.927,13.771-30.697,30.698-30.697s30.698,13.771,30.698,30.697
			C286.698,382.772,272.927,396.543,256,396.543z"/>
	</g>
</g>
</svg>
