<?xml version="1.0" encoding="iso-8859-1"?>
<!-- Generator: Adobe Illustrator 16.0.0, SVG Export Plug-In . SVG Version: 6.00 Build 0)  -->
<!DOCTYPE svg PUBLIC "-//W3C//DTD SVG 1.1//EN" "http://www.w3.org/Graphics/SVG/1.1/DTD/svg11.dtd">
<svg version="1.1" xmlns="http://www.w3.org/2000/svg" xmlns:xlink="http://www.w3.org/1999/xlink" x="0px" y="0px" width="512px"
	 height="512px" viewBox="0 0 512 512" style="enable-background:new 0 0 512 512;" xml:space="preserve">
<g id="Artwork">
</g>
<g id="Layer_3">
	<g>
		<path d="M425.338,292.913c31.371-40.692,42.123-95.08,42.709-155.428c-43.557-0.889-149.99,12.735-177.463,59.879
			c-18.76-36.573-47.697-67.616-91.527-70.078c-57.898-3.253-76.82,52.927-119.814,76.686c9.898-16.534,12.969-35.021-0.838-51.064
			c-1.188-4.582-3.807-11.717-9.328-17.268c-8.85-8.896-21.807-10.356-21.807-10.356s1.393,12.964,10.242,21.859
			c5.039,5.066,11.408,7.719,15.959,9.065c5.154,5.763,8.537,12.539,8.771,20.611c0.244,8.479-3.316,16.65-7.557,23.79
			c-8.049,13.55-20.35,25.293-33.266,34.207c-3.1,2.139-0.162,7.237,2.969,5.077c9.936-6.857,20.824-16.563,29.203-27.599
			c36.869,29.402,38.092,83.028,69.377,121.503c63.631,78.258,184.152,63.63,248.293,26.1
			c63.996-37.446,86.535-67.793,86.535-67.793S436.303,299.147,425.338,292.913z M154.371,222.479
			c0.314,0.002,0.684,0.005,1.08,0.007C155.008,222.482,154.652,222.48,154.371,222.479z M155.963,222.488
			c0.037,0,0.076,0.001,0.115,0.001c-0.043,0-0.074-0.001-0.117-0.001h-0.002c-19.926-0.122-19.82-30.896,0.092-30.945
			C176.148,191.491,176.125,222.607,155.963,222.488z"/>
		<path d="M104.816,145.731c4.846-11.574,1.254-24.107,1.254-24.107s-11.453,6.232-16.301,17.808
			c-4.848,11.574-1.254,24.106-1.254,24.106S99.969,157.307,104.816,145.731z"/>
		<path d="M57.332,179.87c12.529-0.675,22.248-9.367,22.248-9.367s-10.596-7.596-23.125-6.923
			c-12.531,0.675-22.25,9.366-22.25,9.366S44.801,180.544,57.332,179.87z"/>
	</g>
</g>
</svg>
