<?xml version="1.0" encoding="iso-8859-1"?>
<!-- Generator: Adobe Illustrator 16.0.0, SVG Export Plug-In . SVG Version: 6.00 Build 0)  -->
<!DOCTYPE svg PUBLIC "-//W3C//DTD SVG 1.1//EN" "http://www.w3.org/Graphics/SVG/1.1/DTD/svg11.dtd">
<svg version="1.1" xmlns="http://www.w3.org/2000/svg" xmlns:xlink="http://www.w3.org/1999/xlink" x="0px" y="0px" width="512px"
	 height="512px" viewBox="0 0 512 512" style="enable-background:new 0 0 512 512;" xml:space="preserve">
<g id="Artwork">
</g>
<g id="Layer_3">
	<g>
		<path d="M483.141,318c-1.913-3.12-5.533-4.764-9.139-4.152c-0.169,0.028-16.773,2.815-29.969,2.904
			c20.757-33.023,31.146-76.582,31.69-132.554c0.048-4.912-3.868-8.947-8.779-9.047c-1.23-0.025-2.516-0.038-3.85-0.038
			c-20.697,0-54.279,3.098-86.46,11.792c-31.149,8.416-53.854,20.026-67.749,34.613c-8.283-13.577-17.666-24.802-27.996-33.474
			c-16.054-13.476-34.457-20.885-54.699-22.022c-1.096-0.062-2.215-0.093-3.327-0.093c-38.278,0-78.573,37.02-100.401,60.658
			c2.263-18.054,2.772-36.904,0.184-55.197c2.862-5.914,9.676-22.493,6.063-40.07c-4.415-21.486-22.566-35.466-23.337-36.051
			c-1.723-1.307-3.924-1.803-6.043-1.372c-2.117,0.436-3.944,1.763-5.012,3.644c-0.479,0.841-11.646,20.846-7.229,42.333
			c3.468,16.875,15.404,29.116,20.743,33.878c9.57,68.751-29.171,149.524-29.637,150.483c-1.814,3.724-0.267,8.213,3.457,10.027
			c1.058,0.516,2.177,0.759,3.279,0.759c2.778,0,5.449-1.55,6.748-4.216c0.979-2.009,14.047-29.191,23.365-65.693
			c11.711,12.773,18.454,29.682,25.504,47.432c7.186,18.092,14.616,36.8,27.919,53.16c15.129,18.606,34.392,32.68,57.254,41.832
			c20.196,8.084,42.747,12.183,67.026,12.183c38.163,0,79.182-10.67,109.726-28.542c58.264-34.092,79.354-61.979,80.224-63.149
			C484.877,325.089,485.053,321.12,483.141,318z M101.78,136.854c-1.692-8.23-0.148-16.47,1.74-22.514
			c4.127,4.823,8.81,11.799,10.494,20c1.692,8.229,0.149,16.467-1.74,22.513C108.147,152.03,103.465,145.054,101.78,136.854z
			 M393.419,375.706c-27.917,16.336-65.552,26.088-100.673,26.088c-32.771,0-78.52-8.223-110.372-47.398
			c-11.567-14.226-18.482-31.634-25.169-48.469c-7.859-19.789-15.957-40.172-31.656-55.788
			c19.316-23.146,62.509-66.286,97.314-66.286c0.778,0,1.56,0.021,2.321,0.064c30.631,1.72,55.716,21.217,74.558,57.948
			c1.495,2.914,4.46,4.78,7.734,4.868c3.304,0.081,6.334-1.617,7.983-4.447c20.718-35.552,101.181-48.126,142.158-49.178
			c-1.662,54.505-13.546,95.4-36.231,124.826c-1.584,2.055-2.2,4.696-1.688,7.24s2.101,4.741,4.356,6.023
			c4.176,2.374,10.32,3.479,19.338,3.479c2.644,0,5.389-0.096,8.119-0.255C439.655,345.004,420.92,359.614,393.419,375.706z"/>
		<path d="M184.756,233.564c-17.846,0.044-17.939,27.625-0.084,27.734h0.002c0.039,0,0.068,0.001,0.105,0.001
			c-0.035,0-0.068-0.001-0.104-0.001C202.746,261.405,202.768,233.518,184.756,233.564z"/>
		<path d="M133.161,186.039c1.329,1.04,2.959,1.592,4.62,1.592c0.467,0,0.936-0.043,1.401-0.132
			c0.95-0.181,23.427-4.625,36.939-21.903c13.516-17.279,12.414-40.163,12.36-41.129c-0.119-2.159-1.165-4.161-2.868-5.493
			c-1.703-1.333-3.897-1.866-6.021-1.46c-0.95,0.181-23.425,4.625-36.939,21.903c-13.516,17.279-12.414,40.163-12.36,41.129
			C130.412,182.705,131.458,184.707,133.161,186.039z M154.468,148.658c5.178-6.618,12.455-10.777,18.283-13.252
			c-1.002,6.269-3.285,14.354-8.444,20.948c-5.175,6.618-12.451,10.776-18.282,13.251
			C147.026,163.338,149.311,155.252,154.468,148.658z"/>
		<path d="M86.055,196.895c7.753,0,13.33-1.213,13.563-1.265c2.111-0.466,3.919-1.821,4.958-3.717
			c1.039-1.896,1.21-4.147,0.469-6.179c-0.332-0.908-8.346-22.372-27.579-32.92c-8.139-4.464-18.174-6.824-29.02-6.824
			c-7.753,0-13.33,1.212-13.564,1.264c-2.11,0.466-3.918,1.821-4.958,3.716c-1.039,1.896-1.211,4.148-0.469,6.179
			c0.331,0.909,8.344,22.373,27.579,32.921c8.139,4.464,18.174,6.824,29.019,6.824C86.053,196.895,86.054,196.895,86.055,196.895z
			 M48.202,160.99c5.805-0.049,14.446,0.805,22.051,4.975c7.379,4.047,12.662,10.571,16.045,15.929c-0.081,0-0.161,0-0.243,0h-0.001
			c-5.81,0-14.309-0.864-21.807-4.976C56.867,172.872,51.584,166.347,48.202,160.99z"/>
	</g>
</g>
</svg>
