<?xml version="1.0" encoding="iso-8859-1"?>
<!-- Generator: Adobe Illustrator 16.0.0, SVG Export Plug-In . SVG Version: 6.00 Build 0)  -->
<!DOCTYPE svg PUBLIC "-//W3C//DTD SVG 1.1//EN" "http://www.w3.org/Graphics/SVG/1.1/DTD/svg11.dtd">
<svg version="1.1" xmlns="http://www.w3.org/2000/svg" xmlns:xlink="http://www.w3.org/1999/xlink" x="0px" y="0px"
	 width="24.604px" height="28.092px" viewBox="0 0 24.604 28.092" style="enable-background:new 0 0 24.604 28.092;"
	 xml:space="preserve">
<g id="c34_present">
	<polygon style="fill:#000000;" points="7.973,20.67 6.879,18.895 4.569,19.31 7.607,13.922 1.683,13.922 1.683,28.092 
		11.777,28.092 11.777,13.922 	"/>
	<path style="fill:#000000;" d="M24.587,7.16h-6.703c0.392-0.202,0.742-0.413,1.052-0.637c1.192-0.854,1.825-1.936,1.823-3.01
		c0-0.881-0.417-2.143-1.023-2.669C19.129,0.312,18.324,0,17.465,0c-0.918,0-1.771,0.315-2.502,0.805
		c-1.099,0.736-1.959,2.33-2.572,3.546c-0.031,0.061-0.062,0.12-0.092,0.179c-0.224-0.469-0.486-1.408-0.783-1.836
		c-0.52-0.742-1.145-1.398-1.879-1.889C8.908,0.315,8.056,0,7.139,0C6.225,0.003,5.388,0.386,4.762,0.977
		C4.139,1.562,3.703,2.879,3.699,3.82C3.695,4.369,3.855,4.944,4.186,5.467C4.602,6.122,5.261,6.693,6.171,7.16H0l0.014,5.635
		h11.588V7.16h1.412v5.635h11.59L24.587,7.16z M6.571,5.398C6.106,5.104,5.82,4.809,5.652,4.544c-0.163-0.263-0.22-0.725-0.22-0.952
		C5.428,3.213,5.617,2.548,5.953,2.236C6.281,1.923,6.727,1.73,7.127,1.73h0.012c0.515,0.004,1.025,0.176,1.539,0.515
		c0.765,0.505,1.486,1.878,1.987,2.884c0.262,0.512,0.462,1.047,0.597,1.57C8.941,6.459,7.441,5.947,6.571,5.398z M14.504,4.173
		c0.418-0.599,0.911-1.587,1.422-1.928c0.508-0.339,1.024-0.511,1.539-0.515h0.005c0.429,0,0.842,0.168,1.123,0.417
		c0.282,0.253,0.433,0.716,0.433,1.042c-0.006,0.385-0.205,1.271-1.104,1.928c-0.853,0.622-2.334,1.259-4.611,1.705
		C13.526,5.919,13.947,4.963,14.504,4.173z"/>
	<polygon style="fill:#000000;" points="20.047,19.287 17.738,18.895 16.648,20.691 12.893,14.013 12.893,28.092 22.936,28.092 
		22.936,13.922 17.012,13.922 	"/>
	<path style="fill:#000000;" d="M12.893,13.922"/>
</g>
<g id="Capa_1">
</g>
</svg>
