<?xml version="1.0" encoding="iso-8859-1"?>
<!-- Generator: Adobe Illustrator 16.0.0, SVG Export Plug-In . SVG Version: 6.00 Build 0)  -->
<!DOCTYPE svg PUBLIC "-//W3C//DTD SVG 1.1//EN" "http://www.w3.org/Graphics/SVG/1.1/DTD/svg11.dtd">
<svg version="1.1" id="Capa_1" xmlns="http://www.w3.org/2000/svg" xmlns:xlink="http://www.w3.org/1999/xlink" x="0px" y="0px"
	 width="25.19px" height="28.761px" viewBox="0 0 25.19 28.761" style="enable-background:new 0 0 25.19 28.761;"
	 xml:space="preserve">
<polygon style="fill:#000000;" points="8.162,21.163 7.043,19.345 4.679,19.769 7.789,14.253 1.723,14.253 1.723,28.761 
	12.059,28.761 12.059,14.253 "/>
<path style="fill:#000000;" d="M25.174,7.33h-6.863c0.4-0.207,0.76-0.422,1.077-0.652c1.221-0.874,1.868-1.981,1.866-3.081
	c0-0.902-0.427-2.194-1.048-2.733C19.585,0.32,18.762,0,17.881,0c-0.939,0-1.813,0.322-2.561,0.824
	c-1.125,0.753-2.006,2.385-2.635,3.629c-0.031,0.062-0.063,0.123-0.093,0.184c-0.229-0.48-0.498-1.441-0.803-1.88
	c-0.532-0.76-1.172-1.433-1.923-1.933C9.12,0.322,8.248,0,7.309,0C6.373,0.002,5.517,0.394,4.876,0.999
	c-0.639,0.6-1.085,1.948-1.089,2.912c-0.003,0.562,0.161,1.15,0.499,1.686c0.426,0.67,1.101,1.255,2.032,1.733H0l0.015,5.77h11.863
	V7.33h1.446v5.77H25.19L25.174,7.33z M6.729,5.526C6.252,5.225,5.96,4.922,5.788,4.651C5.62,4.382,5.562,3.91,5.562,3.677
	C5.558,3.288,5.751,2.608,6.096,2.289c0.336-0.321,0.791-0.518,1.202-0.518h0.011c0.527,0.003,1.051,0.181,1.576,0.527
	C9.668,2.815,10.407,4.22,10.92,5.25c0.268,0.523,0.473,1.072,0.61,1.608C9.154,6.612,7.619,6.088,6.729,5.526z M14.85,4.271
	c0.428-0.613,0.934-1.625,1.456-1.974c0.521-0.346,1.049-0.523,1.575-0.527h0.006c0.439,0,0.861,0.172,1.149,0.427
	c0.29,0.259,0.442,0.733,0.442,1.066c-0.005,0.394-0.209,1.302-1.13,1.975c-0.874,0.636-2.39,1.288-4.722,1.745
	C13.85,6.059,14.28,5.081,14.85,4.271z"/>
<polygon style="fill:#000000;" points="20.525,19.746 18.162,19.345 17.046,21.185 13.199,14.346 13.199,28.761 23.482,28.761 
	23.482,14.253 17.418,14.253 "/>
<path style="fill:#000000;" d="M13.199,14.253"/>
<g>
</g>
<g>
</g>
<g>
</g>
<g>
</g>
<g>
</g>
<g>
</g>
<g>
</g>
<g>
</g>
<g>
</g>
<g>
</g>
<g>
</g>
<g>
</g>
<g>
</g>
<g>
</g>
<g>
</g>
</svg>
