<?xml version="1.0" encoding="iso-8859-1"?>
<!-- Generator: Adobe Illustrator 16.0.0, SVG Export Plug-In . SVG Version: 6.00 Build 0)  -->
<!DOCTYPE svg PUBLIC "-//W3C//DTD SVG 1.1//EN" "http://www.w3.org/Graphics/SVG/1.1/DTD/svg11.dtd">
<svg version="1.1" xmlns="http://www.w3.org/2000/svg" xmlns:xlink="http://www.w3.org/1999/xlink" x="0px" y="0px" width="512px"
	 height="512px" viewBox="0 0 512 512" style="enable-background:new 0 0 512 512;" xml:space="preserve">
<g id="Artwork">
</g>
<g id="Layer_2">
	<g>
		<path d="M203.398,195.758c-0.583,2.724-0.898,5.532-0.898,8.406c0,24.444,22.057,44.332,49.167,44.332
			s49.167-19.888,49.167-44.332c0-8.328-2.564-16.125-7.013-22.789c-16.712,8.631-36.982,10.463-55.35,10.611
			C226.203,192.085,214.774,192.559,203.398,195.758z"/>
		<path d="M457.439,355.57c-6.866,5.489-16.452,10.989-28.48,16.167c-15.318-23.039-28.617-47.657-38.512-73.522
			c-7.414-19.381-14.482-41.393-12.393-62.438c1.213-12.216,9.637-28.925,24.753-25.913c6.121,1.221,10.798,6.35,15.849,9.643
			c7.951,5.186,16.99,6.68,26.344,5.418c18.333-43.334,2-92-25.138-117.416L413,75.424c-21.503,0.441-45.491,3.805-61.826,19.161
			c-11.357,10.678-16.715,25.421-22,39.689c-5.278,14.246-11.283,28.506-22.944,38.714c6.081,9.066,9.604,19.746,9.604,31.176
			c0,32.716-28.785,59.332-64.167,59.332S187.5,236.88,187.5,204.164c0-2.448,0.18-4.856,0.493-7.228
			c-54.46-24.887-101.52,19.46-105.482,22.621l28.979,30.4c21.845-23.957,47.587-28.393,49.185-28.507
			c-45.479,42.145-72.532,117.771-82.055,148.318c-9.973-4.594-18.056-9.4-24.059-14.199l-22.479,28.119
			c22.991,18.38,52.256,28.642,80.374,36.065c38.226,10.091,77.861,14.797,117.311,16.3c42.131,1.604,84.585-0.415,126.229-7.159
			c33.313-5.394,67.048-13.603,97.413-28.693c9.327-4.636,18.362-9.999,26.51-16.513L457.439,355.57z M247.829,400.501
			c-44.562-0.551-89.708-5.214-132.664-17.502c30.525-46.772,80.773-81.464,138.411-77.983
			c53.059,3.204,99.79,37.223,129.785,79.596c0.392,0.554,0.78,1.109,1.166,1.668C339.985,397.331,293.626,401.065,247.829,400.501z
			"/>
	</g>
</g>
</svg>
