<?xml version="1.0" encoding="iso-8859-1"?>
<!-- Generator: Adobe Illustrator 16.0.0, SVG Export Plug-In . SVG Version: 6.00 Build 0)  -->
<!DOCTYPE svg PUBLIC "-//W3C//DTD SVG 1.1//EN" "http://www.w3.org/Graphics/SVG/1.1/DTD/svg11.dtd">
<svg version="1.1" xmlns="http://www.w3.org/2000/svg" xmlns:xlink="http://www.w3.org/1999/xlink" x="0px" y="0px" width="512px"
	 height="512px" viewBox="0 0 512 512" style="enable-background:new 0 0 512 512;" xml:space="preserve">
<g id="Artwork">
</g>
<g id="Layer_2">
	<path d="M476.667,337.684c-5.523,0-10,4.478-10,10c0,10.171-11.873,21.383-32.207,31.214
		c-14.502-22.39-26.158-44.991-34.674-67.252c-6.881-17.988-13.662-38.932-11.781-57.877c0.645-6.482,3.799-13.179,7.504-15.923
		c1.666-1.234,3.264-1.585,5.342-1.172c1.988,0.396,4.529,2.371,7.219,4.461c1.611,1.252,3.277,2.547,5.123,3.751
		c9.631,6.281,20.781,8.62,33.145,6.952c3.502-0.473,6.496-2.759,7.873-6.014c19.914-47.071,2.621-98.486-25.205-126.375
		l-6.227-29.113c-0.988-4.62-5.07-7.908-9.777-7.908c-0.068,0-0.137,0.001-0.207,0.002c-19.838,0.407-48.52,3.118-68.471,21.873
		c-12.684,11.926-18.691,27.943-23.992,42.075l-0.52,1.384c-11.979,31.891-39.148,66.554-143.799,51.446
		c-2.373-0.343-4.729-0.605-7.076-0.79c-0.104-0.01-0.205-0.018-0.309-0.023c-39.512-3.001-75.137,16.348-100.949,55.058
		c-3.063,4.595-1.822,10.804,2.773,13.868c4.594,3.062,10.803,1.822,13.867-2.772c12.002-18,30.795-37.827,57.658-44.301
		c-23.627,25.662-41.775,53.911-54.102,84.266c-11.082,27.288-15.717,51.899-18.02,70.381c-15.607-8.801-24.523-18.396-24.523-27.21
		c0-5.522-4.479-10-10-10c-5.523,0-10,4.478-10,10c0,24.229,24.736,45.096,71.533,60.341
		c42.652,13.896,99.168,21.548,159.133,21.548c59.967,0,116.48-7.652,159.133-21.548c46.799-15.245,71.535-36.111,71.535-60.341
		C486.667,342.161,482.188,337.684,476.667,337.684z M288.812,210.339c1.328,3.479,2.021,7.136,2.021,10.829
		c0,18.931-17.57,34.332-39.166,34.332c-21.018,0-38.215-14.587-39.123-32.816c3.273,0.115,6.498,0.186,9.646,0.186
		C248.804,222.868,270.897,218.727,288.812,210.339z M247.952,407.506L247.952,407.506c-43.547-0.538-81.777-4.958-116.355-13.479
		c31.723-41.767,76.238-64.733,121.377-62.026c41.414,2.501,83.381,26.533,114.35,64.968
		C331.138,404.593,291.917,408.038,247.952,407.506z M408.937,389.009c-5.881,1.916-12.055,3.703-18.475,5.366
		c-16.111-22.38-36.104-41.604-57.932-55.654c-24.975-16.074-51.334-25.052-78.352-26.683c-55.092-3.343-109,26.103-144.963,78.893
		c-2.08-0.628-4.139-1.266-6.154-1.922c-4.98-1.623-9.688-3.331-14.119-5.103c2.797-27.943,12.529-98.823,82.574-165.125
		c0.543,0.068,1.09,0.143,1.639,0.222c6.656,0.961,13.104,1.743,19.35,2.347c0.107,29.875,26.604,54.15,59.162,54.15
		c32.625,0,59.166-24.373,59.166-54.332c0-7.334-1.617-14.549-4.713-21.232c14.506-11.001,25.225-26,32.414-45.141l0.523-1.394
		c4.975-13.263,9.672-25.79,18.965-34.526c12.596-11.841,31.443-15.169,46.959-16.124l5.102,23.853
		c0.426,1.995,1.453,3.813,2.943,5.207c22.955,21.498,38.16,62.202,24.949,100.523c-5.158-0.15-9.803-1.556-13.857-4.201
		c-1.154-0.752-2.428-1.742-3.777-2.79c-3.992-3.103-8.959-6.963-15.58-8.283c-7.629-1.515-14.943,0.112-21.158,4.715
		c-9.963,7.382-14.539,20.346-15.5,30.018c-2.293,23.092,5.287,46.827,13.004,67c8.621,22.536,20.252,45.341,34.602,67.901
		C413.509,387.481,411.253,388.254,408.937,389.009z"/>
</g>
</svg>
