<?xml version="1.0" encoding="utf-8"?>
<!-- Generator: Adobe Illustrator 15.0.0, SVG Export Plug-In . SVG Version: 6.00 Build 0)  -->
<!DOCTYPE svg PUBLIC "-//W3C//DTD SVG 1.1//EN" "http://www.w3.org/Graphics/SVG/1.1/DTD/svg11.dtd">
<svg version="1.1" id="Capa_1" xmlns="http://www.w3.org/2000/svg" xmlns:xlink="http://www.w3.org/1999/xlink" x="0px" y="0px"
	 width="600px" height="600px" viewBox="0 0 600 600" enable-background="new 0 0 600 600" xml:space="preserve">
<g>
	<path fill="#222221" d="M422.344,441.341c-2.958-2.769-6.24-5.591-9.621-8.353V316.743h6.801c7.725,0,14.009-6.284,14.009-14.009
		v-62.24c0-7.725-6.284-14.009-14.009-14.009h-10.895l-95.034-121.892c8.436-4.764,14.147-13.81,14.147-24.169
		c0-15.298-12.445-27.743-27.742-27.743s-27.742,12.445-27.742,27.743c0,10.359,5.712,19.405,14.147,24.169l-95.034,121.892h-10.895
		c-7.725,0-14.009,6.284-14.009,14.009v62.24c0,7.725,6.284,14.009,14.009,14.009h6.801v116.245
		c-3.381,2.762-6.663,5.584-9.621,8.353c-11.247,10.529-15.338,17.876-13.679,24.565c1.106,4.462,5.04,9.781,17.499,9.781
		c3.721,0,8.175-0.438,13.116-1.199c16.146,42.521,57.294,72.83,105.407,72.83s89.262-30.31,105.407-72.83
		c4.941,0.76,9.396,1.198,13.116,1.199c0,0,0.001,0,0.002,0c12.455,0,16.391-5.32,17.497-9.781
		C437.683,459.217,433.591,451.87,422.344,441.341z M300,68.682c6.475,0,11.742,5.268,11.742,11.743
		c0,6.475-5.268,11.742-11.742,11.742s-11.742-5.268-11.742-11.742C288.258,73.949,293.525,68.682,300,68.682z M300,113.178
		l88.341,113.308H211.659L300,113.178z M182.468,242.485h12.81h209.445h12.81v58.258H182.468V242.485z M203.277,316.743h193.445
		v104.009c-1.682-1.218-3.297-2.369-4.801-3.428c-20.652-14.543-47.609-30.972-56.975-33.294c-0.873-0.217-1.755-0.387-2.64-0.534
		c1.739-4.153,2.704-8.708,2.704-13.484C335.012,350.706,319.306,335,300,335s-35.012,15.706-35.012,35.012
		c0,4.776,0.965,9.331,2.704,13.484c-0.885,0.147-1.767,0.317-2.64,0.534c-9.365,2.322-36.322,18.751-56.975,33.294
		c-1.504,1.059-3.119,2.21-4.801,3.428V316.743z M300,389.023c-10.483,0-19.012-8.528-19.012-19.012
		c0-10.482,8.528-19.012,19.012-19.012s19.012,8.529,19.012,19.012C319.012,380.495,310.483,389.023,300,389.023z M220.75,427.992
		c23.058-15.936,43.587-27.3,48.154-28.433c1.481-0.367,2.995-0.554,4.501-0.554c8.559,0,15.977,5.812,18.041,14.136
		c2.47,9.96-3.623,20.073-13.583,22.543c-2.911,0.722-8.225,2.352-15.58,4.606c-21.831,6.695-62.234,19.086-80.146,19.391
		C187.028,453.821,199.039,442.998,220.75,427.992z M300,531.318c-40.318,0-74.943-24.802-89.446-59.945
		c19.114-4.345,41.024-11.062,56.421-15.785c6.845-2.099,12.252-3.757,14.74-4.374c7.439-1.845,13.716-5.986,18.27-11.479
		c4.686,5.667,11.031,9.676,18.301,11.479c2.488,0.617,7.896,2.275,14.74,4.374c15.396,4.722,37.307,11.439,56.422,15.785
		C374.944,506.517,340.318,531.318,300,531.318z M337.717,440.291c-7.355-2.255-12.669-3.885-15.58-4.606
		c-4.825-1.196-8.896-4.2-11.461-8.458s-3.318-9.26-2.122-14.085c2.064-8.323,9.482-14.136,18.041-14.136
		c1.506,0,3.02,0.187,4.501,0.554c4.567,1.133,25.097,12.497,48.154,28.433c21.711,15.006,33.722,25.829,38.612,31.689
		C399.95,459.375,359.548,446.986,337.717,440.291z"/>
	<circle fill="#222221" cx="237" cy="349.647" r="12"/>
	<circle fill="#222221" cx="363" cy="349.647" r="12"/>
</g>
</svg>
