<?xml version="1.0" encoding="iso-8859-1"?>
<!-- Generator: Adobe Illustrator 16.0.0, SVG Export Plug-In . SVG Version: 6.00 Build 0)  -->
<!DOCTYPE svg PUBLIC "-//W3C//DTD SVG 1.1//EN" "http://www.w3.org/Graphics/SVG/1.1/DTD/svg11.dtd">
<svg version="1.1" xmlns="http://www.w3.org/2000/svg" xmlns:xlink="http://www.w3.org/1999/xlink" x="0px" y="0px" width="512px"
	 height="512px" viewBox="0 0 512 512" style="enable-background:new 0 0 512 512;" xml:space="preserve">
<g id="Artwork">
</g>
<g id="Layer_2">
	<path d="M451.084,154.501c-4.885,0-9.564,0.889-13.893,2.506C362.639,75.027,292.338,33.465,228.168,33.465
		c-52.83,0-90.273,28.434-112.385,52.286c-23.881,25.764-39.605,56.668-44.107,74.48c-11.998,47.458-1.084,75.49,0.201,78.536
		l0.055,0.127l-47.574,35.899c-3.023,2.283-4.5,6.079-3.809,9.805c0.689,3.726,3.428,6.741,7.068,7.789l25.918,7.451l-18.506,19.74
		c-2.027,2.162-2.992,5.112-2.631,8.054c0.359,2.941,2.006,5.572,4.494,7.182l36.791,23.801
		c9.082,34.865,32.865,66.257,69.01,91.006c26.76,18.323,54.324,28.705,59.691,28.908c0.127,0.005,0.254,0.007,0.379,0.007
		c0.127,0,0.252-0.002,0.379-0.007c5.367-0.203,32.934-10.585,59.693-28.908c36.145-24.749,59.928-56.141,69.01-91.006
		l36.791-23.801c2.488-1.61,4.135-4.24,4.494-7.182c0.359-2.942-0.604-5.892-2.631-8.054l-18.506-19.74l25.918-7.452
		c3.648-1.049,6.389-4.075,7.072-7.81s-0.807-7.535-3.846-9.809l-47.643-35.637c2.098-4.57,12.014-28.052,8.137-54.9
		c-0.037-0.598-0.125-1.181-0.262-1.746c-1.076-6.472-2.967-13.117-5.982-19.724c10.482-4.803,19.516-7.072,27.939-7.072
		c15.791,0,31.174,8.237,51.291,22.677c-2.145,4.886-3.344,10.276-3.344,15.944c0,21.951,17.859,39.809,39.809,39.809
		c21.951,0,39.809-17.858,39.809-39.809S473.035,154.501,451.084,154.501z M315.186,231.076l-0.541,1.104H90.807l-0.502-1.188
		c-0.072-0.174-5.225-13.046-3.92-36.144h236.23C323.236,214.28,315.65,230.125,315.186,231.076z M309.061,252.179
		c-4.184,19.736-12.621,37.784-24.291,51.687c-13.174,15.693-29.033,24.336-44.658,24.336c-5.133,0-10.27-0.94-15.266-2.794
		c-6.566-2.624-11.539-11.251-12.887-14.326c-1.547-3.613-5.064-5.986-8.994-6.064c-3.947-0.101-7.539,2.151-9.229,5.699
		c-1.35,2.834-6.656,11.531-13.346,14.797c-4.904,1.784-9.949,2.688-15,2.688c-30.619,0.002-60.16-33.191-69.375-76.023H309.061z
		 M353.041,278.726l-22.291,6.409c-3.346,0.962-5.951,3.597-6.877,6.955c-0.924,3.358-0.037,6.955,2.346,9.496l21.504,22.938
		l-30.082,19.461c-2.193,1.419-3.744,3.64-4.32,6.188c-7.051,31.147-27.072,58.522-59.508,81.366
		c-22.6,15.916-44.414,24.436-51.049,26.635c-6.635-2.199-28.447-10.719-51.047-26.635c-32.436-22.844-52.457-50.219-59.508-81.366
		c-0.576-2.548-2.127-4.769-4.32-6.188l-30.082-19.461l21.504-22.938c2.383-2.541,3.27-6.138,2.346-9.496
		c-0.926-3.357-3.531-5.992-6.877-6.955l-22.393-6.438l24.869-18.765c12.1,50.647,48.613,88.273,88.135,88.271
		c7.578,0,15.105-1.377,22.373-4.09c0.23-0.086,0.459-0.181,0.682-0.284c5.736-2.64,10.449-6.734,14.104-10.834
		c3.779,4.331,8.777,8.594,15.063,11.059c0.051,0.02,0.102,0.04,0.154,0.059c7.27,2.714,14.787,4.09,22.346,4.09
		c21.637,0,42.936-11.179,59.977-31.477c13.041-15.536,22.631-35.309,27.74-56.858L353.041,278.726z M363.328,135.688
		c-14.174,0-28.893,4.433-46.32,13.952c-2.342,1.278-4.074,3.439-4.814,6.002s-0.426,5.314,0.873,7.645l2.07,3.712
		c1.447,2.598,2.635,5.222,3.619,7.848H88.91c0.602-3.125,1.307-6.356,2.156-9.714c3.254-12.876,16.43-41.021,39.385-65.786
		c19.402-20.931,52.104-45.882,97.717-45.882c51.305,0,108.029,30.457,168.992,90.645
		C385.809,138.631,374.951,135.688,363.328,135.688z M451.084,214.118c-10.922,0-19.809-8.886-19.809-19.809
		s8.887-19.809,19.809-19.809c10.924,0,19.809,8.886,19.809,19.809S462.008,214.118,451.084,214.118z"/>
</g>
</svg>
