<?xml version="1.0" encoding="iso-8859-1"?>
<!-- Generator: Adobe Illustrator 16.0.0, SVG Export Plug-In . SVG Version: 6.00 Build 0)  -->
<!DOCTYPE svg PUBLIC "-//W3C//DTD SVG 1.1//EN" "http://www.w3.org/Graphics/SVG/1.1/DTD/svg11.dtd">
<svg version="1.1" xmlns="http://www.w3.org/2000/svg" xmlns:xlink="http://www.w3.org/1999/xlink" x="0px" y="0px" width="512px"
	 height="512px" viewBox="0 0 512 512" style="enable-background:new 0 0 512 512;" xml:space="preserve">
<g id="Artwork">
</g>
<g id="Layer_2">
	<path d="M451.45,161.139c-4.148,0-8.063,0.972-11.568,2.656C226.582-91.707,88.044,152.28,88.044,152.28l-3.287,6.693
		c-16.365,33.318-0.947,70.616-0.283,72.188l3.092,7.309l-53.798,40.596l41.634,11.971L45.71,322.708l40.133,25.963
		c18.689,82.56,116.905,116.026,120.308,116.155c3.403-0.129,101.619-33.596,120.309-116.155l40.132-25.963l-29.69-31.671
		l41.634-11.971l-54.271-40.596l3.286-6.7c0.774-1.582,18.781-39.14-0.293-73.35l-2.07-3.713
		c41.893-22.88,64.701-13.461,105.246,16.646c-3.601,4.561-5.766,10.306-5.766,16.567c0,14.791,11.991,26.782,26.783,26.782
		c14.791,0,26.782-11.991,26.782-26.782C478.232,173.13,466.241,161.139,451.45,161.139z M103.595,176.222h205.559
		c5.32,14.557,2.12,29.812-0.578,38.308H104.164C101.808,205.811,99.137,190.635,103.595,176.222z M305.533,286.392
		c-9.038,41.393-42.083,59.13-80.884,44.644c-12.087-4.742-18.499-19.729-18.499-19.729s-6.838,14.361-18.499,19.729
		c-38.801,14.486-71.846-3.251-80.883-44.644c-2.842-13.015-5.965-36.577-7.393-47.921h213.55
		C311.498,249.814,308.374,273.377,305.533,286.392z"/>
</g>
</svg>
