<?xml version="1.0" encoding="iso-8859-1"?>
<!-- Generator: Adobe Illustrator 16.0.0, SVG Export Plug-In . SVG Version: 6.00 Build 0)  -->
<!DOCTYPE svg PUBLIC "-//W3C//DTD SVG 1.1//EN" "http://www.w3.org/Graphics/SVG/1.1/DTD/svg11.dtd">
<svg version="1.1" xmlns="http://www.w3.org/2000/svg" xmlns:xlink="http://www.w3.org/1999/xlink" x="0px" y="0px" width="512px"
	 height="512px" viewBox="0 0 512 512" style="enable-background:new 0 0 512 512;" xml:space="preserve">
<g id="Artwork">
</g>
<g id="Layer_2">
	<path d="M398.166,322.958c3.551,0,6.835-1.883,8.629-4.947l55.333-94.5c2.198-3.753,1.715-8.496-1.19-11.732
		c-2.905-3.237-7.572-4.222-11.54-2.442c-0.542,0.244-54.77,24.317-107.367,24.317c-33.568,0-58.846-9.729-75.131-28.916
		l-5.121-6.041c-54.638-64.501-66.008-77.924-195.658-91.849c-4.579-0.492-8.921,2.22-10.48,6.566s0.06,9.194,3.917,11.731
		c39.063,25.699,82.571,146.385,96.039,190.719c1.28,4.213,5.165,7.094,9.568,7.094h54.555l-35.648,62.251H92.776
		c-13.785,0-25-11.215-25-25s11.215-25,25-25c5.523,0,10-4.477,10-10s-4.477-10-10-10c-24.813,0-45,20.187-45,45s20.187,45,45,45
		h351.528c5.523,0,10-4.477,10-10s-4.477-10-10-10h-69.902l-35.647-62.251H398.166z M143.341,223.529
		c-17.401-41.771-34.292-73.041-50.462-93.475c94.512,11.778,105.43,24.657,153.64,81.571l5.133,6.056
		c20.26,23.87,50.667,35.974,90.379,35.974c33.317,0,66.376-8.552,88.562-15.867l-38.16,65.171H172.497
		C168.083,289.228,157.444,257.383,143.341,223.529z M351.355,385.209H207.12l35.648-62.251h72.94L351.355,385.209z"/>
</g>
</svg>
