<?xml version="1.0" encoding="iso-8859-1"?>
<!-- Generator: Adobe Illustrator 16.0.0, SVG Export Plug-In . SVG Version: 6.00 Build 0)  -->
<!DOCTYPE svg PUBLIC "-//W3C//DTD SVG 1.1//EN" "http://www.w3.org/Graphics/SVG/1.1/DTD/svg11.dtd">
<svg version="1.1" xmlns="http://www.w3.org/2000/svg" xmlns:xlink="http://www.w3.org/1999/xlink" x="0px" y="0px" width="512px"
	 height="512px" viewBox="0 0 512 512" style="enable-background:new 0 0 512 512;" xml:space="preserve">
<g id="Artwork">
</g>
<g id="Layer_3">
	<path d="M400.705,330.538l-28.271-16.327l57.496-19.938l-5.113-14.747l-70.255,24.371L298.14,271.32l21.092-7.962l-0.005-14.761
		l-21.06-7.934l56.396-32.562l70.253,24.371l5.115-14.747l-57.496-19.938l28.271-16.327l49.346,17.115l5.113-14.744l-36.582-12.686
		l33.487-19.339l-7.803-13.513l-33.488,19.331l7.303-38.024l-15.325-2.942l-9.853,51.29l-28.271,16.321l11.476-59.766l-15.322-2.941
		l-14.025,73.026l-56.422,32.574l3.648-22.249l-12.786-7.374l-17.397,14.274v-65.119l56.229-48.66l-10.211-11.801l-46.019,39.823
		V93.412l39.493-34.176l-10.214-11.801l-29.279,25.339V34.101h-15.605v38.674l-29.279-25.339l-10.213,11.801l39.492,34.176v32.648
		l-46.019-39.824l-10.21,11.801l56.229,48.66v65.148l-17.441-14.283l-12.779,7.385l3.66,22.203l-56.396-32.56l-14.025-73.023
		l-15.323,2.942l11.477,59.762l-28.271-16.321l-9.852-51.29l-15.326,2.942l7.303,38.024l-33.489-19.331l-7.803,13.513l33.489,19.339
		l-36.582,12.686l5.111,14.744l49.347-17.115l28.27,16.327L82.07,217.727l5.114,14.747l70.254-24.371l56.421,32.576l-21.091,7.965
		l0.006,14.759l21.059,7.934l-56.395,32.562l-70.253-24.368l-5.115,14.744l57.494,19.938l-28.27,16.327l-49.347-17.114
		l-5.112,14.743l36.582,12.69L59.93,360.192l7.803,13.512l33.489-19.331l-7.303,38.024l15.326,2.942l9.852-51.289l28.271-16.322
		l-11.476,59.765l15.323,2.942l14.025-73.026l56.423-32.571l-3.648,22.246l12.784,7.374l17.398-14.274v65.12l-56.229,48.66
		l10.213,11.803l46.016-39.822v32.644l-39.492,34.177l10.213,11.803l29.279-25.342v38.674h15.605v-38.674l29.28,25.342
		l10.213-11.803l-39.493-34.177v-32.646l46.019,39.825l10.212-11.803l-56.23-48.66v-65.15l17.442,14.286l12.779-7.386l-3.66-22.203
		l56.396,32.559l14.026,73.026l15.324-2.946l-11.479-59.758l28.271,16.319l9.854,51.289l15.325-2.942l-7.303-38.024l33.488,19.331
		l7.804-13.512l-33.488-19.335l36.582-12.69l-5.113-14.743L400.705,330.538z M277.939,262.736l-5.125,8.885l3.106,18.852
		l-14.783-12.104l-10.257,0.003l-14.773,12.119l3.091-18.856l-5.133-8.885l-17.884-6.739l17.879-6.743l5.125-8.887l-3.105-18.853
		l14.783,12.104l10.259-0.003l14.772-12.122l-3.092,18.86l5.132,8.884l17.877,6.737L277.939,262.736z"/>
</g>
</svg>
