<?xml version="1.0" encoding="iso-8859-1"?>
<!-- Generator: Adobe Illustrator 16.0.0, SVG Export Plug-In . SVG Version: 6.00 Build 0)  -->
<!DOCTYPE svg PUBLIC "-//W3C//DTD SVG 1.1//EN" "http://www.w3.org/Graphics/SVG/1.1/DTD/svg11.dtd">
<svg version="1.1" xmlns="http://www.w3.org/2000/svg" xmlns:xlink="http://www.w3.org/1999/xlink" x="0px" y="0px" width="512px"
	 height="512px" viewBox="0 0 512 512" style="enable-background:new 0 0 512 512;" xml:space="preserve">
<g id="Artwork">
</g>
<g id="Layer_3">
	<g>
		<path d="M435.216,197.855l14.366-53.621l-53.61-14.36l-11.005,41.045l-36.573,21.118l8.703-45.321l-18.068-3.474l-11.71,60.962
			l-19.547,11.286l-13.334-23.094h-29.233V168.34l46.937-40.621l-12.046-13.908l-34.891,30.195V101.77l30.046-30.05L256,32.47
			l-39.25,39.25l30.051,30.055v42.231l-34.896-30.195l-12.036,13.908l46.932,40.621v24.057h-29.233l-13.334,23.094l-19.552-11.286
			l-11.705-60.957l-18.068,3.469l8.703,45.321l-36.579-21.118l-10.999-41.045L62.418,144.24l14.37,53.615l41.045-11.004
			l36.579,21.123l-43.599,15.119l6.027,17.383l58.646-20.34l19.547,11.286l-15.902,27.545l13.334,23.099l-16.979,9.797
			l-58.646-20.335l-6.027,17.388l43.599,15.119l-36.579,21.114l-41.045-10.995l-14.365,53.616l53.61,14.365l10.999-41.05
			l36.579-21.123l-8.703,45.326l18.068,3.469l11.705-60.957l16.978-9.803l15.908,27.545h29.233v18.127l-46.932,40.616l12.036,13.913
			l34.896-30.2v42.236l-30.046,30.045l39.25,39.25l39.245-39.25l-30.046-30.045v-42.236l34.896,30.2l12.041-13.913l-46.937-40.621
			v-18.122h29.233l15.903-27.545l16.978,9.803l11.71,60.957l18.073-3.474l-8.708-45.321l36.578,21.123l11,41.05l53.61-14.37
			l-14.366-53.611l-41.044,10.995l-36.579-21.114l43.604-15.119l-6.032-17.388l-58.641,20.335l-16.979-9.797l13.329-23.099
			l-15.903-27.545l19.553-11.286l58.641,20.34l6.032-17.383l-43.604-15.119l36.579-21.123L435.216,197.855z M408.98,152.408
			l18.067,4.84l-4.84,18.068l-18.073-4.841L408.98,152.408z M89.797,175.316l-4.845-18.068l18.072-4.84l4.841,18.067L89.797,175.316
			z M103.024,359.597l-18.067-4.84l4.84-18.068l18.068,4.841L103.024,359.597z M422.208,336.688l4.84,18.068l-18.067,4.84
			l-4.841-18.067L422.208,336.688z M242.777,71.72L256,58.497l13.232,13.223L256,84.952L242.777,71.72z M269.232,440.28L256,453.508
			l-13.223-13.228L256,427.058L269.232,440.28z M283.817,307.145h-55.63l-27.813-48.177l27.813-48.172h55.63l27.813,48.172
			L283.817,307.145z"/>
	</g>
</g>
</svg>
