<?xml version="1.0" encoding="utf-8"?>
<!-- Generator: Adobe Illustrator 16.0.0, SVG Export Plug-In . SVG Version: 6.00 Build 0)  -->
<!DOCTYPE svg PUBLIC "-//W3C//DTD SVG 1.1//EN" "http://www.w3.org/Graphics/SVG/1.1/DTD/svg11.dtd">
<svg version="1.1" id="Layer_1" xmlns="http://www.w3.org/2000/svg" xmlns:xlink="http://www.w3.org/1999/xlink" x="0px" y="0px"
	 width="50px" height="50px" viewBox="0 0 50 50" enable-background="new 0 0 50 50" xml:space="preserve">
<path d="M38.835,26.774c-0.106-0.398-0.509-0.637-0.919-0.53l-6.32,1.693l-2.189-1.264l2.677-2.609
	c0.204-0.199,0.278-0.498,0.189-0.769c-0.088-0.271-0.322-0.469-0.605-0.51L30.6,22.629l0.994-0.574l6.321,1.693
	c0.065,0.017,0.131,0.025,0.194,0.025c0.332,0,0.635-0.221,0.725-0.556c0.107-0.4-0.131-0.811-0.53-0.918l-4.873-1.305l2.631-1.519
	c0.358-0.207,0.481-0.666,0.274-1.024c-0.207-0.358-0.664-0.483-1.024-0.274l-2.627,1.517l1.305-4.87
	c0.107-0.4-0.131-0.812-0.53-0.919c-0.405-0.106-0.812,0.132-0.919,0.53l-1.693,6.32l-2.644,1.526l-0.679-0.099l-1.774-3.597v-0.774
	l4.626-4.625c0.293-0.293,0.293-0.768,0-1.061s-0.768-0.293-1.061,0L25.75,15.69v-3.035c0-0.414-0.336-0.75-0.75-0.75
	s-0.75,0.336-0.75,0.75v3.039l-3.566-3.568c-0.292-0.292-0.767-0.293-1.061,0c-0.293,0.292-0.293,0.768,0,1.061l4.627,4.628v0.767
	l-1.776,3.601l-0.675,0.098l-2.645-1.527l-1.692-6.319c-0.106-0.399-0.509-0.637-0.919-0.531c-0.399,0.107-0.638,0.519-0.53,0.918
	l1.304,4.871l-2.628-1.518c-0.359-0.208-0.818-0.084-1.024,0.274c-0.207,0.359-0.084,0.817,0.274,1.024l2.632,1.52l-4.873,1.305
	c-0.399,0.107-0.638,0.519-0.53,0.918c0.09,0.335,0.393,0.556,0.725,0.556c0.063,0,0.129-0.008,0.194-0.025l6.322-1.693l0.994,0.574
	l-1.071,0.156c-0.283,0.041-0.518,0.239-0.605,0.51c-0.089,0.271-0.015,0.57,0.189,0.769l2.678,2.611l-2.188,1.264l-6.318-1.694
	c-0.404-0.106-0.812,0.131-0.919,0.53c-0.107,0.4,0.13,0.812,0.53,0.919l4.869,1.306l-2.628,1.518
	c-0.358,0.207-0.481,0.666-0.274,1.024c0.139,0.241,0.391,0.375,0.65,0.375c0.127,0,0.256-0.032,0.374-0.101l2.632-1.519
	l-1.307,4.872c-0.107,0.4,0.13,0.812,0.53,0.919c0.065,0.017,0.131,0.025,0.194,0.025c0.332,0,0.635-0.221,0.725-0.556l1.695-6.322
	l1.519-0.877l-0.472,2.755c-0.048,0.281,0.067,0.565,0.299,0.733c0.229,0.167,0.537,0.189,0.789,0.057l2.957-1.555v1.826
	l-4.627,4.628c-0.293,0.293-0.293,0.768,0,1.061c0.293,0.293,0.768,0.293,1.061,0l3.566-3.567v3.038c0,0.414,0.336,0.75,0.75,0.75
	s0.75-0.336,0.75-0.75V34.3l3.565,3.565c0.146,0.146,0.338,0.22,0.53,0.22s0.384-0.073,0.53-0.22c0.293-0.293,0.293-0.768,0-1.061
	l-4.626-4.625V30.35l2.955,1.554c0.109,0.058,0.229,0.086,0.349,0.086c0.155,0,0.311-0.048,0.44-0.143
	c0.231-0.168,0.347-0.452,0.299-0.733l-0.473-2.758l1.523,0.879l1.694,6.321c0.09,0.335,0.393,0.556,0.725,0.556
	c0.063,0,0.129-0.008,0.194-0.025c0.4-0.107,0.638-0.519,0.53-0.919l-1.306-4.872l2.63,1.519c0.118,0.068,0.247,0.101,0.374,0.101
	c0.26,0,0.512-0.134,0.65-0.375c0.207-0.359,0.084-0.817-0.274-1.024l-2.628-1.517l4.871-1.305
	C38.704,27.586,38.942,27.175,38.835,26.774z M25.348,28.444c-0.108-0.057-0.229-0.086-0.349-0.086s-0.24,0.029-0.349,0.086
	l-2.71,1.425l0.517-3.018c0.042-0.243-0.039-0.491-0.216-0.664l-2.191-2.136l3.029-0.44c0.245-0.036,0.456-0.189,0.565-0.41
	l1.354-2.746l1.354,2.746c0.109,0.221,0.32,0.375,0.565,0.41l3.029,0.44l-2.191,2.136c-0.177,0.172-0.258,0.42-0.216,0.664
	l0.517,3.018L25.348,28.444z"/>
</svg>
