<?xml version="1.0" encoding="iso-8859-1"?>
<!-- Generator: Adobe Illustrator 16.0.0, SVG Export Plug-In . SVG Version: 6.00 Build 0)  -->
<!DOCTYPE svg PUBLIC "-//W3C//DTD SVG 1.1//EN" "http://www.w3.org/Graphics/SVG/1.1/DTD/svg11.dtd">
<svg version="1.1" xmlns="http://www.w3.org/2000/svg" xmlns:xlink="http://www.w3.org/1999/xlink" x="0px" y="0px" width="512px"
	 height="512px" viewBox="0 0 512 512" style="enable-background:new 0 0 512 512;" xml:space="preserve">
<g id="Artwork">
</g>
<g id="Layer_2">
	<g>
		<circle cx="255.637" cy="281.312" r="18.537"/>
		<circle cx="255.637" cy="359.636" r="18.537"/>
		<path d="M469.898,219.618l-11.277-2.246l9.084-6.233c4.555-3.125,5.713-9.35,2.588-13.903c-3.125-4.555-9.352-5.712-13.904-2.588
			l-8.398,5.764l2.086-10.475c1.078-5.417-2.438-10.682-7.855-11.761s-10.682,2.438-11.76,7.854l-6.094,30.589l-46.072,31.614
			c-12.641-21.794-30.922-39.926-52.832-52.387c6.439-12.618,9.404-27.058,8.383-41.454c-0.85-11.976-4.43-23.599-10.301-33.844
			h22.391c5.676,0,10.277-4.601,10.277-10.276s-4.602-10.276-10.277-10.276h-29.158V71.485c0-11.332-9.221-20.551-20.553-20.551
			h-81.176c-11.332,0-20.551,9.219-20.551,20.551v28.511h-29.16c-5.674,0-10.275,4.601-10.275,10.276s4.602,10.276,10.275,10.276
			h22.381c-13.176,22.947-13.986,51.636-1.902,75.295c-21.912,12.461-40.195,30.593-52.838,52.39l-46.072-31.614l-6.092-30.589
			c-1.078-5.417-6.344-8.93-11.762-7.854c-5.416,1.079-8.932,6.344-7.854,11.761l2.086,10.475l-8.4-5.764
			c-4.553-3.124-10.779-1.966-13.902,2.588c-3.125,4.554-1.967,10.778,2.586,13.903l9.084,6.233l-11.277,2.246
			c-5.416,1.079-8.932,6.344-7.854,11.761c0.947,4.757,5.123,8.049,9.797,8.049c0.646,0,1.305-0.063,1.963-0.194l30.406-6.055
			l48.426,33.228c-6.553,16.297-10.168,34.08-10.168,52.693c0,78.129,63.563,141.691,141.691,141.691
			s141.691-63.563,141.691-141.691c0-18.613-3.615-36.396-10.168-52.693l48.426-33.228l30.406,6.055
			c0.66,0.131,1.316,0.194,1.965,0.194c4.672,0,8.85-3.292,9.797-8.049C478.832,225.962,475.316,220.697,469.898,219.618z
			 M215.049,71.485l81.176,0v28.511h-81.174L215.049,71.485z M211.563,121.369c0.232-0.265,0.447-0.54,0.646-0.821h86.855
			c0.199,0.282,0.414,0.556,0.646,0.821c15.744,17.986,18.656,44.863,7.713,65.838c-16.049-6.323-33.52-9.799-51.787-9.799
			s-35.738,3.476-51.787,9.8C192.824,166.154,195.619,139.584,211.563,121.369z M255.637,440.791
			c-67.1,0-121.691-54.59-121.691-121.691s54.592-121.691,121.691-121.691c67.102,0,121.691,54.59,121.691,121.691
			S322.738,440.791,255.637,440.791z"/>
	</g>
</g>
</svg>
