<?xml version="1.0" encoding="iso-8859-1"?>
<!-- Generator: Adobe Illustrator 16.0.0, SVG Export Plug-In . SVG Version: 6.00 Build 0)  -->
<!DOCTYPE svg PUBLIC "-//W3C//DTD SVG 1.1//EN" "http://www.w3.org/Graphics/SVG/1.1/DTD/svg11.dtd">
<svg version="1.1" xmlns="http://www.w3.org/2000/svg" xmlns:xlink="http://www.w3.org/1999/xlink" x="0px" y="0px" width="512px"
	 height="512px" viewBox="0 0 512 512" style="enable-background:new 0 0 512 512;" xml:space="preserve">
<g id="Artwork">
</g>
<g id="Layer_3">
	<path d="M442.524,313.562l-45.643,12.23l-30.762-17.761l50.451-13.519c5.334-1.43,8.5-6.913,7.071-12.247
		s-6.914-8.504-12.248-7.071l-69.769,18.694L315.2,278.633c-0.891-0.514-1.828-0.875-2.781-1.092l28.071-12.354
		c3.626-1.597,5.969-5.184,5.972-9.146s-2.334-7.553-5.959-9.154l-28.14-12.431c0.972-0.216,1.93-0.563,2.837-1.088l26.426-15.257
		l69.771,18.693c0.867,0.232,1.737,0.344,2.594,0.344c4.415-0.001,8.456-2.947,9.653-7.415c1.429-5.335-1.736-10.818-7.071-12.247
		l-50.452-13.518l30.761-17.76l45.644,12.229c0.867,0.232,1.737,0.344,2.594,0.344c4.415-0.001,8.456-2.947,9.653-7.415
		c1.429-5.335-1.736-10.818-7.071-12.247l-26.324-7.053l25.258-14.583c4.783-2.762,6.422-8.877,3.66-13.66s-8.877-6.423-13.66-3.66
		l-25.26,14.584l7.053-26.325c1.429-5.335-1.736-10.818-7.071-12.247c-5.335-1.43-10.818,1.736-12.247,7.071l-12.229,45.643
		l-30.762,17.761l13.519-50.451c1.43-5.334-1.736-10.817-7.071-12.247c-5.335-1.432-10.818,1.736-12.248,7.071l-18.695,69.77
		l-26.424,15.256c-0.882,0.51-1.655,1.134-2.315,1.842l3.335-30.475c0.431-3.939-1.504-7.761-4.935-9.745
		c-3.431-1.983-7.709-1.754-10.907,0.584l-24.835,18.155c0.296-0.945,0.457-1.951,0.457-2.994v-30.513l51.075-51.077
		c3.905-3.905,3.905-10.237,0-14.143c-3.905-3.904-10.237-3.904-14.142,0L266,134.616V99.098l33.413-33.415
		c3.905-3.905,3.905-10.237,0-14.143c-3.905-3.904-10.237-3.904-14.142,0L266,70.812V41.646c0-5.522-4.477-10-10-10s-10,4.478-10,10
		v29.167l-19.271-19.271c-3.905-3.904-10.237-3.904-14.143,0c-3.905,3.905-3.905,10.237,0,14.143L246,99.098v35.52l-36.933-36.932
		c-3.905-3.904-10.237-3.904-14.142,0c-3.905,3.905-3.905,10.237,0,14.143L246,162.902v30.513c0,1.008,0.152,1.979,0.43,2.897
		l-24.696-18.104c-3.195-2.343-7.473-2.576-10.906-0.599c-3.433,1.979-5.374,5.799-4.948,9.738l3.31,30.621
		c-0.676-0.741-1.474-1.394-2.389-1.922l-26.425-15.257l-18.696-69.77c-1.429-5.335-6.912-8.502-12.248-7.071
		c-5.334,1.43-8.5,6.913-7.071,12.247l13.52,50.451l-30.762-17.76l-12.231-45.644c-1.429-5.334-6.914-8.501-12.248-7.07
		c-5.335,1.43-8.5,6.913-7.071,12.248l7.054,26.323l-25.258-14.583c-4.782-2.76-10.898-1.123-13.66,3.66
		c-2.762,4.783-1.123,10.898,3.66,13.66l25.26,14.584l-26.325,7.054c-5.334,1.43-8.5,6.913-7.071,12.247
		c1.197,4.468,5.237,7.415,9.653,7.415c0.856,0,1.728-0.111,2.595-0.344l45.643-12.229l30.762,17.76L95.43,217.487
		c-5.334,1.43-8.5,6.913-7.071,12.247c1.197,4.468,5.237,7.415,9.653,7.415c0.856,0,1.728-0.111,2.595-0.344l69.769-18.694
		l26.424,15.256c0.878,0.507,1.803,0.851,2.741,1.069l-28.024,12.333c-3.626,1.597-5.969,5.184-5.972,9.146
		c-0.003,3.962,2.334,7.553,5.959,9.154l28.179,12.449c-0.988,0.214-1.961,0.579-2.884,1.112l-26.426,15.257l-69.771-18.693
		c-5.335-1.432-10.818,1.736-12.247,7.071c-1.43,5.335,1.736,10.818,7.071,12.247l50.451,13.518l-30.761,17.76l-45.644-12.229
		c-5.336-1.43-10.818,1.736-12.247,7.071s1.737,10.818,7.071,12.247l26.324,7.053l-25.258,14.583
		c-4.783,2.762-6.422,8.877-3.66,13.66c1.852,3.208,5.213,5.002,8.669,5.002c1.696,0,3.416-0.433,4.991-1.342l25.26-14.584
		l-7.054,26.325c-1.43,5.334,1.736,10.817,7.071,12.247c0.867,0.232,1.738,0.344,2.595,0.344c4.415,0,8.456-2.947,9.653-7.415
		l12.23-45.643l30.762-17.761l-13.518,50.451c-1.43,5.334,1.736,10.817,7.071,12.247c0.867,0.232,1.738,0.344,2.595,0.344
		c4.415,0,8.456-2.947,9.653-7.415l18.695-69.77l26.424-15.256c0.883-0.51,1.656-1.135,2.317-1.844l-3.331,30.434
		c-0.431,3.939,1.504,7.761,4.935,9.745c3.43,1.982,7.708,1.753,10.907-0.584l24.848-18.164c-0.307,0.961-0.476,1.983-0.476,3.046
		v30.514l-51.074,51.076c-3.905,3.905-3.905,10.237,0,14.143c1.953,1.952,4.512,2.929,7.071,2.929s5.119-0.977,7.071-2.929
		L246,377.384v35.52l-33.412,33.414c-3.905,3.906-3.905,10.237,0,14.143c1.953,1.952,4.512,2.929,7.071,2.929
		s5.119-0.977,7.071-2.929L246,441.188v29.166c0,5.522,4.477,10,10,10s10-4.478,10-10v-29.167l19.271,19.271
		c3.905,3.904,10.237,3.904,14.143,0c3.905-3.905,3.905-10.237,0-14.143L266,412.902v-35.52l36.932,36.932
		c3.905,3.904,10.237,3.904,14.143,0c3.905-3.905,3.905-10.237,0-14.143L266,349.098v-30.513c0-1.029-0.156-2.022-0.445-2.956
		l24.719,18.12c1.752,1.284,3.829,1.935,5.913,1.935c1.718,0,3.442-0.442,4.993-1.337c3.433-1.979,5.374-5.798,4.948-9.737
		l-3.303-30.562c0.673,0.734,1.466,1.381,2.375,1.905l26.426,15.257l18.697,69.771c1.197,4.468,5.237,7.414,9.653,7.414
		c0.856-0.001,1.728-0.111,2.595-0.344c5.334-1.43,8.5-6.913,7.071-12.248l-13.52-50.45l30.762,17.761l12.23,45.642
		c1.197,4.469,5.237,7.415,9.653,7.415c0.856-0.001,1.728-0.111,2.595-0.344c5.334-1.43,8.5-6.913,7.071-12.247l-7.054-26.324
		l25.258,14.583c1.575,0.909,3.294,1.342,4.991,1.342c3.456,0,6.817-1.794,8.669-5.002c2.762-4.783,1.123-10.898-3.66-13.66
		l-25.26-14.584l26.325-7.054c5.334-1.43,8.5-6.913,7.071-12.247C453.342,315.298,447.857,312.13,442.524,313.562z M286.801,266.965
		c-3.989,1.755-6.382,5.894-5.914,10.227l2.919,27.02l-21.919-16.068c-1.76-1.29-3.836-1.935-5.912-1.935
		c-2.072,0-4.144,0.643-5.901,1.927l-21.94,16.038l2.957-27.015c0.475-4.333-1.913-8.474-5.899-10.235l-24.86-10.982l24.875-10.948
		c3.989-1.755,6.382-5.894,5.914-10.227l-2.919-27.019l21.919,16.068c3.515,2.577,8.295,2.579,11.813,0.008l21.939-16.038
		l-2.956,27.015c-0.475,4.333,1.913,8.474,5.899,10.235l24.861,10.981L286.801,266.965z"/>
</g>
</svg>
