<?xml version="1.0" encoding="iso-8859-1"?>
<!-- Generator: Adobe Illustrator 16.0.0, SVG Export Plug-In . SVG Version: 6.00 Build 0)  -->
<!DOCTYPE svg PUBLIC "-//W3C//DTD SVG 1.1//EN" "http://www.w3.org/Graphics/SVG/1.1/DTD/svg11.dtd">
<svg version="1.1" xmlns="http://www.w3.org/2000/svg" xmlns:xlink="http://www.w3.org/1999/xlink" x="0px" y="0px" width="512px"
	 height="512px" viewBox="0 0 512 512" style="enable-background:new 0 0 512 512;" xml:space="preserve">
<g id="Artwork">
</g>
<g id="Layer_3">
	<path d="M442.805,325.142c-1.43-5.334-6.914-8.503-12.247-7.07l-32.135,8.609l-37.021-21.373l33.483-8.972
		c5.335-1.43,8.501-6.913,7.071-12.247c-1.43-5.335-6.914-8.502-12.247-7.071l-52.803,14.148l-19.718-11.385l10.854-18.801
		c1.786-3.094,1.786-6.906,0-10l-10.837-18.771l19.702-11.375l52.803,14.146c0.867,0.232,1.737,0.344,2.594,0.344
		c4.415-0.001,8.456-2.947,9.653-7.415c1.43-5.335-1.736-10.818-7.071-12.247l-33.483-8.971l37.014-21.37l32.144,8.612
		c0.867,0.232,1.737,0.344,2.594,0.344c4.415,0,8.456-2.947,9.653-7.415l9.684-36.141c0.687-2.562,0.327-5.291-0.999-7.588
		s-3.511-3.973-6.072-4.659l-36.139-9.683c-5.337-1.431-10.817,1.737-12.247,7.07l-8.612,32.136l-37.02,21.374l8.972-33.484
		c1.43-5.334-1.736-10.817-7.071-12.247c-5.331-1.43-10.817,1.736-12.247,7.071l-14.148,52.803l-19.7,11.374l-10.854-18.8
		c-1.786-3.094-5.087-5-8.66-5H266v-22.742l38.652-38.653c3.905-3.905,3.905-10.237,0-14.143c-3.906-3.904-10.236-3.904-14.143,0
		L266,140.063V97.324l23.53-23.531c3.905-3.905,3.905-10.237,0-14.143l-26.455-26.457c-1.875-1.875-4.419-2.929-7.071-2.929
		s-5.195,1.054-7.071,2.929L222.475,59.65c-1.875,1.875-2.929,4.419-2.929,7.071s1.054,5.196,2.929,7.071L246,97.315v42.748
		l-24.511-24.51c-3.906-3.904-10.236-3.904-14.143,0c-3.905,3.905-3.905,10.237,0,14.143L246,168.348v22.742h-21.688
		c-3.572,0-6.874,1.906-8.66,5l-10.854,18.802l-19.708-11.379l-14.147-52.8c-1.43-5.334-6.914-8.501-12.247-7.071
		c-5.335,1.43-8.501,6.913-7.071,12.247l8.972,33.482l-37.014-21.369l-8.613-32.144c-1.43-5.334-6.914-8.502-12.247-7.071
		l-36.141,9.684c-2.563,0.687-4.746,2.362-6.072,4.659s-1.686,5.026-0.999,7.589l9.686,36.14c1.197,4.468,5.237,7.414,9.653,7.414
		c0.856,0,1.728-0.111,2.594-0.344l32.133-8.61l37.021,21.374l-33.482,8.972c-5.335,1.43-8.501,6.913-7.071,12.247
		c1.197,4.468,5.237,7.415,9.653,7.415c0.856,0,1.728-0.111,2.594-0.344l52.802-14.148l19.706,11.378l-10.836,18.769
		c-1.786,3.094-1.786,6.906,0,10l10.853,18.798l-19.724,11.387l-52.803-14.146c-5.338-1.43-10.817,1.737-12.247,7.071
		c-1.43,5.335,1.736,10.818,7.071,12.247l33.483,8.971l-37.015,21.37l-32.143-8.612c-5.338-1.429-10.817,1.737-12.247,7.071
		l-9.684,36.141c-0.687,2.562-0.327,5.291,0.999,7.588s3.511,3.973,6.072,4.659l36.139,9.682c0.867,0.232,1.737,0.344,2.594,0.344
		c4.415,0,8.456-2.947,9.653-7.414L123.577,344l37.021-21.373l-8.972,33.483c-1.43,5.335,1.736,10.818,7.071,12.247
		c0.867,0.232,1.737,0.344,2.594,0.344c4.415,0,8.456-2.947,9.653-7.415l14.146-52.801l19.724-11.387l10.838,18.772
		c1.786,3.094,5.088,5,8.66,5H246v22.78l-38.653,38.654c-3.905,3.905-3.905,10.237,0,14.143c1.953,1.952,4.512,2.929,7.071,2.929
		s5.118-0.977,7.071-2.929L246,371.937v42.739l-23.53,23.531c-3.905,3.905-3.905,10.237,0,14.143l26.457,26.457
		c1.876,1.875,4.419,2.929,7.071,2.929s5.196-1.054,7.071-2.93l26.454-26.457c3.905-3.905,3.905-10.236,0-14.142L266,414.684
		v-42.747l24.511,24.51c3.906,3.904,10.236,3.904,14.143,0c3.905-3.905,3.905-10.237,0-14.143L266,343.651v-22.78h21.694
		c3.573,0,6.874-1.906,8.66-5l10.836-18.769l19.718,11.384l14.149,52.802c1.197,4.468,5.237,7.414,9.653,7.414
		c0.856-0.001,1.728-0.111,2.595-0.344c5.334-1.43,8.5-6.913,7.07-12.248l-8.972-33.481l37.015,21.37l8.612,32.143
		c1.197,4.468,5.237,7.415,9.653,7.415c0.856,0,1.728-0.111,2.594-0.344l36.141-9.684c2.563-0.687,4.746-2.362,6.072-4.659
		s1.686-5.026,0.999-7.589L442.805,325.142z M413.765,150.699l16.821,4.507l-4.508,16.822l-16.821-4.508L413.765,150.699z
		 M256.004,54.407l12.313,12.314l-12.313,12.314l-12.315-12.314L256.004,54.407z M81.417,155.201l16.821-4.508l4.508,16.821
		l-16.821,4.508L81.417,155.201z M98.235,361.3l-16.821-4.506l4.508-16.822l16.821,4.508L98.235,361.3z M255.998,457.593
		l-12.315-12.314l12.313-12.313l12.314,12.313L255.998,457.593z M281.921,300.871h-51.835l-25.917-44.891l25.917-44.891h51.835
		l25.916,44.891L281.921,300.871z M413.762,361.307l-4.508-16.822l16.821-4.507l4.508,16.821L413.762,361.307z"/>
</g>
</svg>
