<?xml version="1.0" encoding="utf-8"?>
<!-- Generator: Adobe Illustrator 16.0.4, SVG Export Plug-In . SVG Version: 6.00 Build 0)  -->
<!DOCTYPE svg PUBLIC "-//W3C//DTD SVG 1.1//EN" "http://www.w3.org/Graphics/SVG/1.1/DTD/svg11.dtd">
<svg version="1.1" id="Layer_1" xmlns="http://www.w3.org/2000/svg" xmlns:xlink="http://www.w3.org/1999/xlink" x="0px" y="0px"
	 width="50px" height="50px" viewBox="0 0 50 50" enable-background="new 0 0 50 50" xml:space="preserve">
<path d="M41.353,32.316c-0.181-0.672-0.609-1.232-1.21-1.578c-1.053-0.609-2.459-0.338-3.253,0.545l-4.438-2.562l5.728-1.531
	c0.267-0.072,0.425-0.346,0.354-0.613s-0.344-0.42-0.612-0.354l-6.692,1.793l-1.903-1.1l4.353-1.919l-4.354-1.919l1.906-1.1
	l6.688,1.793c0.043,0.012,0.087,0.018,0.13,0.018c0.222,0,0.423-0.146,0.482-0.37c0.072-0.267-0.087-0.541-0.354-0.612l-5.724-1.535
	l4.485-2.59c0.478,0.45,1.116,0.717,1.788,0.717c0.467,0,0.927-0.127,1.33-0.367c1.229-0.736,1.632-2.336,0.896-3.564
	c-0.707-1.181-2.376-1.604-3.562-0.896c-0.598,0.355-1.02,0.924-1.188,1.598c-0.145,0.574-0.08,1.163,0.16,1.693l-4.41,2.547
	l1.535-5.727c0.072-0.268-0.087-0.541-0.354-0.613c-0.266-0.062-0.541,0.089-0.611,0.354l-1.793,6.692l-1.905,1.1l0.514-4.729
	l-3.836,2.809v-2.201l4.896-4.896c0.194-0.195,0.194-0.513,0-0.707c-0.195-0.195-0.513-0.195-0.707,0l-4.189,4.188v-5.091
	c1.289-0.133,2.317-1.21,2.338-2.532c0.021-1.434-1.128-2.617-2.597-2.639c-1.411,0-2.578,1.148-2.6,2.561
	c-0.01,0.693,0.251,1.352,0.735,1.85c0.315,0.324,0.704,0.546,1.125,0.671v5.185l-4.192-4.192c-0.195-0.195-0.512-0.195-0.707,0
	c-0.195,0.194-0.195,0.512,0,0.707l4.899,4.899v2.199l-3.838-2.809l0.514,4.728l-1.905-1.1l-1.792-6.69
	c-0.071-0.267-0.344-0.419-0.612-0.354c-0.267,0.072-0.425,0.346-0.354,0.611l1.533,5.727l-4.432-2.561
	c0.394-1.149-0.065-2.461-1.158-3.094c-1.2-0.691-2.86-0.242-3.55,0.952c-0.347,0.601-0.439,1.301-0.259,1.972
	c0.18,0.672,0.61,1.231,1.211,1.579c0.395,0.228,0.844,0.349,1.297,0.349c0.755,0,1.456-0.344,1.945-0.899l4.447,2.567l-5.726,1.533
	c-0.267,0.072-0.425,0.347-0.354,0.613c0.06,0.223,0.262,0.37,0.482,0.37c0.043,0,0.086-0.006,0.13-0.017l6.691-1.795l1.905,1.101
	L16.324,25l4.353,1.918l-1.905,1.102l-6.692-1.795c-0.265-0.064-0.54,0.088-0.612,0.354c-0.071,0.27,0.087,0.541,0.354,0.613
	l5.727,1.535l-4.499,2.598c-0.824-0.744-2.124-0.941-3.104-0.355c-1.228,0.734-1.63,2.334-0.897,3.562
	c0.467,0.781,1.324,1.266,2.235,1.266c0.467,0,0.926-0.127,1.329-0.365c1.141-0.684,1.558-2.107,1.026-3.293l4.408-2.547
	l-1.534,5.727c-0.071,0.268,0.087,0.541,0.354,0.613c0.043,0.01,0.087,0.016,0.13,0.016c0.221,0,0.423-0.146,0.482-0.369
	l1.793-6.691l1.906-1.102l-0.514,4.73l3.838-2.811V31.9l-4.899,4.902c-0.195,0.193-0.195,0.512,0,0.705
	c0.098,0.1,0.226,0.146,0.354,0.146s0.256-0.049,0.354-0.146l4.192-4.193v5.098c-1.291,0.131-2.318,1.211-2.337,2.533
	c-0.011,0.693,0.249,1.35,0.733,1.848c0.483,0.498,1.132,0.779,1.826,0.789h0.04c1.409,0,2.574-1.146,2.598-2.559
	c0.01-0.693-0.25-1.352-0.734-1.852c-0.312-0.32-0.697-0.539-1.125-0.666v-5.188l4.189,4.188c0.195,0.195,0.512,0.195,0.707,0
	c0.195-0.193,0.195-0.512,0-0.707l-4.896-4.895v-2.199l3.836,2.809l-0.514-4.729l1.904,1.098l1.793,6.693
	c0.06,0.223,0.262,0.369,0.481,0.369c0.043,0,0.086-0.006,0.13-0.016c0.268-0.072,0.426-0.348,0.354-0.613l-1.534-5.727l4.435,2.561
	c-0.168,0.484-0.188,1.008-0.054,1.516c0.181,0.67,0.61,1.23,1.211,1.578c0.396,0.229,0.844,0.348,1.297,0.348
	c0.928,0,1.791-0.496,2.254-1.299C41.438,33.688,41.531,32.986,41.353,32.316z M37.17,16.409c0.104-0.415,0.364-0.765,0.731-0.983
	c0.248-0.147,0.53-0.227,0.816-0.227c0.489,0,0.942,0.236,1.244,0.613c0.043,0.057,0.095,0.104,0.13,0.166
	c0.143,0.235,0.207,0.494,0.218,0.754c0.021,0.564-0.25,1.127-0.77,1.438c-0.512,0.307-1.165,0.264-1.661-0.035
	c-0.214-0.129-0.401-0.3-0.531-0.519c-0.051-0.083-0.09-0.17-0.122-0.259C37.111,17.058,37.09,16.728,37.17,16.409z M12.21,18.189
	c-0.502,0.427-1.262,0.539-1.852,0.197c-0.37-0.213-0.634-0.558-0.745-0.971c-0.067-0.252-0.065-0.51-0.01-0.758
	c0.035-0.157,0.087-0.312,0.17-0.455c0.083-0.145,0.19-0.266,0.31-0.373c0.292-0.268,0.672-0.427,1.078-0.427
	c0.279,0,0.554,0.073,0.796,0.214c0.612,0.354,0.895,1.053,0.76,1.709c-0.033,0.163-0.085,0.324-0.173,0.477
	C12.457,17.953,12.339,18.079,12.21,18.189z M12.099,34.566c-0.675,0.404-1.595,0.205-2.075-0.396
	c-0.041-0.051-0.083-0.1-0.117-0.154C9.765,33.777,9.7,33.518,9.689,33.26c-0.021-0.566,0.25-1.129,0.769-1.438
	c0.248-0.148,0.531-0.227,0.818-0.227c0.307,0,0.6,0.096,0.853,0.254c0.209,0.133,0.393,0.307,0.523,0.523
	c0.05,0.084,0.088,0.17,0.121,0.26C13.039,33.344,12.771,34.164,12.099,34.566z M28.097,30.361L25.5,28.459L25,28.094l-0.5,0.365
	L21.9,30.361l0.348-3.201l0.067-0.615l-0.566-0.25l-2.946-1.299l2.946-1.299l0.566-0.25l-0.067-0.616l-0.348-3.2l2.599,1.902
	l0.5,0.365l0.5-0.366l2.597-1.902l-0.349,3.202l-0.066,0.615l0.565,0.25l2.947,1.299l-2.946,1.299l-0.567,0.25l0.066,0.615
	L28.097,30.361z M24.5,7.609c0.228-0.119,0.485-0.194,0.763-0.194c0.07,0.001,0.137,0.015,0.205,0.022
	c0.782,0.115,1.382,0.789,1.371,1.601c-0.012,0.778-0.592,1.423-1.338,1.548c-0.084,0.016-0.17,0.026-0.26,0.026v0.497l-0.025-0.497
	c-0.254-0.005-0.495-0.072-0.714-0.188c-0.148-0.078-0.288-0.173-0.408-0.297c-0.298-0.307-0.458-0.711-0.452-1.138
	C23.648,8.392,23.997,7.877,24.5,7.609z M25.5,42.387c-0.222,0.117-0.471,0.189-0.738,0.189v0.246
	c-0.004-0.004-0.008-0.006-0.013-0.01l-0.012-0.236c-0.069,0-0.137-0.014-0.205-0.021c-0.348-0.051-0.67-0.205-0.919-0.463
	c-0.297-0.307-0.457-0.709-0.45-1.139c0.011-0.771,0.582-1.414,1.337-1.545c0.093-0.018,0.187-0.029,0.285-0.029
	c0.255,0.006,0.496,0.074,0.715,0.189c0.148,0.076,0.288,0.172,0.408,0.295c0.298,0.309,0.458,0.713,0.452,1.139
	C26.351,41.604,25.999,42.121,25.5,42.387z M37.297,33.402c-0.064-0.246-0.064-0.496-0.015-0.738
	c0.035-0.164,0.088-0.326,0.175-0.475c0.087-0.15,0.202-0.277,0.329-0.389c0.289-0.258,0.661-0.412,1.06-0.412
	c0.277,0,0.554,0.074,0.797,0.215c0.37,0.213,0.634,0.559,0.745,0.971c0.066,0.252,0.064,0.51,0.01,0.758
	c-0.035,0.158-0.087,0.312-0.17,0.455c-0.082,0.143-0.19,0.26-0.311,0.367c-0.501,0.443-1.276,0.562-1.874,0.219
	C37.672,34.16,37.407,33.814,37.297,33.402z"/>
</svg>
