<?xml version="1.0" encoding="utf-8"?>
<!-- Generator: Adobe Illustrator 16.0.4, SVG Export Plug-In . SVG Version: 6.00 Build 0)  -->
<!DOCTYPE svg PUBLIC "-//W3C//DTD SVG 1.1//EN" "http://www.w3.org/Graphics/SVG/1.1/DTD/svg11.dtd">
<svg version="1.1" id="Layer_1" xmlns="http://www.w3.org/2000/svg" xmlns:xlink="http://www.w3.org/1999/xlink" x="0px" y="0px"
	 width="50px" height="50px" viewBox="0 0 50 50" enable-background="new 0 0 50 50" xml:space="preserve">
<path d="M29.76,26.916c0.598-0.912,0.928-1.988,0.928-3.104c0-1.514-0.598-2.887-1.564-3.907c0.288-0.205,0.438-0.559,0.348-0.9
	l-0.438-1.631c-0.12-0.449-0.607-0.713-1.087-0.585l-8.667,2.322c-0.477,0.129-0.768,0.6-0.647,1.049l0.438,1.631
	c0.064,0.239,0.235,0.419,0.451,0.521c-0.131,0.479-0.207,0.98-0.207,1.5c0,1.115,0.331,2.191,0.928,3.104
	c-1.785,1.424-2.865,3.6-2.865,5.959c0,4.204,3.42,7.625,7.625,7.625s7.625-3.421,7.625-7.625
	C32.625,30.516,31.545,28.34,29.76,26.916z M25,39c-3.383,0-6.125-2.742-6.125-6.125c0-2.531,1.536-4.704,3.727-5.637
	c-1.079-0.758-1.789-2.007-1.789-3.426c0-0.612,0.139-1.19,0.375-1.715l6.251-1.676c1.056,0.76,1.748,1.991,1.748,3.391
	c0,1.419-0.709,2.668-1.789,3.426c2.19,0.933,3.728,3.104,3.728,5.637C31.125,36.258,28.383,39,25,39z M23.312,23.688
	c-0.276,0-0.5-0.224-0.5-0.5c0-0.276,0.224-0.5,0.5-0.5c0.276,0,0.5,0.224,0.5,0.5C23.812,23.464,23.588,23.688,23.312,23.688z
	 M27.188,23.188c0,0.276-0.223,0.5-0.5,0.5c-0.275,0-0.5-0.224-0.5-0.5c0-0.276,0.225-0.5,0.5-0.5
	C26.965,22.688,27.188,22.912,27.188,23.188z M23.922,25.047c0-0.595,0.483-1.078,1.078-1.078c0.596,0,1.078,0.483,1.078,1.078
	c0,0.596-0.482,1.078-1.078,1.078C24.405,26.125,23.922,25.643,23.922,25.047z M25.499,30.266c0,0.276-0.224,0.5-0.5,0.5
	s-0.5-0.224-0.5-0.5c0-0.275,0.224-0.5,0.5-0.5S25.499,29.99,25.499,30.266z M25.499,32.357c0,0.277-0.224,0.5-0.5,0.5
	s-0.5-0.223-0.5-0.5c0-0.275,0.224-0.5,0.5-0.5S25.499,32.082,25.499,32.357z M25.499,34.451c0,0.275-0.224,0.5-0.5,0.5
	s-0.5-0.225-0.5-0.5c0-0.276,0.224-0.5,0.5-0.5S25.499,34.175,25.499,34.451z M25.499,36.544c0,0.276-0.224,0.5-0.5,0.5
	s-0.5-0.224-0.5-0.5s0.224-0.5,0.5-0.5S25.499,36.268,25.499,36.544z M24.999,27.928l1.942-0.615v1.5l-1.942-0.615l-1.942,0.615
	v-1.5L24.999,27.928z M16.654,16.18c-0.145-0.547,0.179-1.113,0.728-1.259c0.296-0.08,0.592-0.012,0.828,0.146l2.75-4.118
	c0.305-0.458,0.854-0.494,1.217-0.085l4.44,5.008c0.363,0.41,0.229,0.862-0.303,1.005l-5.579,1.494
	c-0.53,0.141-0.873-0.183-0.764-0.72l0.435-2.114c0.11-0.538-0.21-0.79-0.708-0.562l-1.136,0.52
	c0.023,0.052,0.061,0.095,0.077,0.153c0.146,0.548-0.179,1.113-0.727,1.259C17.363,17.055,16.802,16.728,16.654,16.18z"/>
</svg>
