<?xml version="1.0" encoding="utf-8"?>
<!-- Generator: Adobe Illustrator 16.0.4, SVG Export Plug-In . SVG Version: 6.00 Build 0)  -->
<!DOCTYPE svg PUBLIC "-//W3C//DTD SVG 1.1//EN" "http://www.w3.org/Graphics/SVG/1.1/DTD/svg11.dtd">
<svg version="1.1" id="Layer_1" xmlns="http://www.w3.org/2000/svg" xmlns:xlink="http://www.w3.org/1999/xlink" x="0px" y="0px"
	 width="50px" height="50px" viewBox="0 0 50 50" enable-background="new 0 0 50 50" xml:space="preserve">
<path d="M40.313,33.266l-3.053-1.763l1.839-1.062c0.239-0.139,0.321-0.444,0.184-0.684c-0.14-0.24-0.445-0.322-0.684-0.183
	l-2.339,1.351l-2.32-1.339l4.73-2.729c0.239-0.137,0.321-0.443,0.183-0.683c-0.138-0.239-0.445-0.321-0.683-0.183l-5.229,3.018
	l-1.164-0.671l-2.441-3.337l2.442-3.338l1.16-0.67l5.232,3.021c0.079,0.045,0.165,0.067,0.25,0.067c0.173,0,0.341-0.09,0.434-0.25
	c0.139-0.239,0.057-0.545-0.183-0.683l-4.732-2.732l2.321-1.34l2.34,1.352c0.079,0.045,0.165,0.067,0.25,0.067
	c0.173,0,0.341-0.09,0.435-0.25c0.138-0.239,0.056-0.545-0.184-0.683l-1.841-1.062l3.052-1.762c0.239-0.138,0.321-0.444,0.184-0.683
	c-0.14-0.24-0.446-0.321-0.684-0.183l-3.051,1.762l-0.001-2.123c0-0.276-0.224-0.5-0.5-0.5s-0.5,0.224-0.5,0.5l0.001,2.7
	l-2.32,1.339l0.001-5.459c0-0.276-0.224-0.5-0.5-0.5c-0.275,0-0.5,0.224-0.5,0.5l-0.001,6.037l-1.164,0.672l-4.109,0.447
	l-1.669-3.789v-1.344l5.229-3.021c0.239-0.138,0.321-0.444,0.184-0.683c-0.14-0.24-0.445-0.322-0.684-0.183l-4.729,2.732v-2.677
	l2.339-1.349c0.239-0.138,0.321-0.444,0.183-0.683c-0.139-0.239-0.445-0.321-0.683-0.183l-1.839,1.06V7.605
	c0-0.276-0.224-0.5-0.5-0.5s-0.5,0.224-0.5,0.5v3.524l-1.839-1.062c-0.24-0.139-0.545-0.057-0.683,0.183
	c-0.138,0.239-0.056,0.545,0.183,0.683l2.339,1.351v2.678l-4.729-2.73c-0.24-0.139-0.545-0.056-0.683,0.183
	c-0.138,0.239-0.056,0.545,0.183,0.683l5.229,3.019v1.346l-1.668,3.783l-4.112-0.447l-1.164-0.672v-6.038c0-0.276-0.224-0.5-0.5-0.5
	c-0.276,0-0.5,0.224-0.5,0.5v5.46l-2.318-1.338l-0.001-2.702c0-0.276-0.224-0.5-0.5-0.5c-0.276,0-0.5,0.224-0.5,0.5l0.001,2.124
	l-3.053-1.762c-0.239-0.138-0.545-0.056-0.683,0.183c-0.138,0.239-0.056,0.545,0.183,0.683l3.051,1.762l-1.838,1.061
	c-0.239,0.138-0.321,0.444-0.183,0.683c0.093,0.16,0.261,0.25,0.434,0.25c0.085,0,0.171-0.021,0.25-0.067l2.338-1.35l2.319,1.339
	l-4.729,2.73c-0.239,0.138-0.321,0.444-0.183,0.683c0.093,0.161,0.261,0.25,0.434,0.25c0.085,0,0.171-0.021,0.25-0.067l5.229-3.02
	l1.166,0.673l2.442,3.337l-2.442,3.336l-1.165,0.673l-5.231-3.017c-0.241-0.138-0.545-0.056-0.683,0.183
	c-0.138,0.239-0.056,0.545,0.183,0.684l4.731,2.728l-2.322,1.34l-2.338-1.35c-0.239-0.138-0.545-0.058-0.683,0.183
	c-0.138,0.239-0.056,0.545,0.183,0.684l1.838,1.062l-3.05,1.761c-0.239,0.139-0.321,0.444-0.183,0.684
	c0.093,0.16,0.261,0.25,0.434,0.25c0.085,0,0.171-0.021,0.25-0.067l3.051-1.762l0.001,2.125c0,0.276,0.224,0.5,0.5,0.5l0,0
	c0.276,0,0.5-0.224,0.5-0.5l-0.001-2.701l2.322-1.341l-0.002,5.463c0,0.275,0.224,0.5,0.5,0.5c0.276,0,0.5-0.225,0.5-0.5
	l0.002-6.041l1.161-0.67l4.113-0.448l1.666,3.781v1.347l-5.228,3.018c-0.239,0.139-0.321,0.445-0.183,0.684
	c0.138,0.239,0.444,0.321,0.683,0.184l4.728-2.73v2.678l-2.339,1.352c-0.239,0.138-0.321,0.443-0.183,0.683
	c0.093,0.161,0.261,0.25,0.434,0.25c0.085,0,0.171-0.021,0.25-0.067l1.839-1.062v3.522c0,0.276,0.224,0.5,0.5,0.5s0.5-0.224,0.5-0.5
	v-3.523l1.841,1.062c0.238,0.137,0.544,0.056,0.683-0.183c0.139-0.239,0.057-0.545-0.183-0.683L25.5,37.717v-2.678l4.729,2.73
	c0.079,0.045,0.165,0.067,0.25,0.067c0.173,0,0.341-0.09,0.435-0.25c0.138-0.239,0.056-0.545-0.184-0.683l-5.229-3.02v-1.343
	l1.669-3.786l4.112,0.447l1.162,0.672v6.039c0,0.275,0.225,0.5,0.5,0.5c0.276,0,0.5-0.225,0.5-0.5v-5.461l2.319,1.339l0.001,2.7
	c0,0.275,0.224,0.5,0.5,0.5s0.5-0.225,0.5-0.5l-0.001-2.123l3.053,1.762c0.079,0.045,0.165,0.067,0.25,0.067
	c0.174,0,0.342-0.091,0.435-0.25C40.636,33.708,40.554,33.402,40.313,33.266z M25.499,30.062l-0.5,1.133l-0.5-1.135l-1.048-2.377
	l-2.586,0.281L19.634,28.1l0.733-1.002l1.535-2.097l-1.535-2.098l-0.732-1l1.232,0.134l2.585,0.281l1.047-2.378l0.5-1.135l0.5,1.134
	l1.049,2.379l2.584-0.281l1.233-0.134l-0.731,1l-1.536,2.099l1.535,2.098l0.732,1l-1.232-0.134l-2.585-0.28L25.499,30.062z"/>
</svg>
