<?xml version="1.0" encoding="iso-8859-1"?>
<!-- Generator: Adobe Illustrator 16.0.0, SVG Export Plug-In . SVG Version: 6.00 Build 0)  -->
<!DOCTYPE svg PUBLIC "-//W3C//DTD SVG 1.1//EN" "http://www.w3.org/Graphics/SVG/1.1/DTD/svg11.dtd">
<svg version="1.1" xmlns="http://www.w3.org/2000/svg" xmlns:xlink="http://www.w3.org/1999/xlink" x="0px" y="0px" width="512px"
	 height="512px" viewBox="0 0 512 512" style="enable-background:new 0 0 512 512;" xml:space="preserve">
<g id="Artwork">
</g>
<g id="Layer_2">
	<g>
		<circle cx="361.971" cy="224.335" r="9.334"/>
		<circle cx="290.637" cy="215" r="9.333"/>
		<circle cx="326.137" cy="186.333" r="9.333"/>
		<circle cx="352.637" cy="148.333" r="9.333"/>
		<circle cx="290.637" cy="143.667" r="9.333"/>
		<circle cx="155.638" cy="209.419" r="9.333"/>
		<circle cx="361.971" cy="292.986" r="9.333"/>
		<circle cx="333.969" cy="316.487" r="9.333"/>
		<circle cx="316.803" cy="279.653" r="9.333"/>
		<circle cx="290.637" cy="302.32" r="9.333"/>
		<circle cx="231.326" cy="309.653" r="9.333"/>
		<circle cx="192.227" cy="283.653" r="9.333"/>
		<circle cx="152.637" cy="302.319" r="9.333"/>
		<circle cx="192.227" cy="173.729" r="9.333"/>
		<circle cx="225.712" cy="197.918" r="9.333"/>
		<circle cx="197.712" cy="224.335" r="9.333"/>
		<circle cx="216.379" cy="136.834" r="9.333"/>
		<circle cx="152.637" cy="143.667" r="9.333"/>
		<path d="M390.637,90.691h-270c-5.521,0-10,4.478-10,10v310.617c0,5.522,4.479,10,10,10h270c5.523,0,10-4.478,10-10V100.691
			C400.637,95.169,396.16,90.691,390.637,90.691z M380.637,246h-115V110.691h115V246z M245.637,110.691V246h-115V110.691H245.637z
			 M130.637,266h115v135.309h-115V266z M265.637,401.309V266h115v135.309H265.637z"/>
		<path d="M467.428,94.51c5.521,0,10-4.478,10-10V39.688c0-5.522-4.479-10-10-10H43.848c-5.523,0-10,4.478-10,10V84.51
			c0,5.522,4.477,10,10,10H65.01v322.98H43.848c-5.523,0-10,4.478-10,10v44.822c0,5.522,4.477,10,10,10h423.58
			c5.521,0,10-4.478,10-10V427.49c0-5.522-4.479-10-10-10h-21.162V94.51H467.428z M436.266,437.49h21.162v24.822H53.848V437.49
			H75.01c5.521,0,10-4.478,10-10V84.51c0-5.522-4.479-10-10-10H53.848V49.688h403.58V74.51h-21.162c-5.523,0-10,4.478-10,10v342.98
			C426.266,433.013,430.742,437.49,436.266,437.49z"/>
	</g>
</g>
</svg>
