<?xml version="1.0" encoding="iso-8859-1"?>
<!-- Generator: Adobe Illustrator 16.0.0, SVG Export Plug-In . SVG Version: 6.00 Build 0)  -->
<!DOCTYPE svg PUBLIC "-//W3C//DTD SVG 1.1//EN" "http://www.w3.org/Graphics/SVG/1.1/DTD/svg11.dtd">
<svg version="1.1" xmlns="http://www.w3.org/2000/svg" xmlns:xlink="http://www.w3.org/1999/xlink" x="0px" y="0px" width="512px"
	 height="512px" viewBox="0 0 512 512" style="enable-background:new 0 0 512 512;" xml:space="preserve">
<g id="Artwork">
</g>
<g id="Layer_3">
	<g>
		<g>
			<g>
				<g>
					<path d="M243.826,469.836c-3.407,0-6.722-1.742-8.592-4.871l-55.792-93.338c-27.775-18.362-56.409-49.198-76.967-82.973
						c-17.311-28.439-37.144-72.086-33.325-118.521c2.946-35.829,21.834-85.14,95.088-116.586
						c17.593-7.553,34.233-11.382,49.458-11.382c58.858,0,85.639,55.562,103.359,92.329c4.349,9.021,8.455,17.541,12.234,23.614
						c3.864,6.21,6.074,7.729,6.722,8.067c0.79-0.343,3.969-2.172,9.489-10.928c11.171-17.716,23.44-26.698,36.468-26.698
						c10.468,0,20.184,6.174,27.359,17.383c16.717,26.116,21.233,82.503-2.362,137.273l35.118,63.984
						c2.628,4.789,0.927,10.801-3.82,13.503l-189.5,107.835C247.203,469.414,245.503,469.836,243.826,469.836z M213.696,62.165
						c-12.496,0-26.482,3.284-41.569,9.76c-51.473,22.097-79.413,55.69-83.044,99.847c-6.027,73.305,56.031,154.144,103.147,184.316
						c1.304,0.835,2.396,1.961,3.191,3.291l51.957,86.924l172.435-98.124l-32.768-59.701c-1.525-2.78-1.643-6.119-0.314-8.999
						c24.355-52.825,18.025-103.59,5.752-122.765c-1.952-3.049-5.914-8.166-10.515-8.166c-5.385,0-12.693,6.492-19.55,17.365
						c-5.5,8.723-14.226,20.319-26.449,20.321c-16.176,0.002-24.882-18.06-36.93-43.057
						C281.643,107.084,259.992,62.165,213.696,62.165z"/>
				</g>
			</g>
		</g>
		<g>
			<g>
				<g>
					<g>
						<path d="M265.537,219.682l-7.542-4.354l4.687-1.256c1.517-0.406,2.783-1.378,3.568-2.738c0.785-1.36,0.993-2.944,0.587-4.459
							c-0.687-2.565-3.02-4.357-5.674-4.357c-0.513,0-1.026,0.068-1.523,0.201l-16.039,4.298l-14.599-8.428v-18.301l14.599-8.428
							l16.037,4.297c0.498,0.134,1.011,0.202,1.525,0.202c2.653,0,4.986-1.792,5.674-4.356c0.406-1.517,0.198-3.101-0.587-4.46
							c-0.785-1.359-2.052-2.332-3.569-2.738l-4.686-1.255l7.541-4.354c1.36-0.785,2.333-2.052,2.74-3.569
							c0.405-1.516,0.197-3.1-0.588-4.459c-1.046-1.813-2.997-2.939-5.093-2.939c-1.027,0-2.042,0.272-2.936,0.788l-7.542,4.354
							l1.256-4.686c0.406-1.517,0.198-3.101-0.587-4.46c-0.785-1.359-2.052-2.332-3.568-2.738c-0.498-0.134-1.011-0.201-1.523-0.201
							c-2.652,0-4.986,1.791-5.675,4.356l-4.297,16.04l-14.723,8.5l-15.724-9.078v-17l11.741-11.742
							c1.11-1.11,1.722-2.586,1.722-4.156c0-1.57-0.611-3.046-1.722-4.156c-1.109-1.11-2.585-1.721-4.155-1.721
							s-3.046,0.611-4.155,1.721l-3.431,3.431v-8.709c0-3.241-2.637-5.877-5.877-5.877s-5.877,2.636-5.877,5.877v8.709l-3.431-3.431
							c-1.109-1.11-2.585-1.721-4.155-1.721s-3.046,0.611-4.155,1.721c-2.291,2.292-2.291,6.02,0,8.311l11.741,11.742v17
							l-15.724,9.078l-14.723-8.5l-4.297-16.041c-0.688-2.564-3.021-4.356-5.675-4.356c-0.513,0-1.025,0.068-1.523,0.202
							c-1.517,0.406-2.783,1.378-3.568,2.738c-0.785,1.36-0.993,2.944-0.587,4.459l1.256,4.687l-7.543-4.355
							c-0.893-0.515-1.908-0.788-2.936-0.788c-2.095,0-4.046,1.126-5.092,2.939c-0.785,1.359-0.993,2.943-0.588,4.459
							c0.407,1.517,1.38,2.784,2.739,3.568l7.542,4.354l-4.687,1.256c-1.517,0.406-2.783,1.378-3.568,2.738
							c-0.785,1.36-0.993,2.944-0.587,4.459c0.688,2.565,3.021,4.357,5.675,4.357c0.514,0,1.026-0.068,1.522-0.201l16.039-4.298
							l14.599,8.428v18.301l-14.599,8.428l-16.04-4.298c-0.498-0.133-1.011-0.201-1.523-0.201c-2.652,0-4.985,1.792-5.673,4.355
							c-0.406,1.517-0.198,3.101,0.587,4.46c0.785,1.359,2.052,2.332,3.569,2.738l4.686,1.255l-7.541,4.354
							c-1.36,0.785-2.333,2.053-2.74,3.569c-0.406,1.516-0.197,3.1,0.587,4.458c1.047,1.813,2.998,2.94,5.094,2.94
							c1.027,0,2.042-0.272,2.936-0.788l7.542-4.354l-1.256,4.686c-0.406,1.517-0.198,3.101,0.587,4.46s2.053,2.332,3.571,2.739
							c0.498,0.133,1.01,0.2,1.521,0.2c2.652,0,4.985-1.791,5.675-4.356l4.297-16.04l14.472-8.355l15.975,9.222v16.711
							l-11.741,11.742c-2.291,2.292-2.291,6.019,0,8.311c1.109,1.11,2.585,1.721,4.155,1.721s3.046-0.611,4.155-1.721l3.431-3.431
							v8.709c0,3.241,2.637,5.877,5.877,5.877s5.877-2.636,5.877-5.877v-8.709l3.43,3.431c1.11,1.11,2.586,1.722,4.156,1.722
							s3.046-0.611,4.155-1.721c1.11-1.11,1.722-2.586,1.722-4.156c0-1.57-0.611-3.046-1.722-4.155l-11.741-11.742v-16.711
							l15.975-9.222l14.472,8.355l4.298,16.041c0.688,2.564,3.021,4.355,5.674,4.355c0.514,0,1.026-0.068,1.522-0.201
							c1.517-0.406,2.784-1.378,3.569-2.738s0.993-2.944,0.587-4.459l-1.256-4.687l7.542,4.355c0.894,0.515,1.908,0.788,2.936,0.788
							c2.096,0,4.047-1.126,5.093-2.938c0.785-1.359,0.994-2.943,0.588-4.459C267.869,221.734,266.896,220.467,265.537,219.682z
							 M217,198.589l-15.6,9.006l-15.6-9.006v-18.013l15.6-9.006l15.6,9.006V198.589z"/>
					</g>
				</g>
			</g>
		</g>
	</g>
</g>
</svg>
