<?xml version="1.0" encoding="iso-8859-1"?>
<!-- Generator: Adobe Illustrator 16.0.0, SVG Export Plug-In . SVG Version: 6.00 Build 0)  -->
<!DOCTYPE svg PUBLIC "-//W3C//DTD SVG 1.1//EN" "http://www.w3.org/Graphics/SVG/1.1/DTD/svg11.dtd">
<svg version="1.1" xmlns="http://www.w3.org/2000/svg" xmlns:xlink="http://www.w3.org/1999/xlink" x="0px" y="0px" width="512px"
	 height="512px" viewBox="0 0 512 512" style="enable-background:new 0 0 512 512;" xml:space="preserve">
<g id="Artwork">
</g>
<g id="Layer_3">
	<path d="M441.871,318.018c-5.961-3.441-12.733-5.261-19.587-5.261c-10.566,0-20.581,4.297-27.862,11.614l-37.092-21.415
		l42.747-11.455c5.335-1.43,8.501-6.913,7.071-12.247s-6.914-8.501-12.247-7.071l-62.066,16.631l-12.111-6.992l-18.966-25.871
		l18.746-25.645l12.331-7.119l62.071,16.63c0.867,0.232,1.737,0.344,2.594,0.344c4.415-0.001,8.456-2.947,9.653-7.415
		c1.43-5.335-1.736-10.818-7.071-12.247l-42.752-11.454l37.092-21.415c7.281,7.318,17.297,11.615,27.862,11.615
		c6.854,0,13.627-1.82,19.586-5.261c9.075-5.238,15.566-13.697,18.278-23.818s1.319-20.692-3.92-29.766
		c-6.985-12.103-20.013-19.62-33.998-19.62c-6.853,0-13.626,1.819-19.586,5.26c-9.075,5.238-15.566,13.697-18.278,23.819
		c-1.826,6.815-1.783,13.833,0.034,20.463l-37.071,21.403l11.455-42.75c1.43-5.334-1.736-10.817-7.071-12.247
		c-5.331-1.432-10.817,1.737-12.247,7.071l-16.632,62.068l-12.095,6.982l-31.886,3.49L266,187.244v-14.19l45.437-45.439
		c3.905-3.906,3.905-10.237,0-14.143c-3.906-3.904-10.238-3.904-14.143,0L266,144.768v-42.814
		c16.801-4.434,29.227-19.756,29.227-37.931c0-21.63-17.597-39.227-39.227-39.227c-21.63,0-39.228,17.597-39.228,39.227
		c0,18.175,12.426,33.497,29.228,37.931v42.815l-31.295-31.295c-3.905-3.904-10.237-3.904-14.143,0
		c-3.905,3.905-3.905,10.237,0,14.143L246,173.054v14l-12.901,29.317l-31.669-3.424l-12.264-7.08l-16.633-62.07
		c-1.43-5.334-6.912-8.501-12.248-7.07c-5.334,1.43-8.5,6.913-7.071,12.248l11.456,42.75L127.6,170.321
		c1.817-6.63,1.86-13.647,0.034-20.464c-2.712-10.121-9.203-18.58-18.277-23.817c-5.961-3.441-12.734-5.261-19.587-5.261
		c-13.984,0-27.012,7.518-33.999,19.619c-5.239,9.074-6.631,19.645-3.919,29.766c2.712,10.122,9.203,18.581,18.276,23.818
		c5.96,3.441,12.733,5.261,19.587,5.261c10.566,0,20.582-4.296,27.862-11.613l37.092,21.415l-42.748,11.454
		c-5.334,1.43-8.5,6.913-7.071,12.247c1.197,4.468,5.237,7.415,9.653,7.415c0.856,0,1.728-0.111,2.595-0.344l62.066-16.631
		l12.17,7.026l18.912,25.801l-18.788,25.702l-12.294,7.098l-62.069-16.631c-5.333-1.43-10.818,1.736-12.247,7.071
		c-1.43,5.334,1.736,10.817,7.071,12.247l42.75,11.455l-37.092,21.415c-7.281-7.317-17.296-11.614-27.862-11.614
		c-6.853,0-13.626,1.819-19.586,5.26c-9.075,5.238-15.566,13.697-18.278,23.818s-1.32,20.692,3.919,29.768
		c6.986,12.101,20.014,19.618,33.998,19.618c6.854,0,13.626-1.819,19.586-5.26c9.075-5.238,15.566-13.697,18.278-23.819
		c1.826-6.815,1.784-13.834-0.034-20.463l37.072-21.404l-11.455,42.751c-1.43,5.334,1.736,10.817,7.071,12.247
		c0.867,0.232,1.738,0.344,2.595,0.344c4.415,0,8.456-2.947,9.653-7.415l16.631-62.068l12.176-7.03l31.81-3.479L246,324.702v14.245
		l-45.437,45.438c-3.905,3.905-3.905,10.237,0,14.143c1.953,1.952,4.512,2.929,7.071,2.929s5.119-0.977,7.071-2.929L246,367.232
		v42.814c-16.802,4.434-29.228,19.756-29.228,37.931c0,21.63,17.597,39.227,39.228,39.227c21.63,0,39.227-17.597,39.227-39.227
		c0-18.175-12.426-33.497-29.227-37.931v-42.815l31.294,31.295c3.905,3.904,10.235,3.905,14.143,0
		c3.905-3.905,3.905-10.237,0-14.143l-45.438-45.438v-14.021l12.909-29.334l31.577,3.413l12.349,7.129l16.634,62.07
		c1.197,4.468,5.237,7.414,9.653,7.414c0.856-0.001,1.728-0.111,2.595-0.344c5.334-1.43,8.5-6.913,7.07-12.248l-11.456-42.75
		l37.07,21.403c-1.817,6.63-1.86,13.648-0.034,20.464c2.712,10.121,9.203,18.58,18.277,23.817
		c5.961,3.441,12.734,5.261,19.587,5.261c13.984,0,27.012-7.518,33.998-19.618c5.239-9.074,6.632-19.646,3.92-29.767
		C457.437,331.714,450.945,323.255,441.871,318.018z M403.685,155.034c1.33-4.961,4.511-9.106,8.959-11.674
		c2.925-1.688,6.24-2.581,9.587-2.581c6.862,0,13.253,3.686,16.678,9.619c2.568,4.448,3.251,9.63,1.922,14.59
		c-1.329,4.961-4.511,9.106-8.96,11.674c-2.924,1.689-6.239,2.582-9.586,2.582c-6.862,0-13.253-3.687-16.679-9.619
		C403.038,165.178,402.355,159.995,403.685,155.034z M106.394,169.625c-3.425,5.933-9.816,9.618-16.679,9.618
		c-3.347,0-6.662-0.893-9.587-2.582c-4.447-2.566-7.628-6.712-8.958-11.673s-0.647-10.143,1.921-14.59
		c3.426-5.934,9.816-9.619,16.678-9.619c3.347,0,6.662,0.893,9.588,2.582c4.447,2.566,7.628,6.712,8.958,11.673
		S108.962,165.177,106.394,169.625z M108.315,356.966c-1.329,4.961-4.51,9.106-8.958,11.674c-2.925,1.688-6.24,2.581-9.587,2.581
		c-6.862,0-13.252-3.686-16.678-9.618c-2.568-4.448-3.25-9.63-1.921-14.591c1.329-4.961,4.51-9.106,8.959-11.674
		c2.924-1.688,6.239-2.581,9.586-2.581c6.862,0,13.253,3.686,16.678,9.618C108.962,346.823,109.644,352.005,108.315,356.966z
		 M236.772,64.022c0-10.602,8.625-19.227,19.228-19.227c10.602,0,19.227,8.625,19.227,19.227S266.602,83.249,256,83.249
		C245.398,83.249,236.772,74.624,236.772,64.022z M275.227,447.978c0,10.602-8.625,19.227-19.227,19.227
		c-10.602,0-19.228-8.625-19.228-19.227s8.625-19.227,19.228-19.227C266.602,428.751,275.227,437.376,275.227,447.978z
		 M273.778,274.92c-4.338-0.47-8.472,1.925-10.228,5.914l-7.519,17.086l-7.544-17.075c-1.613-3.65-5.22-5.959-9.143-5.959
		c-0.362,0-0.727,0.02-1.092,0.06l-18.556,2.03l11.015-15.068c2.572-3.519,2.569-8.298-0.007-11.813l-11.038-15.059l18.561,2.007
		c4.335,0.467,8.471-1.925,10.228-5.914l7.519-17.085l7.542,17.075c1.762,3.987,5.907,6.38,10.235,5.899l18.557-2.031
		l-11.017,15.071c-2.572,3.519-2.568,8.299,0.009,11.813l11.036,15.055L273.778,274.92z M438.908,361.603
		c-3.426,5.933-9.815,9.618-16.678,9.618c-3.347,0-6.662-0.893-9.588-2.582c-4.447-2.566-7.629-6.713-8.958-11.673
		c-1.329-4.961-0.647-10.143,1.921-14.591c3.426-5.933,9.816-9.618,16.679-9.618c3.348,0,6.662,0.893,9.588,2.582
		c4.447,2.566,7.629,6.712,8.958,11.673S441.477,357.154,438.908,361.603z"/>
</g>
</svg>
