<?xml version="1.0" encoding="utf-8"?>
<!-- Generator: Adobe Illustrator 16.0.4, SVG Export Plug-In . SVG Version: 6.00 Build 0)  -->
<!DOCTYPE svg PUBLIC "-//W3C//DTD SVG 1.1//EN" "http://www.w3.org/Graphics/SVG/1.1/DTD/svg11.dtd">
<svg version="1.1" id="Layer_1" xmlns="http://www.w3.org/2000/svg" xmlns:xlink="http://www.w3.org/1999/xlink" x="0px" y="0px"
	 width="21.785px" height="24px" viewBox="0 0 21.785 24" enable-background="new 0 0 21.785 24" xml:space="preserve">
<path d="M21.311,15.368l-0.519-1.933l-4.02,1.078l-0.35-0.184L15.799,12l0.624-2.329l0.351-0.184l4.019,1.077l0.52-1.932
	l-2.775-0.065l3.25-1.7l-1-1.732l-3.1,1.965l1.332-2.438l-1.934-0.518l-1.076,4.02l-0.333,0.211l-2.33-0.625L11.64,6.045
	l0.018-0.396l2.941-2.942l-1.414-1.414l-1.445,2.373L11.892,0h-2l0.153,3.666L8.599,1.293L7.185,2.707l2.942,2.942l0.017,0.396
	L8.438,7.75L6.108,8.374L5.774,8.163l-1.076-4.02L2.766,4.661l1.332,2.438L1,5.134L0,6.866l3.25,1.7L0.473,8.632l0.519,1.932
	L5.01,9.487L5.36,9.67L5.984,12L5.36,14.33L5.01,14.514l-4.019-1.078l-0.519,1.934l2.776,0.064l-3.25,1.7l1,1.732L4.098,16.9
	l-1.332,2.438l1.933,0.52l1.076-4.021l0.334-0.212l2.33,0.624l1.705,1.705l-0.017,0.396l-2.942,2.942l1.414,1.414l1.446-2.373
	L9.892,24h2l-0.152-3.666l1.445,2.373l1.414-1.414l-2.941-2.941l-0.018-0.396l1.706-1.706l2.329-0.623l0.333,0.211l1.077,4.021
	l1.933-0.519L17.686,16.9l3.099,1.966l1-1.732l-3.25-1.7L21.311,15.368z M14.642,13.396L11.97,12l2.672-1.397L14.267,12
	L14.642,13.396z M12.579,9.078l1.397,0.374l-2.546,1.615l0.125-3.012L12.579,9.078z M9.204,9.078l1.022-1.023l0.125,3.012
	L7.808,9.452L9.204,9.078z M7.142,10.603L9.813,12l-2.672,1.396L7.517,12L7.142,10.603z M9.204,14.922l-1.396-0.374l2.545-1.614
	l-0.125,3.012L9.204,14.922z M12.579,14.922l-1.022,1.023l-0.125-3.012l2.545,1.613L12.579,14.922z"/>
</svg>
