<?xml version="1.0" encoding="iso-8859-1"?>
<!-- Generator: Adobe Illustrator 16.0.0, SVG Export Plug-In . SVG Version: 6.00 Build 0)  -->
<!DOCTYPE svg PUBLIC "-//W3C//DTD SVG 1.1//EN" "http://www.w3.org/Graphics/SVG/1.1/DTD/svg11.dtd">
<svg version="1.1" xmlns="http://www.w3.org/2000/svg" xmlns:xlink="http://www.w3.org/1999/xlink" x="0px" y="0px" width="512px"
	 height="512px" viewBox="0 0 512 512" style="enable-background:new 0 0 512 512;" xml:space="preserve">
<g id="Artwork">
</g>
<g id="Layer_3">
	<g>
		<path d="M379.364,116.791c-9.229,0-18.293,1.298-27.056,3.868c-7.136-14.227-17.671-26.446-30.859-35.701
			c-16.246-11.399-35.356-17.425-55.266-17.425c-5.688,0-11.41,0.515-17.067,1.533c-22.869-16.976-50.905-26.275-79.481-26.275
			c-73.537,0-133.364,59.827-133.364,133.364S96.099,309.52,169.636,309.52h209.729c53.136,0,96.364-43.229,96.364-96.364
			S432.5,116.791,379.364,116.791z M379.364,289.52H169.636c-62.509,0-113.364-50.855-113.364-113.364
			S107.126,62.791,169.636,62.791c26.014,0,50.481,8.575,70.757,24.798c2.389,1.911,5.521,2.624,8.502,1.935
			c5.707-1.321,11.523-1.991,17.288-1.991c31.463,0,60.14,19.756,71.358,49.161c0.958,2.513,2.889,4.534,5.354,5.606
			c2.467,1.072,5.26,1.106,7.753,0.094c9.15-3.718,18.812-5.603,28.715-5.603c42.107,0,76.364,34.257,76.364,76.364
			S421.472,289.52,379.364,289.52z"/>
		<path d="M234.968,354.204c-1.38-2.391-4.439-3.21-6.83-1.83l-4.705,2.716l0.901-3.363c0.715-2.667-0.868-5.409-3.536-6.124
			c-2.667-0.716-5.409,0.868-6.124,3.536l-3.489,13.021l-8.843,5.105c-2.603-2.675-5.93-4.627-9.66-5.569v-10.219l9.532-9.533
			c1.953-1.953,1.953-5.119,0-7.071c-1.953-1.952-5.118-1.952-7.071,0l-2.461,2.461v-5.431c0-2.761-2.239-5-5-5s-5,2.239-5,5v5.432
			l-2.461-2.461c-1.953-1.952-5.118-1.952-7.071,0c-1.953,1.953-1.953,5.119,0,7.071l9.533,9.533v10.219
			c-3.73,0.942-7.057,2.894-9.66,5.569l-8.843-5.105l-3.489-13.022c-0.715-2.667-3.458-4.252-6.124-3.536
			c-2.667,0.715-4.25,3.457-3.536,6.124l0.901,3.363l-4.705-2.716c-2.392-1.381-5.45-0.561-6.83,1.83
			c-1.381,2.392-0.562,5.45,1.83,6.83l4.704,2.716l-3.362,0.901c-2.667,0.715-4.25,3.457-3.536,6.124
			c0.599,2.234,2.619,3.708,4.827,3.708c0.428,0,0.864-0.056,1.297-0.172l13.021-3.489l8.829,5.097
			c-0.51,1.786-0.801,3.664-0.801,5.611c0,1.931,0.287,3.794,0.789,5.566l-8.817,5.091l-13.022-3.489
			c-2.668-0.714-5.409,0.869-6.124,3.536c-0.715,2.667,0.869,5.409,3.536,6.124l3.362,0.901l-4.704,2.716
			c-2.392,1.381-3.211,4.438-1.83,6.83c0.926,1.604,2.606,2.501,4.335,2.501c0.848,0,1.708-0.216,2.495-0.671l4.705-2.716
			l-0.901,3.363c-0.715,2.667,0.868,5.409,3.536,6.124c0.434,0.116,0.869,0.172,1.297,0.172c2.208,0,4.228-1.474,4.827-3.708
			l3.489-13.021l8.812-5.088c2.607,2.692,5.945,4.657,9.69,5.603l0,10.168l-9.533,9.532c-1.953,1.953-1.953,5.119,0,7.071
			c1.953,1.952,5.118,1.953,7.071,0l2.462-2.461v5.432c0,2.762,2.239,5,5,5c2.762,0,5-2.239,5-5v-5.432l2.461,2.461
			c0.977,0.976,2.256,1.464,3.536,1.464c1.279,0,2.559-0.488,3.536-1.464c1.953-1.953,1.953-5.119,0-7.071l-9.533-9.533l0-10.167
			c3.746-0.945,7.083-2.911,9.691-5.603l8.813,5.088l3.489,13.021c0.599,2.234,2.619,3.708,4.827,3.708
			c0.428,0,0.864-0.056,1.297-0.172c2.667-0.715,4.25-3.457,3.536-6.124l-0.901-3.362l4.704,2.716
			c0.788,0.455,1.647,0.671,2.495,0.671c1.728,0,3.409-0.897,4.335-2.501c1.381-2.392,0.562-5.449-1.83-6.83l-4.705-2.716
			l3.363-0.901c2.667-0.715,4.25-3.457,3.536-6.124c-0.715-2.667-3.458-4.252-6.124-3.536l-13.022,3.49l-8.816-5.09
			c0.502-1.773,0.789-3.635,0.789-5.567c0-1.948-0.291-3.826-0.801-5.611l8.828-5.097l13.022,3.489
			c0.433,0.116,0.869,0.172,1.297,0.172c2.208,0,4.228-1.474,4.827-3.708c0.715-2.667-0.868-5.409-3.536-6.124l-3.363-0.901
			l4.705-2.716C235.53,359.653,236.349,356.596,234.968,354.204z M187.683,392.006c-5.776,0-10.475-4.699-10.475-10.476
			s4.699-10.476,10.475-10.476s10.475,4.699,10.475,10.476S193.459,392.006,187.683,392.006z"/>
		<path d="M379.314,382.309c-1.381-2.391-4.439-3.213-6.83-1.83l-4.705,2.716l0.901-3.362c0.715-2.667-0.867-5.409-3.535-6.124
			c-2.669-0.717-5.409,0.868-6.124,3.535l-3.49,13.022l-8.842,5.105c-2.603-2.675-5.93-4.627-9.66-5.569v-10.22l9.532-9.532
			c1.953-1.953,1.953-5.119,0-7.071c-1.951-1.952-5.119-1.952-7.07,0l-2.462,2.462v-5.432c0-2.761-2.238-5-5-5s-5,2.239-5,5v5.431
			l-2.46-2.46c-1.953-1.953-5.12-1.953-7.071,0c-1.953,1.953-1.953,5.118-0.001,7.071l9.532,9.533v10.219
			c-3.73,0.942-7.057,2.894-9.66,5.569l-8.843-5.105l-3.489-13.021c-0.715-2.667-3.451-4.252-6.124-3.536
			c-2.668,0.715-4.25,3.457-3.536,6.124l0.901,3.362l-4.704-2.716c-2.394-1.383-5.451-0.561-6.83,1.83
			c-1.381,2.392-0.562,5.449,1.83,6.83l4.705,2.716l-3.362,0.901c-2.668,0.715-4.25,3.457-3.536,6.124
			c0.599,2.234,2.619,3.707,4.827,3.707c0.428,0,0.864-0.056,1.297-0.172l13.021-3.49l8.829,5.098
			c-0.51,1.786-0.801,3.664-0.801,5.611c0,1.931,0.287,3.793,0.789,5.565l-8.818,5.091l-13.021-3.489
			c-2.667-0.716-5.409,0.868-6.124,3.536c-0.714,2.667,0.868,5.409,3.536,6.124l3.361,0.901l-4.704,2.716
			c-2.392,1.381-3.211,4.438-1.83,6.83c0.926,1.604,2.606,2.501,4.335,2.501c0.848,0,1.708-0.216,2.495-0.671l4.705-2.716
			l-0.901,3.362c-0.714,2.667,0.868,5.409,3.536,6.124c0.434,0.116,0.868,0.172,1.297,0.172c2.208,0,4.229-1.474,4.827-3.707
			l3.49-13.023l8.81-5.086c2.608,2.691,5.946,4.657,9.691,5.603v10.168l-9.532,9.533c-1.952,1.953-1.952,5.118,0.001,7.071
			c0.977,0.976,2.256,1.464,3.535,1.464s2.56-0.488,3.536-1.465l2.461-2.461v5.432c0,2.762,2.238,5,5,5s5-2.239,5-5v-5.433
			l2.462,2.462c1.951,1.952,5.119,1.952,7.07,0c1.953-1.953,1.953-5.119,0-7.071l-9.533-9.533v-10.167
			c3.745-0.945,7.084-2.911,9.691-5.603l8.812,5.087l3.489,13.022c0.599,2.234,2.619,3.708,4.827,3.708
			c0.428,0,0.863-0.056,1.297-0.172c2.668-0.715,4.25-3.457,3.536-6.124l-0.901-3.363l4.704,2.716
			c0.787,0.455,1.647,0.671,2.495,0.671c1.729,0,3.409-0.897,4.335-2.501c1.381-2.392,0.562-5.449-1.83-6.83l-4.704-2.716
			l3.362-0.901c2.668-0.715,4.25-3.457,3.536-6.124c-0.714-2.667-3.453-4.25-6.124-3.536l-13.021,3.489l-8.817-5.091
			c0.502-1.772,0.789-3.635,0.789-5.566c0-1.948-0.29-3.826-0.801-5.611l8.829-5.098l13.021,3.489
			c0.434,0.116,0.868,0.172,1.297,0.172c2.208,0,4.229-1.474,4.827-3.708c0.714-2.667-0.868-5.409-3.536-6.124l-3.362-0.901
			l4.704-2.716C379.876,387.758,380.695,384.7,379.314,382.309z M332.029,420.109c-5.775,0-10.475-4.699-10.475-10.475
			c0-5.776,4.699-10.476,10.475-10.476c5.776,0,10.476,4.699,10.476,10.476C342.505,415.411,337.806,420.109,332.029,420.109z"/>
	</g>
</g>
</svg>
