<?xml version="1.0" encoding="iso-8859-1"?>
<!-- Generator: Adobe Illustrator 16.0.0, SVG Export Plug-In . SVG Version: 6.00 Build 0)  -->
<!DOCTYPE svg PUBLIC "-//W3C//DTD SVG 1.1//EN" "http://www.w3.org/Graphics/SVG/1.1/DTD/svg11.dtd">
<svg version="1.1" id="Layer_1" xmlns="http://www.w3.org/2000/svg" xmlns:xlink="http://www.w3.org/1999/xlink" x="0px" y="0px"
	 width="500px" height="500px" viewBox="0 0 500 500" style="enable-background:new 0 0 500 500;" xml:space="preserve">
<g>
	<path d="M371.844,80.458c5.582-3.609,9.879-7.793,12.639-12.697c7.119-13.386,5.025-27.927-5.658-43.308l-0.689-0.97
		c-10.822-13.17-23.896-19.712-36.763-19.712c-24.215,0-44.423,22.351-64,44.025c-9.644,10.692-18.884,20.858-27.372,26.85
		c-8.489-5.992-17.729-16.157-27.372-26.85c-19.577-21.675-39.785-44.025-64-44.025c-12.866,0-25.94,6.542-36.763,19.712
		l-0.689,0.97c-10.684,15.381-12.778,29.922-5.659,43.308c2.76,4.904,7.057,9.088,12.639,12.697H25.26v98.672H250h224.74V80.458
		H371.844z M127.455,61.046c-4.897-9.51-0.955-20.848,5.093-28.955c8.766-9.837,17.321-14.626,26.063-14.626
		c18.122,0,36.254,20.115,53.83,39.526c7.623,8.459,15.018,16.644,22.398,23.142c-1.505,0.095-3.146,0.212-4.739,0.332h-49.475
		C152.864,80.118,133.36,71.558,127.455,61.046z M275.332,165.854H250h-25.332V99.128H250h25.332V165.854z M319.375,80.465H269.9
		c-1.594-0.12-3.234-0.237-4.739-0.332c7.38-6.498,14.774-14.683,22.397-23.142c17.576-19.411,35.709-39.526,53.83-39.526
		c8.742,0,17.297,4.789,26.063,14.626c6.048,8.107,9.989,19.445,5.093,28.955C366.641,71.558,347.136,80.118,319.375,80.465z"/>
	<polygon points="275.339,482.547 250,482.547 224.661,482.547 224.661,193.751 51.131,193.751 51.131,496.229 250,496.229 
		448.869,496.229 448.869,193.751 275.339,193.751 	"/>
</g>
</svg>
