<?xml version="1.0" encoding="utf-8"?>
<!-- Generator: Adobe Illustrator 17.0.0, SVG Export Plug-In . SVG Version: 6.00 Build 0)  -->
<!DOCTYPE svg PUBLIC "-//W3C//DTD SVG 1.1//EN" "http://www.w3.org/Graphics/SVG/1.1/DTD/svg11.dtd">
<svg version="1.1" id="Capa_1" xmlns="http://www.w3.org/2000/svg" xmlns:xlink="http://www.w3.org/1999/xlink" x="0px" y="0px"
	 width="21.3px" height="18.368px" viewBox="0 0 21.3 18.368" enable-background="new 0 0 21.3 18.368" xml:space="preserve">
<path d="M18.25,1.188c-2.165-1.192-4.895-0.402-6.086,1.762l-1.513,2.746L9.137,2.949C7.945,0.786,5.215-0.004,3.052,1.188
	C0.887,2.381,0.097,5.109,1.289,7.274l0.998,1.809C2.549,9.557,3.146,9.731,3.622,9.47c0.473-0.262,0.646-0.86,0.386-1.333
	L3.01,6.326C2.341,5.11,2.784,3.577,3.999,2.908c1.216-0.669,2.749-0.225,3.419,0.989L9.53,7.73l-4.712,8.55
	c-0.262,0.473-0.088,1.073,0.387,1.333c0.475,0.262,1.073,0.088,1.334-0.385l4.112-7.463l4.112,7.463
	c0.262,0.474,0.86,0.647,1.337,0.385c0.472-0.261,0.644-0.86,0.384-1.333l-4.711-8.549l2.113-3.834
	c0.669-1.214,2.202-1.657,3.419-0.989c1.214,0.669,1.657,2.201,0.989,3.418l-0.996,1.809c-0.264,0.474-0.092,1.073,0.384,1.334
	c0.474,0.261,1.072,0.088,1.335-0.386l0.995-1.809C21.203,5.109,20.414,2.381,18.25,1.188z M3.791,8.255
	c0.192,0.344,0.074,0.774-0.257,0.98L2.196,8.411L1.504,7.154c-0.082-0.147-0.153-0.3-0.215-0.452l2.492,1.53L3.791,8.255z
	 M2.795,6.445l0.258,0.467L1.016,5.66C0.965,5.276,0.968,4.89,1.024,4.512l1.444,0.886C2.503,5.756,2.611,6.111,2.795,6.445z
	 M2.576,4.302L1.295,3.514c0.123-0.303,0.28-0.593,0.473-0.862l1.258,0.774C2.825,3.69,2.673,3.987,2.576,4.302z M3.882,2.692
	c-0.057,0.033-0.111,0.065-0.165,0.1l-1.34-0.823C2.615,1.754,2.879,1.564,3.17,1.403c0.029-0.018,0.059-0.031,0.088-0.047
	l1.646,1.01C4.554,2.408,4.207,2.513,3.882,2.692z M4.38,0.96c0.679-0.136,1.373-0.102,2.02,0.088L8.31,2.223
	c0.235,0.251,0.44,0.533,0.613,0.845l0.569,1.034L4.38,0.96z M8.817,5.926L7.855,4.183l2.543,1.562l0.113,0.205l-0.419,0.76
	L8.817,5.926z M11.122,8.401l-0.471,0.854l-0.47-0.854l0.471-0.29L11.122,8.401z M10.652,7.054l-0.35-0.215l0.349-0.634l0.35,0.635
	L10.652,7.054z M7.024,15.835L5.015,17.07c-0.099-0.207-0.101-0.455,0.019-0.672l0.408-0.741l2.544-1.563L7.024,15.835z
	 M8.713,12.773L6.17,14.336l0.961-1.743l2.541-1.562L8.713,12.773z M8.101,10.832l0.962-1.743L9.971,8.53l0.474,0.86L8.101,10.832z
	 M16.267,16.398c0.121,0.217,0.119,0.466,0.02,0.672l-2.009-1.235l-0.961-1.742l2.543,1.563L16.267,16.398z M15.131,14.336
	l-2.542-1.563L11.63,11.03l2.541,1.562L15.131,14.336z M12.239,9.089l0.96,1.743L10.858,9.39l0.474-0.86L12.239,9.089z
	 M12.486,5.926L11.21,6.711l-0.419-0.76l0.112-0.204l2.543-1.562L12.486,5.926z M11.809,4.103l0.57-1.035
	c0.173-0.312,0.378-0.594,0.612-0.845l1.911-1.175c0.648-0.189,1.342-0.223,2.02-0.088L11.809,4.103z M17.587,2.792
	c-0.055-0.034-0.11-0.067-0.167-0.1c-0.325-0.179-0.671-0.284-1.021-0.325l1.644-1.01c0.03,0.016,0.058,0.029,0.088,0.047
	c0.291,0.16,0.555,0.351,0.792,0.565L17.587,2.792z M18.274,3.426l1.261-0.774c0.19,0.269,0.349,0.56,0.472,0.862l-1.281,0.789
	C18.631,3.987,18.479,3.69,18.274,3.426z M19.797,7.154l-0.69,1.257l-1.339,0.823c-0.33-0.207-0.446-0.637-0.256-0.98l0.009-0.022
	l2.49-1.53C19.95,6.853,19.879,7.006,19.797,7.154z M18.249,6.912l0.256-0.467c0.184-0.333,0.292-0.688,0.329-1.046l1.445-0.886
	c0.053,0.377,0.056,0.763,0.007,1.147L18.249,6.912z"/>
</svg>
