<?xml version="1.0" encoding="iso-8859-1"?>
<!-- Generator: Adobe Illustrator 16.0.0, SVG Export Plug-In . SVG Version: 6.00 Build 0)  -->
<!DOCTYPE svg PUBLIC "-//W3C//DTD SVG 1.1//EN" "http://www.w3.org/Graphics/SVG/1.1/DTD/svg11.dtd">
<svg version="1.1" xmlns="http://www.w3.org/2000/svg" xmlns:xlink="http://www.w3.org/1999/xlink" x="0px" y="0px" width="512px"
	 height="512px" viewBox="0 0 512 512" style="enable-background:new 0 0 512 512;" xml:space="preserve">
<g id="Artwork">
</g>
<g id="Layer_3">
	<g>
		<g>
			<g>
				<g>
					<path d="M247.91,427.068c0-18.925-26.742-28.637-54.643-30.495V271.22c19.709-9.095,39.297-27.636,54.612-51.932
						c18.675-29.628,28.96-64.962,28.96-99.494c0-23.29-2.889-45.69-8.586-66.579c-1.187-4.351-5.138-7.369-9.647-7.369H107.93
						c-4.51,0-8.461,3.018-9.647,7.368c-5.698,20.888-8.587,43.289-8.587,66.58c0,34.532,10.285,69.866,28.96,99.494
						c15.314,24.295,34.902,42.836,54.612,51.932v125.353c-27.9,1.858-54.643,11.57-54.643,30.495
						c0,21.185,33.509,30.833,64.643,30.833S247.91,448.252,247.91,427.068z M135.574,208.623
						c-16.688-26.476-25.879-58.023-25.879-88.829c0-18.783,2.021-36.893,6.016-53.948h135.114
						c3.993,17.056,6.015,35.165,6.015,53.948c0,30.806-9.19,62.353-25.88,88.829c-13.559,21.511-31.156,38.113-47.692,45.163
						C166.731,246.736,149.134,230.134,135.574,208.623z M183.268,437.901c-26.344,0-41.598-7.305-44.384-10.833
						c2.412-3.054,14.176-8.937,34.384-10.462v1.628c0,5.523,4.478,10,10,10s10-4.477,10-10v-1.628
						c20.209,1.525,31.972,7.408,34.384,10.462C224.865,430.596,209.612,437.901,183.268,437.901z"/>
				</g>
			</g>
		</g>
		<g>
			<g>
				<g>
					<path d="M422.257,97.179c-0.092-4.422-3.132-8.236-7.423-9.312l-136.095-34.1c1.798,6.972,3.302,14.095,4.503,21.352
						l119.42,29.922c-0.267,17.181-2.661,34.893-7.138,52.763c-7.345,29.311-23.61,57.136-45.801,78.348
						c-18.029,17.234-38.73,28.835-56.144,31.6c-13.188-9.993-25.257-28.212-33.116-50c-1.33,2.318-2.701,4.611-4.124,6.868
						c-2.85,4.521-5.841,8.85-8.947,12.977c8.541,18.681,19.831,34.146,32.517,44.359l-29.885,119.27
						c-2.874-0.522-5.726-0.952-8.532-1.286c10.574,6.946,16.418,16.223,16.418,27.128c0,2.288-0.271,4.463-0.744,6.547
						c3.21-0.957,5.851-3.527,6.724-7.013l0.388-1.549c18.811,6.251,28.599,14.622,30.208,18.121
						c-1.587,1.113-6.783,3.363-17.853,3.363c-7.328,0-15.537-0.999-23.91-2.89c-4.304,6.206-11.053,11.151-19.319,14.92
						c3.788,1.286,7.65,2.424,11.516,3.393c10.951,2.744,21.918,4.194,31.714,4.194c28.365,0,35.445-11.353,37.142-18.119
						c1.382-5.515,1.192-16.519-15.612-28.258c-7.73-5.4-17.844-10.167-29.107-13.791l29.884-119.263
						c20.92-3.955,43.978-16.926,64.341-36.391c24.832-23.737,43.041-54.905,51.274-87.761
						C420.104,140.414,422.696,118.413,422.257,97.179z"/>
				</g>
			</g>
		</g>
	</g>
</g>
</svg>
