<?xml version="1.0" encoding="utf-8"?>
<!-- Generator: Adobe Illustrator 17.0.0, SVG Export Plug-In . SVG Version: 6.00 Build 0)  -->
<!DOCTYPE svg PUBLIC "-//W3C//DTD SVG 1.1//EN" "http://www.w3.org/Graphics/SVG/1.1/DTD/svg11.dtd">
<svg version="1.1" id="Capa_1" xmlns="http://www.w3.org/2000/svg" xmlns:xlink="http://www.w3.org/1999/xlink" x="0px" y="0px"
	 width="34.721px" height="29.547px" viewBox="0 0 34.721 29.547" enable-background="new 0 0 34.721 29.547" xml:space="preserve">
<path d="M34.534,24.31c-4.781-1.493-4.063-4.301-4.03-4.42l0.101-0.365l-0.362,0.112c-2,0.616-2.741,0.36-3.01,0.036
	c-0.404-0.487-0.024-1.482,0.155-1.824l0.312-0.592l-0.591,0.312c-0.512,0.271-0.993,0.476-1.434,0.612
	c-0.981,0.304-1.771,0.267-2.342-0.109c-0.796-0.52-0.921-1.537-0.921-1.546l-0.398-0.055c-0.307,0.764-1.033,1.331-2.151,1.689
	c-0.014-0.008-0.827,0.216-1.031,0.251c-0.361-3.578,1.936-5.479,2.052-5.572l0.355-0.285L20.8,12.429
	c-0.69-0.196-1.228-0.472-1.601-0.823c-1.496-1.407,0.122-3.734,0.139-3.756l0.256-0.363L19.15,7.48
	c-1.105-0.021-1.916-0.27-2.409-0.735c-1.016-0.958-0.377-2.606-0.37-2.623l0.275-0.695l-0.623,0.411
	c-0.718,0.473-1.355,0.431-1.949-0.126c-0.975-0.921-1.505-2.913-1.646-3.503L12.382,0l-0.46,0.1c0,0,0.016,0.078,0.048,0.214
	c1.202,5.552-1.968,6.417-2.105,6.451L9.448,6.872L9.76,7.164c1.731,1.63,1.891,2.504,1.722,2.949
	c-0.252,0.672-1.445,0.854-1.885,0.868l-0.759,0.025l0.641,0.408c0.552,0.354,1.024,0.713,1.404,1.071
	c0.848,0.799,1.255,1.598,1.204,2.373c-0.065,1.076-1,1.768-1.008,1.776l0.167,0.421c0.946-0.125,1.932,0.289,2.934,1.23
	c0.106,0.101,0.209,0.205,0.311,0.312c-2.455,0.082-3.908-1.351-3.987-1.432l-0.283-0.286l-0.07,0.396
	c-0.11,0.623-0.304,1.12-0.579,1.476c-1.103,1.439-3.285,0.226-3.307,0.213l-0.341-0.191l0.032,0.39
	c0.079,0.971-0.067,1.704-0.429,2.178c-0.75,0.977-2.253,0.563-2.269,0.557L2.626,21.72l0.416,0.51
	c0.478,0.588,0.498,1.15,0.063,1.719c-0.722,0.937-2.421,1.582-2.926,1.756c0,0-0.179,0.059-0.179,0.059l0.127,0.396
	c0,0,0.066-0.022,0.184-0.062c4.763-1.55,5.805,1.154,5.847,1.27l0.129,0.356l0.229-0.3c1.274-1.662,2.026-1.882,2.433-1.772
	c0.61,0.163,0.879,1.192,0.931,1.576l0.088,0.664l0.302-0.599c0.259-0.518,0.533-0.961,0.814-1.326
	c0.624-0.816,1.289-1.244,1.973-1.27c0.948-0.036,1.64,0.721,1.647,0.728l0.355-0.185c-0.195-0.819,0.08-1.72,0.818-2.683
	c0.229-0.297,0.486-0.58,0.752-0.841c0.166,4.13,2.049,7.831,2.049,7.831c-0.311-0.42,1.323-0.588,1.323-0.588
	c-3.538-1.854-2.502-7.258-2.502-7.258c-0.004,0.162,1.139,0.666,1.302,0.629c1.899,1.351,2.235,3.251,2.253,3.362l0.064,0.396
	l0.286-0.281c0.451-0.445,0.896-0.736,1.328-0.87c1.731-0.533,2.809,1.719,2.818,1.741l0.167,0.354l0.199-0.337
	c0.499-0.836,1.041-1.35,1.612-1.526c1.177-0.364,2.162,0.846,2.171,0.858l0.412,0.512l-0.043-0.655
	c-0.049-0.757,0.259-1.228,0.945-1.438c1.131-0.346,2.89,0.113,3.402,0.263l0.181,0.054l0.125-0.395
	C34.721,24.368,34.653,24.345,34.534,24.31z M20.568,20.836c-0.315,0.84-1.275,1.257-2.141,0.933
	c-0.781-0.293-1.219-1.088-1.068-1.857c-0.147,0.049-0.301,0.08-0.458,0.086c0.137,0.355,0.15,0.756,0.008,1.135
	c-0.316,0.84-1.274,1.257-2.142,0.931c-0.869-0.326-1.316-1.271-0.999-2.113c0.231-0.618,0.812-1.006,1.45-1.04
	c-0.136-0.355-0.15-0.755-0.008-1.132c0.316-0.841,1.275-1.258,2.143-0.932c0.779,0.293,1.217,1.089,1.067,1.857
	c0.358-0.122,0.762-0.125,1.15,0.021C20.436,19.049,20.884,19.996,20.568,20.836z M18.419,18.704
	c-0.017,0.086-0.039,0.17-0.07,0.255c-0.176,0.465-0.547,0.8-0.992,0.953c0.016-0.086,0.037-0.171,0.069-0.255
	C17.602,19.19,17.974,18.856,18.419,18.704z M16.899,19.998c-0.228,0.011-0.463-0.021-0.692-0.107
	c-0.476-0.179-0.824-0.546-0.99-0.979c0.228-0.011,0.462,0.022,0.692,0.107C16.386,19.198,16.733,19.565,16.899,19.998z"/>
</svg>
