<?xml version="1.0" encoding="utf-8"?>
<!-- Generator: Adobe Illustrator 17.0.0, SVG Export Plug-In . SVG Version: 6.00 Build 0)  -->
<!DOCTYPE svg PUBLIC "-//W3C//DTD SVG 1.1//EN" "http://www.w3.org/Graphics/SVG/1.1/DTD/svg11.dtd">
<svg version="1.1" id="Capa_1" xmlns="http://www.w3.org/2000/svg" xmlns:xlink="http://www.w3.org/1999/xlink" x="0px" y="0px"
	 width="26.36px" height="27.729px" viewBox="0 0 26.36 27.729" enable-background="new 0 0 26.36 27.729" xml:space="preserve">
<path d="M20.794,10.152c-2.439-1.04-5.077-0.937-7.323,0.064l-1.256-1.391c1.457-0.163,2.836-0.686,4.074-1.901
	c0.482-0.474-0.357-1.717-0.911-1.174c-1.215,1.192-2.629,1.647-4.144,1.742c0.137-1.767-0.042-3.537-0.861-5.125
	c-0.75-1.455-2.291-2.575-3.977-2.335C4.969,0.236,4.162,1.569,4.447,2.938C4.867,4.945,6.7,6.344,8.5,7.365
	C5.758,7.021,2.89,6.25,0.382,6.91c-0.344,0.092-0.45,0.44-0.341,0.767c0.851,2.527,2.805,4.575,5.568,4.798
	c1.405,0.111,2.525-0.4,3.364-1.249c0.094,0.075,0.188,0.152,0.284,0.232L8.001,12.59l1.275,1.411
	c-0.181,0.314-0.347,0.641-0.492,0.982c-1.983,4.65,0.179,10.027,4.83,12.009c4.65,1.982,10.028-0.178,12.01-4.831
	C27.607,17.513,25.445,12.135,20.794,10.152z M1.394,8.208c1.859-0.337,3.825-0.036,5.777,0.268C6.783,8.645,6.936,9.29,7.142,9.559
	c0.18,0.234,0.374,0.442,0.578,0.635C5.722,11.642,2.692,10.969,1.394,8.208z M14.463,12.518c0.111-0.231,0.262-0.54,0.37-0.773
	c0.159,0.18,0.367,0.419,0.511,0.609c0.313-0.021,0.73-0.046,1.045-0.06c-0.222,0.233-0.518,0.544-0.745,0.772
	c0.049,0.283,0.111,0.662,0.149,0.946c-0.264-0.124-0.617-0.287-0.882-0.405c-0.261,0.131-0.607,0.305-0.87,0.427
	c0.055-0.244,0.127-0.571,0.179-0.816c-0.202-0.132-0.47-0.31-0.679-0.43C13.816,12.71,14.188,12.602,14.463,12.518z M11.063,8.884
	c0.37,0.001,0.735-0.016,1.101-0.053l-1.316,1.187C10.93,9.644,11.002,9.266,11.063,8.884z M5.63,3.187
	C5.283,2.239,6.101,1.561,6.961,1.438c2.771-0.394,3.227,2.548,3.041,5.336C8.437,5.999,6.261,4.924,5.63,3.187z M10.541,15.978
	c-0.04-0.23-0.071-0.542-0.077-0.777c0.456-0.017,0.493-0.02,0.771-0.041c0.226-0.227,0.529-0.533,0.758-0.762
	c-0.053,0.242-0.105,0.57-0.125,0.817c0.422,0.11,0.448,0.116,0.719,0.17c-0.231,0.215-0.639,0.418-0.787,0.701
	c-0.031,0.339-0.076,0.789-0.096,1.129c-0.529-0.384-0.538-0.393-0.771-0.602c-0.693,0.287-0.705,0.291-1.097,0.438
	C10.042,16.728,10.324,16.295,10.541,15.978z M11.053,21.834c-0.034-0.288-0.078-0.673-0.119-0.961
	c-0.248-0.153-0.579-0.357-0.82-0.515c0.236-0.083,0.552-0.193,0.787-0.278c0.006-0.243,0.018-0.563,0.009-0.802
	c0.213,0.191,0.498,0.45,0.713,0.64c0.258-0.025,0.599-0.06,0.854-0.09c-0.069,0.229-0.161,0.532-0.248,0.755
	c0.182,0.255,0.423,0.597,0.6,0.854c-0.315-0.065-0.736-0.153-1.048-0.227C11.565,21.401,11.274,21.653,11.053,21.834z
	 M15.041,24.747c-0.134,0.344-0.14,0.358-0.19,0.532c-0.302-0.021-0.698-0.134-1-0.131c-0.425,0.09-0.994,0.2-1.424,0.269
	c0.239-0.217,0.481-0.433,0.722-0.647c-0.354-0.422-0.36-0.429-0.518-0.711c0.408,0.05,0.955,0.104,1.364,0.127
	c0.335-0.187,0.78-0.434,1.115-0.622c-0.014,0.433-0.014,0.447,0.007,0.665c0.351-0.005,0.813-0.027,1.158-0.066
	C15.908,24.341,15.412,24.576,15.041,24.747z M16.833,18.909c-0.223,0.241-0.516,0.563-0.739,0.804
	c-0.09-0.323-0.209-0.753-0.307-1.076c-0.352-0.13-0.824-0.301-1.178-0.424c0.307-0.165,0.716-0.388,1.025-0.552
	c-0.004-0.332-0.012-0.773-0.02-1.106c0.3,0.229,0.699,0.531,0.994,0.763c0.338-0.065,0.788-0.15,1.126-0.214
	c-0.113,0.302-0.27,0.702-0.391,0.998c0.194,0.295,0.454,0.687,0.64,0.985C17.639,19.032,17.179,18.957,16.833,18.909z
	 M18.219,11.132c0.323,0.253,0.753,0.593,1.069,0.851c0.367-0.03,0.383-0.031,0.562-0.063c0.113,0.281,0.188,0.685,0.323,0.956
	c0.267,0.342,0.616,0.805,0.868,1.16c-0.301-0.121-0.6-0.24-0.898-0.363c-0.223,0.505-0.228,0.515-0.41,0.779
	c-0.137-0.39-0.328-0.902-0.489-1.282c-0.315-0.216-0.733-0.506-1.047-0.726c0.392-0.178,0.406-0.184,0.592-0.299
	C18.629,11.832,18.407,11.427,18.219,11.132z M21.064,25.27c-0.135,0.344-0.14,0.359-0.191,0.533
	c-0.3-0.022-0.697-0.134-0.998-0.132c-0.426,0.09-0.995,0.201-1.424,0.27c0.238-0.217,0.479-0.434,0.72-0.648
	c-0.353-0.422-0.36-0.43-0.518-0.709c0.409,0.048,0.955,0.103,1.366,0.125c0.333-0.186,0.779-0.435,1.113-0.62
	c-0.012,0.43-0.012,0.446,0.01,0.662c0.348-0.004,0.811-0.026,1.158-0.066C21.932,24.864,21.437,25.098,21.064,25.27z
	 M21.978,20.398c-0.099,0.328-0.233,0.766-0.336,1.095c-0.212-0.242-0.493-0.565-0.699-0.812c-0.351,0.035-0.818,0.081-1.169,0.106
	c0.21-0.28,0.49-0.652,0.695-0.934c-0.111-0.309-0.258-0.721-0.368-1.031c0.33,0.072,0.765,0.168,1.095,0.233
	c0.279-0.253,0.651-0.589,0.926-0.845c0.003,0.348,0.009,0.816,0.009,1.165c0.295,0.151,0.689,0.352,0.987,0.5
	C22.775,20.033,22.321,20.246,21.978,20.398z M24.148,16.906c-0.438,0.335-0.447,0.34-0.733,0.486
	c0.066-0.407,0.146-0.949,0.187-1.359c-0.17-0.341-0.397-0.797-0.567-1.14c0.43,0.031,0.445,0.033,0.663,0.021
	c0.012-0.35,0.012-0.813-0.013-1.16c0.163,0.376,0.375,0.881,0.527,1.26c0.338,0.151,0.353,0.157,0.524,0.216
	c-0.035,0.3-0.167,0.691-0.178,0.993c0.068,0.428,0.153,1.003,0.202,1.434C24.555,17.407,24.35,17.157,24.148,16.906z"/>
</svg>
