<?xml version="1.0"?><svg width="640" height="480" xmlns="http://www.w3.org/2000/svg">
 <metadata id="metadata7">image/svg+xml</metadata>
 <g>
  <title>Layer 1</title>
  <g id="layer1">
   <path fill="#007f3f" id="path2652" d="m118.898926,34l-0.125,2.4375c-0.054565,1.341209 -0.167114,5.38575 -0.25,9l-0.125,6.562492l-3.6875,-3.8125c-4.26355,-4.437401 -4.831665,-4.614563 -4.8125,-1.562492c0.007751,1.237488 1.746094,4.143509 3.84375,6.468742c3.359375,3.723946 3.831116,4.897476 4.03125,9.84375c0.151062,3.734337 -0.14209,5.40242 -0.84375,4.96875c-0.580383,-0.35865 -1.03125,-1.301201 -1.03125,-2.09375c0,-0.792534 -0.450012,-1.4375 -1,-1.4375c-0.550049,0 -1,-1.74234 -1,-3.875c0,-4.438385 -2.517761,-7.5401 -4.09375,-5.0625c-0.502319,0.78965 -0.710022,1.965515 -0.46875,2.625c0.532776,1.456757 -2.345215,0.507156 -4.28125,-1.40625c-0.726807,-0.718269 -1.898193,-1.28125 -2.625,-1.28125c-2.704651,0 -2.261658,2.820976 1.03125,6.59375c3.916626,4.48748 4.128479,5.383286 1.53125,6.0625c-1.276123,0.33371 -1.713989,1.109909 -1.375,2.40625c0.562683,2.15168 3.245972,2.535309 5.0625,0.71875c1.361389,-1.36142 1.395996,-1.289871 1.625,2.46875c0.19104,3.136909 0.017517,3.20723 -3.40625,1.25c-3.352112,-1.916245 -4,-1.868263 -4,0.40625c0,1.06015 1.462524,3.06958 3.25,4.468758c2.438538,1.908791 2.709717,2.414215 1.125,2c-1.3797,-0.360611 -2.322571,-0.001221 -2.71875,1.03125c-0.860962,2.243546 -1.557373,2.057976 -8.21875,-2.28125c-3.269287,-2.129608 -6.437317,-3.696297 -7.03125,-3.468758c-2.081787,0.7976 -0.760071,4.613907 2.15625,6.218758l2.9375,1.59375l-2.6875,0.3125c-1.465942,0.175034 -2.900696,0.940056 -3.1875,1.6875c-0.561035,1.46196 1.939209,2.894699 3.4375,1.96875c0.500366,-0.309235 0.9375,-0.082466 0.9375,0.5c0,0.582458 0.787476,1.081573 1.75,1.125c1.270813,0.05732 1.359863,0.222595 0.34375,0.625c-1.06012,0.41983 -0.851624,0.98658 0.90625,2.3125l2.34375,1.75l-4.1875,0.71875c-4.308228,0.727859 -5.289673,2.335106 -2.71875,4.46875c0.968811,0.804039 1.991028,0.884605 3.125,0.25c1.885986,-1.055466 5.4375,-0.465355 5.4375,0.90625c0,0.485855 0.900024,0.90625 2,0.90625c1.099976,0 2,-0.450005 2,-1c0,-0.550011 1.012512,-0.987061 2.25,-0.96875l2.25,0.03125l-2.46875,2.03125c-1.917969,1.596245 -2.156677,2.218071 -1.09375,2.875c1.501038,0.927704 4.092896,0.24939 5.375,-1.40625c0.463867,-0.59903 0.584961,0.152161 0.25,1.6875c-0.499634,2.29007 -0.275146,2.75 1.40625,2.75c1.110474,0 2.050293,-0.5625 2.09375,-1.25c0.053833,-0.853035 0.246338,-0.800095 0.625,0.15625c0.404968,1.022949 0.910156,0.744484 1.84375,-1l1.28125,-2.40625l1.25,2.75c0.687256,1.508469 0.932556,3.06739 0.53125,3.46875c-0.401367,0.40136 -3.986267,0.892639 -7.96875,1.09375c-6.663696,0.336494 -7.629578,0.135216 -12.03125,-2.65625c-4.382751,-2.779465 -7.59375,-3.244171 -7.59375,-1.09375c0,0.473579 1.237488,1.576996 2.75,2.4375l2.75,1.5625l-3.5,-0.65625c-3.462036,-0.63356 -9.286438,-3.633492 -11.84375,-6.125c-0.726807,-0.708084 -2.189331,-1.28125 -3.25,-1.28125c-2.037842,0 -2.566223,1.933769 -0.96875,3.53125c0.599976,0.600006 -0.937134,1.083939 -4.1875,1.28125c-2.830566,0.171814 -5.526794,0.539375 -5.96875,0.8125c-3.288147,2.032166 4.814331,5.722679 10.6875,4.875l4.03125,-0.5625l-2.8125,1.59375c-1.702942,0.9664 -2.703369,2.259804 -2.5,3.281242c0.486694,2.44487 4.807373,1.625603 7.5625,-1.4375c1.282104,-1.425423 3.015869,-2.359238 4,-2.124992c1.380005,0.328461 1.201355,0.660744 -0.90625,1.531242c-3.405273,1.406479 -4.438538,3.051903 -2.375,3.84375c0.891479,0.342087 1.396851,1.197739 1.125,1.90625c-0.271912,0.708511 0.178467,1.540489 0.96875,1.84375c0.790283,0.303253 1.4375,0.15609 1.4375,-0.3125c0,-0.817467 3.231262,-2.218369 5.65625,-2.46875c0.637939,-0.065872 2.100403,-0.990898 3.25,-2.03125c1.149536,-1.040352 2.09375,-1.555779 2.09375,-1.15625c0,1.038033 -2.185364,3.07946 -4.78125,4.46875c-1.226135,0.656212 -2.21875,1.639587 -2.21875,2.1875c0,1.886208 3.078979,2.178963 4.96875,0.46875c1.804199,-1.63279 1.865112,-1.618713 1.34375,0.375c-0.763062,2.91787 1.283752,2.627541 3.3125,-0.46875c1.268982,-1.936752 1.891174,-2.240952 2.53125,-1.25c0.694885,1.075928 0.979065,1.066467 1.6875,-0.03125c0.474243,-0.734901 1.711731,-1.225677 2.75,-1.09375c4.034912,0.512718 9.339417,-3.093773 9.5,-6.46875c0.086609,-1.820534 0.185974,-1.766212 0.8125,0.40625c0.595215,2.063988 0.104187,3.065468 -2.84375,5.71875c-1.963928,1.76757 -6.346313,4.672813 -9.75,6.468758l-6.1875,3.25l-4.8125,-2.40625c-2.646301,-1.321686 -5.375,-2.494339 -6.0625,-2.625008c-1.784485,-0.339149 -1.543701,1.592522 0.5,4.000008c1.574646,1.854904 1.566406,1.905426 0.03125,0.71875c-0.938416,-0.725372 -2.086487,-1.075455 -2.5625,-0.78125c-0.476013,0.294189 -2.120361,-0.109406 -3.65625,-0.90625c-3.683289,-1.910904 -4.832275,-1.817009 -4.15625,0.3125c0.44812,1.411774 -0.022278,1.728027 -2.4375,1.65625c-1.646606,-0.04895 -3.227539,-0.352509 -3.53125,-0.65625c-1.217468,-1.217438 -4.4375,0.575302 -4.4375,2.46875c0,1.537003 0.486023,1.889175 2.09375,1.46875c2.007446,-0.524963 2.020142,-0.477417 0.34375,1.375c-1.810242,2.000275 -1.513306,2.275757 2.28125,1.96875c1.744263,-0.141144 2.106018,0.196259 1.59375,1.53125c-0.540466,1.408371 -0.195557,1.645813 1.875,1.25c2.069519,-0.39563 2.424316,-0.159225 2.03125,1.34375c-0.534302,2.043167 0.099121,2.263397 2.59375,0.9375c2.451721,-1.303131 5.546997,2.835739 3.53125,4.718735c-1.127869,1.053619 -1.469971,1.011902 -1.90625,-0.125c-0.299194,-0.779587 -2.071045,-1.4263 -4.03125,-1.5c-1.922668,-0.072266 -3.267212,0.267212 -2.96875,0.75c0.298401,0.482819 -0.336792,0.631607 -1.4375,0.34375c-2.525513,-0.660416 -2.603638,0.858337 -0.125,2.40625c1.312012,0.819397 1.718811,1.920212 1.375,3.71875c-0.604858,3.164124 -0.757202,3.190521 -4.4375,0.09375c-1.634094,-1.375 -3.623474,-2.5 -4.40625,-2.5c-1.676086,0 -1.761414,0.490829 -0.46875,2.90625c1.049377,1.960831 0.391052,2.008041 -7.1875,0.5625c-2.469727,-0.471069 -3.75,-0.339966 -3.75,0.375c0,1.294693 5.192505,4.15625 7.5625,4.15625c1.367004,0 1.447205,0.252121 0.4375,1.46875c-0.99353,1.197113 -0.958435,1.610794 0.21875,2.0625c0.804871,0.308868 1.880432,0.467499 2.375,0.375c2.088806,-0.39061 3.389771,0.176254 3.15625,1.34375c-0.153503,0.767441 0.811646,1.221695 2.5,1.1875c2.115967,-0.042847 2.755676,0.418289 2.78125,2c0.031921,1.974457 0.111023,1.954971 2,-0.3125c1.561218,-1.874023 1.96875,-2.013 1.96875,-0.6875c0,0.918396 0.448914,1.403061 1,1.0625c0.551025,-0.340546 1.42804,0.546585 1.96875,1.96875c0.54071,1.422195 1.666748,2.836517 2.5,3.15625c0.833252,0.319763 1.53125,1.202606 1.53125,1.96875c0,0.766159 0.723145,1.40625 1.625,1.40625c0.901855,0 2.207764,0.76358 2.90625,1.71875c1.197083,1.637161 1.418884,1.622849 3.625,-0.25l2.34375,-1.96875l-1.78125,2.09375c-1.076416,1.278214 -4.411377,2.732986 -8.625,3.75c-8.806641,2.125595 -10.933899,2.058884 -14.53125,-0.3125c-3.332031,-2.196457 -4.957764,-1.789429 -4.0625,1.03125c0.502625,1.58374 0.1203,1.9375 -2.25,1.9375c-1.577087,0 -3.322937,-0.447937 -3.875,-1c-0.671692,-0.671646 -1.643555,-0.539917 -2.9375,0.40625c-1.856628,1.357605 -1.811584,1.483582 1.28125,3.25c2.331604,1.33168 3.069885,2.343262 2.65625,3.65625c-0.368591,1.170029 -0.081543,1.742691 0.78125,1.625c2.895386,-0.394913 4.01825,0.099274 3.46875,1.53125c-0.959412,2.500122 2.691284,3.692566 5.46875,1.78125c1.82196,-1.253769 2.091309,-1.313293 1.1875,-0.1875c-1.688843,2.103683 -0.065063,4.302734 2.5625,3.46875c3.786926,-1.20192 4.807495,0.720779 1.09375,2.0625c-4.770447,1.723511 -9.529114,1.689651 -11.3125,-0.09375c-1.972595,-1.972595 -5.035522,-1.996826 -4.28125,-0.03125c0.466736,1.216324 -0.229797,1.378922 -3.90625,0.875c-5.380066,-0.737411 -6.053955,0.925125 -1.09375,2.71875c2.405823,0.86998 3.257019,1.715668 2.9375,2.9375c-0.533997,2.041962 2.624329,3.176956 5.0625,1.8125c1.326416,-0.74231 1.65625,-0.452759 1.65625,1.53125c0,2.02742 0.366028,2.374405 2.15625,1.90625c1.768616,-0.462494 2.026184,-0.265167 1.46875,1.1875c-0.546448,1.424042 -0.26709,1.702484 1.34375,1.28125c1.108154,-0.289795 2.03125,-0.123505 2.03125,0.375c0,1.752335 2.115234,0.873962 4.78125,-1.96875c3.211243,-3.424118 5.112244,-4.180725 7.46875,-2.96875c2.739075,1.408783 2.054321,2.54747 -1.25,2.0625c-3.44397,-0.505447 -3.951599,1.017761 -1.46875,4.5625c1.452026,2.073105 1.445557,2.21875 -0.40625,2.21875c-1.091919,0 -2.675049,0.675003 -3.5,1.5c-0.825012,0.825012 -2.168152,1.5 -3,1.5c-0.831848,0 -1.775269,0.422134 -2.09375,0.9375c-0.318542,0.515381 -2.331055,0.90451 -4.46875,0.875c-2.137695,-0.029495 -4.469666,0.30632 -5.1875,0.75c-0.717896,0.443695 -2.763062,0.712845 -4.53125,0.59375c-2.662659,-0.179306 -3.263733,0.177124 -3.53125,2.0625c-0.232422,1.637863 -1.013794,2.296997 -2.8125,2.375c-1.375,0.059647 -2.950012,0.23381 -3.5,0.375c-0.549988,0.141205 -1.787476,0.1604 -2.75,0.0625c-0.962524,-0.0979 -1.75,0.221527 -1.75,0.6875c0,1.325684 5.534119,4.28125 8.03125,4.28125c2.187317,0 2.227783,0.056305 0.46875,2c-1.766296,1.951721 -1.747803,2 0.8125,2c1.959412,0 2.475647,0.373032 2.03125,1.53125c-0.485107,1.264145 -0.063538,1.428513 2.28125,0.875c1.582031,-0.373459 3.099976,-0.661621 3.375,-0.65625c3.118652,0.061111 3.843628,0.403732 3.375,1.625c-1.044373,2.721588 1.545837,2.645294 3.03125,-0.09375c1.414001,-2.607407 1.493713,-2.6418 1.53125,-0.53125c0.022034,1.237503 0.400024,2.283463 0.8125,2.34375c6.110291,0.893143 7.112732,0.596954 8.34375,-2.375l1.25,-3l0.875,2.375l0.875,2.40625l1.9375,-2.5c1.917969,-2.49649 1.915222,-2.499359 1.9375,-0.25c0.029968,3.034332 1.812683,2.861969 2.59375,-0.25c0.345093,-1.375 1.070923,-2.5 1.59375,-2.5c0.522827,0 0.626282,0.484955 0.25,1.09375c-0.478027,0.773422 0.296204,0.904022 2.5625,0.40625c2.406311,-0.528503 3.156677,-0.407471 2.84375,0.53125c-0.614441,1.843246 -6.877563,4.96875 -9.96875,4.96875c-1.46228,0 -2.861389,0.5625 -3.125,1.25c-0.294617,0.768356 -2.249207,1.205414 -5.09375,1.15625c-2.545227,-0.043976 -4.625,0.270309 -4.625,0.6875c0,1.924652 3.470825,4.006989 6.21875,3.71875c1.632935,-0.17128 3.043518,0.083344 3.125,0.59375c0.265808,1.665527 -5.596985,2.602295 -19.84375,3.15625c-16.055176,0.624313 -22.5,1.327438 -22.5,2.406265c0,0.415955 -1.125,0.544067 -2.5,0.28125c-1.420105,-0.271484 -2.5,-0.020508 -2.5,0.59375c0,1.401733 3.267029,3.15625 5.90625,3.15625c1.136169,0 2.09375,0.450012 2.09375,1c0,0.549988 -0.489502,1 -1.0625,1c-0.572998,0 -2.035522,0.929199 -3.25,2.09375l-2.1875,2.125l3.25,-0.4375c2.14978,-0.293793 3.25,-0.034485 3.25,0.78125c0,0.740845 0.798462,1.032959 2,0.71875c1.118164,-0.292419 2,-0.030579 2,0.59375c0,1.61499 2.543823,1.379547 4,-0.375c0.684692,-0.825012 1.682068,-1.5 2.25,-1.5c0.567871,0 0.316528,0.806702 -0.59375,1.8125c-0.910278,1.005798 -1.65625,2.130798 -1.65625,2.5c0,1.059906 3.813965,0.797516 4.5,-0.3125c0.98999,-1.601868 2.314331,-1.1604 3,1c0.802979,2.53006 1.944153,2.513977 5.5625,-0.0625l2.90625,-2.0625l-0.625,3.0625c-0.753052,3.765106 1.064148,4.069275 5.125,0.875c2.667664,-2.098389 2.742554,-2.096436 1.6875,-0.125c-1.24231,2.321198 -0.644592,3.42395 1.4375,2.625c0.778198,-0.298645 2.088257,0.008606 2.90625,0.6875c1.033203,0.857483 1.5,0.904785 1.5,0.125c0,-0.61734 0.674988,-1.125 1.5,-1.125c0.825012,0 1.5,0.618774 1.5,1.40625c0,0.970764 0.885437,1.336151 2.75,1.125c10.409668,-1.178772 -3.053894,4.874512 -15.15625,6.8125c-7.912109,1.266968 -8.705994,1.218628 -11.3125,-0.5c-1.540466,-1.015747 -3.34375,-1.840118 -4.03125,-1.84375c-2.06842,-0.010895 -1.408142,1.99118 1,3.03125c1.652039,0.713501 1.054138,0.789856 -2.25,0.28125c-2.475037,-0.380981 -5.625,-0.631104 -7,-0.5625c-1.375,0.068604 -4.731506,-0.524567 -7.4375,-1.3125c-2.706055,-0.787964 -5.070679,-1.304291 -5.25,-1.125c-1.043396,1.043365 5.358704,5.166962 8.9375,5.75l4.25,0.6875l-3.75,0.125c-2.611084,0.087128 -3.75,0.580597 -3.75,1.625c0,0.824982 0.787476,1.572479 1.75,1.65625c0.962463,0.083771 2.200012,0.247223 2.75,0.375c0.549988,0.127777 1.644836,0.280304 2.4375,0.34375c1.060547,0.084869 0.927368,0.487518 -0.5,1.53125c-2.471191,1.806946 -1.297607,3.105499 1.46875,1.625c1.721191,-0.921173 2.09375,-0.825958 2.09375,0.53125c0,1.282501 0.715515,1.543884 3.25,1.1875c1.787476,-0.251373 4.150024,-0.783813 5.25,-1.1875c1.971436,-0.723541 1.94458,-0.715302 0.03125,0.84375c-1.948669,1.587738 -1.531067,1.955566 1.71875,1.625c0.996094,-0.101349 1.75,0.516663 1.75,1.40625c0,2.138977 0.809692,1.962311 3.1875,-0.6875l2.03125,-2.25l-1.625,2.71875c-0.884766,1.493134 -1.59375,3.169891 -1.59375,3.75c0,1.545868 4.905762,0.404541 7.25,-1.6875c1.9646,-1.753265 1.979492,-1.720764 1.21875,0.71875c-1.057129,3.389862 -2.28479,4.106079 -11.5,6.875c-7.654602,2.299988 -8.116455,2.328644 -12.25,0.75c-4.505737,-1.720764 -10.71875,-2.211273 -10.71875,-0.84375c0,0.440002 0.523193,1.366943 1.1875,2.03125c0.812073,0.812073 -0.524841,0.684875 -4.09375,-0.375c-2.919434,-0.866974 -5.991516,-1.327026 -6.84375,-1c-1.306946,0.501526 -1.188721,0.998779 0.75,3.0625l2.28125,2.4375l-3.375,-0.96875c-4.350464,-1.247711 -9.636047,-1.246155 -10.40625,0c-0.794922,1.286194 5.892761,4.024963 9.84375,4.03125l3.15625,0l-2.9375,2.34375c-2.899597,2.320129 -2.871826,5.364014 0.03125,4.25c0.965637,-0.370575 1.40625,0.233337 1.40625,1.9375c0,1.771484 0.522278,2.46875 1.90625,2.46875c1.06073,0 2.625732,0.688263 3.46875,1.53125c1.272461,1.27243 1.869873,1.307037 3.5625,0.25c1.121277,-0.700287 2.0625,-1.613556 2.0625,-2.03125c0,-0.417694 0.788208,0.037506 1.78125,1c1.914795,1.855896 2.460449,4.25 0.96875,4.25c-0.490784,0 -0.563782,0.484955 -0.1875,1.09375c0.475586,0.769592 -0.264832,0.914703 -2.4375,0.4375c-1.994019,-0.437958 -3.125,-0.313782 -3.125,0.375c0,0.612671 -1.945862,1.09375 -4.5,1.09375c-4.686218,0 -5.57074,0.866486 -3,3c1.001465,0.831146 3.117126,1.051666 6.25,0.65625l4.75,-0.59375l-3.71875,1.96875c-2.582458,1.369171 -3.538574,2.45343 -3.125,3.53125c0.371887,0.969086 1.205933,1.294189 2.21875,0.875c0.891541,-0.369019 2.299988,-0.772614 3.125,-0.90625c0.825012,-0.133667 0.9375,-0.048889 0.25,0.1875c-2.532959,0.870911 -1.224792,2.476685 1.5,1.84375c1.968018,-0.457153 2.333923,-0.354706 1.28125,0.34375c-2.645569,1.75528 -0.296021,2.264771 2.875,0.625c1.701111,-0.8797 3.09375,-1.17453 3.09375,-0.65625c0,0.51828 -0.5625,1.160706 -1.25,1.40625c-0.6875,0.245544 -0.902222,0.818298 -0.46875,1.28125c0.433472,0.462952 2.068787,0.349152 3.65625,-0.25c2.364319,-0.892426 2.813782,-0.831024 2.375,0.3125c-0.386108,1.006226 -0.029236,1.19342 1.3125,0.71875c1.560425,-0.552063 1.659973,-0.421326 0.5625,0.75c-1.022949,1.091736 -4.466187,1.353455 -15.75,1.1875c-8.731201,-0.128418 -14.4375,0.168152 -14.4375,0.75c0,0.529297 0.698242,0.96875 1.5625,0.96875c0.864258,0 2.197205,0.634644 2.96875,1.40625c1.203796,1.203827 1.179016,1.487579 -0.15625,2c-0.855835,0.3284 -2.976257,0.585327 -4.71875,0.59375c-3.674011,0.017761 -6.19574,1.320923 -5.3125,2.75c1.091064,1.765411 6.053772,2.086365 10.15625,0.65625c5.469482,-1.906677 5.765686,-1.796967 2.9375,1.03125c-3.52655,3.526489 -3.269592,5.652557 0.53125,4.5625c1.63208,-0.468079 3.432068,-1.149017 4,-1.5c0.567871,-0.350983 1.072449,0.192535 1.15625,1.1875c0.08374,0.994965 0.220459,2.320038 0.28125,2.96875c0.06073,0.648682 0.413818,1.507599 0.78125,1.875c0.788208,0.788239 6.8125,-2.584015 6.8125,-3.8125c0,-0.463898 0.408508,-0.576935 0.9375,-0.25c0.615723,0.380524 0.615723,1.505524 0,3.125c-0.528992,1.391327 -0.9375,2.979584 -0.9375,3.53125c0,1.321747 4.725647,-2.099884 9.46875,-6.84375c3.538086,-3.538696 4.043945,-2.933868 0.75,0.90625c-0.808044,0.942017 -1.168579,2.478394 -0.8125,3.40625c0.575134,1.49881 0.904907,1.4133 3.1875,-0.71875l2.59375,-2.375l-0.34375,2.5c-0.317078,2.295532 -0.998047,2.597015 -8.34375,3.8125c-5.162109,0.854156 -8.542175,0.985779 -9.53125,0.375c-2.506714,-1.548004 -7.96875,-2.467041 -7.96875,-1.34375c0,0.55545 0.787476,1.222748 1.75,1.46875c0.962463,0.245972 -0.5,0.241638 -3.25,0c-4.020264,-0.353271 -4.755066,-0.201965 -3.75,0.8125c1.912048,1.929901 1.483459,2.647552 -1.25,2.125c-3.232178,-0.617889 -7.769165,0.536713 -7,1.78125c0.329956,0.533875 1.624146,0.96875 2.875,0.96875c4.274536,0 3.674011,1.376312 -1.53125,3.46875c-8.872437,3.566559 -6.936462,6.219116 2.1875,3c4.618103,-1.629364 6.424072,-1.347015 3.03125,0.46875c-1.147095,0.613922 -2.0625,1.822235 -2.0625,2.6875c0,1.206146 0.605652,1.420898 2.65625,0.90625c2.359985,-0.592346 2.53717,-0.494141 1.375,0.90625c-2.694641,3.246857 0.162964,3.254272 4.625,0c2.082886,-1.519104 2.166992,-1.504974 1.59375,0.71875c-0.537659,2.085449 -0.429504,2.186981 1.09375,0.9375c1.503845,-1.233612 1.605469,-1.17691 1,0.5c-0.597778,1.655273 -0.361633,1.602051 1.8125,-0.375c2.547424,-2.316528 4.114075,-2.121094 3.15625,0.375c-0.763977,1.990784 1.633057,1.725891 5.4375,-0.59375c1.811096,-1.104279 3.25,-1.484497 3.25,-0.875c0,0.677277 1.046997,0.854034 2.75,0.46875c1.860779,-0.42099 2.264954,-0.33139 1.25,0.28125c-0.825012,0.497955 -3.974976,1.407043 -7,2.03125c-6.512573,1.343811 -8.535034,2.438324 -7.53125,4.0625c0.689392,1.115509 2.033936,0.994324 8.03125,-0.625c1.531799,-0.413605 1.239258,0.221375 -1.25,2.625c-1.787537,1.725983 -3.25,3.347321 -3.25,3.625c0,0.993622 5.559998,-0.240692 8.75,-1.9375c3.505249,-1.864532 4.044678,-1.293915 1.71875,1.78125c-2.031006,2.685211 -1.835876,3.868988 0.53125,3.25c1.299866,-0.339935 2,-0.007813 2,0.90625c0,1.870483 0.915527,1.76889 3.25,-0.34375c1.845764,-1.67041 1.928894,-1.659607 1.59375,0.25c-0.535522,3.051178 5.012695,2.131226 7.96875,-1.3125l2.3125,-2.6875l-0.65625,3.25c-0.868469,4.300934 1.641785,4.413696 5.53125,0.25c1.541321,-1.649994 2.933105,-3.000397 3.125,-3c0.191833,0.000366 0.417236,1.163879 0.5,2.59375c0.227539,3.932068 1.85675,4.992645 3.9375,2.5625c1.642761,-1.91864 1.878174,-1.955719 3.09375,-0.375c1.20343,1.564941 1.339478,1.541107 1.90625,-0.46875c0.366577,-1.299988 1.158325,-1.967255 1.96875,-1.65625c0.862366,0.330902 1.603638,-0.452606 2.03125,-2.15625c0.463318,-1.846191 0.928772,-2.311096 1.46875,-1.4375c0.432007,0.699036 1.721558,1.417725 2.875,1.59375c1.628723,0.248566 2.584778,-0.664551 4.28125,-4.15625c2.190857,-4.509521 4.502441,-6.249146 3.3125,-2.5c-0.768738,2.422058 -0.19043,2.485931 3.03125,0.375c1.355652,-0.888275 2.498657,-2.575775 2.5625,-3.75c0.092773,-1.708282 0.225891,-1.785034 0.59375,-0.375c0.759766,2.912659 2.311157,0.890686 2.34375,-3.0625c0.024597,-2.992523 0.204834,-3.356323 1.03125,-1.9375c0.560547,0.962494 1.956421,1.75 3.09375,1.75c1.970337,0 2.04718,0.365112 1.40625,7.75c-0.447876,5.160278 -1.497131,9.369537 -3.125,12.59375c-0.953186,1.887817 -1.75354,3.568848 -2.15625,4.5l24.875,0c1.102844,-0.882935 0.606506,-2.433075 -0.53125,-5.15625c-1.773315,-4.244171 -2.457214,-12.910095 -1.0625,-13.375c0.544983,-0.181671 1.772217,1.000977 2.75,2.65625c1.822876,3.085876 4.064209,4.223114 3.03125,1.53125c-1.181152,-3.078003 0.679016,-1.392609 2.03125,1.84375c1.079224,2.582947 1.943481,3.354095 3.75,3.21875c1.295776,-0.097076 3.004333,0.293121 3.78125,0.875c1.012756,0.758514 1.525818,0.72641 1.8125,-0.125c0.265564,-0.788635 1.057007,-0.536713 2.34375,0.75c2.573975,2.574005 3.855469,2.450348 3.25,-0.3125c-0.288208,-1.31485 -0.145264,-1.814484 0.34375,-1.1875c1.152771,1.478149 4.34375,2.553833 4.34375,1.46875c0,-1.009491 5.519775,-0.651978 8.40625,0.53125c1.519165,0.622742 1.80011,0.426971 1.3125,-0.84375c-0.3396,-0.884949 -0.094177,-1.789459 0.5625,-2.03125c0.911804,-0.335785 0.923462,-0.769226 -0.03125,-1.78125c-2.269958,-2.406158 -1.329407,-2.71701 2.40625,-0.8125c4.129517,2.105347 5.281616,1.796356 3.28125,-0.84375c-1.07019,-1.412415 -1.085022,-1.526672 -0.03125,-0.59375c0.727966,0.644501 1.929504,0.947113 2.6875,0.65625c0.757935,-0.290863 1.40625,-0.128723 1.40625,0.375c0,0.503723 0.609497,1.765656 1.375,2.8125c1.199158,1.639984 1.638672,1.712921 3.0625,0.53125c1.435364,-1.191284 1.838989,-1.045746 3.25,0.96875l1.625,2.3125l0.90625,-2.40625c0.835144,-2.235931 0.989441,-2.279846 2.1875,-0.65625c1.582886,2.145142 2.290344,2.178375 4.25,0.21875c1.218933,-1.218994 1.287231,-1.825531 0.3125,-3c-0.671997,-0.809692 -0.924194,-1.46875 -0.5625,-1.46875c0.361694,0 0.138367,-1.012512 -0.5,-2.25c-0.971436,-1.88324 -0.606506,-1.773407 2.21875,0.78125c6.223206,5.627228 6.633545,5.835175 8.40625,4.0625c0.882935,-0.882965 1.251831,-2.146088 0.84375,-2.84375c-0.417847,-0.714325 0.095886,-0.595215 1.1875,0.28125c5.286011,4.244293 10.638367,5.07959 7.03125,1.09375c-1.62854,-1.79953 -1.574219,-1.939819 1.03125,-2.59375l2.71875,-0.6875l-2.9375,-2.375c-3.841125,-3.139832 -1.787231,-3.147583 3.71875,0c2.393616,1.368378 4.9375,2.493378 5.625,2.5c2.018311,0.01944 1.435791,-1.575256 -1,-2.75c-2.025085,-0.976654 -1.871887,-1.095337 1.78125,-1.15625c2.232361,-0.037231 4.932312,-0.723724 6,-1.53125c1.846802,-1.396851 1.822937,-1.468475 -1.03125,-1.5c-4.28302,-0.047363 -19.515503,-2.820557 -22.6875,-4.125c-3.886353,-1.598206 -4.622864,-4.043793 -0.78125,-2.59375c3.370483,1.272217 5.075073,0.220673 2.59375,-1.59375c-1.440247,-1.053131 -0.976074,-1.178802 2.84375,-0.875c4.87616,0.387817 5.9151,-0.84137 2.28125,-2.6875c-1.946777,-0.989044 -1.616638,-1.114136 2.625,-0.90625c5.72345,0.280518 7.33667,-1.60083 2.40625,-2.8125l-3.28125,-0.8125l3.25,-0.375c3.805786,-0.454224 4.141602,-1.483063 1,-3.09375c-1.838013,-0.942352 -1.059753,-1.070465 4.25,-0.625c5.984863,0.502075 6.318481,0.42215 4.53125,-1c-1.067627,-0.849518 -2.725098,-1.53125 -3.6875,-1.53125c-0.962463,0 -2.036987,-0.496307 -2.40625,-1.09375c-0.420654,-0.680664 0.207275,-1.029663 1.6875,-0.90625c4.178284,0.348389 6.875,0.018463 6.875,-0.875c0,-0.478943 -3.170105,-1.182007 -7.03125,-1.5625c-3.861206,-0.380463 -6.805908,-1.055603 -6.53125,-1.5c0.274597,-0.444397 3.156372,-1.404022 6.40625,-2.125c6.130005,-1.359955 10.010437,-3.395721 8.78125,-4.625c-0.628174,-0.628174 -6.192749,0.278534 -13.625,2.25c-2.283752,0.605774 -2.225647,0.417694 0.90625,-2.28125c5.153503,-4.441162 2.244934,-4.897888 -5.1875,-0.8125c-7.46283,4.102051 -11.73584,4.437012 -20,1.59375c-9.377563,-3.226349 -24.58667,-10.947174 -25.71875,-13.0625c-1.401917,-2.619446 -0.605164,-2.541748 1.9375,0.1875c1.121399,1.203705 2.0625,1.821045 2.0625,1.375c0,-0.446075 0.674988,-0.247192 1.5,0.4375c1.239319,1.028564 1.5,0.932587 1.5,-0.5625c0,-1.506561 0.511841,-1.320313 3.125,1.125l3.125,2.9375l-0.59375,-3.21875c-0.598816,-3.173462 -0.558594,-3.2052 2.125,-2.0625c1.494751,0.636475 3.393738,1.67749 4.21875,2.3125c3.877502,2.984497 4.327454,2.918457 3.625,-0.59375c-0.530701,-2.653259 -0.427124,-3.114563 0.53125,-2.15625c1.740112,1.740143 5.84375,1.542999 5.84375,-0.28125c0,-1.863464 1.614807,-1.957153 2.6875,-0.15625c0.439819,0.738403 2.049988,2.118896 3.5625,3.09375c2.268311,1.461975 2.75,1.516785 2.75,0.3125c0,-0.803009 -0.900024,-2.254517 -2,-3.25c-1.100037,-0.995483 -2,-2.287354 -2,-2.84375c0,-0.556427 0.253235,-0.715454 0.59375,-0.375c0.340454,0.340485 1.329407,-0.079468 2.1875,-0.9375c1.082458,-1.082489 2.707703,-1.411865 5.3125,-1.0625c2.591125,0.347534 3.926025,0.081909 4.28125,-0.84375c0.392029,-1.021637 1.301758,-1.126312 3.8125,-0.40625c8.81958,2.529419 10.442932,-0.353943 1.9375,-3.4375c-5.75,-2.084625 -6.477295,-3.137756 -1.09375,-1.59375c6.841858,1.962219 15.741638,0.476746 11.96875,-2c-0.825012,-0.541595 -3.525024,-1.051514 -6,-1.125c-3.821045,-0.113464 -4.071045,-0.213654 -1.59375,-0.75c1.604614,-0.347443 3.118347,-1.26004 3.375,-2.03125c0.389771,-1.171539 -1.188232,-1.304138 -9.6875,-0.71875c-10.007751,0.68927 -10.168091,0.68924 -8.9375,-1.28125c1.831482,-2.932739 0.57312,-3.440582 -4.40625,-1.75c-2.692139,0.914001 -6.147461,1.297852 -8.84375,0.96875c-5.780884,-0.705566 -24.90863,-7.115082 -27.15625,-9.09375c-2.349243,-2.068146 -2.216919,-3.501709 0.25,-2.71875c1.12146,0.355927 2,0.174652 2,-0.40625c0,-1.084503 1.497864,-0.772675 6.5,1.40625c1.649963,0.718719 5.271667,1.328583 8.0625,1.34375c2.790771,0.015137 5.490723,0.121368 6,0.21875c2.340759,0.447601 2.587463,-0.23587 0.84375,-2.3125c-1.253845,-1.493134 -0.860596,-1.324951 1.15625,0.5c3.458923,3.129913 4.4375,3.390564 4.4375,1.21875c0,-1.320007 0.321838,-1.31189 2.5625,0.15625c1.508911,0.988678 2.862061,1.299377 3.25,0.75c0.36554,-0.5177 2.011719,-1.52536 3.65625,-2.25c2.870605,-1.264954 2.916504,-1.363037 1.0625,-2.71875c-2.264038,-1.655487 -1.687988,-1.792145 1.875,-0.4375c1.936279,0.736176 2.59375,0.666595 2.59375,-0.3125c0,-0.790588 2.538147,-1.829498 6.5,-2.65625c3.574951,-0.746033 6.5,-1.765564 6.5,-2.25c0,-0.484436 0.423096,-0.58725 0.96875,-0.25c0.545593,0.337219 1.790894,0.161713 2.75,-0.375c1.524475,-0.853149 1.387268,-1.080505 -1.03125,-1.6875c-2.085571,-0.523468 -2.620239,-1.136475 -2.1875,-2.5c0.424622,-1.338013 -0.022095,-1.875061 -1.71875,-2.125c-1.619324,-0.238556 -0.469177,-0.940582 3.9375,-2.34375c6.828918,-2.174438 8.516235,-4.142456 2.53125,-2.96875c-5.526245,1.08371 -19.25,1.330261 -19.25,0.34375c0,-0.468292 0.450012,-0.84375 1,-0.84375c0.549988,0 1,-0.454773 1,-1c0,-0.545227 -2.137512,-0.959473 -4.75,-0.90625c-6.561462,0.133636 -17.050842,-2.059692 -17.6875,-3.71875c-0.358276,-0.933563 0.288208,-1.375 1.96875,-1.375c1.357727,0 2.46875,-0.436035 2.46875,-0.96875c0,-0.532745 0.674988,-0.722839 1.5,-0.40625c0.824951,0.316589 1.5,0.046295 1.5,-0.59375c0,-0.767029 0.753784,-0.619843 2.21875,0.40625c1.222351,0.856171 3.359802,1.54953 4.75,1.53125l2.53125,-0.03125l-2.3125,-1.9375l-2.28125,-1.90625l4.78125,-0.3125l4.8125,-0.34375l-3.5,-1.6875l-3.5,-1.6875l3.0625,-0.03125c1.951599,-0.024841 3.947205,-0.944916 5.4375,-2.53125c1.291748,-1.375 2.809387,-2.5 3.40625,-2.5c0.596802,0 1.680237,-0.918793 2.375,-2.03125c1.828308,-2.927643 -0.500488,-3.514526 -6.25,-1.5625c-6.200378,2.105072 -7.485291,2.046844 -6.84375,-0.40625c0.631714,-2.41568 0.467163,-2.428986 -5.8125,-0.375c-4.777039,1.562469 -5.273865,1.516937 -12.90625,-0.65625c-10.293091,-2.930817 -12.931458,-5.676147 -5,-5.21875c0.816956,0.047119 1.800537,-0.405151 2.1875,-1.03125c0.492126,-0.796387 1.320557,-0.60907 2.71875,0.65625c1.567078,1.418213 2.877014,1.663177 6.0625,1.125c4.544495,-0.767792 4.825928,-1.147888 2.3125,-3.21875c-1.798218,-1.481628 -1.13446,-1.435242 3.15625,0.28125c1.536377,0.614624 1.794128,0.43045 1.28125,-0.90625c-0.473389,-1.233551 -0.092346,-1.65625 1.4375,-1.65625c1.392578,0 1.900818,-0.474426 1.53125,-1.4375c-0.302979,-0.78949 -0.031677,-1.66153 0.625,-1.9375c0.838135,-0.352295 0.724182,-0.924835 -0.4375,-1.875c-1.518311,-1.241821 -1.456543,-1.532593 0.75,-3.656265c3.602356,-3.467163 2.933289,-4.192429 -2.34375,-2.5c-13.123474,4.208939 -17.935181,4.459915 -21.15625,1.03125c-1.825439,-1.943039 -1.932129,-2.471878 -0.71875,-2.9375c0.814697,-0.312637 2.830872,-0.06752 4.5,0.5625c4.274048,1.613281 5.187622,0.005081 1.625,-2.875c-2.498169,-2.019516 -2.665466,-2.394318 -1,-2.25c3.497864,0.303131 5.5,-0.094589 5.5,-1.125c0,-0.549988 -0.787537,-1.027618 -1.75,-1.0625c-1.417175,-0.051315 -1.365723,-0.246765 0.34375,-0.9375c1.16095,-0.469101 2.379639,-1.553741 2.71875,-2.4375c0.533813,-1.391159 0.334778,-1.45433 -1.59375,-0.375c-3.488037,1.952164 -24.328674,1.654114 -28.71875,-0.40625c-3.068848,-1.440277 -3.231384,-1.647202 -1.15625,-1.71875c1.894348,-0.065277 2.281677,-0.481659 1.84375,-2.15625c-0.490784,-1.876526 -0.382385,-1.947952 1.125,-0.65625c2.191162,1.877731 5.1875,2.926224 5.1875,1.8125c0,-0.481232 0.899963,-0.662659 2,-0.375c1.118164,0.292419 2,0.030563 2,-0.59375c0,-0.614136 1.125,-1.09375 2.5,-1.09375c3.323853,0 3.159119,-0.994629 -0.6875,-4.15625l-3.21875,-2.625l5.34375,0.84375c5.51123,0.871216 7.51709,0.508804 6.46875,-1.1875c-1.024292,-1.657288 1.662659,-3.875 4.6875,-3.875c3.407349,0 3.878235,-1.65126 0.65625,-2.34375c-1.278137,-0.274673 -0.738159,-0.450104 1.25,-0.375c2.275208,0.085953 3.412537,-0.270584 3.25,-1.0625c-0.137512,-0.669998 0.226379,-1.21875 0.84375,-1.21875c0.755005,0 0.71698,-0.510269 -0.15625,-1.5625c-0.827942,-0.997589 -2.233337,-1.397049 -3.875,-1.0625c-1.415833,0.288544 -2,0.299026 -1.3125,0c2.308411,-1.003967 1.286194,-2.605316 -1.25,-1.96875c-2.027954,0.508987 -2.339966,0.312012 -1.8125,-1.0625c0.47168,-1.229279 0.266235,-1.45253 -0.71875,-0.84375c-0.738831,0.456635 -2.489136,0.913895 -3.90625,1.03125c-1.417175,0.117355 -3.6875,0.525055 -5.0625,0.90625l-2.5,0.6875l2.75,-2.34375c3.177673,-2.727249 3.638855,-4.325119 0.8125,-2.8125c-2.788818,1.492508 -4.83606,1.367294 -3.28125,-0.1875c2.244446,-2.244476 1.358948,-4.014465 -0.9375,-1.875c-1.174316,1.094009 -3.531433,2.653275 -5.25,3.46875c-6.109497,2.899155 -22.59375,-1.048035 -22.59375,-5.40625c0,-0.871399 -0.558777,-2.121246 -1.21875,-2.78125c-0.802856,-0.802811 -0.825012,-1.1875 -0.09375,-1.1875c0.601135,0 1.339294,0.674011 1.65625,1.5c0.36554,0.952591 1.794067,1.451141 3.875,1.375c1.804382,-0.06601 4.293762,0.220856 5.53125,0.625c1.848389,0.603699 2.25,0.336105 2.25,-1.375l0,-2.0625l3.40625,2c2.448547,1.444702 3.611084,1.706512 4.125,0.875c0.39386,-0.637268 0.101685,-1.583771 -0.65625,-2.09375c-1.187439,-0.798889 4.649963,-0.692322 8.625,0.15625c0.549988,0.117416 2.021729,-0.126862 3.28125,-0.53125c2.112671,-0.678314 2.15094,-0.882828 0.6875,-2.5c-1.467896,-1.622009 -1.387573,-1.783615 0.96875,-2.375c2.889038,-0.725098 3.464966,-2.596924 0.8125,-2.65625c-1.1026,-0.024658 -0.640137,-0.538605 1.25,-1.40625c1.649963,-0.757416 4.322876,-2.471802 5.9375,-3.8125l2.90625,-2.4375l-3.65625,-0.6875c-2.0271,-0.38028 -3.6875,-1.120682 -3.6875,-1.65625c0,-0.561615 -1.163879,-0.70755 -2.75,-0.3125c-2.400574,0.5979 -2.613464,0.508499 -1.5,-0.84375c1.930786,-2.344955 -0.945496,-3.060577 -3.90625,-0.96875c-1.385742,0.97905 -4.393066,1.707138 -7.28125,1.75c-3.939087,0.058502 -4.500366,-0.13913 -2.78125,-0.90625c1.944397,-0.86763 2.136719,-1.682785 1.28125,-5.5c-0.040894,-0.182358 -1.585083,0.605133 -3.4375,1.75c-1.852417,1.144867 -4.889954,2.068451 -6.75,2.0625c-6.234741,-0.019958 -16.966003,-4.174011 -23.78125,-9.21875c-2.624146,-1.942398 -2.068237,-2.34407 0.96875,-0.71875c1.574341,0.84259 1.94397,0.703064 1.96875,-0.75c0.028992,-1.704529 0.078003,-1.72226 1.0625,-0.03125c0.567078,0.974075 1.436829,1.528183 1.9375,1.21875c0.500671,-0.309418 2.046936,0.182648 3.4375,1.09375c2.500977,1.638702 2.516113,1.615372 2.53125,-1.21875c0.008423,-1.57576 0.345886,-2.355164 0.75,-1.75c0.875183,1.310715 4.653076,3.40625 6.15625,3.40625c0.586121,0 1.13269,-1.012497 1.1875,-2.25c0.094604,-2.135742 0.121155,-2.123047 0.78125,0.25c0.382446,1.375 0.906006,2.292953 1.15625,2.0625c0.250183,-0.230438 1.391418,0.077499 2.53125,0.6875c1.689697,0.904312 2.328796,0.756958 3.4375,-0.78125c0.747864,-1.037598 1.746887,-1.635376 2.21875,-1.34375c0.471863,0.291641 0.546631,-0.631409 0.1875,-2.0625c-0.625122,-2.49054 -0.540039,-2.563873 2.09375,-1.5625c3.251038,1.236053 4.261902,0.622986 2.5,-1.5c-1.052673,-1.268326 -0.947815,-1.5 0.53125,-1.5c1.683105,0 1.660095,-0.106354 0.03125,-1.90625c-0.946106,-1.045395 -1.293579,-2.1521 -0.78125,-2.46875c0.512268,-0.31662 1.716797,0.302444 2.6875,1.375c1.524048,1.684052 2.503357,1.834961 6.375,1.0625c0.204834,-0.040863 -0.106201,-0.668137 -0.71875,-1.40625c-1.301331,-1.567978 -0.530579,-2.65625 1.90625,-2.65625c0.947388,0 2.795288,-0.887039 4.09375,-1.96875l2.375,-1.96875l-3,-0.1875c-1.650024,-0.103821 -4.102722,-0.090347 -5.4375,0.03125c-2.112549,0.192474 -2.273499,0.00882 -1.125,-1.375c2.186646,-2.63475 0.647156,-2.626968 -3.21875,0c-4.192017,2.848541 -6.716614,3.344803 -4.71875,0.9375c1.056763,-1.273346 0.997498,-1.432907 -0.375,-0.90625c-1.908142,0.732224 -2.186279,-0.626251 -0.46875,-2.34375c2.561279,-2.56131 -0.155518,-2.176971 -3.3125,0.46875c-6.215576,5.208939 -6.97876,5.374344 -14,3.25c-7.361328,-2.227188 -12.297607,-5.009003 -13.78125,-7.78125c-0.908142,-1.696808 -0.701172,-1.937012 1.46875,-1.8125c1.368896,0.078568 2.699951,0.842056 2.96875,1.6875c0.268799,0.845459 1.437317,1.600403 2.59375,1.6875c1.687317,0.127106 1.983276,-0.271439 1.53125,-2c-0.501404,-1.917206 -0.290222,-1.848206 1.78125,0.5625c1.279968,1.489594 3.320251,2.71875 4.5625,2.71875c1.960632,0 2.192627,-0.380539 1.6875,-2.90625c-0.756958,-3.78476 1.589966,-4.829758 4.03125,-1.78125c1.667847,2.082733 7.29248,3.545563 7.3125,1.90625c0.004944,-0.406326 -1.457581,-1.939789 -3.25,-3.4375c-2.485474,-2.076721 -2.827332,-2.729477 -1.46875,-2.749985c0.979736,-0.014801 2.028381,0.615662 2.34375,1.4375c0.315369,0.821838 0.951843,1.280807 1.40625,0.999985c0.454346,-0.280807 1.092041,-0.05896 1.4375,0.5c0.345459,0.558975 1.833496,1.03125 3.28125,1.03125c2.519592,0 2.545593,-0.073105 0.6875,-1.4375c-1.872253,-1.374695 -1.84021,-1.463425 0.875,-2.499985c1.548279,-0.591095 3.348267,-1.074265 4,-1.09375c0.651672,-0.019485 0.0625,-0.675095 -1.3125,-1.4375c-2.437622,-1.351608 -2.412231,-1.381226 1.375,-1.03125c2.45343,0.2267 4.409424,-0.159485 5.3125,-1.0625c2.198242,-2.198303 0.639893,-3.4375 -4.3125,-3.4375c-2.766418,0 -4.25769,-0.41217 -3.875,-1.03125c1.259766,-2.038391 -2.432129,-2.073212 -6.59375,-0.0625c-5.100403,2.464233 -6.046997,2.589203 -5.28125,0.59375c0.361511,-0.942215 -0.010315,-1.5 -1,-1.5c-0.989685,0 -1.361572,-0.5578 -1,-1.5c0.673157,-1.754257 0.325562,-1.815002 -2.96875,-0.5625c-2.142822,0.814682 -2.378906,0.687866 -1.9375,-1c0.525391,-2.009224 -1.153259,-2.712067 -2.25,-0.937508c-0.344788,0.557861 -2.462402,1.973885 -4.71875,3.125008c-3.627014,1.850342 -4.56427,1.941833 -8.125,0.875c-3.320007,-0.99472 -3.743469,-1.372955 -2.34375,-2.15625c0.933838,-0.522644 1.71875,-1.629547 1.71875,-2.468758c0,-1.183723 -1.024902,-1.46563 -4.53125,-1.25c-3.411194,0.20977 -4.98053,-0.213989 -6.4375,-1.6875c-2.194519,-2.219391 -4.316528,-10.147728 -2.9375,-10.999992c0.852661,-0.527 1.330078,1.603676 0.96875,4.343742c-0.092529,0.701668 0.787659,2.62262 1.96875,4.28125c1.713867,2.406929 2.443176,2.77269 3.5625,1.84375c0.771301,-0.640137 1.436157,-2.33609 1.5,-3.78125c0.091736,-2.077721 0.239685,-2.206482 0.625,-0.625c0.756958,3.107292 3.352356,5.5 5.96875,5.5c2.043335,0 2.232422,-0.276978 1.34375,-1.9375c-1.306274,-2.440811 -1.314941,-3.355873 -0.03125,-2.5625c0.549988,0.33992 1,0.144966 1,-0.4375c0,-0.582458 0.450012,-1.0625 1,-1.0625c0.549988,0 1,0.630127 1,1.40625c0,1.79319 5.842712,6.785118 7.0625,6.03125c0.503418,-0.311142 0.9375,-1.432457 0.9375,-2.5c0,-1.067543 0.448792,-1.9375 1.03125,-1.9375c0.582458,0 0.792664,-0.5625 0.4375,-1.25c-0.355225,-0.687508 0.187439,-0.231033 1.21875,1.03125c1.03125,1.262283 2.21936,1.968117 2.625,1.5625c0.405579,-0.405609 1.714172,-0.892151 2.9375,-1.0625c2.708313,-0.377151 6.75,-2.370377 6.75,-3.34375c0,-0.390327 -1.338318,-1.262138 -2.96875,-1.9375c-1.630493,-0.675362 -2.867981,-1.746117 -2.75,-2.374992c0.119507,-0.63736 -1.151733,-1.194244 -2.84375,-1.25c-3.498352,-0.11525 -8.589722,-2.490944 -6.6875,-3.125c0.686035,-0.228691 1.25,-1.06459 1.25,-1.84375c0,-1.585861 -5.000244,-1.990921 -6.5625,-0.53125c-1.511536,1.412239 -5.4375,2.33622 -5.4375,1.28125c0,-0.527451 1.138916,-1.236481 2.5625,-1.59375c2.132507,-0.53524 2.372498,-0.923035 1.375,-2.125c-0.987122,-1.189384 -0.839172,-1.442825 0.6875,-1.46875c2.227539,-0.037834 5.989624,-2.697861 5.09375,-3.59375c-0.345215,-0.345184 -2.685303,-0.842964 -5.1875,-1.125c-5.004456,-0.564064 -4.979492,-0.548019 -3.5,-3.3125c0.959412,-1.792694 1.201538,-1.819595 3.40625,-0.375c2.226318,1.458771 2.415344,1.409065 3.03125,-0.53125c0.361877,-1.140251 1.083313,-1.815445 1.59375,-1.5c0.510376,0.315445 0.9375,0.113708 0.9375,-0.46875c0,-0.582466 0.899963,-1.0625 2,-1.0625c1.099976,0 2,-0.640091 2,-1.40625c0,-1.529015 -2.113281,-2.59375 -5.09375,-2.59375c-2.270325,0 -2.575867,-1.835701 -0.4375,-2.65625c0.821838,-0.315376 1.284302,-0.90303 1.03125,-1.3125c-0.253113,-0.40947 0.662354,-1.329926 2.03125,-2.0625c3.370361,-1.803772 2.53656,-3.468758 -1.75,-3.468758l-3.53125,0l2.53125,-3.3125c1.973511,-2.585854 2.236633,-3.55555 1.28125,-4.5c-0.952087,-0.941154 -1.921387,-0.42778 -4.5,2.375c-3.057495,3.32328 -3.375183,3.451111 -4.4375,1.75c-0.630371,-1.009331 -1.593811,-1.8125 -2.125,-1.8125c-1.188843,0 -4.347778,5.595535 -5.03125,8.937508c-0.505249,2.470299 -9.709351,10.355629 -11.09375,9.5c-0.39447,-0.24379 -0.588806,-2.913391 -0.46875,-5.9375c0.120056,-3.024117 -0.176941,-5.500008 -0.65625,-5.500008c-0.47937,0 -0.733215,-1.661385 -0.5625,-3.6875c0.258972,-3.073944 0.762634,-3.818871 3.09375,-4.4375c2.416382,-0.641251 2.724121,-0.49868 2.21875,1.09375c-0.912231,2.87413 1.526978,3.605446 3.46875,1.03125c1.02655,-1.361 1.990479,-1.872124 2.375,-1.25c0.681458,1.10273 4.65625,0.519806 4.65625,-0.6875c0,-0.92939 -4.978027,-5.586433 -5.84375,-5.46875c-0.368225,0.050056 -1.449951,-0.124924 -2.40625,-0.375c-2.821777,-0.7379 -0.98645,-2.143654 2,-1.53125c5.012695,1.027946 9.531067,0.835869 9.96875,-0.4375c0.236267,-0.6875 -0.227783,-1.25 -1.03125,-1.25c-0.803528,0 -2.007874,-0.681053 -2.6875,-1.5c-0.679688,-0.818939 -1.63739,-1.238899 -2.125,-0.9375c-0.487732,0.301407 -0.876587,0.194969 -0.875,-0.25c0.001526,-0.444954 1.353149,-1.712494 3,-2.8125c3.027893,-2.022484 3.859497,-3.5 1.96875,-3.5c-1.821167,0 -8.370544,3.02887 -9.25,4.28125c-0.520447,0.741119 -0.620911,0.356476 -0.25,-0.96875c0.333374,-1.1912 0.174744,-2.42952 -0.34375,-2.75c-1.08844,-0.672684 -5.125,5.759796 -5.125,8.15625c0,0.885231 -0.298157,1.326866 -0.65625,0.96875c-0.358154,-0.358124 -1.280823,0.108551 -2.03125,1.0625c-1.189026,1.511429 -1.289307,1.102455 -0.84375,-3.15625c0.413879,-3.956779 1.353149,-5.887573 5,-10.15625c2.477356,-2.89978 4.53125,-5.920235 4.53125,-6.718742c0,-2.403069 -5.024841,-0.82299 -6.0625,1.90625c-1.651062,4.342567 -3.468079,2.836998 -3.09375,-2.5625c0.273071,-3.940071 -0.082031,-5.428337 -1.75,-7.21875l-2.09375,-2.21875zm-6.78125,35.093742c0.457031,0.027321 1.543701,0.895157 2.78125,2.28125c2.056091,2.30304 3,4.380867 3,6.65625c0,1.825943 -0.190125,3.343758 -0.40625,3.343758c-0.537781,0 -1.826538,-3.09864 -2.28125,-5.468758c-0.205505,-1.071213 -1.031921,-2.66539 -1.84375,-3.5625c-0.81189,-0.897079 -1.46875,-2.256744 -1.46875,-3c0,-0.185814 0.066406,-0.259094 0.21875,-0.25zm-2.4375,14.687508c1.902649,0.139549 6.517639,3.32383 7.25,5.25c1.302673,3.426315 0.562378,4.065216 -1.6875,1.4375c-0.986633,-1.15229 -2.347839,-2.09375 -3.03125,-2.09375c-1.157898,0 -3.888428,-3.867081 -3.15625,-4.46875c0.141357,-0.116211 0.353149,-0.144936 0.625,-0.125zm27.3125,8.15625c0.240479,0.001381 0.532715,0.043671 0.84375,0.125c1.649414,0.431335 1.26239,1.025246 -2.59375,3.96875c-2.498779,1.907341 -5.423767,3.54628 -6.46875,3.625c-1.045044,0.07872 -1.875,0.473289 -1.875,0.90625c0,0.432961 -0.505554,0.8125 -1.09375,0.8125c-0.588257,0 -0.925781,-1.01268 -0.75,-2.25c0.27655,-1.947166 0.848022,-2.219925 4.09375,-1.9375c2.88562,0.251076 3.75,-0.036789 3.75,-1.25c0,-0.867134 0.674988,-1.5625 1.5,-1.5625c0.824951,0 1.5,-0.632751 1.5,-1.40625c0,-0.67527 0.372253,-1.0354 1.09375,-1.03125zm-11.59375,14.3125l2.34375,1.15625c1.288696,0.627815 3.426208,0.86348 4.75,0.53125c1.363098,-0.34211 2.40625,-0.170876 2.40625,0.40625c0,0.560486 -0.432495,1.03125 -0.9375,1.03125c-0.505066,0 -1.564453,0.232185 -2.34375,0.53125c-0.779358,0.299049 -2.484375,-0.407394 -3.8125,-1.5625l-2.40625,-2.09375zm10.96875,2.46875c0.226929,0.033455 0.561279,0.266235 1.03125,0.65625c1.117798,0.927689 1.5,0.942924 1.5,0.0625c0,-0.649811 0.491638,-0.860161 1.125,-0.46875c0.797852,0.493111 0.589233,1.128914 -0.6875,2.0625c-2.575684,1.883369 -3.4375,1.679039 -3.4375,-0.78125c0,-1.108276 0.090454,-1.587021 0.46875,-1.53125zm15.0625,3.65625c0.857422,0 1.308655,0.449989 0.96875,1c-0.799683,1.2939 -2.5,1.2939 -2.5,0c0,-0.550011 0.673767,-1 1.53125,-1zm-23.53125,16c0.549988,0 1,2.25 1,5c0,5.069916 -0.150879,5.505432 -1.34375,4.3125c-1.06488,-1.064865 -0.759155,-9.3125 0.34375,-9.3125zm-7.625,13.34375c0.358582,-0.060303 0.625,0.156891 0.625,0.59375c0,0.582458 -0.450012,1.0625 -1,1.0625c-1.281433,0 -1.281372,-0.708069 0,-1.5c0.137451,-0.084991 0.255432,-0.136154 0.375,-0.15625zm8.0625,2.124985c0.057617,-0.005188 0.150269,0.08075 0.21875,0.25c0.273926,0.677032 0.28479,2.027023 0.03125,3c-0.25354,0.972977 -0.479614,0.431259 -0.5,-1.21875c-0.01532,-1.237488 0.077026,-2.015625 0.25,-2.03125zm-12.4375,0.53125c0.549988,0 1,0.194962 1,0.4375c0,0.242554 -0.450012,0.72258 -1,1.0625c-0.550049,0.33992 -1,0.144974 -1,-0.4375c0,-0.582458 0.450012,-1.0625 1,-1.0625zm-5,2c0.549988,0 1,0.194962 1,0.4375c0,0.242554 -0.450012,0.72258 -1,1.0625c-0.550049,0.33992 -1,0.144958 -1,-0.4375c0,-0.582458 0.450012,-1.0625 1,-1.0625zm-20.8125,0.03125c0.683716,0.06723 1.532654,0.51857 2.1875,1.34375c2.027222,2.554581 5.387756,2.893738 7.25,0.71875c1.647644,-1.924316 3.997986,-1.949387 2.8125,-0.03125c-0.316467,0.511993 0.112488,0.9375 0.9375,0.9375c0.825012,0 1.785095,-0.449997 2.125,-1c0.807007,-1.30574 2.5,-1.313736 2.5,0c0,0.563614 -1.237488,1.513062 -2.75,2.09375c-1.512512,0.580688 -5.322205,1.279739 -8.4375,1.5625c-4.962341,0.450424 -5.798645,0.277512 -6.75,-1.5c-0.597229,-1.115906 -1.0625,-2.507584 -1.0625,-3.09375c0,-0.760788 0.503784,-1.098465 1.1875,-1.03125zm91.75,52.96875c0.582458,0 1.0625,0.450012 1.0625,1c0,1.281387 -0.708069,1.281387 -1.5,0c-0.339966,-0.549988 -0.144958,-1 0.4375,-1zm-83.59375,12c0.612183,0 -0.572632,0.900009 -2.625,2c-3.631836,1.946548 -5.71875,2.488785 -5.71875,1.5c0,-0.620789 6.867065,-3.5 8.34375,-3.5zm86.34375,42.71875c1.101685,-0.006546 2.197449,0.109634 2.875,0.375c1.366272,0.53511 0.694153,0.762787 -2.3125,0.8125c-2.337524,0.038666 -4.25,-0.101608 -4.25,-0.3125c0,-0.530548 1.851257,-0.86409 3.6875,-0.875zm22.375,5.406265c0.347351,-0.014313 0.764038,0.04306 1.125,0.1875c0.797729,0.319214 0.539917,0.545746 -0.625,0.59375c-1.054199,0.043396 -1.644775,-0.198975 -1.3125,-0.53125c0.166138,-0.166138 0.465088,-0.235718 0.8125,-0.25zm0.25,24.90625c0.044861,-0.01297 0.118713,0 0.1875,0c0.549988,0 1.674988,0.435577 2.5,0.96875c0.824951,0.533142 1.049988,0.968719 0.5,0.96875c-0.550049,0 -1.674988,-0.435577 -2.5,-0.96875c-0.721924,-0.466522 -1.001648,-0.877991 -0.6875,-0.96875zm-174.1875,40.40625c0.471924,-0.070343 0.606506,0.137329 0.34375,0.5625c-0.33606,0.543701 -1.013733,1 -1.53125,1c-1.438416,0 -1.138672,-0.741455 0.59375,-1.40625c0.222473,-0.085388 0.436462,-0.132813 0.59375,-0.15625zm16.15625,8.59375l2.28125,2.4375l2.25,2.4375l1.71875,-2.625c1.563782,-2.386627 1.780212,-2.433777 2.6875,-0.8125c0.74469,1.330688 1.200806,1.439178 1.78125,0.5c0.550293,-0.890472 0.956238,-0.641296 1.4375,0.875c0.683411,2.153229 2.5625,3.005127 2.5625,1.15625c0,-0.550018 1.237488,-1.003387 2.75,-1l2.75,0l-3,1.59375c-1.933716,1.019531 -4.522278,1.392181 -7.25,1.09375c-2.327515,-0.254669 -3.984985,-0.043793 -3.6875,0.4375c0.788452,1.275787 -0.703674,1.043091 -3.78125,-0.5625c-1.570801,-0.819519 -2.811646,-1.002594 -3,-0.4375c-0.177795,0.533386 -1.143188,0.65799 -2.125,0.28125c-1.65918,-0.636688 -1.61554,-0.845947 0.4375,-3.03125l2.1875,-2.34375zm23.25,1.09375c0.210449,-0.001404 0.413391,0.00238 0.59375,0.0625c0.748962,0.249634 0.289734,0.708893 -1.0625,1.0625c-1.663391,0.434967 -2.054565,0.304565 -1.3125,-0.4375c0.435791,-0.435852 1.149902,-0.68335 1.78125,-0.6875zm-10.15625,41.21875c0.358582,-0.060303 0.625,0.156891 0.625,0.59375c0,0.582458 -0.450012,1.0625 -1,1.0625c-1.281372,0 -1.281372,-0.708069 0,-1.5c0.137512,-0.084991 0.255432,-0.136169 0.375,-0.15625z"/>
  </g>
 </g>
</svg>